<?xml version="1.0" encoding="utf-8" standalone="no"?>
<!DOCTYPE svg PUBLIC "-//W3C//DTD SVG 1.1//EN"
  "http://www.w3.org/Graphics/SVG/1.1/DTD/svg11.dtd">
<!-- Created with matplotlib (https://matplotlib.org/) -->
<svg height="345.6pt" version="1.1" viewBox="0 0 460.8 345.6" width="460.8pt" xmlns="http://www.w3.org/2000/svg" xmlns:xlink="http://www.w3.org/1999/xlink">
 <metadata>
  <rdf:RDF xmlns:cc="http://creativecommons.org/ns#" xmlns:dc="http://purl.org/dc/elements/1.1/" xmlns:rdf="http://www.w3.org/1999/02/22-rdf-syntax-ns#">
   <cc:Work>
    <dc:type rdf:resource="http://purl.org/dc/dcmitype/StillImage"/>
    <dc:date>2022-05-24T18:26:29.478339</dc:date>
    <dc:format>image/svg+xml</dc:format>
    <dc:creator>
     <cc:Agent>
      <dc:title>Matplotlib v3.3.4, https://matplotlib.org/</dc:title>
     </cc:Agent>
    </dc:creator>
   </cc:Work>
  </rdf:RDF>
 </metadata>
 <defs>
  <style type="text/css">*{stroke-linecap:butt;stroke-linejoin:round;}</style>
 </defs>
 <g id="figure_1">
  <g id="patch_1">
   <path d="M 0 345.6 
L 460.8 345.6 
L 460.8 0 
L 0 0 
z
" style="fill:#ffffff;"/>
  </g>
  <g id="axes_1">
   <g id="patch_2">
    <path d="M 57.6 307.584 
L 414.72 307.584 
L 414.72 41.472 
L 57.6 41.472 
z
" style="fill:#ffffff;"/>
   </g>
   <g id="matplotlib.axis_1">
    <g id="xtick_1">
     <g id="line2d_1">
      <path clip-path="url(#p5d5b9ac75b)" d="M 73.832727 307.584 
L 73.832727 41.472 
" style="fill:none;stroke:#b0b0b0;stroke-linecap:square;stroke-width:0.8;"/>
     </g>
     <g id="line2d_2">
      <defs>
       <path d="M 0 0 
L 0 3.5 
" id="md638878183" style="stroke:#000000;stroke-width:0.8;"/>
      </defs>
      <g>
       <use style="stroke:#000000;stroke-width:0.8;" x="73.832727" xlink:href="#md638878183" y="307.584"/>
      </g>
     </g>
     <g id="text_1">
      <!-- 0 -->
      <g transform="translate(70.651477 322.182437)scale(0.1 -0.1)">
       <defs>
        <path d="M 31.78125 66.40625 
Q 24.171875 66.40625 20.328125 58.90625 
Q 16.5 51.421875 16.5 36.375 
Q 16.5 21.390625 20.328125 13.890625 
Q 24.171875 6.390625 31.78125 6.390625 
Q 39.453125 6.390625 43.28125 13.890625 
Q 47.125 21.390625 47.125 36.375 
Q 47.125 51.421875 43.28125 58.90625 
Q 39.453125 66.40625 31.78125 66.40625 
z
M 31.78125 74.21875 
Q 44.046875 74.21875 50.515625 64.515625 
Q 56.984375 54.828125 56.984375 36.375 
Q 56.984375 17.96875 50.515625 8.265625 
Q 44.046875 -1.421875 31.78125 -1.421875 
Q 19.53125 -1.421875 13.0625 8.265625 
Q 6.59375 17.96875 6.59375 36.375 
Q 6.59375 54.828125 13.0625 64.515625 
Q 19.53125 74.21875 31.78125 74.21875 
z
" id="DejaVuSans-48"/>
       </defs>
       <use xlink:href="#DejaVuSans-48"/>
      </g>
     </g>
    </g>
    <g id="xtick_2">
     <g id="line2d_3">
      <path clip-path="url(#p5d5b9ac75b)" d="M 128.122785 307.584 
L 128.122785 41.472 
" style="fill:none;stroke:#b0b0b0;stroke-linecap:square;stroke-width:0.8;"/>
     </g>
     <g id="line2d_4">
      <g>
       <use style="stroke:#000000;stroke-width:0.8;" x="128.122785" xlink:href="#md638878183" y="307.584"/>
      </g>
     </g>
     <g id="text_2">
      <!-- 50 -->
      <g transform="translate(121.760285 322.182437)scale(0.1 -0.1)">
       <defs>
        <path d="M 10.796875 72.90625 
L 49.515625 72.90625 
L 49.515625 64.59375 
L 19.828125 64.59375 
L 19.828125 46.734375 
Q 21.96875 47.46875 24.109375 47.828125 
Q 26.265625 48.1875 28.421875 48.1875 
Q 40.625 48.1875 47.75 41.5 
Q 54.890625 34.8125 54.890625 23.390625 
Q 54.890625 11.625 47.5625 5.09375 
Q 40.234375 -1.421875 26.90625 -1.421875 
Q 22.3125 -1.421875 17.546875 -0.640625 
Q 12.796875 0.140625 7.71875 1.703125 
L 7.71875 11.625 
Q 12.109375 9.234375 16.796875 8.0625 
Q 21.484375 6.890625 26.703125 6.890625 
Q 35.15625 6.890625 40.078125 11.328125 
Q 45.015625 15.765625 45.015625 23.390625 
Q 45.015625 31 40.078125 35.4375 
Q 35.15625 39.890625 26.703125 39.890625 
Q 22.75 39.890625 18.8125 39.015625 
Q 14.890625 38.140625 10.796875 36.28125 
z
" id="DejaVuSans-53"/>
       </defs>
       <use xlink:href="#DejaVuSans-53"/>
       <use x="63.623047" xlink:href="#DejaVuSans-48"/>
      </g>
     </g>
    </g>
    <g id="xtick_3">
     <g id="line2d_5">
      <path clip-path="url(#p5d5b9ac75b)" d="M 182.412843 307.584 
L 182.412843 41.472 
" style="fill:none;stroke:#b0b0b0;stroke-linecap:square;stroke-width:0.8;"/>
     </g>
     <g id="line2d_6">
      <g>
       <use style="stroke:#000000;stroke-width:0.8;" x="182.412843" xlink:href="#md638878183" y="307.584"/>
      </g>
     </g>
     <g id="text_3">
      <!-- 100 -->
      <g transform="translate(172.869093 322.182437)scale(0.1 -0.1)">
       <defs>
        <path d="M 12.40625 8.296875 
L 28.515625 8.296875 
L 28.515625 63.921875 
L 10.984375 60.40625 
L 10.984375 69.390625 
L 28.421875 72.90625 
L 38.28125 72.90625 
L 38.28125 8.296875 
L 54.390625 8.296875 
L 54.390625 0 
L 12.40625 0 
z
" id="DejaVuSans-49"/>
       </defs>
       <use xlink:href="#DejaVuSans-49"/>
       <use x="63.623047" xlink:href="#DejaVuSans-48"/>
       <use x="127.246094" xlink:href="#DejaVuSans-48"/>
      </g>
     </g>
    </g>
    <g id="xtick_4">
     <g id="line2d_7">
      <path clip-path="url(#p5d5b9ac75b)" d="M 236.702901 307.584 
L 236.702901 41.472 
" style="fill:none;stroke:#b0b0b0;stroke-linecap:square;stroke-width:0.8;"/>
     </g>
     <g id="line2d_8">
      <g>
       <use style="stroke:#000000;stroke-width:0.8;" x="236.702901" xlink:href="#md638878183" y="307.584"/>
      </g>
     </g>
     <g id="text_4">
      <!-- 150 -->
      <g transform="translate(227.159151 322.182437)scale(0.1 -0.1)">
       <use xlink:href="#DejaVuSans-49"/>
       <use x="63.623047" xlink:href="#DejaVuSans-53"/>
       <use x="127.246094" xlink:href="#DejaVuSans-48"/>
      </g>
     </g>
    </g>
    <g id="xtick_5">
     <g id="line2d_9">
      <path clip-path="url(#p5d5b9ac75b)" d="M 290.992958 307.584 
L 290.992958 41.472 
" style="fill:none;stroke:#b0b0b0;stroke-linecap:square;stroke-width:0.8;"/>
     </g>
     <g id="line2d_10">
      <g>
       <use style="stroke:#000000;stroke-width:0.8;" x="290.992958" xlink:href="#md638878183" y="307.584"/>
      </g>
     </g>
     <g id="text_5">
      <!-- 200 -->
      <g transform="translate(281.449208 322.182437)scale(0.1 -0.1)">
       <defs>
        <path d="M 19.1875 8.296875 
L 53.609375 8.296875 
L 53.609375 0 
L 7.328125 0 
L 7.328125 8.296875 
Q 12.9375 14.109375 22.625 23.890625 
Q 32.328125 33.6875 34.8125 36.53125 
Q 39.546875 41.84375 41.421875 45.53125 
Q 43.3125 49.21875 43.3125 52.78125 
Q 43.3125 58.59375 39.234375 62.25 
Q 35.15625 65.921875 28.609375 65.921875 
Q 23.96875 65.921875 18.8125 64.3125 
Q 13.671875 62.703125 7.8125 59.421875 
L 7.8125 69.390625 
Q 13.765625 71.78125 18.9375 73 
Q 24.125 74.21875 28.421875 74.21875 
Q 39.75 74.21875 46.484375 68.546875 
Q 53.21875 62.890625 53.21875 53.421875 
Q 53.21875 48.921875 51.53125 44.890625 
Q 49.859375 40.875 45.40625 35.40625 
Q 44.1875 33.984375 37.640625 27.21875 
Q 31.109375 20.453125 19.1875 8.296875 
z
" id="DejaVuSans-50"/>
       </defs>
       <use xlink:href="#DejaVuSans-50"/>
       <use x="63.623047" xlink:href="#DejaVuSans-48"/>
       <use x="127.246094" xlink:href="#DejaVuSans-48"/>
      </g>
     </g>
    </g>
    <g id="xtick_6">
     <g id="line2d_11">
      <path clip-path="url(#p5d5b9ac75b)" d="M 345.283016 307.584 
L 345.283016 41.472 
" style="fill:none;stroke:#b0b0b0;stroke-linecap:square;stroke-width:0.8;"/>
     </g>
     <g id="line2d_12">
      <g>
       <use style="stroke:#000000;stroke-width:0.8;" x="345.283016" xlink:href="#md638878183" y="307.584"/>
      </g>
     </g>
     <g id="text_6">
      <!-- 250 -->
      <g transform="translate(335.739266 322.182437)scale(0.1 -0.1)">
       <use xlink:href="#DejaVuSans-50"/>
       <use x="63.623047" xlink:href="#DejaVuSans-53"/>
       <use x="127.246094" xlink:href="#DejaVuSans-48"/>
      </g>
     </g>
    </g>
    <g id="xtick_7">
     <g id="line2d_13">
      <path clip-path="url(#p5d5b9ac75b)" d="M 399.573074 307.584 
L 399.573074 41.472 
" style="fill:none;stroke:#b0b0b0;stroke-linecap:square;stroke-width:0.8;"/>
     </g>
     <g id="line2d_14">
      <g>
       <use style="stroke:#000000;stroke-width:0.8;" x="399.573074" xlink:href="#md638878183" y="307.584"/>
      </g>
     </g>
     <g id="text_7">
      <!-- 300 -->
      <g transform="translate(390.029324 322.182437)scale(0.1 -0.1)">
       <defs>
        <path d="M 40.578125 39.3125 
Q 47.65625 37.796875 51.625 33 
Q 55.609375 28.21875 55.609375 21.1875 
Q 55.609375 10.40625 48.1875 4.484375 
Q 40.765625 -1.421875 27.09375 -1.421875 
Q 22.515625 -1.421875 17.65625 -0.515625 
Q 12.796875 0.390625 7.625 2.203125 
L 7.625 11.71875 
Q 11.71875 9.328125 16.59375 8.109375 
Q 21.484375 6.890625 26.8125 6.890625 
Q 36.078125 6.890625 40.9375 10.546875 
Q 45.796875 14.203125 45.796875 21.1875 
Q 45.796875 27.640625 41.28125 31.265625 
Q 36.765625 34.90625 28.71875 34.90625 
L 20.21875 34.90625 
L 20.21875 43.015625 
L 29.109375 43.015625 
Q 36.375 43.015625 40.234375 45.921875 
Q 44.09375 48.828125 44.09375 54.296875 
Q 44.09375 59.90625 40.109375 62.90625 
Q 36.140625 65.921875 28.71875 65.921875 
Q 24.65625 65.921875 20.015625 65.03125 
Q 15.375 64.15625 9.8125 62.3125 
L 9.8125 71.09375 
Q 15.4375 72.65625 20.34375 73.4375 
Q 25.25 74.21875 29.59375 74.21875 
Q 40.828125 74.21875 47.359375 69.109375 
Q 53.90625 64.015625 53.90625 55.328125 
Q 53.90625 49.265625 50.4375 45.09375 
Q 46.96875 40.921875 40.578125 39.3125 
z
" id="DejaVuSans-51"/>
       </defs>
       <use xlink:href="#DejaVuSans-51"/>
       <use x="63.623047" xlink:href="#DejaVuSans-48"/>
       <use x="127.246094" xlink:href="#DejaVuSans-48"/>
      </g>
     </g>
    </g>
    <g id="text_8">
     <!-- Generations -->
     <g transform="translate(205.662344 335.860562)scale(0.1 -0.1)">
      <defs>
       <path d="M 59.515625 10.40625 
L 59.515625 29.984375 
L 43.40625 29.984375 
L 43.40625 38.09375 
L 69.28125 38.09375 
L 69.28125 6.78125 
Q 63.578125 2.734375 56.6875 0.65625 
Q 49.8125 -1.421875 42 -1.421875 
Q 24.90625 -1.421875 15.25 8.5625 
Q 5.609375 18.5625 5.609375 36.375 
Q 5.609375 54.25 15.25 64.234375 
Q 24.90625 74.21875 42 74.21875 
Q 49.125 74.21875 55.546875 72.453125 
Q 61.96875 70.703125 67.390625 67.28125 
L 67.390625 56.78125 
Q 61.921875 61.421875 55.765625 63.765625 
Q 49.609375 66.109375 42.828125 66.109375 
Q 29.4375 66.109375 22.71875 58.640625 
Q 16.015625 51.171875 16.015625 36.375 
Q 16.015625 21.625 22.71875 14.15625 
Q 29.4375 6.6875 42.828125 6.6875 
Q 48.046875 6.6875 52.140625 7.59375 
Q 56.25 8.5 59.515625 10.40625 
z
" id="DejaVuSans-71"/>
       <path d="M 56.203125 29.59375 
L 56.203125 25.203125 
L 14.890625 25.203125 
Q 15.484375 15.921875 20.484375 11.0625 
Q 25.484375 6.203125 34.421875 6.203125 
Q 39.59375 6.203125 44.453125 7.46875 
Q 49.3125 8.734375 54.109375 11.28125 
L 54.109375 2.78125 
Q 49.265625 0.734375 44.1875 -0.34375 
Q 39.109375 -1.421875 33.890625 -1.421875 
Q 20.796875 -1.421875 13.15625 6.1875 
Q 5.515625 13.8125 5.515625 26.8125 
Q 5.515625 40.234375 12.765625 48.109375 
Q 20.015625 56 32.328125 56 
Q 43.359375 56 49.78125 48.890625 
Q 56.203125 41.796875 56.203125 29.59375 
z
M 47.21875 32.234375 
Q 47.125 39.59375 43.09375 43.984375 
Q 39.0625 48.390625 32.421875 48.390625 
Q 24.90625 48.390625 20.390625 44.140625 
Q 15.875 39.890625 15.1875 32.171875 
z
" id="DejaVuSans-101"/>
       <path d="M 54.890625 33.015625 
L 54.890625 0 
L 45.90625 0 
L 45.90625 32.71875 
Q 45.90625 40.484375 42.875 44.328125 
Q 39.84375 48.1875 33.796875 48.1875 
Q 26.515625 48.1875 22.3125 43.546875 
Q 18.109375 38.921875 18.109375 30.90625 
L 18.109375 0 
L 9.078125 0 
L 9.078125 54.6875 
L 18.109375 54.6875 
L 18.109375 46.1875 
Q 21.34375 51.125 25.703125 53.5625 
Q 30.078125 56 35.796875 56 
Q 45.21875 56 50.046875 50.171875 
Q 54.890625 44.34375 54.890625 33.015625 
z
" id="DejaVuSans-110"/>
       <path d="M 41.109375 46.296875 
Q 39.59375 47.171875 37.8125 47.578125 
Q 36.03125 48 33.890625 48 
Q 26.265625 48 22.1875 43.046875 
Q 18.109375 38.09375 18.109375 28.8125 
L 18.109375 0 
L 9.078125 0 
L 9.078125 54.6875 
L 18.109375 54.6875 
L 18.109375 46.1875 
Q 20.953125 51.171875 25.484375 53.578125 
Q 30.03125 56 36.53125 56 
Q 37.453125 56 38.578125 55.875 
Q 39.703125 55.765625 41.0625 55.515625 
z
" id="DejaVuSans-114"/>
       <path d="M 34.28125 27.484375 
Q 23.390625 27.484375 19.1875 25 
Q 14.984375 22.515625 14.984375 16.5 
Q 14.984375 11.71875 18.140625 8.90625 
Q 21.296875 6.109375 26.703125 6.109375 
Q 34.1875 6.109375 38.703125 11.40625 
Q 43.21875 16.703125 43.21875 25.484375 
L 43.21875 27.484375 
z
M 52.203125 31.203125 
L 52.203125 0 
L 43.21875 0 
L 43.21875 8.296875 
Q 40.140625 3.328125 35.546875 0.953125 
Q 30.953125 -1.421875 24.3125 -1.421875 
Q 15.921875 -1.421875 10.953125 3.296875 
Q 6 8.015625 6 15.921875 
Q 6 25.140625 12.171875 29.828125 
Q 18.359375 34.515625 30.609375 34.515625 
L 43.21875 34.515625 
L 43.21875 35.40625 
Q 43.21875 41.609375 39.140625 45 
Q 35.0625 48.390625 27.6875 48.390625 
Q 23 48.390625 18.546875 47.265625 
Q 14.109375 46.140625 10.015625 43.890625 
L 10.015625 52.203125 
Q 14.9375 54.109375 19.578125 55.046875 
Q 24.21875 56 28.609375 56 
Q 40.484375 56 46.34375 49.84375 
Q 52.203125 43.703125 52.203125 31.203125 
z
" id="DejaVuSans-97"/>
       <path d="M 18.3125 70.21875 
L 18.3125 54.6875 
L 36.8125 54.6875 
L 36.8125 47.703125 
L 18.3125 47.703125 
L 18.3125 18.015625 
Q 18.3125 11.328125 20.140625 9.421875 
Q 21.96875 7.515625 27.59375 7.515625 
L 36.8125 7.515625 
L 36.8125 0 
L 27.59375 0 
Q 17.1875 0 13.234375 3.875 
Q 9.28125 7.765625 9.28125 18.015625 
L 9.28125 47.703125 
L 2.6875 47.703125 
L 2.6875 54.6875 
L 9.28125 54.6875 
L 9.28125 70.21875 
z
" id="DejaVuSans-116"/>
       <path d="M 9.421875 54.6875 
L 18.40625 54.6875 
L 18.40625 0 
L 9.421875 0 
z
M 9.421875 75.984375 
L 18.40625 75.984375 
L 18.40625 64.59375 
L 9.421875 64.59375 
z
" id="DejaVuSans-105"/>
       <path d="M 30.609375 48.390625 
Q 23.390625 48.390625 19.1875 42.75 
Q 14.984375 37.109375 14.984375 27.296875 
Q 14.984375 17.484375 19.15625 11.84375 
Q 23.34375 6.203125 30.609375 6.203125 
Q 37.796875 6.203125 41.984375 11.859375 
Q 46.1875 17.53125 46.1875 27.296875 
Q 46.1875 37.015625 41.984375 42.703125 
Q 37.796875 48.390625 30.609375 48.390625 
z
M 30.609375 56 
Q 42.328125 56 49.015625 48.375 
Q 55.71875 40.765625 55.71875 27.296875 
Q 55.71875 13.875 49.015625 6.21875 
Q 42.328125 -1.421875 30.609375 -1.421875 
Q 18.84375 -1.421875 12.171875 6.21875 
Q 5.515625 13.875 5.515625 27.296875 
Q 5.515625 40.765625 12.171875 48.375 
Q 18.84375 56 30.609375 56 
z
" id="DejaVuSans-111"/>
       <path d="M 44.28125 53.078125 
L 44.28125 44.578125 
Q 40.484375 46.53125 36.375 47.5 
Q 32.28125 48.484375 27.875 48.484375 
Q 21.1875 48.484375 17.84375 46.4375 
Q 14.5 44.390625 14.5 40.28125 
Q 14.5 37.15625 16.890625 35.375 
Q 19.28125 33.59375 26.515625 31.984375 
L 29.59375 31.296875 
Q 39.15625 29.25 43.1875 25.515625 
Q 47.21875 21.78125 47.21875 15.09375 
Q 47.21875 7.46875 41.1875 3.015625 
Q 35.15625 -1.421875 24.609375 -1.421875 
Q 20.21875 -1.421875 15.453125 -0.5625 
Q 10.6875 0.296875 5.421875 2 
L 5.421875 11.28125 
Q 10.40625 8.6875 15.234375 7.390625 
Q 20.0625 6.109375 24.8125 6.109375 
Q 31.15625 6.109375 34.5625 8.28125 
Q 37.984375 10.453125 37.984375 14.40625 
Q 37.984375 18.0625 35.515625 20.015625 
Q 33.0625 21.96875 24.703125 23.78125 
L 21.578125 24.515625 
Q 13.234375 26.265625 9.515625 29.90625 
Q 5.8125 33.546875 5.8125 39.890625 
Q 5.8125 47.609375 11.28125 51.796875 
Q 16.75 56 26.8125 56 
Q 31.78125 56 36.171875 55.265625 
Q 40.578125 54.546875 44.28125 53.078125 
z
" id="DejaVuSans-115"/>
      </defs>
      <use xlink:href="#DejaVuSans-71"/>
      <use x="77.490234" xlink:href="#DejaVuSans-101"/>
      <use x="139.013672" xlink:href="#DejaVuSans-110"/>
      <use x="202.392578" xlink:href="#DejaVuSans-101"/>
      <use x="263.916016" xlink:href="#DejaVuSans-114"/>
      <use x="305.029297" xlink:href="#DejaVuSans-97"/>
      <use x="366.308594" xlink:href="#DejaVuSans-116"/>
      <use x="405.517578" xlink:href="#DejaVuSans-105"/>
      <use x="433.300781" xlink:href="#DejaVuSans-111"/>
      <use x="494.482422" xlink:href="#DejaVuSans-110"/>
      <use x="557.861328" xlink:href="#DejaVuSans-115"/>
     </g>
    </g>
   </g>
   <g id="matplotlib.axis_2">
    <g id="ytick_1">
     <g id="line2d_15">
      <path clip-path="url(#p5d5b9ac75b)" d="M 57.6 259.622213 
L 414.72 259.622213 
" style="fill:none;stroke:#b0b0b0;stroke-linecap:square;stroke-width:0.8;"/>
     </g>
     <g id="line2d_16">
      <defs>
       <path d="M 0 0 
L -3.5 0 
" id="m5e14f600d1" style="stroke:#000000;stroke-width:0.8;"/>
      </defs>
      <g>
       <use style="stroke:#000000;stroke-width:0.8;" x="57.6" xlink:href="#m5e14f600d1" y="259.622213"/>
      </g>
     </g>
     <g id="text_9">
      <!-- 0.2 -->
      <g transform="translate(34.696875 263.421432)scale(0.1 -0.1)">
       <defs>
        <path d="M 10.6875 12.40625 
L 21 12.40625 
L 21 0 
L 10.6875 0 
z
" id="DejaVuSans-46"/>
       </defs>
       <use xlink:href="#DejaVuSans-48"/>
       <use x="63.623047" xlink:href="#DejaVuSans-46"/>
       <use x="95.410156" xlink:href="#DejaVuSans-50"/>
      </g>
     </g>
    </g>
    <g id="ytick_2">
     <g id="line2d_17">
      <path clip-path="url(#p5d5b9ac75b)" d="M 57.6 203.957013 
L 414.72 203.957013 
" style="fill:none;stroke:#b0b0b0;stroke-linecap:square;stroke-width:0.8;"/>
     </g>
     <g id="line2d_18">
      <g>
       <use style="stroke:#000000;stroke-width:0.8;" x="57.6" xlink:href="#m5e14f600d1" y="203.957013"/>
      </g>
     </g>
     <g id="text_10">
      <!-- 0.3 -->
      <g transform="translate(34.696875 207.756232)scale(0.1 -0.1)">
       <use xlink:href="#DejaVuSans-48"/>
       <use x="63.623047" xlink:href="#DejaVuSans-46"/>
       <use x="95.410156" xlink:href="#DejaVuSans-51"/>
      </g>
     </g>
    </g>
    <g id="ytick_3">
     <g id="line2d_19">
      <path clip-path="url(#p5d5b9ac75b)" d="M 57.6 148.291813 
L 414.72 148.291813 
" style="fill:none;stroke:#b0b0b0;stroke-linecap:square;stroke-width:0.8;"/>
     </g>
     <g id="line2d_20">
      <g>
       <use style="stroke:#000000;stroke-width:0.8;" x="57.6" xlink:href="#m5e14f600d1" y="148.291813"/>
      </g>
     </g>
     <g id="text_11">
      <!-- 0.4 -->
      <g transform="translate(34.696875 152.091032)scale(0.1 -0.1)">
       <defs>
        <path d="M 37.796875 64.3125 
L 12.890625 25.390625 
L 37.796875 25.390625 
z
M 35.203125 72.90625 
L 47.609375 72.90625 
L 47.609375 25.390625 
L 58.015625 25.390625 
L 58.015625 17.1875 
L 47.609375 17.1875 
L 47.609375 0 
L 37.796875 0 
L 37.796875 17.1875 
L 4.890625 17.1875 
L 4.890625 26.703125 
z
" id="DejaVuSans-52"/>
       </defs>
       <use xlink:href="#DejaVuSans-48"/>
       <use x="63.623047" xlink:href="#DejaVuSans-46"/>
       <use x="95.410156" xlink:href="#DejaVuSans-52"/>
      </g>
     </g>
    </g>
    <g id="ytick_4">
     <g id="line2d_21">
      <path clip-path="url(#p5d5b9ac75b)" d="M 57.6 92.626614 
L 414.72 92.626614 
" style="fill:none;stroke:#b0b0b0;stroke-linecap:square;stroke-width:0.8;"/>
     </g>
     <g id="line2d_22">
      <g>
       <use style="stroke:#000000;stroke-width:0.8;" x="57.6" xlink:href="#m5e14f600d1" y="92.626614"/>
      </g>
     </g>
     <g id="text_12">
      <!-- 0.5 -->
      <g transform="translate(34.696875 96.425832)scale(0.1 -0.1)">
       <use xlink:href="#DejaVuSans-48"/>
       <use x="63.623047" xlink:href="#DejaVuSans-46"/>
       <use x="95.410156" xlink:href="#DejaVuSans-53"/>
      </g>
     </g>
    </g>
    <g id="text_13">
     <!-- Fitness -->
     <g transform="translate(28.617187 191.845187)rotate(-90)scale(0.1 -0.1)">
      <defs>
       <path d="M 9.8125 72.90625 
L 51.703125 72.90625 
L 51.703125 64.59375 
L 19.671875 64.59375 
L 19.671875 43.109375 
L 48.578125 43.109375 
L 48.578125 34.8125 
L 19.671875 34.8125 
L 19.671875 0 
L 9.8125 0 
z
" id="DejaVuSans-70"/>
      </defs>
      <use xlink:href="#DejaVuSans-70"/>
      <use x="50.269531" xlink:href="#DejaVuSans-105"/>
      <use x="78.052734" xlink:href="#DejaVuSans-116"/>
      <use x="117.261719" xlink:href="#DejaVuSans-110"/>
      <use x="180.640625" xlink:href="#DejaVuSans-101"/>
      <use x="242.164062" xlink:href="#DejaVuSans-115"/>
      <use x="294.263672" xlink:href="#DejaVuSans-115"/>
     </g>
    </g>
   </g>
   <g id="line2d_23">
    <path clip-path="url(#p5d5b9ac75b)" d="M 73.832727 279.324738 
L 74.918528 265.441251 
L 76.00433 257.679197 
L 77.090131 247.538832 
L 78.175932 240.677437 
L 79.261733 237.469628 
L 80.347534 231.912337 
L 81.433335 227.613916 
L 82.519137 224.979607 
L 83.604938 223.421397 
L 84.690739 220.133893 
L 85.77654 214.839822 
L 86.862341 213.907 
L 87.948142 211.981892 
L 90.119745 210.277482 
L 91.205546 206.563972 
L 92.291347 205.54468 
L 93.377148 201.846136 
L 94.462949 201.91336 
L 95.54875 195.723317 
L 96.634552 190.93349 
L 97.720353 191.78963 
L 98.806154 187.986062 
L 99.891955 182.176582 
L 100.977756 179.796143 
L 102.063557 175.232828 
L 103.149358 171.619726 
L 104.23516 170.516586 
L 105.320961 167.036668 
L 106.406762 166.903814 
L 107.492563 166.130915 
L 108.578364 165.687706 
L 109.664165 163.79263 
L 111.835768 158.562742 
L 112.921569 156.63198 
L 114.00737 150.256921 
L 115.093171 152.037569 
L 116.178972 150.548879 
L 117.264773 152.249182 
L 118.350575 148.280865 
L 120.522177 148.778507 
L 121.607978 142.787052 
L 122.693779 141.25239 
L 123.77958 144.458903 
L 124.865382 141.000919 
L 125.951183 142.683189 
L 127.036984 139.264134 
L 128.122785 145.121071 
L 129.208586 137.879462 
L 130.294387 131.404347 
L 131.380189 129.552945 
L 132.46599 136.477893 
L 133.551791 130.27871 
L 134.637592 133.463291 
L 135.723393 131.599688 
L 136.809194 134.03243 
L 137.894995 131.501608 
L 138.980797 133.634082 
L 140.066598 131.732955 
L 141.152399 129.453663 
L 142.2382 131.587859 
L 143.324001 132.503338 
L 144.409802 132.948171 
L 146.581405 123.160221 
L 147.667206 125.419461 
L 148.753007 128.22807 
L 149.838808 123.420279 
L 150.924609 126.165476 
L 152.01041 127.403589 
L 153.096212 122.384936 
L 154.182013 125.989309 
L 155.267814 128.782685 
L 156.353615 124.792078 
L 157.439416 125.932638 
L 158.525217 118.794791 
L 159.611019 118.780144 
L 160.69682 119.453761 
L 161.782621 121.710514 
L 162.868422 117.104681 
L 163.954223 122.686719 
L 165.040024 116.775374 
L 166.125825 121.253898 
L 167.211627 127.981846 
L 168.297428 127.170384 
L 169.383229 124.680853 
L 170.46903 121.871788 
L 171.554831 122.057996 
L 172.640632 123.420837 
L 173.726434 116.610956 
L 174.812235 121.364545 
L 175.898036 117.995181 
L 176.983837 119.429361 
L 178.069638 120.540767 
L 179.155439 128.212291 
L 180.24124 123.189251 
L 181.327042 120.27786 
L 182.412843 122.287072 
L 183.498644 121.788487 
L 184.584445 121.035798 
L 185.670246 116.012698 
L 186.756047 119.924676 
L 187.841849 117.483131 
L 188.92765 121.701102 
L 190.013451 119.841711 
L 191.099252 119.507864 
L 192.185053 120.062007 
L 193.270854 115.834934 
L 194.356656 116.738336 
L 195.442457 116.431239 
L 196.528258 113.071719 
L 197.614059 115.457306 
L 198.69986 115.951052 
L 199.785661 113.249214 
L 200.871462 116.249669 
L 201.957264 109.061324 
L 203.043065 108.050987 
L 204.128866 105.745895 
L 205.214667 106.685385 
L 206.300468 109.087619 
L 207.386269 110.152772 
L 208.472071 116.237085 
L 209.557872 116.29289 
L 210.643673 112.799146 
L 211.729474 115.215016 
L 212.815275 110.811833 
L 213.901076 107.587887 
L 214.986877 113.3544 
L 216.072679 117.035475 
L 217.15848 119.55398 
L 218.244281 119.126712 
L 219.330082 119.817374 
L 220.415883 124.72031 
L 221.501684 117.189527 
L 222.587486 123.515493 
L 223.673287 118.394684 
L 224.759088 116.070692 
L 225.844889 118.249309 
L 226.93069 114.198023 
L 228.016491 114.58624 
L 229.102292 115.258673 
L 230.188094 112.047443 
L 231.273895 116.61592 
L 233.445497 110.993559 
L 234.531298 116.402972 
L 235.617099 115.713452 
L 236.702901 114.871071 
L 237.788702 122.197912 
L 238.874503 119.6146 
L 241.046105 111.780943 
L 242.131906 115.603934 
L 243.217708 115.112737 
L 244.303509 116.902609 
L 245.38931 119.289463 
L 246.475111 112.830099 
L 247.560912 117.442912 
L 248.646713 115.511902 
L 249.732514 115.050431 
L 250.818316 113.143851 
L 251.904117 109.246497 
L 254.075719 115.028204 
L 255.16152 116.033753 
L 256.247321 116.594089 
L 257.333123 112.389691 
L 258.418924 107.400826 
L 259.504725 115.478692 
L 260.590526 110.023001 
L 261.676327 113.433321 
L 262.762128 109.018352 
L 263.847929 108.101002 
L 264.933731 108.536968 
L 266.019532 106.871849 
L 267.105333 107.796287 
L 268.191134 103.111207 
L 269.276935 105.045977 
L 270.362736 107.444271 
L 271.448538 114.500799 
L 272.534339 113.373643 
L 273.62014 111.180579 
L 274.705941 115.168045 
L 275.791742 115.169676 
L 277.963344 114.297243 
L 279.049146 110.257379 
L 280.134947 112.15321 
L 281.220748 115.318014 
L 282.306549 112.336915 
L 283.39235 106.649273 
L 284.478151 113.382071 
L 285.563953 113.688451 
L 286.649754 117.494204 
L 287.735555 115.818718 
L 288.821356 115.669638 
L 289.907157 114.426169 
L 290.992958 115.188821 
L 292.07876 116.120378 
L 293.164561 115.934283 
L 294.250362 112.918525 
L 295.336163 108.825041 
L 296.421964 111.637554 
L 297.507765 111.917208 
L 298.593566 116.207781 
L 299.679368 113.587553 
L 300.765169 114.029486 
L 301.85097 112.615458 
L 302.936771 114.894886 
L 304.022572 115.798729 
L 305.108373 109.696657 
L 306.194175 114.837134 
L 307.279976 113.918085 
L 308.365777 115.97692 
L 309.451578 109.583212 
L 310.537379 111.749978 
L 311.62318 119.853482 
L 312.708981 116.077223 
L 313.794783 115.435651 
L 314.880584 118.126454 
L 315.966385 120.198461 
L 317.052186 114.574348 
L 318.137987 115.064912 
L 319.223788 114.641609 
L 320.30959 109.916995 
L 321.395391 112.282222 
L 322.481192 109.416015 
L 323.566993 114.220829 
L 324.652794 110.122463 
L 325.738595 112.632779 
L 326.824396 109.535535 
L 327.910198 108.508602 
L 328.995999 110.442181 
L 330.0818 115.182529 
L 331.167601 110.628611 
L 332.253402 108.874169 
L 333.339203 110.652305 
L 334.425005 112.743571 
L 335.510806 104.901558 
L 336.596607 109.160771 
L 337.682408 110.590938 
L 338.768209 112.871162 
L 339.85401 106.496843 
L 340.939811 104.282721 
L 342.025613 104.441279 
L 343.111414 105.460447 
L 344.197215 110.023982 
L 345.283016 109.741585 
L 346.368817 107.318061 
L 347.454618 108.168372 
L 348.54042 100.355732 
L 349.626221 107.159069 
L 350.712022 112.839717 
L 351.797823 106.726398 
L 352.883624 106.938297 
L 353.969425 107.402058 
L 355.055227 109.437966 
L 356.141028 105.05001 
L 357.226829 104.494943 
L 358.31263 107.257875 
L 359.398431 103.929938 
L 360.484232 107.261107 
L 361.570033 111.974517 
L 362.655835 105.787512 
L 363.741636 109.684924 
L 364.827437 103.108167 
L 365.913238 101.661222 
L 366.999039 104.890787 
L 368.08484 104.494313 
L 369.170642 102.912838 
L 371.342244 111.595574 
L 372.428045 114.370445 
L 373.513846 110.632981 
L 374.599647 104.358819 
L 375.685448 110.298893 
L 376.77125 106.267313 
L 377.857051 110.1241 
L 378.942852 109.479051 
L 380.028653 105.734369 
L 381.114454 104.003912 
L 382.200255 115.365214 
L 383.286057 114.158793 
L 384.371858 106.388091 
L 385.457659 107.19856 
L 386.54346 108.8799 
L 387.629261 112.811734 
L 388.715062 105.437257 
L 389.800863 106.434843 
L 390.886665 106.948177 
L 391.972466 105.284939 
L 393.058267 108.387627 
L 394.144068 106.520224 
L 395.229869 112.337166 
L 396.31567 102.771104 
L 397.401472 106.509021 
L 398.487273 104.318053 
L 398.487273 104.318053 
" style="fill:none;stroke:#0000ff;stroke-linecap:square;stroke-width:1.5;"/>
   </g>
   <g id="line2d_24">
    <path clip-path="url(#p5d5b9ac75b)" d="M 73.832727 295.488 
L 74.918528 278.811602 
L 76.00433 271.402023 
L 77.090131 261.358631 
L 78.175932 253.051076 
L 79.261733 250.698781 
L 81.433335 240.585768 
L 82.519137 237.486861 
L 83.604938 237.578199 
L 85.77654 228.755486 
L 86.862341 227.300914 
L 87.948142 226.250054 
L 89.033943 224.377276 
L 90.119745 224.298476 
L 91.205546 221.089719 
L 92.291347 221.300096 
L 93.377148 218.020503 
L 94.462949 216.891975 
L 95.54875 212.818129 
L 96.634552 207.987352 
L 97.720353 209.281497 
L 98.806154 205.471683 
L 99.891955 200.694351 
L 100.977756 197.676309 
L 102.063557 193.924671 
L 103.149358 190.907181 
L 104.23516 190.817596 
L 105.320961 187.71226 
L 106.406762 188.328143 
L 107.492563 188.355042 
L 108.578364 191.48252 
L 109.664165 189.365034 
L 110.749967 185.467351 
L 111.835768 183.208767 
L 112.921569 182.117994 
L 114.00737 173.522497 
L 115.093171 178.621633 
L 116.178972 175.371774 
L 117.264773 179.32826 
L 118.350575 172.72138 
L 119.436376 174.485828 
L 120.522177 175.587553 
L 121.607978 167.843729 
L 122.693779 168.073182 
L 123.77958 172.987072 
L 124.865382 169.479167 
L 125.951183 171.577803 
L 127.036984 168.66234 
L 128.122785 178.72832 
L 129.208586 166.611705 
L 130.294387 159.547757 
L 131.380189 156.566631 
L 132.46599 167.315646 
L 133.551791 156.061626 
L 134.637592 160.911384 
L 135.723393 159.502909 
L 136.809194 165.89527 
L 137.894995 158.478057 
L 138.980797 164.731552 
L 140.066598 161.199272 
L 141.152399 156.408435 
L 142.2382 161.246773 
L 143.324001 162.768657 
L 144.409802 162.142594 
L 145.495604 155.35983 
L 146.581405 149.301055 
L 147.667206 152.932468 
L 148.753007 162.512351 
L 149.838808 146.65655 
L 150.924609 157.411437 
L 152.01041 160.829598 
L 153.096212 152.071628 
L 154.182013 153.617216 
L 155.267814 159.236423 
L 156.353615 155.111992 
L 157.439416 159.944968 
L 158.525217 148.692183 
L 159.611019 147.832966 
L 160.69682 151.291214 
L 161.782621 156.142612 
L 162.868422 149.909434 
L 163.954223 159.274368 
L 165.040024 146.723181 
L 166.125825 153.052138 
L 167.211627 165.373773 
L 168.297428 159.926238 
L 169.383229 158.323545 
L 170.46903 156.274047 
L 171.554831 154.876285 
L 172.640632 160.193137 
L 173.726434 148.942645 
L 174.812235 159.171163 
L 175.898036 151.537346 
L 176.983837 151.847933 
L 178.069638 150.637401 
L 179.155439 166.290892 
L 180.24124 156.698108 
L 181.327042 151.563529 
L 182.412843 153.57694 
L 183.498644 154.628006 
L 184.584445 150.96882 
L 185.670246 144.960715 
L 186.756047 151.980188 
L 187.841849 148.729898 
L 188.92765 153.279282 
L 190.013451 147.210761 
L 191.099252 149.651973 
L 192.185053 150.939833 
L 193.270854 143.595264 
L 194.356656 149.491922 
L 195.442457 147.575747 
L 196.528258 140.424595 
L 197.614059 145.15824 
L 198.69986 144.438624 
L 199.785661 142.388081 
L 200.871462 147.097059 
L 201.957264 136.464177 
L 203.043065 134.599478 
L 204.128866 130.708958 
L 205.214667 135.215964 
L 206.300468 137.9048 
L 207.386269 137.648219 
L 208.472071 147.559519 
L 209.557872 148.049833 
L 210.643673 139.354086 
L 211.729474 146.131992 
L 212.815275 142.77862 
L 213.901076 134.990042 
L 214.986877 144.568383 
L 216.072679 149.930082 
L 217.15848 152.563783 
L 219.330082 153.358638 
L 220.415883 163.366386 
L 221.501684 151.345781 
L 222.587486 161.097373 
L 223.673287 152.99205 
L 224.759088 149.045458 
L 225.844889 151.404089 
L 226.93069 141.960902 
L 228.016491 142.812338 
L 229.102292 146.008815 
L 230.188094 140.842211 
L 231.273895 148.530798 
L 233.445497 142.118626 
L 234.531298 149.056484 
L 235.617099 146.981356 
L 236.702901 148.396701 
L 237.788702 158.595522 
L 238.874503 154.201051 
L 239.960304 147.975241 
L 241.046105 142.67565 
L 242.131906 147.258919 
L 243.217708 149.171093 
L 244.303509 149.695613 
L 245.38931 155.490977 
L 246.475111 142.16072 
L 247.560912 155.89385 
L 248.646713 147.634163 
L 249.732514 147.147008 
L 250.818316 144.216679 
L 251.904117 135.221609 
L 252.989918 141.390724 
L 255.16152 152.181232 
L 256.247321 151.961619 
L 257.333123 143.954705 
L 258.418924 134.906632 
L 259.504725 147.723681 
L 260.590526 143.107442 
L 261.676327 149.191091 
L 262.762128 137.950734 
L 263.847929 141.563023 
L 264.933731 140.811759 
L 266.019532 136.612364 
L 267.105333 139.646141 
L 268.191134 131.327191 
L 269.276935 133.530894 
L 270.362736 138.368903 
L 271.448538 147.010282 
L 272.534339 147.18292 
L 273.62014 144.387392 
L 274.705941 151.942313 
L 275.791742 150.618174 
L 276.877543 146.673944 
L 277.963344 151.435516 
L 279.049146 141.713176 
L 280.134947 143.402246 
L 281.220748 148.60048 
L 282.306549 144.648905 
L 283.39235 133.309641 
L 284.478151 145.630765 
L 285.563953 146.101358 
L 286.649754 151.105947 
L 287.735555 148.967051 
L 288.821356 147.178393 
L 289.907157 147.947565 
L 290.992958 148.038961 
L 292.07876 155.626944 
L 293.164561 150.912407 
L 294.250362 145.516676 
L 295.336163 136.848487 
L 296.421964 142.352386 
L 297.507765 141.503791 
L 298.593566 148.395246 
L 299.679368 145.30241 
L 300.765169 144.836682 
L 301.85097 145.351034 
L 302.936771 145.587108 
L 304.022572 148.299386 
L 305.108373 138.380738 
L 306.194175 147.708479 
L 307.279976 146.690682 
L 308.365777 150.672516 
L 309.451578 140.780037 
L 310.537379 143.381579 
L 311.62318 154.559886 
L 312.708981 148.627204 
L 313.794783 148.021223 
L 314.880584 156.99157 
L 315.966385 158.705207 
L 317.052186 150.123764 
L 318.137987 153.286153 
L 319.223788 149.273808 
L 320.30959 138.074158 
L 321.395391 145.058327 
L 322.481192 137.12133 
L 323.566993 147.951103 
L 324.652794 145.686522 
L 325.738595 146.039496 
L 326.824396 142.716029 
L 327.910198 141.040384 
L 328.995999 143.703921 
L 330.0818 150.940692 
L 331.167601 142.549045 
L 332.253402 135.696941 
L 333.339203 141.724594 
L 334.425005 146.341194 
L 335.510806 130.55839 
L 336.596607 141.355172 
L 337.682408 145.736789 
L 338.768209 148.734266 
L 339.85401 135.220139 
L 340.939811 132.425984 
L 342.025613 132.900464 
L 343.111414 135.78919 
L 344.197215 145.480562 
L 345.283016 144.654005 
L 346.368817 141.621502 
L 347.454618 139.767064 
L 348.54042 126.973566 
L 349.626221 139.497981 
L 350.712022 147.661643 
L 351.797823 134.398791 
L 352.883624 136.444397 
L 353.969425 139.991284 
L 355.055227 141.17082 
L 356.141028 134.982353 
L 357.226829 135.407806 
L 358.31263 140.710759 
L 359.398431 134.449409 
L 360.484232 141.538233 
L 361.570033 147.023862 
L 362.655835 136.183269 
L 363.741636 140.883015 
L 364.827437 135.082669 
L 365.913238 132.222427 
L 366.999039 135.593634 
L 368.08484 136.647019 
L 369.170642 136.357295 
L 370.256443 142.367755 
L 371.342244 142.453343 
L 372.428045 152.159827 
L 373.513846 144.942297 
L 374.599647 132.566793 
L 375.685448 147.889015 
L 376.77125 141.482155 
L 377.857051 145.896353 
L 378.942852 144.176126 
L 381.114454 137.121155 
L 382.200255 154.740535 
L 383.286057 153.443999 
L 384.371858 137.162347 
L 385.457659 140.277712 
L 386.54346 139.942233 
L 387.629261 147.771232 
L 388.715062 136.377959 
L 389.800863 139.915835 
L 390.886665 141.962149 
L 391.972466 135.760244 
L 393.058267 142.984692 
L 394.144068 140.759204 
L 395.229869 150.00442 
L 396.31567 132.41373 
L 397.401472 137.880547 
L 398.487273 137.280145 
L 398.487273 137.280145 
" style="fill:none;stroke:#008000;stroke-dasharray:9.6,2.4,1.5,2.4;stroke-dashoffset:0;stroke-width:1.5;"/>
   </g>
   <g id="line2d_25">
    <path clip-path="url(#p5d5b9ac75b)" d="M 73.832727 263.161476 
L 74.918528 252.070899 
L 76.00433 243.956371 
L 77.090131 233.719032 
L 78.175932 228.303798 
L 79.261733 224.240476 
L 80.347534 218.19134 
L 81.433335 214.642063 
L 82.519137 212.472353 
L 83.604938 209.264594 
L 84.690739 207.240961 
L 85.77654 200.924158 
L 86.862341 200.513087 
L 87.948142 197.713731 
L 89.033943 197.8167 
L 90.119745 196.256489 
L 91.205546 192.038225 
L 92.291347 189.789264 
L 93.377148 185.671769 
L 94.462949 186.934746 
L 95.54875 178.628505 
L 96.634552 173.879628 
L 97.720353 174.297762 
L 98.806154 170.500442 
L 99.891955 163.658814 
L 100.977756 161.915978 
L 102.063557 156.540986 
L 103.149358 152.332272 
L 104.23516 150.215576 
L 105.320961 146.361076 
L 106.406762 145.479486 
L 107.492563 143.906789 
L 108.578364 139.892893 
L 109.664165 138.220225 
L 110.749967 137.098891 
L 111.835768 133.916716 
L 112.921569 131.145966 
L 114.00737 126.991345 
L 115.093171 125.453505 
L 116.178972 125.725985 
L 117.264773 125.170104 
L 119.436376 122.593186 
L 120.522177 121.969462 
L 121.607978 117.730375 
L 122.693779 114.431598 
L 123.77958 115.930735 
L 124.865382 112.522671 
L 125.951183 113.788575 
L 127.036984 109.865927 
L 128.122785 111.513822 
L 129.208586 109.14722 
L 130.294387 103.260938 
L 131.380189 102.53926 
L 132.46599 105.640139 
L 133.551791 104.495793 
L 134.637592 106.015199 
L 135.723393 103.696466 
L 136.809194 102.16959 
L 137.894995 104.525159 
L 138.980797 102.536611 
L 140.066598 102.266638 
L 141.152399 102.498891 
L 142.2382 101.928945 
L 143.324001 102.238019 
L 144.409802 103.753749 
L 145.495604 100.588453 
L 146.581405 97.019386 
L 147.667206 97.906454 
L 148.753007 93.943789 
L 149.838808 100.184007 
L 150.924609 94.919514 
L 152.01041 93.97758 
L 153.096212 92.698244 
L 154.182013 98.361402 
L 155.267814 98.328947 
L 156.353615 94.472165 
L 157.439416 91.920308 
L 158.525217 88.8974 
L 159.611019 89.727323 
L 160.69682 87.616308 
L 161.782621 87.278415 
L 162.868422 84.299928 
L 163.954223 86.099069 
L 165.040024 86.827568 
L 166.125825 89.455658 
L 167.211627 90.589919 
L 168.297428 94.414531 
L 170.46903 87.469528 
L 171.554831 89.239707 
L 173.726434 84.279268 
L 174.812235 83.557926 
L 175.898036 84.453016 
L 176.983837 87.010789 
L 178.069638 90.444133 
L 179.155439 90.13369 
L 180.24124 89.680394 
L 181.327042 88.992191 
L 182.412843 90.997204 
L 183.498644 88.948969 
L 184.584445 91.102775 
L 185.670246 87.064681 
L 186.756047 87.869164 
L 187.841849 86.236363 
L 188.92765 90.122922 
L 190.013451 92.472661 
L 191.099252 89.363756 
L 192.185053 89.184181 
L 193.270854 88.074605 
L 194.356656 83.98475 
L 195.442457 85.286732 
L 196.528258 85.718843 
L 197.614059 85.756372 
L 198.69986 87.463481 
L 199.785661 84.110347 
L 200.871462 85.402278 
L 201.957264 81.658471 
L 203.043065 81.502495 
L 204.128866 80.782831 
L 205.214667 78.154806 
L 206.300468 80.270439 
L 208.472071 84.914651 
L 209.557872 84.535948 
L 210.643673 86.244207 
L 211.729474 84.29804 
L 212.815275 78.845046 
L 213.901076 80.185732 
L 216.072679 84.140869 
L 217.15848 86.544177 
L 218.244281 85.329584 
L 219.330082 86.276109 
L 220.415883 86.074233 
L 221.501684 83.033274 
L 222.587486 85.933614 
L 223.673287 83.797318 
L 224.759088 83.095926 
L 225.844889 85.094529 
L 226.93069 86.435145 
L 228.016491 86.360142 
L 229.102292 84.508531 
L 230.188094 83.252674 
L 231.273895 84.701042 
L 232.359696 82.083544 
L 233.445497 79.868492 
L 234.531298 83.749459 
L 235.617099 84.445549 
L 236.702901 81.345441 
L 237.788702 85.800302 
L 238.874503 85.028149 
L 239.960304 83.510945 
L 241.046105 80.886236 
L 242.131906 83.948948 
L 243.217708 81.054382 
L 244.303509 84.109605 
L 245.38931 83.087949 
L 246.475111 83.499477 
L 247.560912 78.991973 
L 248.646713 83.389642 
L 249.732514 82.953853 
L 250.818316 82.071023 
L 251.904117 83.271385 
L 252.989918 82.998902 
L 254.075719 83.364813 
L 255.16152 79.886274 
L 256.247321 81.226559 
L 257.333123 80.824676 
L 258.418924 79.895019 
L 259.504725 83.233703 
L 260.590526 76.938559 
L 261.676327 77.67555 
L 262.762128 80.08597 
L 263.847929 74.638981 
L 264.933731 76.262176 
L 266.019532 77.131334 
L 268.191134 74.895224 
L 269.276935 76.56106 
L 270.362736 76.519639 
L 271.448538 81.991315 
L 272.534339 79.564365 
L 273.62014 77.973765 
L 274.705941 78.393776 
L 275.791742 79.721178 
L 276.877543 82.733059 
L 277.963344 77.158969 
L 279.049146 78.801582 
L 280.134947 80.904173 
L 281.220748 82.035549 
L 282.306549 80.024924 
L 283.39235 79.988906 
L 284.478151 81.133377 
L 285.563953 81.275543 
L 286.649754 83.882462 
L 287.735555 82.670385 
L 288.821356 84.160882 
L 289.907157 80.904773 
L 290.992958 82.338682 
L 292.07876 76.613813 
L 293.164561 80.956159 
L 294.250362 80.320374 
L 295.336163 80.801594 
L 296.421964 80.922721 
L 297.507765 82.330626 
L 298.593566 84.020315 
L 299.679368 81.872696 
L 300.765169 83.222289 
L 301.85097 79.879881 
L 302.936771 84.202663 
L 304.022572 83.298072 
L 305.108373 81.012577 
L 306.194175 81.965789 
L 307.279976 81.145489 
L 308.365777 81.281323 
L 309.451578 78.386387 
L 310.537379 80.118377 
L 311.62318 85.147078 
L 312.708981 83.527242 
L 313.794783 82.850079 
L 314.880584 79.261338 
L 315.966385 81.691715 
L 317.052186 79.024931 
L 318.137987 76.84367 
L 319.223788 80.00941 
L 320.30959 81.759832 
L 321.395391 79.506117 
L 322.481192 81.7107 
L 323.566993 80.490555 
L 324.652794 74.558405 
L 325.738595 79.226062 
L 326.824396 76.355041 
L 327.910198 75.97682 
L 328.995999 77.180441 
L 330.0818 79.424366 
L 331.167601 78.708176 
L 332.253402 82.051398 
L 333.339203 79.580015 
L 334.425005 79.145949 
L 335.510806 79.244727 
L 336.596607 76.966369 
L 337.682408 75.445087 
L 338.768209 77.008059 
L 339.85401 77.773547 
L 340.939811 76.139458 
L 342.025613 75.982095 
L 343.111414 75.131704 
L 344.197215 74.567402 
L 345.283016 74.829166 
L 346.368817 73.014619 
L 347.454618 76.569679 
L 348.54042 73.737898 
L 349.626221 74.820158 
L 350.712022 78.017792 
L 351.797823 79.054005 
L 352.883624 77.432196 
L 353.969425 74.812833 
L 355.055227 77.705111 
L 356.141028 75.117667 
L 357.226829 73.582079 
L 358.31263 73.80499 
L 360.484232 72.983981 
L 361.570033 76.925171 
L 362.655835 75.391755 
L 363.741636 78.486833 
L 364.827437 71.133666 
L 365.913238 71.100018 
L 366.999039 74.187939 
L 368.08484 72.341607 
L 369.170642 69.468381 
L 370.256443 72.019947 
L 371.342244 80.737805 
L 372.428045 76.581064 
L 374.599647 76.150845 
L 375.685448 72.70877 
L 376.77125 71.052471 
L 377.857051 74.351846 
L 378.942852 74.781977 
L 380.028653 70.755266 
L 381.114454 70.88667 
L 382.200255 75.989894 
L 383.286057 74.873588 
L 384.371858 75.613834 
L 385.457659 74.119408 
L 386.54346 77.817566 
L 387.629261 77.852235 
L 388.715062 74.496555 
L 389.800863 72.95385 
L 390.886665 71.934206 
L 391.972466 74.809634 
L 393.058267 73.790561 
L 394.144068 72.281243 
L 395.229869 74.669913 
L 396.31567 73.128479 
L 397.401472 75.137496 
L 398.487273 71.355962 
L 398.487273 71.355962 
" style="fill:none;stroke:#008000;stroke-dasharray:9.6,2.4,1.5,2.4;stroke-dashoffset:0;stroke-width:1.5;"/>
   </g>
   <g id="line2d_26">
    <path clip-path="url(#p5d5b9ac75b)" d="M 73.832727 232.939849 
L 74.918528 223.800268 
L 76.00433 223.800268 
L 77.090131 209.941226 
L 78.175932 209.941226 
L 79.261733 207.336548 
L 80.347534 198.953657 
L 81.433335 197.580845 
L 82.519137 195.150573 
L 83.604938 189.871668 
L 84.690739 189.871668 
L 85.77654 180.787014 
L 86.862341 179.232432 
L 89.033943 179.232432 
L 90.119745 174.477125 
L 91.205546 173.920956 
L 92.291347 156.2755 
L 95.54875 156.2755 
L 96.634552 151.772409 
L 97.720353 151.772409 
L 98.806154 137.533762 
L 100.977756 137.533762 
L 102.063557 136.113271 
L 104.23516 136.113271 
L 105.320961 128.486838 
L 106.406762 128.486838 
L 107.492563 120.538267 
L 109.664165 120.538267 
L 110.749967 115.829312 
L 111.835768 108.338526 
L 115.093171 108.338526 
L 116.178972 97.457087 
L 121.607978 97.457087 
L 122.693779 96.10069 
L 124.865382 96.10069 
L 125.951183 80.786713 
L 149.838808 80.786713 
L 150.924609 77.430392 
L 153.096212 77.430392 
L 154.182013 73.114787 
L 184.584445 73.114787 
L 185.670246 71.269207 
L 193.270854 71.269207 
L 194.356656 69.063304 
L 201.957264 69.063304 
L 203.043065 64.969233 
L 242.131906 64.969233 
L 243.217708 64.731001 
L 263.847929 64.670373 
L 264.933731 63.088312 
L 266.019532 62.365132 
L 320.30959 62.365132 
L 321.395391 59.053062 
L 346.368817 59.053062 
L 347.454618 57.825757 
L 374.599647 57.825757 
L 375.685448 55.807329 
L 377.857051 55.807329 
L 378.942852 53.568 
L 398.487273 53.568 
L 398.487273 53.568 
" style="fill:none;stroke:#ff0000;stroke-linecap:square;stroke-width:1.5;"/>
   </g>
   <g id="patch_3">
    <path d="M 57.6 307.584 
L 57.6 41.472 
" style="fill:none;stroke:#000000;stroke-linecap:square;stroke-linejoin:miter;stroke-width:0.8;"/>
   </g>
   <g id="patch_4">
    <path d="M 414.72 307.584 
L 414.72 41.472 
" style="fill:none;stroke:#000000;stroke-linecap:square;stroke-linejoin:miter;stroke-width:0.8;"/>
   </g>
   <g id="patch_5">
    <path d="M 57.6 307.584 
L 414.72 307.584 
" style="fill:none;stroke:#000000;stroke-linecap:square;stroke-linejoin:miter;stroke-width:0.8;"/>
   </g>
   <g id="patch_6">
    <path d="M 57.6 41.472 
L 414.72 41.472 
" style="fill:none;stroke:#000000;stroke-linecap:square;stroke-linejoin:miter;stroke-width:0.8;"/>
   </g>
   <g id="text_14">
    <!-- Population's average and best fitness -->
    <g transform="translate(123.529687 35.472)scale(0.12 -0.12)">
     <defs>
      <path d="M 19.671875 64.796875 
L 19.671875 37.40625 
L 32.078125 37.40625 
Q 38.96875 37.40625 42.71875 40.96875 
Q 46.484375 44.53125 46.484375 51.125 
Q 46.484375 57.671875 42.71875 61.234375 
Q 38.96875 64.796875 32.078125 64.796875 
z
M 9.8125 72.90625 
L 32.078125 72.90625 
Q 44.34375 72.90625 50.609375 67.359375 
Q 56.890625 61.8125 56.890625 51.125 
Q 56.890625 40.328125 50.609375 34.8125 
Q 44.34375 29.296875 32.078125 29.296875 
L 19.671875 29.296875 
L 19.671875 0 
L 9.8125 0 
z
" id="DejaVuSans-80"/>
      <path d="M 18.109375 8.203125 
L 18.109375 -20.796875 
L 9.078125 -20.796875 
L 9.078125 54.6875 
L 18.109375 54.6875 
L 18.109375 46.390625 
Q 20.953125 51.265625 25.265625 53.625 
Q 29.59375 56 35.59375 56 
Q 45.5625 56 51.78125 48.09375 
Q 58.015625 40.1875 58.015625 27.296875 
Q 58.015625 14.40625 51.78125 6.484375 
Q 45.5625 -1.421875 35.59375 -1.421875 
Q 29.59375 -1.421875 25.265625 0.953125 
Q 20.953125 3.328125 18.109375 8.203125 
z
M 48.6875 27.296875 
Q 48.6875 37.203125 44.609375 42.84375 
Q 40.53125 48.484375 33.40625 48.484375 
Q 26.265625 48.484375 22.1875 42.84375 
Q 18.109375 37.203125 18.109375 27.296875 
Q 18.109375 17.390625 22.1875 11.75 
Q 26.265625 6.109375 33.40625 6.109375 
Q 40.53125 6.109375 44.609375 11.75 
Q 48.6875 17.390625 48.6875 27.296875 
z
" id="DejaVuSans-112"/>
      <path d="M 8.5 21.578125 
L 8.5 54.6875 
L 17.484375 54.6875 
L 17.484375 21.921875 
Q 17.484375 14.15625 20.5 10.265625 
Q 23.53125 6.390625 29.59375 6.390625 
Q 36.859375 6.390625 41.078125 11.03125 
Q 45.3125 15.671875 45.3125 23.6875 
L 45.3125 54.6875 
L 54.296875 54.6875 
L 54.296875 0 
L 45.3125 0 
L 45.3125 8.40625 
Q 42.046875 3.421875 37.71875 1 
Q 33.40625 -1.421875 27.6875 -1.421875 
Q 18.265625 -1.421875 13.375 4.4375 
Q 8.5 10.296875 8.5 21.578125 
z
M 31.109375 56 
z
" id="DejaVuSans-117"/>
      <path d="M 9.421875 75.984375 
L 18.40625 75.984375 
L 18.40625 0 
L 9.421875 0 
z
" id="DejaVuSans-108"/>
      <path d="M 17.921875 72.90625 
L 17.921875 45.796875 
L 9.625 45.796875 
L 9.625 72.90625 
z
" id="DejaVuSans-39"/>
      <path id="DejaVuSans-32"/>
      <path d="M 2.984375 54.6875 
L 12.5 54.6875 
L 29.59375 8.796875 
L 46.6875 54.6875 
L 56.203125 54.6875 
L 35.6875 0 
L 23.484375 0 
z
" id="DejaVuSans-118"/>
      <path d="M 45.40625 27.984375 
Q 45.40625 37.75 41.375 43.109375 
Q 37.359375 48.484375 30.078125 48.484375 
Q 22.859375 48.484375 18.828125 43.109375 
Q 14.796875 37.75 14.796875 27.984375 
Q 14.796875 18.265625 18.828125 12.890625 
Q 22.859375 7.515625 30.078125 7.515625 
Q 37.359375 7.515625 41.375 12.890625 
Q 45.40625 18.265625 45.40625 27.984375 
z
M 54.390625 6.78125 
Q 54.390625 -7.171875 48.1875 -13.984375 
Q 42 -20.796875 29.203125 -20.796875 
Q 24.46875 -20.796875 20.265625 -20.09375 
Q 16.0625 -19.390625 12.109375 -17.921875 
L 12.109375 -9.1875 
Q 16.0625 -11.328125 19.921875 -12.34375 
Q 23.78125 -13.375 27.78125 -13.375 
Q 36.625 -13.375 41.015625 -8.765625 
Q 45.40625 -4.15625 45.40625 5.171875 
L 45.40625 9.625 
Q 42.625 4.78125 38.28125 2.390625 
Q 33.9375 0 27.875 0 
Q 17.828125 0 11.671875 7.65625 
Q 5.515625 15.328125 5.515625 27.984375 
Q 5.515625 40.671875 11.671875 48.328125 
Q 17.828125 56 27.875 56 
Q 33.9375 56 38.28125 53.609375 
Q 42.625 51.21875 45.40625 46.390625 
L 45.40625 54.6875 
L 54.390625 54.6875 
z
" id="DejaVuSans-103"/>
      <path d="M 45.40625 46.390625 
L 45.40625 75.984375 
L 54.390625 75.984375 
L 54.390625 0 
L 45.40625 0 
L 45.40625 8.203125 
Q 42.578125 3.328125 38.25 0.953125 
Q 33.9375 -1.421875 27.875 -1.421875 
Q 17.96875 -1.421875 11.734375 6.484375 
Q 5.515625 14.40625 5.515625 27.296875 
Q 5.515625 40.1875 11.734375 48.09375 
Q 17.96875 56 27.875 56 
Q 33.9375 56 38.25 53.625 
Q 42.578125 51.265625 45.40625 46.390625 
z
M 14.796875 27.296875 
Q 14.796875 17.390625 18.875 11.75 
Q 22.953125 6.109375 30.078125 6.109375 
Q 37.203125 6.109375 41.296875 11.75 
Q 45.40625 17.390625 45.40625 27.296875 
Q 45.40625 37.203125 41.296875 42.84375 
Q 37.203125 48.484375 30.078125 48.484375 
Q 22.953125 48.484375 18.875 42.84375 
Q 14.796875 37.203125 14.796875 27.296875 
z
" id="DejaVuSans-100"/>
      <path d="M 48.6875 27.296875 
Q 48.6875 37.203125 44.609375 42.84375 
Q 40.53125 48.484375 33.40625 48.484375 
Q 26.265625 48.484375 22.1875 42.84375 
Q 18.109375 37.203125 18.109375 27.296875 
Q 18.109375 17.390625 22.1875 11.75 
Q 26.265625 6.109375 33.40625 6.109375 
Q 40.53125 6.109375 44.609375 11.75 
Q 48.6875 17.390625 48.6875 27.296875 
z
M 18.109375 46.390625 
Q 20.953125 51.265625 25.265625 53.625 
Q 29.59375 56 35.59375 56 
Q 45.5625 56 51.78125 48.09375 
Q 58.015625 40.1875 58.015625 27.296875 
Q 58.015625 14.40625 51.78125 6.484375 
Q 45.5625 -1.421875 35.59375 -1.421875 
Q 29.59375 -1.421875 25.265625 0.953125 
Q 20.953125 3.328125 18.109375 8.203125 
L 18.109375 0 
L 9.078125 0 
L 9.078125 75.984375 
L 18.109375 75.984375 
z
" id="DejaVuSans-98"/>
      <path d="M 37.109375 75.984375 
L 37.109375 68.5 
L 28.515625 68.5 
Q 23.6875 68.5 21.796875 66.546875 
Q 19.921875 64.59375 19.921875 59.515625 
L 19.921875 54.6875 
L 34.71875 54.6875 
L 34.71875 47.703125 
L 19.921875 47.703125 
L 19.921875 0 
L 10.890625 0 
L 10.890625 47.703125 
L 2.296875 47.703125 
L 2.296875 54.6875 
L 10.890625 54.6875 
L 10.890625 58.5 
Q 10.890625 67.625 15.140625 71.796875 
Q 19.390625 75.984375 28.609375 75.984375 
z
" id="DejaVuSans-102"/>
     </defs>
     <use xlink:href="#DejaVuSans-80"/>
     <use x="56.677734" xlink:href="#DejaVuSans-111"/>
     <use x="117.859375" xlink:href="#DejaVuSans-112"/>
     <use x="181.335938" xlink:href="#DejaVuSans-117"/>
     <use x="244.714844" xlink:href="#DejaVuSans-108"/>
     <use x="272.498047" xlink:href="#DejaVuSans-97"/>
     <use x="333.777344" xlink:href="#DejaVuSans-116"/>
     <use x="372.986328" xlink:href="#DejaVuSans-105"/>
     <use x="400.769531" xlink:href="#DejaVuSans-111"/>
     <use x="461.951172" xlink:href="#DejaVuSans-110"/>
     <use x="525.330078" xlink:href="#DejaVuSans-39"/>
     <use x="552.820312" xlink:href="#DejaVuSans-115"/>
     <use x="604.919922" xlink:href="#DejaVuSans-32"/>
     <use x="636.707031" xlink:href="#DejaVuSans-97"/>
     <use x="697.986328" xlink:href="#DejaVuSans-118"/>
     <use x="757.166016" xlink:href="#DejaVuSans-101"/>
     <use x="818.689453" xlink:href="#DejaVuSans-114"/>
     <use x="859.802734" xlink:href="#DejaVuSans-97"/>
     <use x="921.082031" xlink:href="#DejaVuSans-103"/>
     <use x="984.558594" xlink:href="#DejaVuSans-101"/>
     <use x="1046.082031" xlink:href="#DejaVuSans-32"/>
     <use x="1077.869141" xlink:href="#DejaVuSans-97"/>
     <use x="1139.148438" xlink:href="#DejaVuSans-110"/>
     <use x="1202.527344" xlink:href="#DejaVuSans-100"/>
     <use x="1266.003906" xlink:href="#DejaVuSans-32"/>
     <use x="1297.791016" xlink:href="#DejaVuSans-98"/>
     <use x="1361.267578" xlink:href="#DejaVuSans-101"/>
     <use x="1422.791016" xlink:href="#DejaVuSans-115"/>
     <use x="1474.890625" xlink:href="#DejaVuSans-116"/>
     <use x="1514.099609" xlink:href="#DejaVuSans-32"/>
     <use x="1545.886719" xlink:href="#DejaVuSans-102"/>
     <use x="1581.091797" xlink:href="#DejaVuSans-105"/>
     <use x="1608.875" xlink:href="#DejaVuSans-116"/>
     <use x="1648.083984" xlink:href="#DejaVuSans-110"/>
     <use x="1711.462891" xlink:href="#DejaVuSans-101"/>
     <use x="1772.986328" xlink:href="#DejaVuSans-115"/>
     <use x="1825.085938" xlink:href="#DejaVuSans-115"/>
    </g>
   </g>
   <g id="legend_1">
    <g id="patch_7">
     <path d="M 334.779375 302.584 
L 407.72 302.584 
Q 409.72 302.584 409.72 300.584 
L 409.72 242.8715 
Q 409.72 240.8715 407.72 240.8715 
L 334.779375 240.8715 
Q 332.779375 240.8715 332.779375 242.8715 
L 332.779375 300.584 
Q 332.779375 302.584 334.779375 302.584 
z
" style="fill:#ffffff;opacity:0.8;stroke:#cccccc;stroke-linejoin:miter;"/>
    </g>
    <g id="line2d_27">
     <path d="M 336.779375 248.969937 
L 356.779375 248.969937 
" style="fill:none;stroke:#0000ff;stroke-linecap:square;stroke-width:1.5;"/>
    </g>
    <g id="line2d_28"/>
    <g id="text_15">
     <!-- average -->
     <g transform="translate(364.779375 252.469937)scale(0.1 -0.1)">
      <use xlink:href="#DejaVuSans-97"/>
      <use x="61.279297" xlink:href="#DejaVuSans-118"/>
      <use x="120.458984" xlink:href="#DejaVuSans-101"/>
      <use x="181.982422" xlink:href="#DejaVuSans-114"/>
      <use x="223.095703" xlink:href="#DejaVuSans-97"/>
      <use x="284.375" xlink:href="#DejaVuSans-103"/>
      <use x="347.851562" xlink:href="#DejaVuSans-101"/>
     </g>
    </g>
    <g id="line2d_29">
     <path d="M 336.779375 263.648062 
L 356.779375 263.648062 
" style="fill:none;stroke:#008000;stroke-dasharray:9.6,2.4,1.5,2.4;stroke-dashoffset:0;stroke-width:1.5;"/>
    </g>
    <g id="line2d_30"/>
    <g id="text_16">
     <!-- -1 sd -->
     <g transform="translate(364.779375 267.148062)scale(0.1 -0.1)">
      <defs>
       <path d="M 4.890625 31.390625 
L 31.203125 31.390625 
L 31.203125 23.390625 
L 4.890625 23.390625 
z
" id="DejaVuSans-45"/>
      </defs>
      <use xlink:href="#DejaVuSans-45"/>
      <use x="36.083984" xlink:href="#DejaVuSans-49"/>
      <use x="99.707031" xlink:href="#DejaVuSans-32"/>
      <use x="131.494141" xlink:href="#DejaVuSans-115"/>
      <use x="183.59375" xlink:href="#DejaVuSans-100"/>
     </g>
    </g>
    <g id="line2d_31">
     <path d="M 336.779375 278.326187 
L 356.779375 278.326187 
" style="fill:none;stroke:#008000;stroke-dasharray:9.6,2.4,1.5,2.4;stroke-dashoffset:0;stroke-width:1.5;"/>
    </g>
    <g id="line2d_32"/>
    <g id="text_17">
     <!-- +1 sd -->
     <g transform="translate(364.779375 281.826187)scale(0.1 -0.1)">
      <defs>
       <path d="M 46 62.703125 
L 46 35.5 
L 73.1875 35.5 
L 73.1875 27.203125 
L 46 27.203125 
L 46 0 
L 37.796875 0 
L 37.796875 27.203125 
L 10.59375 27.203125 
L 10.59375 35.5 
L 37.796875 35.5 
L 37.796875 62.703125 
z
" id="DejaVuSans-43"/>
      </defs>
      <use xlink:href="#DejaVuSans-43"/>
      <use x="83.789062" xlink:href="#DejaVuSans-49"/>
      <use x="147.412109" xlink:href="#DejaVuSans-32"/>
      <use x="179.199219" xlink:href="#DejaVuSans-115"/>
      <use x="231.298828" xlink:href="#DejaVuSans-100"/>
     </g>
    </g>
    <g id="line2d_33">
     <path d="M 336.779375 293.004312 
L 356.779375 293.004312 
" style="fill:none;stroke:#ff0000;stroke-linecap:square;stroke-width:1.5;"/>
    </g>
    <g id="line2d_34"/>
    <g id="text_18">
     <!-- best -->
     <g transform="translate(364.779375 296.504312)scale(0.1 -0.1)">
      <use xlink:href="#DejaVuSans-98"/>
      <use x="63.476562" xlink:href="#DejaVuSans-101"/>
      <use x="125" xlink:href="#DejaVuSans-115"/>
      <use x="177.099609" xlink:href="#DejaVuSans-116"/>
     </g>
    </g>
   </g>
  </g>
 </g>
 <defs>
  <clipPath id="p5d5b9ac75b">
   <rect height="266.112" width="357.12" x="57.6" y="41.472"/>
  </clipPath>
 </defs>
</svg>
