<?xml version="1.0" encoding="utf-8" standalone="no"?>
<!DOCTYPE svg PUBLIC "-//W3C//DTD SVG 1.1//EN"
  "http://www.w3.org/Graphics/SVG/1.1/DTD/svg11.dtd">
<!-- Created with matplotlib (https://matplotlib.org/) -->
<svg height="345.6pt" version="1.1" viewBox="0 0 460.8 345.6" width="460.8pt" xmlns="http://www.w3.org/2000/svg" xmlns:xlink="http://www.w3.org/1999/xlink">
 <metadata>
  <rdf:RDF xmlns:cc="http://creativecommons.org/ns#" xmlns:dc="http://purl.org/dc/elements/1.1/" xmlns:rdf="http://www.w3.org/1999/02/22-rdf-syntax-ns#">
   <cc:Work>
    <dc:type rdf:resource="http://purl.org/dc/dcmitype/StillImage"/>
    <dc:date>2022-04-14T15:55:00.012566</dc:date>
    <dc:format>image/svg+xml</dc:format>
    <dc:creator>
     <cc:Agent>
      <dc:title>Matplotlib v3.3.4, https://matplotlib.org/</dc:title>
     </cc:Agent>
    </dc:creator>
   </cc:Work>
  </rdf:RDF>
 </metadata>
 <defs>
  <style type="text/css">*{stroke-linecap:butt;stroke-linejoin:round;}</style>
 </defs>
 <g id="figure_1">
  <g id="patch_1">
   <path d="M 0 345.6 
L 460.8 345.6 
L 460.8 0 
L 0 0 
z
" style="fill:#ffffff;"/>
  </g>
  <g id="axes_1">
   <g id="patch_2">
    <path d="M 57.6 307.584 
L 414.72 307.584 
L 414.72 41.472 
L 57.6 41.472 
z
" style="fill:#ffffff;"/>
   </g>
   <g id="matplotlib.axis_1">
    <g id="xtick_1">
     <g id="line2d_1">
      <path clip-path="url(#p9aca5f704e)" d="M 73.832727 307.584 
L 73.832727 41.472 
" style="fill:none;stroke:#b0b0b0;stroke-linecap:square;stroke-width:0.8;"/>
     </g>
     <g id="line2d_2">
      <defs>
       <path d="M 0 0 
L 0 3.5 
" id="maf50d8b1e6" style="stroke:#000000;stroke-width:0.8;"/>
      </defs>
      <g>
       <use style="stroke:#000000;stroke-width:0.8;" x="73.832727" xlink:href="#maf50d8b1e6" y="307.584"/>
      </g>
     </g>
     <g id="text_1">
      <!-- 0 -->
      <g transform="translate(70.651477 322.182437)scale(0.1 -0.1)">
       <defs>
        <path d="M 31.78125 66.40625 
Q 24.171875 66.40625 20.328125 58.90625 
Q 16.5 51.421875 16.5 36.375 
Q 16.5 21.390625 20.328125 13.890625 
Q 24.171875 6.390625 31.78125 6.390625 
Q 39.453125 6.390625 43.28125 13.890625 
Q 47.125 21.390625 47.125 36.375 
Q 47.125 51.421875 43.28125 58.90625 
Q 39.453125 66.40625 31.78125 66.40625 
z
M 31.78125 74.21875 
Q 44.046875 74.21875 50.515625 64.515625 
Q 56.984375 54.828125 56.984375 36.375 
Q 56.984375 17.96875 50.515625 8.265625 
Q 44.046875 -1.421875 31.78125 -1.421875 
Q 19.53125 -1.421875 13.0625 8.265625 
Q 6.59375 17.96875 6.59375 36.375 
Q 6.59375 54.828125 13.0625 64.515625 
Q 19.53125 74.21875 31.78125 74.21875 
z
" id="DejaVuSans-48"/>
       </defs>
       <use xlink:href="#DejaVuSans-48"/>
      </g>
     </g>
    </g>
    <g id="xtick_2">
     <g id="line2d_3">
      <path clip-path="url(#p9aca5f704e)" d="M 128.122785 307.584 
L 128.122785 41.472 
" style="fill:none;stroke:#b0b0b0;stroke-linecap:square;stroke-width:0.8;"/>
     </g>
     <g id="line2d_4">
      <g>
       <use style="stroke:#000000;stroke-width:0.8;" x="128.122785" xlink:href="#maf50d8b1e6" y="307.584"/>
      </g>
     </g>
     <g id="text_2">
      <!-- 50 -->
      <g transform="translate(121.760285 322.182437)scale(0.1 -0.1)">
       <defs>
        <path d="M 10.796875 72.90625 
L 49.515625 72.90625 
L 49.515625 64.59375 
L 19.828125 64.59375 
L 19.828125 46.734375 
Q 21.96875 47.46875 24.109375 47.828125 
Q 26.265625 48.1875 28.421875 48.1875 
Q 40.625 48.1875 47.75 41.5 
Q 54.890625 34.8125 54.890625 23.390625 
Q 54.890625 11.625 47.5625 5.09375 
Q 40.234375 -1.421875 26.90625 -1.421875 
Q 22.3125 -1.421875 17.546875 -0.640625 
Q 12.796875 0.140625 7.71875 1.703125 
L 7.71875 11.625 
Q 12.109375 9.234375 16.796875 8.0625 
Q 21.484375 6.890625 26.703125 6.890625 
Q 35.15625 6.890625 40.078125 11.328125 
Q 45.015625 15.765625 45.015625 23.390625 
Q 45.015625 31 40.078125 35.4375 
Q 35.15625 39.890625 26.703125 39.890625 
Q 22.75 39.890625 18.8125 39.015625 
Q 14.890625 38.140625 10.796875 36.28125 
z
" id="DejaVuSans-53"/>
       </defs>
       <use xlink:href="#DejaVuSans-53"/>
       <use x="63.623047" xlink:href="#DejaVuSans-48"/>
      </g>
     </g>
    </g>
    <g id="xtick_3">
     <g id="line2d_5">
      <path clip-path="url(#p9aca5f704e)" d="M 182.412843 307.584 
L 182.412843 41.472 
" style="fill:none;stroke:#b0b0b0;stroke-linecap:square;stroke-width:0.8;"/>
     </g>
     <g id="line2d_6">
      <g>
       <use style="stroke:#000000;stroke-width:0.8;" x="182.412843" xlink:href="#maf50d8b1e6" y="307.584"/>
      </g>
     </g>
     <g id="text_3">
      <!-- 100 -->
      <g transform="translate(172.869093 322.182437)scale(0.1 -0.1)">
       <defs>
        <path d="M 12.40625 8.296875 
L 28.515625 8.296875 
L 28.515625 63.921875 
L 10.984375 60.40625 
L 10.984375 69.390625 
L 28.421875 72.90625 
L 38.28125 72.90625 
L 38.28125 8.296875 
L 54.390625 8.296875 
L 54.390625 0 
L 12.40625 0 
z
" id="DejaVuSans-49"/>
       </defs>
       <use xlink:href="#DejaVuSans-49"/>
       <use x="63.623047" xlink:href="#DejaVuSans-48"/>
       <use x="127.246094" xlink:href="#DejaVuSans-48"/>
      </g>
     </g>
    </g>
    <g id="xtick_4">
     <g id="line2d_7">
      <path clip-path="url(#p9aca5f704e)" d="M 236.702901 307.584 
L 236.702901 41.472 
" style="fill:none;stroke:#b0b0b0;stroke-linecap:square;stroke-width:0.8;"/>
     </g>
     <g id="line2d_8">
      <g>
       <use style="stroke:#000000;stroke-width:0.8;" x="236.702901" xlink:href="#maf50d8b1e6" y="307.584"/>
      </g>
     </g>
     <g id="text_4">
      <!-- 150 -->
      <g transform="translate(227.159151 322.182437)scale(0.1 -0.1)">
       <use xlink:href="#DejaVuSans-49"/>
       <use x="63.623047" xlink:href="#DejaVuSans-53"/>
       <use x="127.246094" xlink:href="#DejaVuSans-48"/>
      </g>
     </g>
    </g>
    <g id="xtick_5">
     <g id="line2d_9">
      <path clip-path="url(#p9aca5f704e)" d="M 290.992958 307.584 
L 290.992958 41.472 
" style="fill:none;stroke:#b0b0b0;stroke-linecap:square;stroke-width:0.8;"/>
     </g>
     <g id="line2d_10">
      <g>
       <use style="stroke:#000000;stroke-width:0.8;" x="290.992958" xlink:href="#maf50d8b1e6" y="307.584"/>
      </g>
     </g>
     <g id="text_5">
      <!-- 200 -->
      <g transform="translate(281.449208 322.182437)scale(0.1 -0.1)">
       <defs>
        <path d="M 19.1875 8.296875 
L 53.609375 8.296875 
L 53.609375 0 
L 7.328125 0 
L 7.328125 8.296875 
Q 12.9375 14.109375 22.625 23.890625 
Q 32.328125 33.6875 34.8125 36.53125 
Q 39.546875 41.84375 41.421875 45.53125 
Q 43.3125 49.21875 43.3125 52.78125 
Q 43.3125 58.59375 39.234375 62.25 
Q 35.15625 65.921875 28.609375 65.921875 
Q 23.96875 65.921875 18.8125 64.3125 
Q 13.671875 62.703125 7.8125 59.421875 
L 7.8125 69.390625 
Q 13.765625 71.78125 18.9375 73 
Q 24.125 74.21875 28.421875 74.21875 
Q 39.75 74.21875 46.484375 68.546875 
Q 53.21875 62.890625 53.21875 53.421875 
Q 53.21875 48.921875 51.53125 44.890625 
Q 49.859375 40.875 45.40625 35.40625 
Q 44.1875 33.984375 37.640625 27.21875 
Q 31.109375 20.453125 19.1875 8.296875 
z
" id="DejaVuSans-50"/>
       </defs>
       <use xlink:href="#DejaVuSans-50"/>
       <use x="63.623047" xlink:href="#DejaVuSans-48"/>
       <use x="127.246094" xlink:href="#DejaVuSans-48"/>
      </g>
     </g>
    </g>
    <g id="xtick_6">
     <g id="line2d_11">
      <path clip-path="url(#p9aca5f704e)" d="M 345.283016 307.584 
L 345.283016 41.472 
" style="fill:none;stroke:#b0b0b0;stroke-linecap:square;stroke-width:0.8;"/>
     </g>
     <g id="line2d_12">
      <g>
       <use style="stroke:#000000;stroke-width:0.8;" x="345.283016" xlink:href="#maf50d8b1e6" y="307.584"/>
      </g>
     </g>
     <g id="text_6">
      <!-- 250 -->
      <g transform="translate(335.739266 322.182437)scale(0.1 -0.1)">
       <use xlink:href="#DejaVuSans-50"/>
       <use x="63.623047" xlink:href="#DejaVuSans-53"/>
       <use x="127.246094" xlink:href="#DejaVuSans-48"/>
      </g>
     </g>
    </g>
    <g id="xtick_7">
     <g id="line2d_13">
      <path clip-path="url(#p9aca5f704e)" d="M 399.573074 307.584 
L 399.573074 41.472 
" style="fill:none;stroke:#b0b0b0;stroke-linecap:square;stroke-width:0.8;"/>
     </g>
     <g id="line2d_14">
      <g>
       <use style="stroke:#000000;stroke-width:0.8;" x="399.573074" xlink:href="#maf50d8b1e6" y="307.584"/>
      </g>
     </g>
     <g id="text_7">
      <!-- 300 -->
      <g transform="translate(390.029324 322.182437)scale(0.1 -0.1)">
       <defs>
        <path d="M 40.578125 39.3125 
Q 47.65625 37.796875 51.625 33 
Q 55.609375 28.21875 55.609375 21.1875 
Q 55.609375 10.40625 48.1875 4.484375 
Q 40.765625 -1.421875 27.09375 -1.421875 
Q 22.515625 -1.421875 17.65625 -0.515625 
Q 12.796875 0.390625 7.625 2.203125 
L 7.625 11.71875 
Q 11.71875 9.328125 16.59375 8.109375 
Q 21.484375 6.890625 26.8125 6.890625 
Q 36.078125 6.890625 40.9375 10.546875 
Q 45.796875 14.203125 45.796875 21.1875 
Q 45.796875 27.640625 41.28125 31.265625 
Q 36.765625 34.90625 28.71875 34.90625 
L 20.21875 34.90625 
L 20.21875 43.015625 
L 29.109375 43.015625 
Q 36.375 43.015625 40.234375 45.921875 
Q 44.09375 48.828125 44.09375 54.296875 
Q 44.09375 59.90625 40.109375 62.90625 
Q 36.140625 65.921875 28.71875 65.921875 
Q 24.65625 65.921875 20.015625 65.03125 
Q 15.375 64.15625 9.8125 62.3125 
L 9.8125 71.09375 
Q 15.4375 72.65625 20.34375 73.4375 
Q 25.25 74.21875 29.59375 74.21875 
Q 40.828125 74.21875 47.359375 69.109375 
Q 53.90625 64.015625 53.90625 55.328125 
Q 53.90625 49.265625 50.4375 45.09375 
Q 46.96875 40.921875 40.578125 39.3125 
z
" id="DejaVuSans-51"/>
       </defs>
       <use xlink:href="#DejaVuSans-51"/>
       <use x="63.623047" xlink:href="#DejaVuSans-48"/>
       <use x="127.246094" xlink:href="#DejaVuSans-48"/>
      </g>
     </g>
    </g>
    <g id="text_8">
     <!-- Generations -->
     <g transform="translate(205.662344 335.860562)scale(0.1 -0.1)">
      <defs>
       <path d="M 59.515625 10.40625 
L 59.515625 29.984375 
L 43.40625 29.984375 
L 43.40625 38.09375 
L 69.28125 38.09375 
L 69.28125 6.78125 
Q 63.578125 2.734375 56.6875 0.65625 
Q 49.8125 -1.421875 42 -1.421875 
Q 24.90625 -1.421875 15.25 8.5625 
Q 5.609375 18.5625 5.609375 36.375 
Q 5.609375 54.25 15.25 64.234375 
Q 24.90625 74.21875 42 74.21875 
Q 49.125 74.21875 55.546875 72.453125 
Q 61.96875 70.703125 67.390625 67.28125 
L 67.390625 56.78125 
Q 61.921875 61.421875 55.765625 63.765625 
Q 49.609375 66.109375 42.828125 66.109375 
Q 29.4375 66.109375 22.71875 58.640625 
Q 16.015625 51.171875 16.015625 36.375 
Q 16.015625 21.625 22.71875 14.15625 
Q 29.4375 6.6875 42.828125 6.6875 
Q 48.046875 6.6875 52.140625 7.59375 
Q 56.25 8.5 59.515625 10.40625 
z
" id="DejaVuSans-71"/>
       <path d="M 56.203125 29.59375 
L 56.203125 25.203125 
L 14.890625 25.203125 
Q 15.484375 15.921875 20.484375 11.0625 
Q 25.484375 6.203125 34.421875 6.203125 
Q 39.59375 6.203125 44.453125 7.46875 
Q 49.3125 8.734375 54.109375 11.28125 
L 54.109375 2.78125 
Q 49.265625 0.734375 44.1875 -0.34375 
Q 39.109375 -1.421875 33.890625 -1.421875 
Q 20.796875 -1.421875 13.15625 6.1875 
Q 5.515625 13.8125 5.515625 26.8125 
Q 5.515625 40.234375 12.765625 48.109375 
Q 20.015625 56 32.328125 56 
Q 43.359375 56 49.78125 48.890625 
Q 56.203125 41.796875 56.203125 29.59375 
z
M 47.21875 32.234375 
Q 47.125 39.59375 43.09375 43.984375 
Q 39.0625 48.390625 32.421875 48.390625 
Q 24.90625 48.390625 20.390625 44.140625 
Q 15.875 39.890625 15.1875 32.171875 
z
" id="DejaVuSans-101"/>
       <path d="M 54.890625 33.015625 
L 54.890625 0 
L 45.90625 0 
L 45.90625 32.71875 
Q 45.90625 40.484375 42.875 44.328125 
Q 39.84375 48.1875 33.796875 48.1875 
Q 26.515625 48.1875 22.3125 43.546875 
Q 18.109375 38.921875 18.109375 30.90625 
L 18.109375 0 
L 9.078125 0 
L 9.078125 54.6875 
L 18.109375 54.6875 
L 18.109375 46.1875 
Q 21.34375 51.125 25.703125 53.5625 
Q 30.078125 56 35.796875 56 
Q 45.21875 56 50.046875 50.171875 
Q 54.890625 44.34375 54.890625 33.015625 
z
" id="DejaVuSans-110"/>
       <path d="M 41.109375 46.296875 
Q 39.59375 47.171875 37.8125 47.578125 
Q 36.03125 48 33.890625 48 
Q 26.265625 48 22.1875 43.046875 
Q 18.109375 38.09375 18.109375 28.8125 
L 18.109375 0 
L 9.078125 0 
L 9.078125 54.6875 
L 18.109375 54.6875 
L 18.109375 46.1875 
Q 20.953125 51.171875 25.484375 53.578125 
Q 30.03125 56 36.53125 56 
Q 37.453125 56 38.578125 55.875 
Q 39.703125 55.765625 41.0625 55.515625 
z
" id="DejaVuSans-114"/>
       <path d="M 34.28125 27.484375 
Q 23.390625 27.484375 19.1875 25 
Q 14.984375 22.515625 14.984375 16.5 
Q 14.984375 11.71875 18.140625 8.90625 
Q 21.296875 6.109375 26.703125 6.109375 
Q 34.1875 6.109375 38.703125 11.40625 
Q 43.21875 16.703125 43.21875 25.484375 
L 43.21875 27.484375 
z
M 52.203125 31.203125 
L 52.203125 0 
L 43.21875 0 
L 43.21875 8.296875 
Q 40.140625 3.328125 35.546875 0.953125 
Q 30.953125 -1.421875 24.3125 -1.421875 
Q 15.921875 -1.421875 10.953125 3.296875 
Q 6 8.015625 6 15.921875 
Q 6 25.140625 12.171875 29.828125 
Q 18.359375 34.515625 30.609375 34.515625 
L 43.21875 34.515625 
L 43.21875 35.40625 
Q 43.21875 41.609375 39.140625 45 
Q 35.0625 48.390625 27.6875 48.390625 
Q 23 48.390625 18.546875 47.265625 
Q 14.109375 46.140625 10.015625 43.890625 
L 10.015625 52.203125 
Q 14.9375 54.109375 19.578125 55.046875 
Q 24.21875 56 28.609375 56 
Q 40.484375 56 46.34375 49.84375 
Q 52.203125 43.703125 52.203125 31.203125 
z
" id="DejaVuSans-97"/>
       <path d="M 18.3125 70.21875 
L 18.3125 54.6875 
L 36.8125 54.6875 
L 36.8125 47.703125 
L 18.3125 47.703125 
L 18.3125 18.015625 
Q 18.3125 11.328125 20.140625 9.421875 
Q 21.96875 7.515625 27.59375 7.515625 
L 36.8125 7.515625 
L 36.8125 0 
L 27.59375 0 
Q 17.1875 0 13.234375 3.875 
Q 9.28125 7.765625 9.28125 18.015625 
L 9.28125 47.703125 
L 2.6875 47.703125 
L 2.6875 54.6875 
L 9.28125 54.6875 
L 9.28125 70.21875 
z
" id="DejaVuSans-116"/>
       <path d="M 9.421875 54.6875 
L 18.40625 54.6875 
L 18.40625 0 
L 9.421875 0 
z
M 9.421875 75.984375 
L 18.40625 75.984375 
L 18.40625 64.59375 
L 9.421875 64.59375 
z
" id="DejaVuSans-105"/>
       <path d="M 30.609375 48.390625 
Q 23.390625 48.390625 19.1875 42.75 
Q 14.984375 37.109375 14.984375 27.296875 
Q 14.984375 17.484375 19.15625 11.84375 
Q 23.34375 6.203125 30.609375 6.203125 
Q 37.796875 6.203125 41.984375 11.859375 
Q 46.1875 17.53125 46.1875 27.296875 
Q 46.1875 37.015625 41.984375 42.703125 
Q 37.796875 48.390625 30.609375 48.390625 
z
M 30.609375 56 
Q 42.328125 56 49.015625 48.375 
Q 55.71875 40.765625 55.71875 27.296875 
Q 55.71875 13.875 49.015625 6.21875 
Q 42.328125 -1.421875 30.609375 -1.421875 
Q 18.84375 -1.421875 12.171875 6.21875 
Q 5.515625 13.875 5.515625 27.296875 
Q 5.515625 40.765625 12.171875 48.375 
Q 18.84375 56 30.609375 56 
z
" id="DejaVuSans-111"/>
       <path d="M 44.28125 53.078125 
L 44.28125 44.578125 
Q 40.484375 46.53125 36.375 47.5 
Q 32.28125 48.484375 27.875 48.484375 
Q 21.1875 48.484375 17.84375 46.4375 
Q 14.5 44.390625 14.5 40.28125 
Q 14.5 37.15625 16.890625 35.375 
Q 19.28125 33.59375 26.515625 31.984375 
L 29.59375 31.296875 
Q 39.15625 29.25 43.1875 25.515625 
Q 47.21875 21.78125 47.21875 15.09375 
Q 47.21875 7.46875 41.1875 3.015625 
Q 35.15625 -1.421875 24.609375 -1.421875 
Q 20.21875 -1.421875 15.453125 -0.5625 
Q 10.6875 0.296875 5.421875 2 
L 5.421875 11.28125 
Q 10.40625 8.6875 15.234375 7.390625 
Q 20.0625 6.109375 24.8125 6.109375 
Q 31.15625 6.109375 34.5625 8.28125 
Q 37.984375 10.453125 37.984375 14.40625 
Q 37.984375 18.0625 35.515625 20.015625 
Q 33.0625 21.96875 24.703125 23.78125 
L 21.578125 24.515625 
Q 13.234375 26.265625 9.515625 29.90625 
Q 5.8125 33.546875 5.8125 39.890625 
Q 5.8125 47.609375 11.28125 51.796875 
Q 16.75 56 26.8125 56 
Q 31.78125 56 36.171875 55.265625 
Q 40.578125 54.546875 44.28125 53.078125 
z
" id="DejaVuSans-115"/>
      </defs>
      <use xlink:href="#DejaVuSans-71"/>
      <use x="77.490234" xlink:href="#DejaVuSans-101"/>
      <use x="139.013672" xlink:href="#DejaVuSans-110"/>
      <use x="202.392578" xlink:href="#DejaVuSans-101"/>
      <use x="263.916016" xlink:href="#DejaVuSans-114"/>
      <use x="305.029297" xlink:href="#DejaVuSans-97"/>
      <use x="366.308594" xlink:href="#DejaVuSans-116"/>
      <use x="405.517578" xlink:href="#DejaVuSans-105"/>
      <use x="433.300781" xlink:href="#DejaVuSans-111"/>
      <use x="494.482422" xlink:href="#DejaVuSans-110"/>
      <use x="557.861328" xlink:href="#DejaVuSans-115"/>
     </g>
    </g>
   </g>
   <g id="matplotlib.axis_2">
    <g id="ytick_1">
     <g id="line2d_15">
      <path clip-path="url(#p9aca5f704e)" d="M 57.6 297.672939 
L 414.72 297.672939 
" style="fill:none;stroke:#b0b0b0;stroke-linecap:square;stroke-width:0.8;"/>
     </g>
     <g id="line2d_16">
      <defs>
       <path d="M 0 0 
L -3.5 0 
" id="m53704eb4ec" style="stroke:#000000;stroke-width:0.8;"/>
      </defs>
      <g>
       <use style="stroke:#000000;stroke-width:0.8;" x="57.6" xlink:href="#m53704eb4ec" y="297.672939"/>
      </g>
     </g>
     <g id="text_9">
      <!-- −500 -->
      <g transform="translate(23.132812 301.472158)scale(0.1 -0.1)">
       <defs>
        <path d="M 10.59375 35.5 
L 73.1875 35.5 
L 73.1875 27.203125 
L 10.59375 27.203125 
z
" id="DejaVuSans-8722"/>
       </defs>
       <use xlink:href="#DejaVuSans-8722"/>
       <use x="83.789062" xlink:href="#DejaVuSans-53"/>
       <use x="147.412109" xlink:href="#DejaVuSans-48"/>
       <use x="211.035156" xlink:href="#DejaVuSans-48"/>
      </g>
     </g>
    </g>
    <g id="ytick_2">
     <g id="line2d_17">
      <path clip-path="url(#p9aca5f704e)" d="M 57.6 252.648524 
L 414.72 252.648524 
" style="fill:none;stroke:#b0b0b0;stroke-linecap:square;stroke-width:0.8;"/>
     </g>
     <g id="line2d_18">
      <g>
       <use style="stroke:#000000;stroke-width:0.8;" x="57.6" xlink:href="#m53704eb4ec" y="252.648524"/>
      </g>
     </g>
     <g id="text_10">
      <!-- −400 -->
      <g transform="translate(23.132812 256.447742)scale(0.1 -0.1)">
       <defs>
        <path d="M 37.796875 64.3125 
L 12.890625 25.390625 
L 37.796875 25.390625 
z
M 35.203125 72.90625 
L 47.609375 72.90625 
L 47.609375 25.390625 
L 58.015625 25.390625 
L 58.015625 17.1875 
L 47.609375 17.1875 
L 47.609375 0 
L 37.796875 0 
L 37.796875 17.1875 
L 4.890625 17.1875 
L 4.890625 26.703125 
z
" id="DejaVuSans-52"/>
       </defs>
       <use xlink:href="#DejaVuSans-8722"/>
       <use x="83.789062" xlink:href="#DejaVuSans-52"/>
       <use x="147.412109" xlink:href="#DejaVuSans-48"/>
       <use x="211.035156" xlink:href="#DejaVuSans-48"/>
      </g>
     </g>
    </g>
    <g id="ytick_3">
     <g id="line2d_19">
      <path clip-path="url(#p9aca5f704e)" d="M 57.6 207.624108 
L 414.72 207.624108 
" style="fill:none;stroke:#b0b0b0;stroke-linecap:square;stroke-width:0.8;"/>
     </g>
     <g id="line2d_20">
      <g>
       <use style="stroke:#000000;stroke-width:0.8;" x="57.6" xlink:href="#m53704eb4ec" y="207.624108"/>
      </g>
     </g>
     <g id="text_11">
      <!-- −300 -->
      <g transform="translate(23.132812 211.423327)scale(0.1 -0.1)">
       <use xlink:href="#DejaVuSans-8722"/>
       <use x="83.789062" xlink:href="#DejaVuSans-51"/>
       <use x="147.412109" xlink:href="#DejaVuSans-48"/>
       <use x="211.035156" xlink:href="#DejaVuSans-48"/>
      </g>
     </g>
    </g>
    <g id="ytick_4">
     <g id="line2d_21">
      <path clip-path="url(#p9aca5f704e)" d="M 57.6 162.599693 
L 414.72 162.599693 
" style="fill:none;stroke:#b0b0b0;stroke-linecap:square;stroke-width:0.8;"/>
     </g>
     <g id="line2d_22">
      <g>
       <use style="stroke:#000000;stroke-width:0.8;" x="57.6" xlink:href="#m53704eb4ec" y="162.599693"/>
      </g>
     </g>
     <g id="text_12">
      <!-- −200 -->
      <g transform="translate(23.132812 166.398912)scale(0.1 -0.1)">
       <use xlink:href="#DejaVuSans-8722"/>
       <use x="83.789062" xlink:href="#DejaVuSans-50"/>
       <use x="147.412109" xlink:href="#DejaVuSans-48"/>
       <use x="211.035156" xlink:href="#DejaVuSans-48"/>
      </g>
     </g>
    </g>
    <g id="ytick_5">
     <g id="line2d_23">
      <path clip-path="url(#p9aca5f704e)" d="M 57.6 117.575278 
L 414.72 117.575278 
" style="fill:none;stroke:#b0b0b0;stroke-linecap:square;stroke-width:0.8;"/>
     </g>
     <g id="line2d_24">
      <g>
       <use style="stroke:#000000;stroke-width:0.8;" x="57.6" xlink:href="#m53704eb4ec" y="117.575278"/>
      </g>
     </g>
     <g id="text_13">
      <!-- −100 -->
      <g transform="translate(23.132812 121.374496)scale(0.1 -0.1)">
       <use xlink:href="#DejaVuSans-8722"/>
       <use x="83.789062" xlink:href="#DejaVuSans-49"/>
       <use x="147.412109" xlink:href="#DejaVuSans-48"/>
       <use x="211.035156" xlink:href="#DejaVuSans-48"/>
      </g>
     </g>
    </g>
    <g id="ytick_6">
     <g id="line2d_25">
      <path clip-path="url(#p9aca5f704e)" d="M 57.6 72.550862 
L 414.72 72.550862 
" style="fill:none;stroke:#b0b0b0;stroke-linecap:square;stroke-width:0.8;"/>
     </g>
     <g id="line2d_26">
      <g>
       <use style="stroke:#000000;stroke-width:0.8;" x="57.6" xlink:href="#m53704eb4ec" y="72.550862"/>
      </g>
     </g>
     <g id="text_14">
      <!-- 0 -->
      <g transform="translate(44.2375 76.350081)scale(0.1 -0.1)">
       <use xlink:href="#DejaVuSans-48"/>
      </g>
     </g>
    </g>
    <g id="text_15">
     <!-- Fitness -->
     <g transform="translate(17.053125 191.845187)rotate(-90)scale(0.1 -0.1)">
      <defs>
       <path d="M 9.8125 72.90625 
L 51.703125 72.90625 
L 51.703125 64.59375 
L 19.671875 64.59375 
L 19.671875 43.109375 
L 48.578125 43.109375 
L 48.578125 34.8125 
L 19.671875 34.8125 
L 19.671875 0 
L 9.8125 0 
z
" id="DejaVuSans-70"/>
      </defs>
      <use xlink:href="#DejaVuSans-70"/>
      <use x="50.269531" xlink:href="#DejaVuSans-105"/>
      <use x="78.052734" xlink:href="#DejaVuSans-116"/>
      <use x="117.261719" xlink:href="#DejaVuSans-110"/>
      <use x="180.640625" xlink:href="#DejaVuSans-101"/>
      <use x="242.164062" xlink:href="#DejaVuSans-115"/>
      <use x="294.263672" xlink:href="#DejaVuSans-115"/>
     </g>
    </g>
   </g>
   <g id="line2d_27">
    <path clip-path="url(#p9aca5f704e)" d="M 73.832727 232.143342 
L 74.918528 158.344277 
L 76.00433 126.355068 
L 77.090131 133.835594 
L 78.175932 131.017273 
L 79.261733 130.712653 
L 80.347534 128.968925 
L 81.433335 125.984437 
L 82.519137 133.107838 
L 83.604938 129.957833 
L 84.690739 132.726354 
L 85.77654 125.781958 
L 86.862341 127.991641 
L 87.948142 124.692032 
L 89.033943 130.293281 
L 90.119745 120.962288 
L 91.205546 118.867621 
L 92.291347 110.888959 
L 93.377148 119.618738 
L 94.462949 110.760429 
L 95.54875 108.836479 
L 96.634552 107.811058 
L 97.720353 112.071064 
L 98.806154 109.490697 
L 99.891955 116.508419 
L 100.977756 113.142384 
L 102.063557 114.249215 
L 103.149358 115.070873 
L 104.23516 114.833017 
L 105.320961 122.912586 
L 106.406762 108.406478 
L 107.492563 126.741446 
L 108.578364 112.609107 
L 109.664165 118.040866 
L 110.749967 121.420819 
L 111.835768 116.625196 
L 112.921569 118.773643 
L 114.00737 114.400679 
L 115.093171 111.44774 
L 116.178972 110.317596 
L 117.264773 111.566366 
L 118.350575 118.143764 
L 119.436376 122.182699 
L 120.522177 113.375198 
L 121.607978 111.573057 
L 122.693779 113.019312 
L 123.77958 113.605979 
L 124.865382 113.00672 
L 125.951183 118.782698 
L 127.036984 105.050997 
L 128.122785 125.380585 
L 129.208586 125.675805 
L 130.294387 117.082857 
L 132.46599 117.139997 
L 133.551791 99.599696 
L 134.637592 106.687248 
L 135.723393 106.345929 
L 136.809194 109.816368 
L 137.894995 100.233493 
L 138.980797 109.43957 
L 140.066598 106.913639 
L 141.152399 109.85269 
L 142.2382 114.781088 
L 143.324001 108.154447 
L 144.409802 104.386367 
L 145.495604 106.600167 
L 146.581405 111.395351 
L 147.667206 103.455027 
L 148.753007 104.0066 
L 149.838808 112.322746 
L 150.924609 109.534827 
L 152.01041 117.071068 
L 153.096212 109.945421 
L 154.182013 109.221314 
L 155.267814 116.131456 
L 156.353615 113.637451 
L 157.439416 114.055108 
L 158.525217 113.909556 
L 159.611019 113.055025 
L 160.69682 113.624076 
L 161.782621 117.17691 
L 162.868422 111.889127 
L 163.954223 119.179634 
L 165.040024 113.333246 
L 166.125825 106.568302 
L 167.211627 107.615357 
L 168.297428 104.090612 
L 169.383229 106.432516 
L 170.46903 111.53965 
L 171.554831 110.380879 
L 172.640632 107.241886 
L 173.726434 107.740035 
L 174.812235 121.042373 
L 175.898036 112.447681 
L 176.983837 113.63099 
L 178.069638 109.880093 
L 179.155439 109.368848 
L 180.24124 112.131144 
L 181.327042 106.754898 
L 182.412843 113.65932 
L 183.498644 113.539091 
L 184.584445 111.428886 
L 185.670246 106.194346 
L 186.756047 117.501757 
L 187.841849 113.907815 
L 188.92765 105.804711 
L 190.013451 104.15067 
L 191.099252 114.481985 
L 192.185053 110.222878 
L 193.270854 109.659746 
L 194.356656 117.734165 
L 195.442457 106.665819 
L 196.528258 110.600706 
L 197.614059 109.414393 
L 198.69986 114.420615 
L 199.785661 110.719794 
L 200.871462 111.448229 
L 201.957264 108.141281 
L 203.043065 110.421717 
L 204.128866 112.244947 
L 205.214667 113.200321 
L 206.300468 103.527221 
L 207.386269 113.406097 
L 208.472071 108.433452 
L 209.557872 113.013019 
L 210.643673 112.914227 
L 211.729474 114.59517 
L 212.815275 111.76316 
L 213.901076 117.11408 
L 214.986877 103.882716 
L 216.072679 111.584778 
L 217.15848 105.937653 
L 218.244281 107.671588 
L 219.330082 109.869301 
L 220.415883 110.116095 
L 221.501684 111.584167 
L 222.587486 110.629615 
L 223.673287 103.408812 
L 224.759088 104.396835 
L 225.844889 111.827099 
L 226.93069 108.265124 
L 228.016491 106.600362 
L 229.102292 110.385384 
L 230.188094 109.291191 
L 231.273895 108.882523 
L 232.359696 115.984028 
L 233.445497 113.566077 
L 234.531298 107.199956 
L 235.617099 112.767298 
L 236.702901 104.429432 
L 237.788702 114.431435 
L 238.874503 114.586021 
L 239.960304 114.540518 
L 241.046105 104.62012 
L 242.131906 118.50249 
L 243.217708 108.745808 
L 244.303509 118.163631 
L 245.38931 118.487132 
L 246.475111 108.27448 
L 247.560912 108.169937 
L 248.646713 117.73674 
L 249.732514 108.766296 
L 250.818316 116.524112 
L 251.904117 115.097517 
L 252.989918 115.126981 
L 254.075719 109.875309 
L 255.16152 112.405091 
L 256.247321 115.591016 
L 257.333123 114.553673 
L 258.418924 115.043741 
L 259.504725 109.529229 
L 260.590526 116.056234 
L 261.676327 115.64962 
L 262.762128 109.856719 
L 263.847929 118.972485 
L 264.933731 110.664165 
L 266.019532 108.119938 
L 267.105333 114.212133 
L 268.191134 117.606985 
L 269.276935 126.937555 
L 270.362736 111.946667 
L 271.448538 108.324428 
L 272.534339 114.386639 
L 273.62014 110.535225 
L 274.705941 107.33459 
L 275.791742 109.15172 
L 276.877543 125.469594 
L 277.963344 115.666633 
L 279.049146 107.331324 
L 280.134947 109.134927 
L 281.220748 103.597179 
L 282.306549 100.732763 
L 283.39235 114.223716 
L 284.478151 113.813127 
L 285.563953 107.421289 
L 286.649754 111.448461 
L 287.735555 108.31031 
L 288.821356 115.257362 
L 289.907157 109.531451 
L 290.992958 110.294018 
L 292.07876 107.177874 
L 293.164561 115.246462 
L 294.250362 111.267661 
L 295.336163 106.679688 
L 296.421964 109.29168 
L 298.593566 113.641018 
L 299.679368 113.531182 
L 300.765169 110.116576 
L 301.85097 110.739007 
L 302.936771 116.58224 
L 304.022572 111.406386 
L 305.108373 109.931665 
L 306.194175 120.796961 
L 307.279976 114.0192 
L 308.365777 111.635946 
L 309.451578 109.99759 
L 310.537379 107.669564 
L 311.62318 113.030659 
L 312.708981 108.294219 
L 313.794783 109.869343 
L 314.880584 115.705055 
L 315.966385 108.124369 
L 317.052186 107.448422 
L 318.137987 112.340779 
L 319.223788 120.737268 
L 320.30959 118.466838 
L 321.395391 119.968261 
L 322.481192 120.095635 
L 323.566993 114.770876 
L 324.652794 116.861807 
L 325.738595 112.862367 
L 326.824396 105.248882 
L 327.910198 111.889309 
L 328.995999 113.72999 
L 330.0818 111.471075 
L 331.167601 113.663773 
L 332.253402 107.893722 
L 333.339203 110.569048 
L 334.425005 103.423175 
L 335.510806 115.740042 
L 336.596607 110.279863 
L 337.682408 115.401137 
L 338.768209 116.343716 
L 339.85401 112.059175 
L 340.939811 111.320409 
L 342.025613 117.75784 
L 343.111414 116.524145 
L 344.197215 114.795563 
L 345.283016 110.245669 
L 346.368817 119.271779 
L 347.454618 110.832524 
L 348.54042 115.262086 
L 350.712022 112.174255 
L 351.797823 116.79459 
L 352.883624 122.635145 
L 353.969425 112.919659 
L 355.055227 118.181049 
L 356.141028 103.35067 
L 357.226829 105.83605 
L 358.31263 110.636793 
L 359.398431 103.9103 
L 360.484232 105.556546 
L 361.570033 103.296714 
L 362.655835 113.189012 
L 363.741636 108.592974 
L 364.827437 111.37024 
L 366.999039 115.841822 
L 368.08484 109.097639 
L 369.170642 114.735776 
L 370.256443 115.816052 
L 372.428045 109.781839 
L 373.513846 109.362227 
L 374.599647 109.353426 
L 375.685448 103.355824 
L 376.77125 115.051932 
L 377.857051 122.291853 
L 378.942852 109.341944 
L 380.028653 109.595353 
L 381.114454 111.445775 
L 382.200255 116.091794 
L 383.286057 119.231152 
L 384.371858 111.05345 
L 385.457659 109.847363 
L 386.54346 112.000663 
L 387.629261 106.797752 
L 388.715062 113.427819 
L 389.800863 109.024246 
L 390.886665 112.230703 
L 391.972466 110.051989 
L 393.058267 112.96871 
L 394.144068 110.426421 
L 395.229869 115.595186 
L 396.31567 113.107748 
L 397.401472 105.675698 
L 398.487273 114.354219 
L 398.487273 114.354219 
" style="fill:none;stroke:#0000ff;stroke-linecap:square;stroke-width:1.5;"/>
   </g>
   <g id="line2d_28">
    <path clip-path="url(#p9aca5f704e)" d="M 73.832727 295.488 
L 74.918528 207.209129 
L 76.00433 171.908966 
L 77.090131 191.933353 
L 78.175932 189.799744 
L 79.261733 193.793636 
L 80.347534 185.908095 
L 81.433335 181.292358 
L 82.519137 191.959123 
L 83.604938 199.051415 
L 84.690739 201.468458 
L 85.77654 185.512191 
L 86.862341 191.73859 
L 87.948142 181.275036 
L 89.033943 200.802101 
L 90.119745 183.758148 
L 91.205546 175.30651 
L 92.291347 154.915207 
L 93.377148 176.97 
L 94.462949 160.354527 
L 95.54875 155.764524 
L 96.634552 155.619823 
L 97.720353 163.049159 
L 98.806154 156.541512 
L 99.891955 171.130266 
L 100.977756 164.859423 
L 102.063557 171.792022 
L 103.149358 167.885721 
L 104.23516 175.210806 
L 105.320961 186.703406 
L 106.406762 156.811445 
L 107.492563 190.021156 
L 108.578364 164.199227 
L 109.664165 175.923395 
L 110.749967 181.074698 
L 111.835768 170.509558 
L 112.921569 177.058465 
L 115.093171 159.002417 
L 116.178972 159.133728 
L 117.264773 163.625571 
L 118.350575 177.918072 
L 119.436376 181.709528 
L 120.522177 163.408913 
L 121.607978 160.048179 
L 122.693779 168.310955 
L 123.77958 163.399632 
L 124.865382 163.394725 
L 125.951183 178.242526 
L 127.036984 145.397513 
L 128.122785 185.614798 
L 129.208586 182.659691 
L 130.294387 173.945108 
L 131.380189 174.331341 
L 132.46599 175.39824 
L 133.551791 131.676135 
L 134.637592 152.912744 
L 135.723393 153.526565 
L 136.809194 160.95062 
L 137.894995 137.943325 
L 138.980797 158.39023 
L 140.066598 154.807435 
L 142.2382 170.634728 
L 143.324001 152.465534 
L 144.409802 150.141351 
L 145.495604 148.670811 
L 146.581405 165.189442 
L 147.667206 143.445051 
L 148.753007 146.853573 
L 149.838808 159.208108 
L 150.924609 158.87449 
L 152.01041 175.582476 
L 153.096212 158.467602 
L 154.182013 152.897724 
L 155.267814 167.593835 
L 156.353615 161.888291 
L 157.439416 164.893586 
L 158.525217 164.389954 
L 159.611019 162.644948 
L 160.69682 168.958194 
L 161.782621 176.394258 
L 162.868422 162.535772 
L 163.954223 173.98946 
L 165.040024 166.604842 
L 166.125825 152.42589 
L 167.211627 155.605727 
L 168.297428 144.620622 
L 169.383229 152.581038 
L 170.46903 162.557799 
L 171.554831 161.082623 
L 172.640632 154.227606 
L 173.726434 150.836932 
L 174.812235 178.172826 
L 175.898036 167.616249 
L 176.983837 173.69398 
L 178.069638 162.723174 
L 179.155439 160.4078 
L 180.24124 164.896359 
L 181.327042 151.974054 
L 182.412843 173.054967 
L 183.498644 167.375653 
L 184.584445 163.734684 
L 185.670246 158.424461 
L 186.756047 174.40361 
L 187.841849 164.480763 
L 188.92765 150.464879 
L 190.013451 143.066072 
L 191.099252 167.785199 
L 192.185053 160.287085 
L 193.270854 156.438809 
L 194.356656 176.483135 
L 195.442457 154.024509 
L 196.528258 156.048601 
L 197.614059 158.72348 
L 198.69986 167.069893 
L 199.785661 162.387709 
L 200.871462 162.457158 
L 201.957264 155.647868 
L 203.043065 156.064337 
L 204.128866 161.530707 
L 205.214667 166.169004 
L 206.300468 148.170835 
L 207.386269 164.500659 
L 208.472071 154.019181 
L 209.557872 162.552878 
L 210.643673 166.986097 
L 211.729474 173.72181 
L 212.815275 161.803637 
L 213.901076 175.434234 
L 214.986877 146.523934 
L 216.072679 155.218971 
L 217.15848 148.340399 
L 218.244281 157.880647 
L 219.330082 162.096478 
L 220.415883 158.651086 
L 221.501684 161.182728 
L 222.587486 165.274101 
L 223.673287 142.250923 
L 224.759088 142.150973 
L 225.844889 162.032941 
L 226.93069 154.552111 
L 228.016491 152.11227 
L 229.102292 157.578379 
L 230.188094 153.494079 
L 231.273895 155.964243 
L 232.359696 170.706895 
L 233.445497 167.244331 
L 234.531298 149.706225 
L 235.617099 169.599165 
L 236.702901 142.28574 
L 237.788702 166.74333 
L 238.874503 163.227196 
L 239.960304 163.17126 
L 241.046105 147.909098 
L 242.131906 177.559918 
L 243.217708 158.197028 
L 244.303509 178.633216 
L 245.38931 175.313294 
L 246.475111 157.007598 
L 247.560912 155.824517 
L 248.646713 173.928041 
L 249.732514 148.382973 
L 250.818316 170.139277 
L 251.904117 168.594639 
L 252.989918 172.669757 
L 254.075719 159.383356 
L 256.247321 165.865975 
L 257.333123 172.500737 
L 258.418924 173.571901 
L 259.504725 155.823661 
L 260.590526 170.975235 
L 261.676327 169.038441 
L 262.762128 155.11739 
L 263.847929 176.858802 
L 264.933731 159.341814 
L 266.019532 154.391038 
L 267.105333 165.288753 
L 268.191134 171.434001 
L 269.276935 190.580773 
L 270.362736 161.347973 
L 271.448538 156.210892 
L 272.534339 163.940096 
L 273.62014 160.822152 
L 274.705941 151.294301 
L 275.791742 153.637177 
L 276.877543 189.450758 
L 277.963344 166.738605 
L 279.049146 150.76159 
L 280.134947 156.086063 
L 281.220748 148.102287 
L 282.306549 134.938303 
L 283.39235 172.603206 
L 284.478151 166.936079 
L 285.563953 152.913095 
L 286.649754 166.320841 
L 287.735555 160.290875 
L 288.821356 172.08528 
L 289.907157 158.244679 
L 290.992958 160.61682 
L 292.07876 153.925719 
L 293.164561 168.234143 
L 294.250362 161.26655 
L 295.336163 158.758391 
L 296.421964 159.222116 
L 297.507765 167.544129 
L 298.593566 165.562203 
L 299.679368 169.096883 
L 300.765169 154.374872 
L 301.85097 159.291364 
L 302.936771 176.363229 
L 304.022572 159.761786 
L 305.108373 158.686715 
L 306.194175 185.241575 
L 307.279976 165.148993 
L 308.365777 163.485247 
L 309.451578 161.187238 
L 310.537379 151.953091 
L 311.62318 166.524497 
L 312.708981 159.862489 
L 313.794783 163.463655 
L 314.880584 168.93377 
L 315.966385 155.889417 
L 317.052186 154.825418 
L 318.137987 158.563272 
L 319.223788 180.374485 
L 320.30959 177.468609 
L 321.395391 179.257308 
L 322.481192 178.707197 
L 323.566993 172.392223 
L 324.652794 174.034577 
L 325.738595 160.956904 
L 326.824396 152.338557 
L 327.910198 159.635888 
L 328.995999 172.277244 
L 330.0818 160.837585 
L 331.167601 166.343833 
L 332.253402 156.661648 
L 333.339203 156.728905 
L 334.425005 143.465384 
L 335.510806 173.219504 
L 336.596607 159.742764 
L 337.682408 171.184615 
L 338.768209 172.951137 
L 339.85401 161.242371 
L 340.939811 160.830262 
L 342.025613 173.1489 
L 343.111414 172.010494 
L 344.197215 168.513315 
L 345.283016 159.425982 
L 346.368817 179.637212 
L 347.454618 167.629427 
L 348.54042 166.633857 
L 349.626221 164.937705 
L 350.712022 170.618253 
L 351.797823 171.504824 
L 352.883624 183.152134 
L 353.969425 162.344443 
L 355.055227 173.505252 
L 356.141028 148.153117 
L 357.226829 153.862523 
L 358.31263 161.60011 
L 359.398431 148.078324 
L 360.484232 147.778068 
L 361.570033 147.989073 
L 362.655835 163.683309 
L 363.741636 155.877089 
L 364.827437 159.133045 
L 365.913238 164.542097 
L 366.999039 173.896468 
L 368.08484 159.029298 
L 369.170642 171.060409 
L 370.256443 174.892303 
L 371.342244 165.724745 
L 372.428045 161.694426 
L 373.513846 158.614698 
L 374.599647 154.651137 
L 375.685448 144.186018 
L 376.77125 169.275377 
L 377.857051 180.921022 
L 378.942852 154.96415 
L 380.028653 157.694773 
L 381.114454 160.902648 
L 382.200255 173.276675 
L 383.286057 178.908596 
L 384.371858 163.86403 
L 385.457659 153.327828 
L 386.54346 164.631243 
L 387.629261 154.357105 
L 388.715062 164.690436 
L 389.800863 157.209409 
L 390.886665 165.164158 
L 391.972466 165.571927 
L 393.058267 164.848688 
L 394.144068 161.741851 
L 395.229869 170.633043 
L 396.31567 169.505717 
L 397.401472 154.728795 
L 398.487273 161.92799 
L 398.487273 161.92799 
" style="fill:none;stroke:#008000;stroke-dasharray:9.6,2.4,1.5,2.4;stroke-dashoffset:0;stroke-width:1.5;"/>
   </g>
   <g id="line2d_29">
    <path clip-path="url(#p9aca5f704e)" d="M 73.832727 168.798685 
L 74.918528 109.479426 
L 76.00433 80.80117 
L 77.090131 75.737836 
L 78.175932 72.234802 
L 79.261733 67.63167 
L 80.347534 72.029755 
L 81.433335 70.676516 
L 82.519137 74.256553 
L 83.604938 60.86425 
L 84.690739 63.98425 
L 85.77654 66.051724 
L 86.862341 64.244692 
L 87.948142 68.109029 
L 89.033943 59.784461 
L 90.119745 58.166428 
L 92.291347 66.862711 
L 93.377148 62.267477 
L 94.462949 61.166331 
L 95.54875 61.908434 
L 96.634552 60.002292 
L 97.720353 61.092968 
L 98.806154 62.439882 
L 100.977756 61.425345 
L 102.063557 56.706407 
L 103.149358 62.256025 
L 104.23516 54.455228 
L 105.320961 59.121765 
L 106.406762 60.001511 
L 107.492563 63.461736 
L 108.578364 61.018988 
L 109.664165 60.158337 
L 110.749967 61.766941 
L 111.835768 62.740833 
L 112.921569 60.488821 
L 114.00737 61.178911 
L 115.093171 63.893063 
L 116.178972 61.501465 
L 117.264773 59.50716 
L 118.350575 58.369455 
L 119.436376 62.655871 
L 120.522177 63.341483 
L 121.607978 63.097936 
L 122.693779 57.72767 
L 123.77958 63.812326 
L 124.865382 62.618715 
L 125.951183 59.322871 
L 127.036984 64.704481 
L 128.122785 65.146372 
L 129.208586 68.691919 
L 130.294387 60.220606 
L 131.380189 59.780654 
L 132.46599 58.881753 
L 133.551791 67.523257 
L 134.637592 60.461752 
L 135.723393 59.165292 
L 136.809194 58.682116 
L 137.894995 62.523662 
L 138.980797 60.488909 
L 140.066598 59.019844 
L 141.152399 57.174422 
L 142.2382 58.927449 
L 143.324001 63.84336 
L 144.409802 58.631384 
L 145.495604 64.529524 
L 146.581405 57.601259 
L 147.667206 63.465003 
L 148.753007 61.159627 
L 149.838808 65.437385 
L 150.924609 60.195163 
L 152.01041 58.55966 
L 153.096212 61.423241 
L 154.182013 65.544903 
L 155.267814 64.669077 
L 156.353615 65.386612 
L 157.439416 63.21663 
L 158.525217 63.429158 
L 159.611019 63.465102 
L 160.69682 58.289957 
L 161.782621 57.959562 
L 163.954223 64.369808 
L 165.040024 60.06165 
L 166.125825 60.710714 
L 167.211627 59.624986 
L 168.297428 63.560603 
L 169.383229 60.283994 
L 170.46903 60.521501 
L 171.554831 59.679135 
L 172.640632 60.256165 
L 173.726434 64.643138 
L 174.812235 63.911919 
L 175.898036 57.279114 
L 176.983837 53.568 
L 178.069638 57.037011 
L 179.155439 58.329896 
L 180.24124 59.365928 
L 181.327042 61.535742 
L 182.412843 54.263672 
L 183.498644 59.702529 
L 184.584445 59.123088 
L 185.670246 53.964232 
L 186.756047 60.599903 
L 187.841849 63.334867 
L 188.92765 61.144542 
L 190.013451 65.235267 
L 191.099252 61.178772 
L 192.185053 60.158671 
L 193.270854 62.880682 
L 194.356656 58.985196 
L 195.442457 59.307129 
L 196.528258 65.152811 
L 197.614059 60.105307 
L 198.69986 61.771336 
L 199.785661 59.051879 
L 200.871462 60.4393 
L 201.957264 60.634694 
L 203.043065 64.779097 
L 204.128866 62.959187 
L 205.214667 60.231638 
L 206.300468 58.883607 
L 207.386269 62.311534 
L 209.557872 63.473161 
L 210.643673 58.842357 
L 211.729474 55.46853 
L 212.815275 61.722683 
L 213.901076 58.793926 
L 214.986877 61.241498 
L 216.072679 67.950585 
L 217.15848 63.534907 
L 218.244281 57.462529 
L 219.330082 57.642124 
L 220.415883 61.581104 
L 221.501684 61.985605 
L 222.587486 55.985129 
L 223.673287 64.566701 
L 224.759088 66.642697 
L 225.844889 61.621258 
L 226.93069 61.978137 
L 228.016491 61.088455 
L 230.188094 65.088303 
L 231.273895 61.800802 
L 232.359696 61.261161 
L 233.445497 59.887824 
L 234.531298 64.693687 
L 235.617099 55.935431 
L 236.702901 66.573123 
L 237.788702 62.119541 
L 238.874503 65.944846 
L 239.960304 65.909775 
L 241.046105 61.331143 
L 242.131906 59.445062 
L 243.217708 59.294587 
L 244.303509 57.694046 
L 245.38931 61.660969 
L 246.475111 59.541361 
L 248.646713 61.545438 
L 249.732514 69.149618 
L 250.818316 62.908946 
L 251.904117 61.600395 
L 252.989918 57.584205 
L 254.075719 60.367262 
L 255.16152 62.255599 
L 256.247321 65.316057 
L 257.333123 56.606608 
L 258.418924 56.515581 
L 259.504725 63.234798 
L 260.590526 61.137234 
L 261.676327 62.260798 
L 262.762128 64.596048 
L 263.847929 61.086167 
L 264.933731 61.986515 
L 266.019532 61.848838 
L 267.105333 63.135512 
L 268.191134 63.779969 
L 269.276935 63.294337 
L 270.362736 62.545361 
L 271.448538 60.437963 
L 272.534339 64.833182 
L 273.62014 60.248298 
L 274.705941 63.374878 
L 275.791742 64.666263 
L 276.877543 61.488431 
L 277.963344 64.594661 
L 279.049146 63.901059 
L 280.134947 62.183791 
L 281.220748 59.092071 
L 282.306549 66.527224 
L 283.39235 55.844226 
L 284.478151 60.690175 
L 285.563953 61.929482 
L 286.649754 56.576082 
L 287.735555 56.329745 
L 288.821356 58.429444 
L 289.907157 60.818224 
L 290.992958 59.971216 
L 292.07876 60.430029 
L 293.164561 62.258781 
L 294.250362 61.268772 
L 295.336163 54.600986 
L 296.421964 59.361244 
L 297.507765 55.155752 
L 298.593566 61.719832 
L 299.679368 57.965481 
L 300.765169 65.85828 
L 301.85097 62.18665 
L 302.936771 56.801251 
L 304.022572 63.050987 
L 305.108373 61.176615 
L 306.194175 56.352348 
L 307.279976 62.889407 
L 308.365777 59.786645 
L 309.451578 58.807943 
L 310.537379 63.386038 
L 311.62318 59.536821 
L 312.708981 56.725949 
L 313.794783 56.275032 
L 314.880584 62.476339 
L 315.966385 60.359322 
L 317.052186 60.071427 
L 318.137987 66.118286 
L 319.223788 61.100052 
L 320.30959 59.465068 
L 321.395391 60.679215 
L 322.481192 61.484073 
L 323.566993 57.14953 
L 324.652794 59.689037 
L 325.738595 64.767831 
L 326.824396 58.159208 
L 327.910198 64.14273 
L 328.995999 55.182736 
L 330.0818 62.104565 
L 331.167601 60.983714 
L 332.253402 59.125796 
L 333.339203 64.40919 
L 334.425005 63.380965 
L 335.510806 58.260581 
L 336.596607 60.816962 
L 337.682408 59.61766 
L 338.768209 59.736296 
L 339.85401 62.875978 
L 340.939811 61.810555 
L 342.025613 62.366781 
L 343.111414 61.037795 
L 345.283016 61.065357 
L 346.368817 58.906346 
L 347.454618 54.035621 
L 348.54042 63.890314 
L 349.626221 62.430777 
L 350.712022 53.730258 
L 351.797823 62.084357 
L 352.883624 62.118156 
L 353.969425 63.494874 
L 355.055227 62.856846 
L 356.141028 58.548224 
L 357.226829 57.809578 
L 358.31263 59.673476 
L 359.398431 59.742277 
L 360.484232 63.335025 
L 361.570033 58.604356 
L 362.655835 62.694715 
L 363.741636 61.308859 
L 364.827437 63.607436 
L 365.913238 62.543374 
L 366.999039 57.787176 
L 368.08484 59.16598 
L 369.170642 58.411143 
L 370.256443 56.739802 
L 371.342244 60.166819 
L 372.428045 57.869251 
L 373.513846 60.109756 
L 374.599647 64.055714 
L 376.77125 60.828487 
L 377.857051 63.662684 
L 378.942852 63.719739 
L 380.028653 61.495933 
L 381.114454 61.988902 
L 382.200255 58.906914 
L 383.286057 59.553709 
L 384.371858 58.24287 
L 385.457659 66.366898 
L 386.54346 59.370084 
L 387.629261 59.238398 
L 388.715062 62.165203 
L 389.800863 60.839082 
L 390.886665 59.297247 
L 391.972466 54.532051 
L 393.058267 61.088733 
L 394.144068 59.110992 
L 395.229869 60.55733 
L 396.31567 56.709779 
L 397.401472 56.622601 
L 398.487273 66.780448 
L 398.487273 66.780448 
" style="fill:none;stroke:#008000;stroke-dasharray:9.6,2.4,1.5,2.4;stroke-dashoffset:0;stroke-width:1.5;"/>
   </g>
   <g id="line2d_30">
    <path clip-path="url(#p9aca5f704e)" d="M 73.832727 89.586088 
L 74.918528 83.01383 
L 76.00433 82.414582 
L 83.604938 82.414582 
L 84.690739 82.24478 
L 120.522177 82.182317 
L 121.607978 81.869251 
L 124.865382 81.869251 
L 127.036984 81.49794 
L 137.894995 81.485309 
L 138.980797 81.344754 
L 191.099252 81.271765 
L 193.270854 81.176945 
L 398.487273 81.176945 
L 398.487273 81.176945 
" style="fill:none;stroke:#ff0000;stroke-linecap:square;stroke-width:1.5;"/>
   </g>
   <g id="patch_3">
    <path d="M 57.6 307.584 
L 57.6 41.472 
" style="fill:none;stroke:#000000;stroke-linecap:square;stroke-linejoin:miter;stroke-width:0.8;"/>
   </g>
   <g id="patch_4">
    <path d="M 414.72 307.584 
L 414.72 41.472 
" style="fill:none;stroke:#000000;stroke-linecap:square;stroke-linejoin:miter;stroke-width:0.8;"/>
   </g>
   <g id="patch_5">
    <path d="M 57.6 307.584 
L 414.72 307.584 
" style="fill:none;stroke:#000000;stroke-linecap:square;stroke-linejoin:miter;stroke-width:0.8;"/>
   </g>
   <g id="patch_6">
    <path d="M 57.6 41.472 
L 414.72 41.472 
" style="fill:none;stroke:#000000;stroke-linecap:square;stroke-linejoin:miter;stroke-width:0.8;"/>
   </g>
   <g id="text_16">
    <!-- Population's average and best fitness -->
    <g transform="translate(123.529687 35.472)scale(0.12 -0.12)">
     <defs>
      <path d="M 19.671875 64.796875 
L 19.671875 37.40625 
L 32.078125 37.40625 
Q 38.96875 37.40625 42.71875 40.96875 
Q 46.484375 44.53125 46.484375 51.125 
Q 46.484375 57.671875 42.71875 61.234375 
Q 38.96875 64.796875 32.078125 64.796875 
z
M 9.8125 72.90625 
L 32.078125 72.90625 
Q 44.34375 72.90625 50.609375 67.359375 
Q 56.890625 61.8125 56.890625 51.125 
Q 56.890625 40.328125 50.609375 34.8125 
Q 44.34375 29.296875 32.078125 29.296875 
L 19.671875 29.296875 
L 19.671875 0 
L 9.8125 0 
z
" id="DejaVuSans-80"/>
      <path d="M 18.109375 8.203125 
L 18.109375 -20.796875 
L 9.078125 -20.796875 
L 9.078125 54.6875 
L 18.109375 54.6875 
L 18.109375 46.390625 
Q 20.953125 51.265625 25.265625 53.625 
Q 29.59375 56 35.59375 56 
Q 45.5625 56 51.78125 48.09375 
Q 58.015625 40.1875 58.015625 27.296875 
Q 58.015625 14.40625 51.78125 6.484375 
Q 45.5625 -1.421875 35.59375 -1.421875 
Q 29.59375 -1.421875 25.265625 0.953125 
Q 20.953125 3.328125 18.109375 8.203125 
z
M 48.6875 27.296875 
Q 48.6875 37.203125 44.609375 42.84375 
Q 40.53125 48.484375 33.40625 48.484375 
Q 26.265625 48.484375 22.1875 42.84375 
Q 18.109375 37.203125 18.109375 27.296875 
Q 18.109375 17.390625 22.1875 11.75 
Q 26.265625 6.109375 33.40625 6.109375 
Q 40.53125 6.109375 44.609375 11.75 
Q 48.6875 17.390625 48.6875 27.296875 
z
" id="DejaVuSans-112"/>
      <path d="M 8.5 21.578125 
L 8.5 54.6875 
L 17.484375 54.6875 
L 17.484375 21.921875 
Q 17.484375 14.15625 20.5 10.265625 
Q 23.53125 6.390625 29.59375 6.390625 
Q 36.859375 6.390625 41.078125 11.03125 
Q 45.3125 15.671875 45.3125 23.6875 
L 45.3125 54.6875 
L 54.296875 54.6875 
L 54.296875 0 
L 45.3125 0 
L 45.3125 8.40625 
Q 42.046875 3.421875 37.71875 1 
Q 33.40625 -1.421875 27.6875 -1.421875 
Q 18.265625 -1.421875 13.375 4.4375 
Q 8.5 10.296875 8.5 21.578125 
z
M 31.109375 56 
z
" id="DejaVuSans-117"/>
      <path d="M 9.421875 75.984375 
L 18.40625 75.984375 
L 18.40625 0 
L 9.421875 0 
z
" id="DejaVuSans-108"/>
      <path d="M 17.921875 72.90625 
L 17.921875 45.796875 
L 9.625 45.796875 
L 9.625 72.90625 
z
" id="DejaVuSans-39"/>
      <path id="DejaVuSans-32"/>
      <path d="M 2.984375 54.6875 
L 12.5 54.6875 
L 29.59375 8.796875 
L 46.6875 54.6875 
L 56.203125 54.6875 
L 35.6875 0 
L 23.484375 0 
z
" id="DejaVuSans-118"/>
      <path d="M 45.40625 27.984375 
Q 45.40625 37.75 41.375 43.109375 
Q 37.359375 48.484375 30.078125 48.484375 
Q 22.859375 48.484375 18.828125 43.109375 
Q 14.796875 37.75 14.796875 27.984375 
Q 14.796875 18.265625 18.828125 12.890625 
Q 22.859375 7.515625 30.078125 7.515625 
Q 37.359375 7.515625 41.375 12.890625 
Q 45.40625 18.265625 45.40625 27.984375 
z
M 54.390625 6.78125 
Q 54.390625 -7.171875 48.1875 -13.984375 
Q 42 -20.796875 29.203125 -20.796875 
Q 24.46875 -20.796875 20.265625 -20.09375 
Q 16.0625 -19.390625 12.109375 -17.921875 
L 12.109375 -9.1875 
Q 16.0625 -11.328125 19.921875 -12.34375 
Q 23.78125 -13.375 27.78125 -13.375 
Q 36.625 -13.375 41.015625 -8.765625 
Q 45.40625 -4.15625 45.40625 5.171875 
L 45.40625 9.625 
Q 42.625 4.78125 38.28125 2.390625 
Q 33.9375 0 27.875 0 
Q 17.828125 0 11.671875 7.65625 
Q 5.515625 15.328125 5.515625 27.984375 
Q 5.515625 40.671875 11.671875 48.328125 
Q 17.828125 56 27.875 56 
Q 33.9375 56 38.28125 53.609375 
Q 42.625 51.21875 45.40625 46.390625 
L 45.40625 54.6875 
L 54.390625 54.6875 
z
" id="DejaVuSans-103"/>
      <path d="M 45.40625 46.390625 
L 45.40625 75.984375 
L 54.390625 75.984375 
L 54.390625 0 
L 45.40625 0 
L 45.40625 8.203125 
Q 42.578125 3.328125 38.25 0.953125 
Q 33.9375 -1.421875 27.875 -1.421875 
Q 17.96875 -1.421875 11.734375 6.484375 
Q 5.515625 14.40625 5.515625 27.296875 
Q 5.515625 40.1875 11.734375 48.09375 
Q 17.96875 56 27.875 56 
Q 33.9375 56 38.25 53.625 
Q 42.578125 51.265625 45.40625 46.390625 
z
M 14.796875 27.296875 
Q 14.796875 17.390625 18.875 11.75 
Q 22.953125 6.109375 30.078125 6.109375 
Q 37.203125 6.109375 41.296875 11.75 
Q 45.40625 17.390625 45.40625 27.296875 
Q 45.40625 37.203125 41.296875 42.84375 
Q 37.203125 48.484375 30.078125 48.484375 
Q 22.953125 48.484375 18.875 42.84375 
Q 14.796875 37.203125 14.796875 27.296875 
z
" id="DejaVuSans-100"/>
      <path d="M 48.6875 27.296875 
Q 48.6875 37.203125 44.609375 42.84375 
Q 40.53125 48.484375 33.40625 48.484375 
Q 26.265625 48.484375 22.1875 42.84375 
Q 18.109375 37.203125 18.109375 27.296875 
Q 18.109375 17.390625 22.1875 11.75 
Q 26.265625 6.109375 33.40625 6.109375 
Q 40.53125 6.109375 44.609375 11.75 
Q 48.6875 17.390625 48.6875 27.296875 
z
M 18.109375 46.390625 
Q 20.953125 51.265625 25.265625 53.625 
Q 29.59375 56 35.59375 56 
Q 45.5625 56 51.78125 48.09375 
Q 58.015625 40.1875 58.015625 27.296875 
Q 58.015625 14.40625 51.78125 6.484375 
Q 45.5625 -1.421875 35.59375 -1.421875 
Q 29.59375 -1.421875 25.265625 0.953125 
Q 20.953125 3.328125 18.109375 8.203125 
L 18.109375 0 
L 9.078125 0 
L 9.078125 75.984375 
L 18.109375 75.984375 
z
" id="DejaVuSans-98"/>
      <path d="M 37.109375 75.984375 
L 37.109375 68.5 
L 28.515625 68.5 
Q 23.6875 68.5 21.796875 66.546875 
Q 19.921875 64.59375 19.921875 59.515625 
L 19.921875 54.6875 
L 34.71875 54.6875 
L 34.71875 47.703125 
L 19.921875 47.703125 
L 19.921875 0 
L 10.890625 0 
L 10.890625 47.703125 
L 2.296875 47.703125 
L 2.296875 54.6875 
L 10.890625 54.6875 
L 10.890625 58.5 
Q 10.890625 67.625 15.140625 71.796875 
Q 19.390625 75.984375 28.609375 75.984375 
z
" id="DejaVuSans-102"/>
     </defs>
     <use xlink:href="#DejaVuSans-80"/>
     <use x="56.677734" xlink:href="#DejaVuSans-111"/>
     <use x="117.859375" xlink:href="#DejaVuSans-112"/>
     <use x="181.335938" xlink:href="#DejaVuSans-117"/>
     <use x="244.714844" xlink:href="#DejaVuSans-108"/>
     <use x="272.498047" xlink:href="#DejaVuSans-97"/>
     <use x="333.777344" xlink:href="#DejaVuSans-116"/>
     <use x="372.986328" xlink:href="#DejaVuSans-105"/>
     <use x="400.769531" xlink:href="#DejaVuSans-111"/>
     <use x="461.951172" xlink:href="#DejaVuSans-110"/>
     <use x="525.330078" xlink:href="#DejaVuSans-39"/>
     <use x="552.820312" xlink:href="#DejaVuSans-115"/>
     <use x="604.919922" xlink:href="#DejaVuSans-32"/>
     <use x="636.707031" xlink:href="#DejaVuSans-97"/>
     <use x="697.986328" xlink:href="#DejaVuSans-118"/>
     <use x="757.166016" xlink:href="#DejaVuSans-101"/>
     <use x="818.689453" xlink:href="#DejaVuSans-114"/>
     <use x="859.802734" xlink:href="#DejaVuSans-97"/>
     <use x="921.082031" xlink:href="#DejaVuSans-103"/>
     <use x="984.558594" xlink:href="#DejaVuSans-101"/>
     <use x="1046.082031" xlink:href="#DejaVuSans-32"/>
     <use x="1077.869141" xlink:href="#DejaVuSans-97"/>
     <use x="1139.148438" xlink:href="#DejaVuSans-110"/>
     <use x="1202.527344" xlink:href="#DejaVuSans-100"/>
     <use x="1266.003906" xlink:href="#DejaVuSans-32"/>
     <use x="1297.791016" xlink:href="#DejaVuSans-98"/>
     <use x="1361.267578" xlink:href="#DejaVuSans-101"/>
     <use x="1422.791016" xlink:href="#DejaVuSans-115"/>
     <use x="1474.890625" xlink:href="#DejaVuSans-116"/>
     <use x="1514.099609" xlink:href="#DejaVuSans-32"/>
     <use x="1545.886719" xlink:href="#DejaVuSans-102"/>
     <use x="1581.091797" xlink:href="#DejaVuSans-105"/>
     <use x="1608.875" xlink:href="#DejaVuSans-116"/>
     <use x="1648.083984" xlink:href="#DejaVuSans-110"/>
     <use x="1711.462891" xlink:href="#DejaVuSans-101"/>
     <use x="1772.986328" xlink:href="#DejaVuSans-115"/>
     <use x="1825.085938" xlink:href="#DejaVuSans-115"/>
    </g>
   </g>
   <g id="legend_1">
    <g id="patch_7">
     <path d="M 334.779375 302.584 
L 407.72 302.584 
Q 409.72 302.584 409.72 300.584 
L 409.72 242.8715 
Q 409.72 240.8715 407.72 240.8715 
L 334.779375 240.8715 
Q 332.779375 240.8715 332.779375 242.8715 
L 332.779375 300.584 
Q 332.779375 302.584 334.779375 302.584 
z
" style="fill:#ffffff;opacity:0.8;stroke:#cccccc;stroke-linejoin:miter;"/>
    </g>
    <g id="line2d_31">
     <path d="M 336.779375 248.969937 
L 356.779375 248.969937 
" style="fill:none;stroke:#0000ff;stroke-linecap:square;stroke-width:1.5;"/>
    </g>
    <g id="line2d_32"/>
    <g id="text_17">
     <!-- average -->
     <g transform="translate(364.779375 252.469937)scale(0.1 -0.1)">
      <use xlink:href="#DejaVuSans-97"/>
      <use x="61.279297" xlink:href="#DejaVuSans-118"/>
      <use x="120.458984" xlink:href="#DejaVuSans-101"/>
      <use x="181.982422" xlink:href="#DejaVuSans-114"/>
      <use x="223.095703" xlink:href="#DejaVuSans-97"/>
      <use x="284.375" xlink:href="#DejaVuSans-103"/>
      <use x="347.851562" xlink:href="#DejaVuSans-101"/>
     </g>
    </g>
    <g id="line2d_33">
     <path d="M 336.779375 263.648062 
L 356.779375 263.648062 
" style="fill:none;stroke:#008000;stroke-dasharray:9.6,2.4,1.5,2.4;stroke-dashoffset:0;stroke-width:1.5;"/>
    </g>
    <g id="line2d_34"/>
    <g id="text_18">
     <!-- -1 sd -->
     <g transform="translate(364.779375 267.148062)scale(0.1 -0.1)">
      <defs>
       <path d="M 4.890625 31.390625 
L 31.203125 31.390625 
L 31.203125 23.390625 
L 4.890625 23.390625 
z
" id="DejaVuSans-45"/>
      </defs>
      <use xlink:href="#DejaVuSans-45"/>
      <use x="36.083984" xlink:href="#DejaVuSans-49"/>
      <use x="99.707031" xlink:href="#DejaVuSans-32"/>
      <use x="131.494141" xlink:href="#DejaVuSans-115"/>
      <use x="183.59375" xlink:href="#DejaVuSans-100"/>
     </g>
    </g>
    <g id="line2d_35">
     <path d="M 336.779375 278.326187 
L 356.779375 278.326187 
" style="fill:none;stroke:#008000;stroke-dasharray:9.6,2.4,1.5,2.4;stroke-dashoffset:0;stroke-width:1.5;"/>
    </g>
    <g id="line2d_36"/>
    <g id="text_19">
     <!-- +1 sd -->
     <g transform="translate(364.779375 281.826187)scale(0.1 -0.1)">
      <defs>
       <path d="M 46 62.703125 
L 46 35.5 
L 73.1875 35.5 
L 73.1875 27.203125 
L 46 27.203125 
L 46 0 
L 37.796875 0 
L 37.796875 27.203125 
L 10.59375 27.203125 
L 10.59375 35.5 
L 37.796875 35.5 
L 37.796875 62.703125 
z
" id="DejaVuSans-43"/>
      </defs>
      <use xlink:href="#DejaVuSans-43"/>
      <use x="83.789062" xlink:href="#DejaVuSans-49"/>
      <use x="147.412109" xlink:href="#DejaVuSans-32"/>
      <use x="179.199219" xlink:href="#DejaVuSans-115"/>
      <use x="231.298828" xlink:href="#DejaVuSans-100"/>
     </g>
    </g>
    <g id="line2d_37">
     <path d="M 336.779375 293.004312 
L 356.779375 293.004312 
" style="fill:none;stroke:#ff0000;stroke-linecap:square;stroke-width:1.5;"/>
    </g>
    <g id="line2d_38"/>
    <g id="text_20">
     <!-- best -->
     <g transform="translate(364.779375 296.504312)scale(0.1 -0.1)">
      <use xlink:href="#DejaVuSans-98"/>
      <use x="63.476562" xlink:href="#DejaVuSans-101"/>
      <use x="125" xlink:href="#DejaVuSans-115"/>
      <use x="177.099609" xlink:href="#DejaVuSans-116"/>
     </g>
    </g>
   </g>
  </g>
 </g>
 <defs>
  <clipPath id="p9aca5f704e">
   <rect height="266.112" width="357.12" x="57.6" y="41.472"/>
  </clipPath>
 </defs>
</svg>
