<?xml version="1.0" encoding="utf-8" standalone="no"?>
<!DOCTYPE svg PUBLIC "-//W3C//DTD SVG 1.1//EN"
  "http://www.w3.org/Graphics/SVG/1.1/DTD/svg11.dtd">
<!-- Created with matplotlib (https://matplotlib.org/) -->
<svg height="345.6pt" version="1.1" viewBox="0 0 460.8 345.6" width="460.8pt" xmlns="http://www.w3.org/2000/svg" xmlns:xlink="http://www.w3.org/1999/xlink">
 <metadata>
  <rdf:RDF xmlns:cc="http://creativecommons.org/ns#" xmlns:dc="http://purl.org/dc/elements/1.1/" xmlns:rdf="http://www.w3.org/1999/02/22-rdf-syntax-ns#">
   <cc:Work>
    <dc:type rdf:resource="http://purl.org/dc/dcmitype/StillImage"/>
    <dc:date>2022-05-24T18:26:29.518450</dc:date>
    <dc:format>image/svg+xml</dc:format>
    <dc:creator>
     <cc:Agent>
      <dc:title>Matplotlib v3.3.4, https://matplotlib.org/</dc:title>
     </cc:Agent>
    </dc:creator>
   </cc:Work>
  </rdf:RDF>
 </metadata>
 <defs>
  <style type="text/css">*{stroke-linecap:butt;stroke-linejoin:round;}</style>
 </defs>
 <g id="figure_1">
  <g id="patch_1">
   <path d="M 0 345.6 
L 460.8 345.6 
L 460.8 0 
L 0 0 
z
" style="fill:#ffffff;"/>
  </g>
  <g id="axes_1">
   <g id="patch_2">
    <path d="M 57.6 307.584 
L 414.72 307.584 
L 414.72 41.472 
L 57.6 41.472 
z
" style="fill:#ffffff;"/>
   </g>
   <g id="PolyCollection_1">
    <path clip-path="url(#p3546a17c0f)" d="M 73.832727 54.144 
L 73.832727 307.584 
L 74.918528 307.584 
L 76.00433 307.584 
L 77.090131 307.584 
L 78.175932 307.584 
L 79.261733 307.584 
L 80.347534 307.584 
L 81.433335 307.584 
L 82.519137 307.584 
L 83.604938 307.584 
L 84.690739 307.584 
L 85.77654 307.584 
L 86.862341 307.584 
L 87.948142 307.584 
L 89.033943 307.584 
L 90.119745 307.584 
L 91.205546 307.584 
L 92.291347 307.584 
L 93.377148 307.584 
L 94.462949 307.584 
L 95.54875 307.584 
L 96.634552 307.584 
L 97.720353 307.584 
L 98.806154 307.584 
L 99.891955 307.584 
L 100.977756 307.584 
L 102.063557 307.584 
L 103.149358 307.584 
L 104.23516 307.584 
L 105.320961 307.584 
L 106.406762 307.584 
L 107.492563 307.584 
L 108.578364 307.584 
L 109.664165 307.584 
L 110.749967 307.584 
L 111.835768 307.584 
L 112.921569 307.584 
L 114.00737 307.584 
L 115.093171 307.584 
L 116.178972 307.584 
L 117.264773 307.584 
L 118.350575 307.584 
L 119.436376 307.584 
L 120.522177 307.584 
L 121.607978 307.584 
L 122.693779 307.584 
L 123.77958 307.584 
L 124.865382 307.584 
L 125.951183 307.584 
L 127.036984 307.584 
L 128.122785 307.584 
L 129.208586 307.584 
L 130.294387 307.584 
L 131.380189 307.584 
L 132.46599 307.584 
L 133.551791 307.584 
L 134.637592 307.584 
L 135.723393 307.584 
L 136.809194 307.584 
L 137.894995 307.584 
L 138.980797 307.584 
L 140.066598 307.584 
L 141.152399 307.584 
L 142.2382 307.584 
L 143.324001 307.584 
L 144.409802 307.584 
L 145.495604 307.584 
L 146.581405 307.584 
L 147.667206 307.584 
L 148.753007 307.584 
L 149.838808 307.584 
L 150.924609 307.584 
L 152.01041 307.584 
L 153.096212 307.584 
L 154.182013 307.584 
L 155.267814 307.584 
L 156.353615 307.584 
L 157.439416 307.584 
L 158.525217 307.584 
L 159.611019 307.584 
L 160.69682 307.584 
L 161.782621 307.584 
L 162.868422 307.584 
L 163.954223 307.584 
L 165.040024 307.584 
L 166.125825 307.584 
L 167.211627 307.584 
L 168.297428 307.584 
L 169.383229 307.584 
L 170.46903 307.584 
L 171.554831 307.584 
L 172.640632 307.584 
L 173.726434 307.584 
L 174.812235 307.584 
L 175.898036 307.584 
L 176.983837 307.584 
L 178.069638 307.584 
L 179.155439 307.584 
L 180.24124 307.584 
L 181.327042 307.584 
L 182.412843 307.584 
L 183.498644 307.584 
L 184.584445 307.584 
L 185.670246 307.584 
L 186.756047 307.584 
L 187.841849 307.584 
L 188.92765 307.584 
L 190.013451 307.584 
L 191.099252 307.584 
L 192.185053 307.584 
L 193.270854 307.584 
L 194.356656 307.584 
L 195.442457 307.584 
L 196.528258 307.584 
L 197.614059 307.584 
L 198.69986 307.584 
L 199.785661 307.584 
L 200.871462 307.584 
L 201.957264 307.584 
L 203.043065 307.584 
L 204.128866 307.584 
L 205.214667 307.584 
L 206.300468 307.584 
L 207.386269 307.584 
L 208.472071 307.584 
L 209.557872 307.584 
L 210.643673 307.584 
L 211.729474 307.584 
L 212.815275 307.584 
L 213.901076 307.584 
L 214.986877 307.584 
L 216.072679 307.584 
L 217.15848 307.584 
L 218.244281 307.584 
L 219.330082 307.584 
L 220.415883 307.584 
L 221.501684 307.584 
L 222.587486 307.584 
L 223.673287 307.584 
L 224.759088 307.584 
L 225.844889 307.584 
L 226.93069 307.584 
L 228.016491 307.584 
L 229.102292 307.584 
L 230.188094 307.584 
L 231.273895 307.584 
L 232.359696 307.584 
L 233.445497 307.584 
L 234.531298 307.584 
L 235.617099 307.584 
L 236.702901 307.584 
L 237.788702 307.584 
L 238.874503 307.584 
L 239.960304 307.584 
L 241.046105 307.584 
L 242.131906 307.584 
L 243.217708 307.584 
L 244.303509 307.584 
L 245.38931 307.584 
L 246.475111 307.584 
L 247.560912 307.584 
L 248.646713 307.584 
L 249.732514 307.584 
L 250.818316 307.584 
L 251.904117 307.584 
L 252.989918 307.584 
L 254.075719 307.584 
L 255.16152 307.584 
L 256.247321 307.584 
L 257.333123 307.584 
L 258.418924 307.584 
L 259.504725 307.584 
L 260.590526 307.584 
L 261.676327 307.584 
L 262.762128 307.584 
L 263.847929 307.584 
L 264.933731 307.584 
L 266.019532 307.584 
L 267.105333 307.584 
L 268.191134 307.584 
L 269.276935 307.584 
L 270.362736 307.584 
L 271.448538 307.584 
L 272.534339 307.584 
L 273.62014 307.584 
L 274.705941 307.584 
L 275.791742 307.584 
L 276.877543 307.584 
L 277.963344 307.584 
L 279.049146 307.584 
L 280.134947 307.584 
L 281.220748 307.584 
L 282.306549 307.584 
L 283.39235 307.584 
L 284.478151 307.584 
L 285.563953 307.584 
L 286.649754 307.584 
L 287.735555 307.584 
L 288.821356 307.584 
L 289.907157 307.584 
L 290.992958 307.584 
L 292.07876 307.584 
L 293.164561 307.584 
L 294.250362 307.584 
L 295.336163 307.584 
L 296.421964 307.584 
L 297.507765 307.584 
L 298.593566 307.584 
L 299.679368 307.584 
L 300.765169 307.584 
L 301.85097 307.584 
L 302.936771 307.584 
L 304.022572 307.584 
L 305.108373 307.584 
L 306.194175 307.584 
L 307.279976 307.584 
L 308.365777 307.584 
L 309.451578 307.584 
L 310.537379 307.584 
L 311.62318 307.584 
L 312.708981 307.584 
L 313.794783 307.584 
L 314.880584 307.584 
L 315.966385 307.584 
L 317.052186 307.584 
L 318.137987 307.584 
L 319.223788 307.584 
L 320.30959 307.584 
L 321.395391 307.584 
L 322.481192 307.584 
L 323.566993 307.584 
L 324.652794 307.584 
L 325.738595 307.584 
L 326.824396 307.584 
L 327.910198 307.584 
L 328.995999 307.584 
L 330.0818 307.584 
L 331.167601 307.584 
L 332.253402 307.584 
L 333.339203 307.584 
L 334.425005 307.584 
L 335.510806 307.584 
L 336.596607 307.584 
L 337.682408 307.584 
L 338.768209 307.584 
L 339.85401 307.584 
L 340.939811 307.584 
L 342.025613 307.584 
L 343.111414 307.584 
L 344.197215 307.584 
L 345.283016 307.584 
L 346.368817 307.584 
L 347.454618 307.584 
L 348.54042 307.584 
L 349.626221 307.584 
L 350.712022 307.584 
L 351.797823 307.584 
L 352.883624 307.584 
L 353.969425 307.584 
L 355.055227 307.584 
L 356.141028 307.584 
L 357.226829 307.584 
L 358.31263 307.584 
L 359.398431 307.584 
L 360.484232 307.584 
L 361.570033 307.584 
L 362.655835 307.584 
L 363.741636 307.584 
L 364.827437 307.584 
L 365.913238 307.584 
L 366.999039 307.584 
L 368.08484 307.584 
L 369.170642 307.584 
L 370.256443 307.584 
L 371.342244 307.584 
L 372.428045 307.584 
L 373.513846 307.584 
L 374.599647 307.584 
L 375.685448 307.584 
L 376.77125 307.584 
L 377.857051 307.584 
L 378.942852 307.584 
L 380.028653 307.584 
L 381.114454 307.584 
L 382.200255 307.584 
L 383.286057 307.584 
L 384.371858 307.584 
L 385.457659 307.584 
L 386.54346 307.584 
L 387.629261 307.584 
L 388.715062 307.584 
L 389.800863 307.584 
L 390.886665 307.584 
L 391.972466 307.584 
L 393.058267 307.584 
L 394.144068 307.584 
L 395.229869 307.584 
L 396.31567 307.584 
L 397.401472 307.584 
L 398.487273 307.584 
L 398.487273 180.864 
L 398.487273 180.864 
L 397.401472 182.5536 
L 396.31567 179.1744 
L 395.229869 177.4848 
L 394.144068 180.864 
L 393.058267 182.5536 
L 391.972466 180.864 
L 390.886665 182.5536 
L 389.800863 184.2432 
L 388.715062 182.5536 
L 387.629261 185.9328 
L 386.54346 184.2432 
L 385.457659 182.5536 
L 384.371858 179.1744 
L 383.286057 184.2432 
L 382.200255 185.9328 
L 381.114454 189.312 
L 380.028653 216.3456 
L 378.942852 224.7936 
L 377.857051 194.3808 
L 376.77125 194.3808 
L 375.685448 184.2432 
L 374.599647 177.4848 
L 373.513846 179.1744 
L 372.428045 185.9328 
L 371.342244 182.5536 
L 370.256443 187.6224 
L 369.170642 187.6224 
L 368.08484 182.5536 
L 366.999039 184.2432 
L 365.913238 184.2432 
L 364.827437 180.864 
L 363.741636 179.1744 
L 362.655835 180.864 
L 361.570033 179.1744 
L 360.484232 184.2432 
L 359.398431 180.864 
L 358.31263 182.5536 
L 357.226829 180.864 
L 356.141028 182.5536 
L 355.055227 184.2432 
L 353.969425 182.5536 
L 352.883624 180.864 
L 351.797823 185.9328 
L 350.712022 182.5536 
L 349.626221 180.864 
L 348.54042 182.5536 
L 347.454618 180.864 
L 346.368817 179.1744 
L 345.283016 177.4848 
L 344.197215 179.1744 
L 343.111414 182.5536 
L 342.025613 180.864 
L 340.939811 179.1744 
L 339.85401 174.1056 
L 338.768209 172.416 
L 337.682408 169.0368 
L 336.596607 165.6576 
L 335.510806 165.6576 
L 334.425005 189.312 
L 333.339203 192.6912 
L 332.253402 197.76 
L 331.167601 184.2432 
L 330.0818 182.5536 
L 328.995999 174.1056 
L 327.910198 169.0368 
L 326.824396 165.6576 
L 325.738595 169.0368 
L 324.652794 177.4848 
L 323.566993 177.4848 
L 322.481192 174.1056 
L 321.395391 175.7952 
L 320.30959 185.9328 
L 319.223788 184.2432 
L 318.137987 177.4848 
L 317.052186 180.864 
L 315.966385 182.5536 
L 314.880584 187.6224 
L 313.794783 189.312 
L 312.708981 184.2432 
L 311.62318 179.1744 
L 310.537379 179.1744 
L 309.451578 185.9328 
L 308.365777 184.2432 
L 307.279976 182.5536 
L 306.194175 185.9328 
L 305.108373 185.9328 
L 304.022572 180.864 
L 302.936771 184.2432 
L 301.85097 175.7952 
L 300.765169 177.4848 
L 299.679368 175.7952 
L 298.593566 185.9328 
L 297.507765 187.6224 
L 296.421964 189.312 
L 295.336163 192.6912 
L 294.250362 189.312 
L 293.164561 184.2432 
L 292.07876 180.864 
L 290.992958 194.3808 
L 289.907157 177.4848 
L 288.821356 185.9328 
L 287.735555 160.5888 
L 286.649754 133.5552 
L 285.563953 165.6576 
L 284.478151 157.2096 
L 283.39235 125.1072 
L 282.306549 145.3824 
L 281.220748 175.7952 
L 280.134947 202.8288 
L 279.049146 179.1744 
L 277.963344 172.416 
L 276.877543 202.8288 
L 275.791742 192.6912 
L 274.705941 196.0704 
L 273.62014 165.6576 
L 272.534339 163.968 
L 271.448538 185.9328 
L 270.362736 72.7296 
L 269.276935 54.144 
L 268.191134 54.144 
L 267.105333 54.144 
L 266.019532 54.144 
L 264.933731 54.144 
L 263.847929 54.144 
L 262.762128 54.144 
L 261.676327 54.144 
L 260.590526 54.144 
L 259.504725 54.144 
L 258.418924 54.144 
L 257.333123 54.144 
L 256.247321 54.144 
L 255.16152 54.144 
L 254.075719 54.144 
L 252.989918 54.144 
L 251.904117 54.144 
L 250.818316 54.144 
L 249.732514 54.144 
L 248.646713 54.144 
L 247.560912 54.144 
L 246.475111 54.144 
L 245.38931 54.144 
L 244.303509 54.144 
L 243.217708 54.144 
L 242.131906 54.144 
L 241.046105 54.144 
L 239.960304 54.144 
L 238.874503 54.144 
L 237.788702 54.144 
L 236.702901 54.144 
L 235.617099 54.144 
L 234.531298 54.144 
L 233.445497 54.144 
L 232.359696 54.144 
L 231.273895 54.144 
L 230.188094 54.144 
L 229.102292 54.144 
L 228.016491 54.144 
L 226.93069 54.144 
L 225.844889 54.144 
L 224.759088 54.144 
L 223.673287 54.144 
L 222.587486 54.144 
L 221.501684 54.144 
L 220.415883 54.144 
L 219.330082 54.144 
L 218.244281 54.144 
L 217.15848 54.144 
L 216.072679 54.144 
L 214.986877 54.144 
L 213.901076 54.144 
L 212.815275 54.144 
L 211.729474 54.144 
L 210.643673 54.144 
L 209.557872 54.144 
L 208.472071 54.144 
L 207.386269 54.144 
L 206.300468 54.144 
L 205.214667 54.144 
L 204.128866 54.144 
L 203.043065 54.144 
L 201.957264 54.144 
L 200.871462 54.144 
L 199.785661 54.144 
L 198.69986 54.144 
L 197.614059 54.144 
L 196.528258 54.144 
L 195.442457 54.144 
L 194.356656 54.144 
L 193.270854 54.144 
L 192.185053 54.144 
L 191.099252 54.144 
L 190.013451 54.144 
L 188.92765 54.144 
L 187.841849 54.144 
L 186.756047 54.144 
L 185.670246 54.144 
L 184.584445 54.144 
L 183.498644 54.144 
L 182.412843 54.144 
L 181.327042 54.144 
L 180.24124 54.144 
L 179.155439 54.144 
L 178.069638 54.144 
L 176.983837 54.144 
L 175.898036 54.144 
L 174.812235 54.144 
L 173.726434 54.144 
L 172.640632 54.144 
L 171.554831 54.144 
L 170.46903 54.144 
L 169.383229 54.144 
L 168.297428 54.144 
L 167.211627 54.144 
L 166.125825 54.144 
L 165.040024 54.144 
L 163.954223 54.144 
L 162.868422 54.144 
L 161.782621 54.144 
L 160.69682 54.144 
L 159.611019 54.144 
L 158.525217 54.144 
L 157.439416 54.144 
L 156.353615 54.144 
L 155.267814 54.144 
L 154.182013 54.144 
L 153.096212 54.144 
L 152.01041 54.144 
L 150.924609 54.144 
L 149.838808 54.144 
L 148.753007 54.144 
L 147.667206 54.144 
L 146.581405 54.144 
L 145.495604 54.144 
L 144.409802 54.144 
L 143.324001 54.144 
L 142.2382 54.144 
L 141.152399 54.144 
L 140.066598 54.144 
L 138.980797 54.144 
L 137.894995 54.144 
L 136.809194 54.144 
L 135.723393 54.144 
L 134.637592 54.144 
L 133.551791 54.144 
L 132.46599 54.144 
L 131.380189 54.144 
L 130.294387 54.144 
L 129.208586 54.144 
L 128.122785 54.144 
L 127.036984 54.144 
L 125.951183 54.144 
L 124.865382 54.144 
L 123.77958 54.144 
L 122.693779 54.144 
L 121.607978 54.144 
L 120.522177 54.144 
L 119.436376 54.144 
L 118.350575 54.144 
L 117.264773 54.144 
L 116.178972 54.144 
L 115.093171 54.144 
L 114.00737 54.144 
L 112.921569 54.144 
L 111.835768 54.144 
L 110.749967 54.144 
L 109.664165 54.144 
L 108.578364 54.144 
L 107.492563 54.144 
L 106.406762 54.144 
L 105.320961 54.144 
L 104.23516 54.144 
L 103.149358 54.144 
L 102.063557 54.144 
L 100.977756 54.144 
L 99.891955 54.144 
L 98.806154 54.144 
L 97.720353 54.144 
L 96.634552 54.144 
L 95.54875 54.144 
L 94.462949 54.144 
L 93.377148 54.144 
L 92.291347 54.144 
L 91.205546 54.144 
L 90.119745 54.144 
L 89.033943 54.144 
L 87.948142 54.144 
L 86.862341 54.144 
L 85.77654 54.144 
L 84.690739 54.144 
L 83.604938 54.144 
L 82.519137 54.144 
L 81.433335 54.144 
L 80.347534 54.144 
L 79.261733 54.144 
L 78.175932 54.144 
L 77.090131 54.144 
L 76.00433 54.144 
L 74.918528 54.144 
L 73.832727 54.144 
z
" style="fill:#1f77b4;"/>
   </g>
   <g id="PolyCollection_2">
    <path clip-path="url(#p3546a17c0f)" d="M 73.832727 54.144 
L 73.832727 54.144 
L 74.918528 54.144 
L 76.00433 54.144 
L 77.090131 54.144 
L 78.175932 54.144 
L 79.261733 54.144 
L 80.347534 54.144 
L 81.433335 54.144 
L 82.519137 54.144 
L 83.604938 54.144 
L 84.690739 54.144 
L 85.77654 54.144 
L 86.862341 54.144 
L 87.948142 54.144 
L 89.033943 54.144 
L 90.119745 54.144 
L 91.205546 54.144 
L 92.291347 54.144 
L 93.377148 54.144 
L 94.462949 54.144 
L 95.54875 54.144 
L 96.634552 54.144 
L 97.720353 54.144 
L 98.806154 54.144 
L 99.891955 54.144 
L 100.977756 54.144 
L 102.063557 54.144 
L 103.149358 54.144 
L 104.23516 54.144 
L 105.320961 54.144 
L 106.406762 54.144 
L 107.492563 54.144 
L 108.578364 54.144 
L 109.664165 54.144 
L 110.749967 54.144 
L 111.835768 54.144 
L 112.921569 54.144 
L 114.00737 54.144 
L 115.093171 54.144 
L 116.178972 54.144 
L 117.264773 54.144 
L 118.350575 54.144 
L 119.436376 54.144 
L 120.522177 54.144 
L 121.607978 54.144 
L 122.693779 54.144 
L 123.77958 54.144 
L 124.865382 54.144 
L 125.951183 54.144 
L 127.036984 54.144 
L 128.122785 54.144 
L 129.208586 54.144 
L 130.294387 54.144 
L 131.380189 54.144 
L 132.46599 54.144 
L 133.551791 54.144 
L 134.637592 54.144 
L 135.723393 54.144 
L 136.809194 54.144 
L 137.894995 54.144 
L 138.980797 54.144 
L 140.066598 54.144 
L 141.152399 54.144 
L 142.2382 54.144 
L 143.324001 54.144 
L 144.409802 54.144 
L 145.495604 54.144 
L 146.581405 54.144 
L 147.667206 54.144 
L 148.753007 54.144 
L 149.838808 54.144 
L 150.924609 54.144 
L 152.01041 54.144 
L 153.096212 54.144 
L 154.182013 54.144 
L 155.267814 54.144 
L 156.353615 54.144 
L 157.439416 54.144 
L 158.525217 54.144 
L 159.611019 54.144 
L 160.69682 54.144 
L 161.782621 54.144 
L 162.868422 54.144 
L 163.954223 54.144 
L 165.040024 54.144 
L 166.125825 54.144 
L 167.211627 54.144 
L 168.297428 54.144 
L 169.383229 54.144 
L 170.46903 54.144 
L 171.554831 54.144 
L 172.640632 54.144 
L 173.726434 54.144 
L 174.812235 54.144 
L 175.898036 54.144 
L 176.983837 54.144 
L 178.069638 54.144 
L 179.155439 54.144 
L 180.24124 54.144 
L 181.327042 54.144 
L 182.412843 54.144 
L 183.498644 54.144 
L 184.584445 54.144 
L 185.670246 54.144 
L 186.756047 54.144 
L 187.841849 54.144 
L 188.92765 54.144 
L 190.013451 54.144 
L 191.099252 54.144 
L 192.185053 54.144 
L 193.270854 54.144 
L 194.356656 54.144 
L 195.442457 54.144 
L 196.528258 54.144 
L 197.614059 54.144 
L 198.69986 54.144 
L 199.785661 54.144 
L 200.871462 54.144 
L 201.957264 54.144 
L 203.043065 54.144 
L 204.128866 54.144 
L 205.214667 54.144 
L 206.300468 54.144 
L 207.386269 54.144 
L 208.472071 54.144 
L 209.557872 54.144 
L 210.643673 54.144 
L 211.729474 54.144 
L 212.815275 54.144 
L 213.901076 54.144 
L 214.986877 54.144 
L 216.072679 54.144 
L 217.15848 54.144 
L 218.244281 54.144 
L 219.330082 54.144 
L 220.415883 54.144 
L 221.501684 54.144 
L 222.587486 54.144 
L 223.673287 54.144 
L 224.759088 54.144 
L 225.844889 54.144 
L 226.93069 54.144 
L 228.016491 54.144 
L 229.102292 54.144 
L 230.188094 54.144 
L 231.273895 54.144 
L 232.359696 54.144 
L 233.445497 54.144 
L 234.531298 54.144 
L 235.617099 54.144 
L 236.702901 54.144 
L 237.788702 54.144 
L 238.874503 54.144 
L 239.960304 54.144 
L 241.046105 54.144 
L 242.131906 54.144 
L 243.217708 54.144 
L 244.303509 54.144 
L 245.38931 54.144 
L 246.475111 54.144 
L 247.560912 54.144 
L 248.646713 54.144 
L 249.732514 54.144 
L 250.818316 54.144 
L 251.904117 54.144 
L 252.989918 54.144 
L 254.075719 54.144 
L 255.16152 54.144 
L 256.247321 54.144 
L 257.333123 54.144 
L 258.418924 54.144 
L 259.504725 54.144 
L 260.590526 54.144 
L 261.676327 54.144 
L 262.762128 54.144 
L 263.847929 54.144 
L 264.933731 54.144 
L 266.019532 54.144 
L 267.105333 54.144 
L 268.191134 54.144 
L 269.276935 54.144 
L 270.362736 72.7296 
L 271.448538 185.9328 
L 272.534339 163.968 
L 273.62014 165.6576 
L 274.705941 196.0704 
L 275.791742 192.6912 
L 276.877543 202.8288 
L 277.963344 172.416 
L 279.049146 179.1744 
L 280.134947 202.8288 
L 281.220748 175.7952 
L 282.306549 145.3824 
L 283.39235 125.1072 
L 284.478151 157.2096 
L 285.563953 165.6576 
L 286.649754 133.5552 
L 287.735555 160.5888 
L 288.821356 185.9328 
L 289.907157 177.4848 
L 290.992958 194.3808 
L 292.07876 180.864 
L 293.164561 184.2432 
L 294.250362 189.312 
L 295.336163 192.6912 
L 296.421964 189.312 
L 297.507765 187.6224 
L 298.593566 185.9328 
L 299.679368 175.7952 
L 300.765169 177.4848 
L 301.85097 175.7952 
L 302.936771 184.2432 
L 304.022572 180.864 
L 305.108373 185.9328 
L 306.194175 185.9328 
L 307.279976 182.5536 
L 308.365777 184.2432 
L 309.451578 185.9328 
L 310.537379 179.1744 
L 311.62318 179.1744 
L 312.708981 184.2432 
L 313.794783 189.312 
L 314.880584 187.6224 
L 315.966385 182.5536 
L 317.052186 180.864 
L 318.137987 177.4848 
L 319.223788 184.2432 
L 320.30959 185.9328 
L 321.395391 175.7952 
L 322.481192 174.1056 
L 323.566993 177.4848 
L 324.652794 177.4848 
L 325.738595 169.0368 
L 326.824396 165.6576 
L 327.910198 169.0368 
L 328.995999 174.1056 
L 330.0818 182.5536 
L 331.167601 184.2432 
L 332.253402 197.76 
L 333.339203 192.6912 
L 334.425005 189.312 
L 335.510806 165.6576 
L 336.596607 165.6576 
L 337.682408 169.0368 
L 338.768209 172.416 
L 339.85401 174.1056 
L 340.939811 179.1744 
L 342.025613 180.864 
L 343.111414 182.5536 
L 344.197215 179.1744 
L 345.283016 177.4848 
L 346.368817 179.1744 
L 347.454618 180.864 
L 348.54042 182.5536 
L 349.626221 180.864 
L 350.712022 182.5536 
L 351.797823 185.9328 
L 352.883624 180.864 
L 353.969425 182.5536 
L 355.055227 184.2432 
L 356.141028 182.5536 
L 357.226829 180.864 
L 358.31263 182.5536 
L 359.398431 180.864 
L 360.484232 184.2432 
L 361.570033 179.1744 
L 362.655835 180.864 
L 363.741636 179.1744 
L 364.827437 180.864 
L 365.913238 184.2432 
L 366.999039 184.2432 
L 368.08484 182.5536 
L 369.170642 187.6224 
L 370.256443 187.6224 
L 371.342244 182.5536 
L 372.428045 185.9328 
L 373.513846 179.1744 
L 374.599647 177.4848 
L 375.685448 184.2432 
L 376.77125 194.3808 
L 377.857051 194.3808 
L 378.942852 224.7936 
L 380.028653 216.3456 
L 381.114454 189.312 
L 382.200255 185.9328 
L 383.286057 184.2432 
L 384.371858 179.1744 
L 385.457659 182.5536 
L 386.54346 184.2432 
L 387.629261 185.9328 
L 388.715062 182.5536 
L 389.800863 184.2432 
L 390.886665 182.5536 
L 391.972466 180.864 
L 393.058267 182.5536 
L 394.144068 180.864 
L 395.229869 177.4848 
L 396.31567 179.1744 
L 397.401472 182.5536 
L 398.487273 180.864 
L 398.487273 54.144 
L 398.487273 54.144 
L 397.401472 54.144 
L 396.31567 54.144 
L 395.229869 54.144 
L 394.144068 54.144 
L 393.058267 54.144 
L 391.972466 54.144 
L 390.886665 54.144 
L 389.800863 54.144 
L 388.715062 54.144 
L 387.629261 54.144 
L 386.54346 54.144 
L 385.457659 54.144 
L 384.371858 54.144 
L 383.286057 54.144 
L 382.200255 54.144 
L 381.114454 54.144 
L 380.028653 54.144 
L 378.942852 54.144 
L 377.857051 54.144 
L 376.77125 54.144 
L 375.685448 54.144 
L 374.599647 54.144 
L 373.513846 54.144 
L 372.428045 54.144 
L 371.342244 54.144 
L 370.256443 54.144 
L 369.170642 54.144 
L 368.08484 54.144 
L 366.999039 54.144 
L 365.913238 54.144 
L 364.827437 54.144 
L 363.741636 54.144 
L 362.655835 54.144 
L 361.570033 54.144 
L 360.484232 54.144 
L 359.398431 54.144 
L 358.31263 54.144 
L 357.226829 54.144 
L 356.141028 54.144 
L 355.055227 54.144 
L 353.969425 54.144 
L 352.883624 54.144 
L 351.797823 54.144 
L 350.712022 54.144 
L 349.626221 54.144 
L 348.54042 54.144 
L 347.454618 54.144 
L 346.368817 54.144 
L 345.283016 54.144 
L 344.197215 54.144 
L 343.111414 54.144 
L 342.025613 54.144 
L 340.939811 54.144 
L 339.85401 54.144 
L 338.768209 54.144 
L 337.682408 54.144 
L 336.596607 54.144 
L 335.510806 54.144 
L 334.425005 54.144 
L 333.339203 54.144 
L 332.253402 54.144 
L 331.167601 54.144 
L 330.0818 54.144 
L 328.995999 54.144 
L 327.910198 54.144 
L 326.824396 54.144 
L 325.738595 54.144 
L 324.652794 54.144 
L 323.566993 54.144 
L 322.481192 54.144 
L 321.395391 54.144 
L 320.30959 54.144 
L 319.223788 54.144 
L 318.137987 54.144 
L 317.052186 54.144 
L 315.966385 54.144 
L 314.880584 54.144 
L 313.794783 54.144 
L 312.708981 54.144 
L 311.62318 54.144 
L 310.537379 54.144 
L 309.451578 54.144 
L 308.365777 54.144 
L 307.279976 54.144 
L 306.194175 54.144 
L 305.108373 54.144 
L 304.022572 54.144 
L 302.936771 54.144 
L 301.85097 54.144 
L 300.765169 54.144 
L 299.679368 54.144 
L 298.593566 54.144 
L 297.507765 54.144 
L 296.421964 54.144 
L 295.336163 54.144 
L 294.250362 54.144 
L 293.164561 54.144 
L 292.07876 54.144 
L 290.992958 54.144 
L 289.907157 54.144 
L 288.821356 54.144 
L 287.735555 54.144 
L 286.649754 54.144 
L 285.563953 54.144 
L 284.478151 54.144 
L 283.39235 54.144 
L 282.306549 54.144 
L 281.220748 54.144 
L 280.134947 54.144 
L 279.049146 54.144 
L 277.963344 54.144 
L 276.877543 54.144 
L 275.791742 54.144 
L 274.705941 54.144 
L 273.62014 54.144 
L 272.534339 54.144 
L 271.448538 54.144 
L 270.362736 54.144 
L 269.276935 54.144 
L 268.191134 54.144 
L 267.105333 54.144 
L 266.019532 54.144 
L 264.933731 54.144 
L 263.847929 54.144 
L 262.762128 54.144 
L 261.676327 54.144 
L 260.590526 54.144 
L 259.504725 54.144 
L 258.418924 54.144 
L 257.333123 54.144 
L 256.247321 54.144 
L 255.16152 54.144 
L 254.075719 54.144 
L 252.989918 54.144 
L 251.904117 54.144 
L 250.818316 54.144 
L 249.732514 54.144 
L 248.646713 54.144 
L 247.560912 54.144 
L 246.475111 54.144 
L 245.38931 54.144 
L 244.303509 54.144 
L 243.217708 54.144 
L 242.131906 54.144 
L 241.046105 54.144 
L 239.960304 54.144 
L 238.874503 54.144 
L 237.788702 54.144 
L 236.702901 54.144 
L 235.617099 54.144 
L 234.531298 54.144 
L 233.445497 54.144 
L 232.359696 54.144 
L 231.273895 54.144 
L 230.188094 54.144 
L 229.102292 54.144 
L 228.016491 54.144 
L 226.93069 54.144 
L 225.844889 54.144 
L 224.759088 54.144 
L 223.673287 54.144 
L 222.587486 54.144 
L 221.501684 54.144 
L 220.415883 54.144 
L 219.330082 54.144 
L 218.244281 54.144 
L 217.15848 54.144 
L 216.072679 54.144 
L 214.986877 54.144 
L 213.901076 54.144 
L 212.815275 54.144 
L 211.729474 54.144 
L 210.643673 54.144 
L 209.557872 54.144 
L 208.472071 54.144 
L 207.386269 54.144 
L 206.300468 54.144 
L 205.214667 54.144 
L 204.128866 54.144 
L 203.043065 54.144 
L 201.957264 54.144 
L 200.871462 54.144 
L 199.785661 54.144 
L 198.69986 54.144 
L 197.614059 54.144 
L 196.528258 54.144 
L 195.442457 54.144 
L 194.356656 54.144 
L 193.270854 54.144 
L 192.185053 54.144 
L 191.099252 54.144 
L 190.013451 54.144 
L 188.92765 54.144 
L 187.841849 54.144 
L 186.756047 54.144 
L 185.670246 54.144 
L 184.584445 54.144 
L 183.498644 54.144 
L 182.412843 54.144 
L 181.327042 54.144 
L 180.24124 54.144 
L 179.155439 54.144 
L 178.069638 54.144 
L 176.983837 54.144 
L 175.898036 54.144 
L 174.812235 54.144 
L 173.726434 54.144 
L 172.640632 54.144 
L 171.554831 54.144 
L 170.46903 54.144 
L 169.383229 54.144 
L 168.297428 54.144 
L 167.211627 54.144 
L 166.125825 54.144 
L 165.040024 54.144 
L 163.954223 54.144 
L 162.868422 54.144 
L 161.782621 54.144 
L 160.69682 54.144 
L 159.611019 54.144 
L 158.525217 54.144 
L 157.439416 54.144 
L 156.353615 54.144 
L 155.267814 54.144 
L 154.182013 54.144 
L 153.096212 54.144 
L 152.01041 54.144 
L 150.924609 54.144 
L 149.838808 54.144 
L 148.753007 54.144 
L 147.667206 54.144 
L 146.581405 54.144 
L 145.495604 54.144 
L 144.409802 54.144 
L 143.324001 54.144 
L 142.2382 54.144 
L 141.152399 54.144 
L 140.066598 54.144 
L 138.980797 54.144 
L 137.894995 54.144 
L 136.809194 54.144 
L 135.723393 54.144 
L 134.637592 54.144 
L 133.551791 54.144 
L 132.46599 54.144 
L 131.380189 54.144 
L 130.294387 54.144 
L 129.208586 54.144 
L 128.122785 54.144 
L 127.036984 54.144 
L 125.951183 54.144 
L 124.865382 54.144 
L 123.77958 54.144 
L 122.693779 54.144 
L 121.607978 54.144 
L 120.522177 54.144 
L 119.436376 54.144 
L 118.350575 54.144 
L 117.264773 54.144 
L 116.178972 54.144 
L 115.093171 54.144 
L 114.00737 54.144 
L 112.921569 54.144 
L 111.835768 54.144 
L 110.749967 54.144 
L 109.664165 54.144 
L 108.578364 54.144 
L 107.492563 54.144 
L 106.406762 54.144 
L 105.320961 54.144 
L 104.23516 54.144 
L 103.149358 54.144 
L 102.063557 54.144 
L 100.977756 54.144 
L 99.891955 54.144 
L 98.806154 54.144 
L 97.720353 54.144 
L 96.634552 54.144 
L 95.54875 54.144 
L 94.462949 54.144 
L 93.377148 54.144 
L 92.291347 54.144 
L 91.205546 54.144 
L 90.119745 54.144 
L 89.033943 54.144 
L 87.948142 54.144 
L 86.862341 54.144 
L 85.77654 54.144 
L 84.690739 54.144 
L 83.604938 54.144 
L 82.519137 54.144 
L 81.433335 54.144 
L 80.347534 54.144 
L 79.261733 54.144 
L 78.175932 54.144 
L 77.090131 54.144 
L 76.00433 54.144 
L 74.918528 54.144 
L 73.832727 54.144 
z
" style="fill:#ff7f0e;"/>
   </g>
   <g id="matplotlib.axis_1">
    <g id="xtick_1">
     <g id="line2d_1">
      <defs>
       <path d="M 0 0 
L 0 3.5 
" id="m2a3ffa74a3" style="stroke:#000000;stroke-width:0.8;"/>
      </defs>
      <g>
       <use style="stroke:#000000;stroke-width:0.8;" x="73.832727" xlink:href="#m2a3ffa74a3" y="307.584"/>
      </g>
     </g>
     <g id="text_1">
      <!-- 0 -->
      <g transform="translate(70.651477 322.182437)scale(0.1 -0.1)">
       <defs>
        <path d="M 31.78125 66.40625 
Q 24.171875 66.40625 20.328125 58.90625 
Q 16.5 51.421875 16.5 36.375 
Q 16.5 21.390625 20.328125 13.890625 
Q 24.171875 6.390625 31.78125 6.390625 
Q 39.453125 6.390625 43.28125 13.890625 
Q 47.125 21.390625 47.125 36.375 
Q 47.125 51.421875 43.28125 58.90625 
Q 39.453125 66.40625 31.78125 66.40625 
z
M 31.78125 74.21875 
Q 44.046875 74.21875 50.515625 64.515625 
Q 56.984375 54.828125 56.984375 36.375 
Q 56.984375 17.96875 50.515625 8.265625 
Q 44.046875 -1.421875 31.78125 -1.421875 
Q 19.53125 -1.421875 13.0625 8.265625 
Q 6.59375 17.96875 6.59375 36.375 
Q 6.59375 54.828125 13.0625 64.515625 
Q 19.53125 74.21875 31.78125 74.21875 
z
" id="DejaVuSans-48"/>
       </defs>
       <use xlink:href="#DejaVuSans-48"/>
      </g>
     </g>
    </g>
    <g id="xtick_2">
     <g id="line2d_2">
      <g>
       <use style="stroke:#000000;stroke-width:0.8;" x="128.122785" xlink:href="#m2a3ffa74a3" y="307.584"/>
      </g>
     </g>
     <g id="text_2">
      <!-- 50 -->
      <g transform="translate(121.760285 322.182437)scale(0.1 -0.1)">
       <defs>
        <path d="M 10.796875 72.90625 
L 49.515625 72.90625 
L 49.515625 64.59375 
L 19.828125 64.59375 
L 19.828125 46.734375 
Q 21.96875 47.46875 24.109375 47.828125 
Q 26.265625 48.1875 28.421875 48.1875 
Q 40.625 48.1875 47.75 41.5 
Q 54.890625 34.8125 54.890625 23.390625 
Q 54.890625 11.625 47.5625 5.09375 
Q 40.234375 -1.421875 26.90625 -1.421875 
Q 22.3125 -1.421875 17.546875 -0.640625 
Q 12.796875 0.140625 7.71875 1.703125 
L 7.71875 11.625 
Q 12.109375 9.234375 16.796875 8.0625 
Q 21.484375 6.890625 26.703125 6.890625 
Q 35.15625 6.890625 40.078125 11.328125 
Q 45.015625 15.765625 45.015625 23.390625 
Q 45.015625 31 40.078125 35.4375 
Q 35.15625 39.890625 26.703125 39.890625 
Q 22.75 39.890625 18.8125 39.015625 
Q 14.890625 38.140625 10.796875 36.28125 
z
" id="DejaVuSans-53"/>
       </defs>
       <use xlink:href="#DejaVuSans-53"/>
       <use x="63.623047" xlink:href="#DejaVuSans-48"/>
      </g>
     </g>
    </g>
    <g id="xtick_3">
     <g id="line2d_3">
      <g>
       <use style="stroke:#000000;stroke-width:0.8;" x="182.412843" xlink:href="#m2a3ffa74a3" y="307.584"/>
      </g>
     </g>
     <g id="text_3">
      <!-- 100 -->
      <g transform="translate(172.869093 322.182437)scale(0.1 -0.1)">
       <defs>
        <path d="M 12.40625 8.296875 
L 28.515625 8.296875 
L 28.515625 63.921875 
L 10.984375 60.40625 
L 10.984375 69.390625 
L 28.421875 72.90625 
L 38.28125 72.90625 
L 38.28125 8.296875 
L 54.390625 8.296875 
L 54.390625 0 
L 12.40625 0 
z
" id="DejaVuSans-49"/>
       </defs>
       <use xlink:href="#DejaVuSans-49"/>
       <use x="63.623047" xlink:href="#DejaVuSans-48"/>
       <use x="127.246094" xlink:href="#DejaVuSans-48"/>
      </g>
     </g>
    </g>
    <g id="xtick_4">
     <g id="line2d_4">
      <g>
       <use style="stroke:#000000;stroke-width:0.8;" x="236.702901" xlink:href="#m2a3ffa74a3" y="307.584"/>
      </g>
     </g>
     <g id="text_4">
      <!-- 150 -->
      <g transform="translate(227.159151 322.182437)scale(0.1 -0.1)">
       <use xlink:href="#DejaVuSans-49"/>
       <use x="63.623047" xlink:href="#DejaVuSans-53"/>
       <use x="127.246094" xlink:href="#DejaVuSans-48"/>
      </g>
     </g>
    </g>
    <g id="xtick_5">
     <g id="line2d_5">
      <g>
       <use style="stroke:#000000;stroke-width:0.8;" x="290.992958" xlink:href="#m2a3ffa74a3" y="307.584"/>
      </g>
     </g>
     <g id="text_5">
      <!-- 200 -->
      <g transform="translate(281.449208 322.182437)scale(0.1 -0.1)">
       <defs>
        <path d="M 19.1875 8.296875 
L 53.609375 8.296875 
L 53.609375 0 
L 7.328125 0 
L 7.328125 8.296875 
Q 12.9375 14.109375 22.625 23.890625 
Q 32.328125 33.6875 34.8125 36.53125 
Q 39.546875 41.84375 41.421875 45.53125 
Q 43.3125 49.21875 43.3125 52.78125 
Q 43.3125 58.59375 39.234375 62.25 
Q 35.15625 65.921875 28.609375 65.921875 
Q 23.96875 65.921875 18.8125 64.3125 
Q 13.671875 62.703125 7.8125 59.421875 
L 7.8125 69.390625 
Q 13.765625 71.78125 18.9375 73 
Q 24.125 74.21875 28.421875 74.21875 
Q 39.75 74.21875 46.484375 68.546875 
Q 53.21875 62.890625 53.21875 53.421875 
Q 53.21875 48.921875 51.53125 44.890625 
Q 49.859375 40.875 45.40625 35.40625 
Q 44.1875 33.984375 37.640625 27.21875 
Q 31.109375 20.453125 19.1875 8.296875 
z
" id="DejaVuSans-50"/>
       </defs>
       <use xlink:href="#DejaVuSans-50"/>
       <use x="63.623047" xlink:href="#DejaVuSans-48"/>
       <use x="127.246094" xlink:href="#DejaVuSans-48"/>
      </g>
     </g>
    </g>
    <g id="xtick_6">
     <g id="line2d_6">
      <g>
       <use style="stroke:#000000;stroke-width:0.8;" x="345.283016" xlink:href="#m2a3ffa74a3" y="307.584"/>
      </g>
     </g>
     <g id="text_6">
      <!-- 250 -->
      <g transform="translate(335.739266 322.182437)scale(0.1 -0.1)">
       <use xlink:href="#DejaVuSans-50"/>
       <use x="63.623047" xlink:href="#DejaVuSans-53"/>
       <use x="127.246094" xlink:href="#DejaVuSans-48"/>
      </g>
     </g>
    </g>
    <g id="xtick_7">
     <g id="line2d_7">
      <g>
       <use style="stroke:#000000;stroke-width:0.8;" x="399.573074" xlink:href="#m2a3ffa74a3" y="307.584"/>
      </g>
     </g>
     <g id="text_7">
      <!-- 300 -->
      <g transform="translate(390.029324 322.182437)scale(0.1 -0.1)">
       <defs>
        <path d="M 40.578125 39.3125 
Q 47.65625 37.796875 51.625 33 
Q 55.609375 28.21875 55.609375 21.1875 
Q 55.609375 10.40625 48.1875 4.484375 
Q 40.765625 -1.421875 27.09375 -1.421875 
Q 22.515625 -1.421875 17.65625 -0.515625 
Q 12.796875 0.390625 7.625 2.203125 
L 7.625 11.71875 
Q 11.71875 9.328125 16.59375 8.109375 
Q 21.484375 6.890625 26.8125 6.890625 
Q 36.078125 6.890625 40.9375 10.546875 
Q 45.796875 14.203125 45.796875 21.1875 
Q 45.796875 27.640625 41.28125 31.265625 
Q 36.765625 34.90625 28.71875 34.90625 
L 20.21875 34.90625 
L 20.21875 43.015625 
L 29.109375 43.015625 
Q 36.375 43.015625 40.234375 45.921875 
Q 44.09375 48.828125 44.09375 54.296875 
Q 44.09375 59.90625 40.109375 62.90625 
Q 36.140625 65.921875 28.71875 65.921875 
Q 24.65625 65.921875 20.015625 65.03125 
Q 15.375 64.15625 9.8125 62.3125 
L 9.8125 71.09375 
Q 15.4375 72.65625 20.34375 73.4375 
Q 25.25 74.21875 29.59375 74.21875 
Q 40.828125 74.21875 47.359375 69.109375 
Q 53.90625 64.015625 53.90625 55.328125 
Q 53.90625 49.265625 50.4375 45.09375 
Q 46.96875 40.921875 40.578125 39.3125 
z
" id="DejaVuSans-51"/>
       </defs>
       <use xlink:href="#DejaVuSans-51"/>
       <use x="63.623047" xlink:href="#DejaVuSans-48"/>
       <use x="127.246094" xlink:href="#DejaVuSans-48"/>
      </g>
     </g>
    </g>
    <g id="text_8">
     <!-- Generations -->
     <g transform="translate(205.662344 335.860562)scale(0.1 -0.1)">
      <defs>
       <path d="M 59.515625 10.40625 
L 59.515625 29.984375 
L 43.40625 29.984375 
L 43.40625 38.09375 
L 69.28125 38.09375 
L 69.28125 6.78125 
Q 63.578125 2.734375 56.6875 0.65625 
Q 49.8125 -1.421875 42 -1.421875 
Q 24.90625 -1.421875 15.25 8.5625 
Q 5.609375 18.5625 5.609375 36.375 
Q 5.609375 54.25 15.25 64.234375 
Q 24.90625 74.21875 42 74.21875 
Q 49.125 74.21875 55.546875 72.453125 
Q 61.96875 70.703125 67.390625 67.28125 
L 67.390625 56.78125 
Q 61.921875 61.421875 55.765625 63.765625 
Q 49.609375 66.109375 42.828125 66.109375 
Q 29.4375 66.109375 22.71875 58.640625 
Q 16.015625 51.171875 16.015625 36.375 
Q 16.015625 21.625 22.71875 14.15625 
Q 29.4375 6.6875 42.828125 6.6875 
Q 48.046875 6.6875 52.140625 7.59375 
Q 56.25 8.5 59.515625 10.40625 
z
" id="DejaVuSans-71"/>
       <path d="M 56.203125 29.59375 
L 56.203125 25.203125 
L 14.890625 25.203125 
Q 15.484375 15.921875 20.484375 11.0625 
Q 25.484375 6.203125 34.421875 6.203125 
Q 39.59375 6.203125 44.453125 7.46875 
Q 49.3125 8.734375 54.109375 11.28125 
L 54.109375 2.78125 
Q 49.265625 0.734375 44.1875 -0.34375 
Q 39.109375 -1.421875 33.890625 -1.421875 
Q 20.796875 -1.421875 13.15625 6.1875 
Q 5.515625 13.8125 5.515625 26.8125 
Q 5.515625 40.234375 12.765625 48.109375 
Q 20.015625 56 32.328125 56 
Q 43.359375 56 49.78125 48.890625 
Q 56.203125 41.796875 56.203125 29.59375 
z
M 47.21875 32.234375 
Q 47.125 39.59375 43.09375 43.984375 
Q 39.0625 48.390625 32.421875 48.390625 
Q 24.90625 48.390625 20.390625 44.140625 
Q 15.875 39.890625 15.1875 32.171875 
z
" id="DejaVuSans-101"/>
       <path d="M 54.890625 33.015625 
L 54.890625 0 
L 45.90625 0 
L 45.90625 32.71875 
Q 45.90625 40.484375 42.875 44.328125 
Q 39.84375 48.1875 33.796875 48.1875 
Q 26.515625 48.1875 22.3125 43.546875 
Q 18.109375 38.921875 18.109375 30.90625 
L 18.109375 0 
L 9.078125 0 
L 9.078125 54.6875 
L 18.109375 54.6875 
L 18.109375 46.1875 
Q 21.34375 51.125 25.703125 53.5625 
Q 30.078125 56 35.796875 56 
Q 45.21875 56 50.046875 50.171875 
Q 54.890625 44.34375 54.890625 33.015625 
z
" id="DejaVuSans-110"/>
       <path d="M 41.109375 46.296875 
Q 39.59375 47.171875 37.8125 47.578125 
Q 36.03125 48 33.890625 48 
Q 26.265625 48 22.1875 43.046875 
Q 18.109375 38.09375 18.109375 28.8125 
L 18.109375 0 
L 9.078125 0 
L 9.078125 54.6875 
L 18.109375 54.6875 
L 18.109375 46.1875 
Q 20.953125 51.171875 25.484375 53.578125 
Q 30.03125 56 36.53125 56 
Q 37.453125 56 38.578125 55.875 
Q 39.703125 55.765625 41.0625 55.515625 
z
" id="DejaVuSans-114"/>
       <path d="M 34.28125 27.484375 
Q 23.390625 27.484375 19.1875 25 
Q 14.984375 22.515625 14.984375 16.5 
Q 14.984375 11.71875 18.140625 8.90625 
Q 21.296875 6.109375 26.703125 6.109375 
Q 34.1875 6.109375 38.703125 11.40625 
Q 43.21875 16.703125 43.21875 25.484375 
L 43.21875 27.484375 
z
M 52.203125 31.203125 
L 52.203125 0 
L 43.21875 0 
L 43.21875 8.296875 
Q 40.140625 3.328125 35.546875 0.953125 
Q 30.953125 -1.421875 24.3125 -1.421875 
Q 15.921875 -1.421875 10.953125 3.296875 
Q 6 8.015625 6 15.921875 
Q 6 25.140625 12.171875 29.828125 
Q 18.359375 34.515625 30.609375 34.515625 
L 43.21875 34.515625 
L 43.21875 35.40625 
Q 43.21875 41.609375 39.140625 45 
Q 35.0625 48.390625 27.6875 48.390625 
Q 23 48.390625 18.546875 47.265625 
Q 14.109375 46.140625 10.015625 43.890625 
L 10.015625 52.203125 
Q 14.9375 54.109375 19.578125 55.046875 
Q 24.21875 56 28.609375 56 
Q 40.484375 56 46.34375 49.84375 
Q 52.203125 43.703125 52.203125 31.203125 
z
" id="DejaVuSans-97"/>
       <path d="M 18.3125 70.21875 
L 18.3125 54.6875 
L 36.8125 54.6875 
L 36.8125 47.703125 
L 18.3125 47.703125 
L 18.3125 18.015625 
Q 18.3125 11.328125 20.140625 9.421875 
Q 21.96875 7.515625 27.59375 7.515625 
L 36.8125 7.515625 
L 36.8125 0 
L 27.59375 0 
Q 17.1875 0 13.234375 3.875 
Q 9.28125 7.765625 9.28125 18.015625 
L 9.28125 47.703125 
L 2.6875 47.703125 
L 2.6875 54.6875 
L 9.28125 54.6875 
L 9.28125 70.21875 
z
" id="DejaVuSans-116"/>
       <path d="M 9.421875 54.6875 
L 18.40625 54.6875 
L 18.40625 0 
L 9.421875 0 
z
M 9.421875 75.984375 
L 18.40625 75.984375 
L 18.40625 64.59375 
L 9.421875 64.59375 
z
" id="DejaVuSans-105"/>
       <path d="M 30.609375 48.390625 
Q 23.390625 48.390625 19.1875 42.75 
Q 14.984375 37.109375 14.984375 27.296875 
Q 14.984375 17.484375 19.15625 11.84375 
Q 23.34375 6.203125 30.609375 6.203125 
Q 37.796875 6.203125 41.984375 11.859375 
Q 46.1875 17.53125 46.1875 27.296875 
Q 46.1875 37.015625 41.984375 42.703125 
Q 37.796875 48.390625 30.609375 48.390625 
z
M 30.609375 56 
Q 42.328125 56 49.015625 48.375 
Q 55.71875 40.765625 55.71875 27.296875 
Q 55.71875 13.875 49.015625 6.21875 
Q 42.328125 -1.421875 30.609375 -1.421875 
Q 18.84375 -1.421875 12.171875 6.21875 
Q 5.515625 13.875 5.515625 27.296875 
Q 5.515625 40.765625 12.171875 48.375 
Q 18.84375 56 30.609375 56 
z
" id="DejaVuSans-111"/>
       <path d="M 44.28125 53.078125 
L 44.28125 44.578125 
Q 40.484375 46.53125 36.375 47.5 
Q 32.28125 48.484375 27.875 48.484375 
Q 21.1875 48.484375 17.84375 46.4375 
Q 14.5 44.390625 14.5 40.28125 
Q 14.5 37.15625 16.890625 35.375 
Q 19.28125 33.59375 26.515625 31.984375 
L 29.59375 31.296875 
Q 39.15625 29.25 43.1875 25.515625 
Q 47.21875 21.78125 47.21875 15.09375 
Q 47.21875 7.46875 41.1875 3.015625 
Q 35.15625 -1.421875 24.609375 -1.421875 
Q 20.21875 -1.421875 15.453125 -0.5625 
Q 10.6875 0.296875 5.421875 2 
L 5.421875 11.28125 
Q 10.40625 8.6875 15.234375 7.390625 
Q 20.0625 6.109375 24.8125 6.109375 
Q 31.15625 6.109375 34.5625 8.28125 
Q 37.984375 10.453125 37.984375 14.40625 
Q 37.984375 18.0625 35.515625 20.015625 
Q 33.0625 21.96875 24.703125 23.78125 
L 21.578125 24.515625 
Q 13.234375 26.265625 9.515625 29.90625 
Q 5.8125 33.546875 5.8125 39.890625 
Q 5.8125 47.609375 11.28125 51.796875 
Q 16.75 56 26.8125 56 
Q 31.78125 56 36.171875 55.265625 
Q 40.578125 54.546875 44.28125 53.078125 
z
" id="DejaVuSans-115"/>
      </defs>
      <use xlink:href="#DejaVuSans-71"/>
      <use x="77.490234" xlink:href="#DejaVuSans-101"/>
      <use x="139.013672" xlink:href="#DejaVuSans-110"/>
      <use x="202.392578" xlink:href="#DejaVuSans-101"/>
      <use x="263.916016" xlink:href="#DejaVuSans-114"/>
      <use x="305.029297" xlink:href="#DejaVuSans-97"/>
      <use x="366.308594" xlink:href="#DejaVuSans-116"/>
      <use x="405.517578" xlink:href="#DejaVuSans-105"/>
      <use x="433.300781" xlink:href="#DejaVuSans-111"/>
      <use x="494.482422" xlink:href="#DejaVuSans-110"/>
      <use x="557.861328" xlink:href="#DejaVuSans-115"/>
     </g>
    </g>
   </g>
   <g id="matplotlib.axis_2">
    <g id="ytick_1">
     <g id="line2d_8">
      <defs>
       <path d="M 0 0 
L -3.5 0 
" id="maff40fbc5d" style="stroke:#000000;stroke-width:0.8;"/>
      </defs>
      <g>
       <use style="stroke:#000000;stroke-width:0.8;" x="57.6" xlink:href="#maff40fbc5d" y="307.584"/>
      </g>
     </g>
     <g id="text_9">
      <!-- 0 -->
      <g transform="translate(44.2375 311.383219)scale(0.1 -0.1)">
       <use xlink:href="#DejaVuSans-48"/>
      </g>
     </g>
    </g>
    <g id="ytick_2">
     <g id="line2d_9">
      <g>
       <use style="stroke:#000000;stroke-width:0.8;" x="57.6" xlink:href="#maff40fbc5d" y="273.792"/>
      </g>
     </g>
     <g id="text_10">
      <!-- 20 -->
      <g transform="translate(37.875 277.591219)scale(0.1 -0.1)">
       <use xlink:href="#DejaVuSans-50"/>
       <use x="63.623047" xlink:href="#DejaVuSans-48"/>
      </g>
     </g>
    </g>
    <g id="ytick_3">
     <g id="line2d_10">
      <g>
       <use style="stroke:#000000;stroke-width:0.8;" x="57.6" xlink:href="#maff40fbc5d" y="240"/>
      </g>
     </g>
     <g id="text_11">
      <!-- 40 -->
      <g transform="translate(37.875 243.799219)scale(0.1 -0.1)">
       <defs>
        <path d="M 37.796875 64.3125 
L 12.890625 25.390625 
L 37.796875 25.390625 
z
M 35.203125 72.90625 
L 47.609375 72.90625 
L 47.609375 25.390625 
L 58.015625 25.390625 
L 58.015625 17.1875 
L 47.609375 17.1875 
L 47.609375 0 
L 37.796875 0 
L 37.796875 17.1875 
L 4.890625 17.1875 
L 4.890625 26.703125 
z
" id="DejaVuSans-52"/>
       </defs>
       <use xlink:href="#DejaVuSans-52"/>
       <use x="63.623047" xlink:href="#DejaVuSans-48"/>
      </g>
     </g>
    </g>
    <g id="ytick_4">
     <g id="line2d_11">
      <g>
       <use style="stroke:#000000;stroke-width:0.8;" x="57.6" xlink:href="#maff40fbc5d" y="206.208"/>
      </g>
     </g>
     <g id="text_12">
      <!-- 60 -->
      <g transform="translate(37.875 210.007219)scale(0.1 -0.1)">
       <defs>
        <path d="M 33.015625 40.375 
Q 26.375 40.375 22.484375 35.828125 
Q 18.609375 31.296875 18.609375 23.390625 
Q 18.609375 15.53125 22.484375 10.953125 
Q 26.375 6.390625 33.015625 6.390625 
Q 39.65625 6.390625 43.53125 10.953125 
Q 47.40625 15.53125 47.40625 23.390625 
Q 47.40625 31.296875 43.53125 35.828125 
Q 39.65625 40.375 33.015625 40.375 
z
M 52.59375 71.296875 
L 52.59375 62.3125 
Q 48.875 64.0625 45.09375 64.984375 
Q 41.3125 65.921875 37.59375 65.921875 
Q 27.828125 65.921875 22.671875 59.328125 
Q 17.53125 52.734375 16.796875 39.40625 
Q 19.671875 43.65625 24.015625 45.921875 
Q 28.375 48.1875 33.59375 48.1875 
Q 44.578125 48.1875 50.953125 41.515625 
Q 57.328125 34.859375 57.328125 23.390625 
Q 57.328125 12.15625 50.6875 5.359375 
Q 44.046875 -1.421875 33.015625 -1.421875 
Q 20.359375 -1.421875 13.671875 8.265625 
Q 6.984375 17.96875 6.984375 36.375 
Q 6.984375 53.65625 15.1875 63.9375 
Q 23.390625 74.21875 37.203125 74.21875 
Q 40.921875 74.21875 44.703125 73.484375 
Q 48.484375 72.75 52.59375 71.296875 
z
" id="DejaVuSans-54"/>
       </defs>
       <use xlink:href="#DejaVuSans-54"/>
       <use x="63.623047" xlink:href="#DejaVuSans-48"/>
      </g>
     </g>
    </g>
    <g id="ytick_5">
     <g id="line2d_12">
      <g>
       <use style="stroke:#000000;stroke-width:0.8;" x="57.6" xlink:href="#maff40fbc5d" y="172.416"/>
      </g>
     </g>
     <g id="text_13">
      <!-- 80 -->
      <g transform="translate(37.875 176.215219)scale(0.1 -0.1)">
       <defs>
        <path d="M 31.78125 34.625 
Q 24.75 34.625 20.71875 30.859375 
Q 16.703125 27.09375 16.703125 20.515625 
Q 16.703125 13.921875 20.71875 10.15625 
Q 24.75 6.390625 31.78125 6.390625 
Q 38.8125 6.390625 42.859375 10.171875 
Q 46.921875 13.96875 46.921875 20.515625 
Q 46.921875 27.09375 42.890625 30.859375 
Q 38.875 34.625 31.78125 34.625 
z
M 21.921875 38.8125 
Q 15.578125 40.375 12.03125 44.71875 
Q 8.5 49.078125 8.5 55.328125 
Q 8.5 64.0625 14.71875 69.140625 
Q 20.953125 74.21875 31.78125 74.21875 
Q 42.671875 74.21875 48.875 69.140625 
Q 55.078125 64.0625 55.078125 55.328125 
Q 55.078125 49.078125 51.53125 44.71875 
Q 48 40.375 41.703125 38.8125 
Q 48.828125 37.15625 52.796875 32.3125 
Q 56.78125 27.484375 56.78125 20.515625 
Q 56.78125 9.90625 50.3125 4.234375 
Q 43.84375 -1.421875 31.78125 -1.421875 
Q 19.734375 -1.421875 13.25 4.234375 
Q 6.78125 9.90625 6.78125 20.515625 
Q 6.78125 27.484375 10.78125 32.3125 
Q 14.796875 37.15625 21.921875 38.8125 
z
M 18.3125 54.390625 
Q 18.3125 48.734375 21.84375 45.5625 
Q 25.390625 42.390625 31.78125 42.390625 
Q 38.140625 42.390625 41.71875 45.5625 
Q 45.3125 48.734375 45.3125 54.390625 
Q 45.3125 60.0625 41.71875 63.234375 
Q 38.140625 66.40625 31.78125 66.40625 
Q 25.390625 66.40625 21.84375 63.234375 
Q 18.3125 60.0625 18.3125 54.390625 
z
" id="DejaVuSans-56"/>
       </defs>
       <use xlink:href="#DejaVuSans-56"/>
       <use x="63.623047" xlink:href="#DejaVuSans-48"/>
      </g>
     </g>
    </g>
    <g id="ytick_6">
     <g id="line2d_13">
      <g>
       <use style="stroke:#000000;stroke-width:0.8;" x="57.6" xlink:href="#maff40fbc5d" y="138.624"/>
      </g>
     </g>
     <g id="text_14">
      <!-- 100 -->
      <g transform="translate(31.5125 142.423219)scale(0.1 -0.1)">
       <use xlink:href="#DejaVuSans-49"/>
       <use x="63.623047" xlink:href="#DejaVuSans-48"/>
       <use x="127.246094" xlink:href="#DejaVuSans-48"/>
      </g>
     </g>
    </g>
    <g id="ytick_7">
     <g id="line2d_14">
      <g>
       <use style="stroke:#000000;stroke-width:0.8;" x="57.6" xlink:href="#maff40fbc5d" y="104.832"/>
      </g>
     </g>
     <g id="text_15">
      <!-- 120 -->
      <g transform="translate(31.5125 108.631219)scale(0.1 -0.1)">
       <use xlink:href="#DejaVuSans-49"/>
       <use x="63.623047" xlink:href="#DejaVuSans-50"/>
       <use x="127.246094" xlink:href="#DejaVuSans-48"/>
      </g>
     </g>
    </g>
    <g id="ytick_8">
     <g id="line2d_15">
      <g>
       <use style="stroke:#000000;stroke-width:0.8;" x="57.6" xlink:href="#maff40fbc5d" y="71.04"/>
      </g>
     </g>
     <g id="text_16">
      <!-- 140 -->
      <g transform="translate(31.5125 74.839219)scale(0.1 -0.1)">
       <use xlink:href="#DejaVuSans-49"/>
       <use x="63.623047" xlink:href="#DejaVuSans-52"/>
       <use x="127.246094" xlink:href="#DejaVuSans-48"/>
      </g>
     </g>
    </g>
    <g id="text_17">
     <!-- Size per Species -->
     <g transform="translate(25.432812 215.520969)rotate(-90)scale(0.1 -0.1)">
      <defs>
       <path d="M 53.515625 70.515625 
L 53.515625 60.890625 
Q 47.90625 63.578125 42.921875 64.890625 
Q 37.9375 66.21875 33.296875 66.21875 
Q 25.25 66.21875 20.875 63.09375 
Q 16.5 59.96875 16.5 54.203125 
Q 16.5 49.359375 19.40625 46.890625 
Q 22.3125 44.4375 30.421875 42.921875 
L 36.375 41.703125 
Q 47.40625 39.59375 52.65625 34.296875 
Q 57.90625 29 57.90625 20.125 
Q 57.90625 9.515625 50.796875 4.046875 
Q 43.703125 -1.421875 29.984375 -1.421875 
Q 24.8125 -1.421875 18.96875 -0.25 
Q 13.140625 0.921875 6.890625 3.21875 
L 6.890625 13.375 
Q 12.890625 10.015625 18.65625 8.296875 
Q 24.421875 6.59375 29.984375 6.59375 
Q 38.421875 6.59375 43.015625 9.90625 
Q 47.609375 13.234375 47.609375 19.390625 
Q 47.609375 24.75 44.3125 27.78125 
Q 41.015625 30.8125 33.5 32.328125 
L 27.484375 33.5 
Q 16.453125 35.6875 11.515625 40.375 
Q 6.59375 45.0625 6.59375 53.421875 
Q 6.59375 63.09375 13.40625 68.65625 
Q 20.21875 74.21875 32.171875 74.21875 
Q 37.3125 74.21875 42.625 73.28125 
Q 47.953125 72.359375 53.515625 70.515625 
z
" id="DejaVuSans-83"/>
       <path d="M 5.515625 54.6875 
L 48.1875 54.6875 
L 48.1875 46.484375 
L 14.40625 7.171875 
L 48.1875 7.171875 
L 48.1875 0 
L 4.296875 0 
L 4.296875 8.203125 
L 38.09375 47.515625 
L 5.515625 47.515625 
z
" id="DejaVuSans-122"/>
       <path id="DejaVuSans-32"/>
       <path d="M 18.109375 8.203125 
L 18.109375 -20.796875 
L 9.078125 -20.796875 
L 9.078125 54.6875 
L 18.109375 54.6875 
L 18.109375 46.390625 
Q 20.953125 51.265625 25.265625 53.625 
Q 29.59375 56 35.59375 56 
Q 45.5625 56 51.78125 48.09375 
Q 58.015625 40.1875 58.015625 27.296875 
Q 58.015625 14.40625 51.78125 6.484375 
Q 45.5625 -1.421875 35.59375 -1.421875 
Q 29.59375 -1.421875 25.265625 0.953125 
Q 20.953125 3.328125 18.109375 8.203125 
z
M 48.6875 27.296875 
Q 48.6875 37.203125 44.609375 42.84375 
Q 40.53125 48.484375 33.40625 48.484375 
Q 26.265625 48.484375 22.1875 42.84375 
Q 18.109375 37.203125 18.109375 27.296875 
Q 18.109375 17.390625 22.1875 11.75 
Q 26.265625 6.109375 33.40625 6.109375 
Q 40.53125 6.109375 44.609375 11.75 
Q 48.6875 17.390625 48.6875 27.296875 
z
" id="DejaVuSans-112"/>
       <path d="M 48.78125 52.59375 
L 48.78125 44.1875 
Q 44.96875 46.296875 41.140625 47.34375 
Q 37.3125 48.390625 33.40625 48.390625 
Q 24.65625 48.390625 19.8125 42.84375 
Q 14.984375 37.3125 14.984375 27.296875 
Q 14.984375 17.28125 19.8125 11.734375 
Q 24.65625 6.203125 33.40625 6.203125 
Q 37.3125 6.203125 41.140625 7.25 
Q 44.96875 8.296875 48.78125 10.40625 
L 48.78125 2.09375 
Q 45.015625 0.34375 40.984375 -0.53125 
Q 36.96875 -1.421875 32.421875 -1.421875 
Q 20.0625 -1.421875 12.78125 6.34375 
Q 5.515625 14.109375 5.515625 27.296875 
Q 5.515625 40.671875 12.859375 48.328125 
Q 20.21875 56 33.015625 56 
Q 37.15625 56 41.109375 55.140625 
Q 45.0625 54.296875 48.78125 52.59375 
z
" id="DejaVuSans-99"/>
      </defs>
      <use xlink:href="#DejaVuSans-83"/>
      <use x="63.476562" xlink:href="#DejaVuSans-105"/>
      <use x="91.259766" xlink:href="#DejaVuSans-122"/>
      <use x="143.75" xlink:href="#DejaVuSans-101"/>
      <use x="205.273438" xlink:href="#DejaVuSans-32"/>
      <use x="237.060547" xlink:href="#DejaVuSans-112"/>
      <use x="300.537109" xlink:href="#DejaVuSans-101"/>
      <use x="362.060547" xlink:href="#DejaVuSans-114"/>
      <use x="403.173828" xlink:href="#DejaVuSans-32"/>
      <use x="434.960938" xlink:href="#DejaVuSans-83"/>
      <use x="498.4375" xlink:href="#DejaVuSans-112"/>
      <use x="561.914062" xlink:href="#DejaVuSans-101"/>
      <use x="623.4375" xlink:href="#DejaVuSans-99"/>
      <use x="678.417969" xlink:href="#DejaVuSans-105"/>
      <use x="706.201172" xlink:href="#DejaVuSans-101"/>
      <use x="767.724609" xlink:href="#DejaVuSans-115"/>
     </g>
    </g>
   </g>
   <g id="patch_3">
    <path d="M 57.6 307.584 
L 57.6 41.472 
" style="fill:none;stroke:#000000;stroke-linecap:square;stroke-linejoin:miter;stroke-width:0.8;"/>
   </g>
   <g id="patch_4">
    <path d="M 414.72 307.584 
L 414.72 41.472 
" style="fill:none;stroke:#000000;stroke-linecap:square;stroke-linejoin:miter;stroke-width:0.8;"/>
   </g>
   <g id="patch_5">
    <path d="M 57.6 307.584 
L 414.72 307.584 
" style="fill:none;stroke:#000000;stroke-linecap:square;stroke-linejoin:miter;stroke-width:0.8;"/>
   </g>
   <g id="patch_6">
    <path d="M 57.6 41.472 
L 414.72 41.472 
" style="fill:none;stroke:#000000;stroke-linecap:square;stroke-linejoin:miter;stroke-width:0.8;"/>
   </g>
   <g id="text_18">
    <!-- Speciation -->
    <g transform="translate(204.714375 35.472)scale(0.12 -0.12)">
     <use xlink:href="#DejaVuSans-83"/>
     <use x="63.476562" xlink:href="#DejaVuSans-112"/>
     <use x="126.953125" xlink:href="#DejaVuSans-101"/>
     <use x="188.476562" xlink:href="#DejaVuSans-99"/>
     <use x="243.457031" xlink:href="#DejaVuSans-105"/>
     <use x="271.240234" xlink:href="#DejaVuSans-97"/>
     <use x="332.519531" xlink:href="#DejaVuSans-116"/>
     <use x="371.728516" xlink:href="#DejaVuSans-105"/>
     <use x="399.511719" xlink:href="#DejaVuSans-111"/>
     <use x="460.693359" xlink:href="#DejaVuSans-110"/>
    </g>
   </g>
  </g>
 </g>
 <defs>
  <clipPath id="p3546a17c0f">
   <rect height="266.112" width="357.12" x="57.6" y="41.472"/>
  </clipPath>
 </defs>
</svg>
