<?xml version="1.0" encoding="UTF-8" standalone="no"?>
<!DOCTYPE svg PUBLIC "-//W3C//DTD SVG 1.1//EN"
 "http://www.w3.org/Graphics/SVG/1.1/DTD/svg11.dtd">
<!-- Generated by graphviz version 2.46.1 (0)
 -->
<!-- Pages: 1 -->
<svg width="340pt" height="472pt"
 viewBox="0.00 0.00 339.60 472.26" xmlns="http://www.w3.org/2000/svg" xmlns:xlink="http://www.w3.org/1999/xlink">
<g id="graph0" class="graph" transform="scale(1 1) rotate(0) translate(4 468.26)">
<polygon fill="white" stroke="transparent" points="-4,4 -4,-468.26 335.6,-468.26 335.6,4 -4,4"/>
<!-- &#45;1 -->
<g id="node1" class="node">
<title>&#45;1</title>
<polygon fill="lightgray" stroke="black" points="126.85,-375.74 102.85,-375.74 102.85,-357.74 126.85,-357.74 126.85,-375.74"/>
<text text-anchor="middle" x="114.85" y="-364.54" font-family="Times,serif" font-size="9.00">&#45;1</text>
</g>
<!-- 0 -->
<g id="node6" class="node">
<title>0</title>
<ellipse fill="lightblue" stroke="black" cx="14.85" cy="-281.24" rx="14.7" ry="14.7"/>
<text text-anchor="middle" x="14.85" y="-279.04" font-family="Times,serif" font-size="9.00">0</text>
</g>
<!-- &#45;1&#45;&gt;0 -->
<g id="edge1" class="edge">
<title>&#45;1&#45;&gt;0</title>
<path fill="none" stroke="green" stroke-width="0.36" d="M108.27,-357.41C104.32,-352.65 99.07,-346.72 93.85,-341.99 73.54,-323.62 65.56,-322.67 43.85,-305.99 40.52,-303.43 37.03,-300.65 33.66,-297.93"/>
<polygon fill="green" stroke="green" stroke-width="0.36" points="35.69,-295.06 25.74,-291.43 31.25,-300.48 35.69,-295.06"/>
</g>
<!-- 1292 -->
<g id="node9" class="node">
<title>1292</title>
<ellipse fill="white" stroke="black" cx="57.85" cy="-110.25" rx="25" ry="25"/>
<text text-anchor="middle" x="57.85" y="-108.05" font-family="Times,serif" font-size="9.00">1292</text>
</g>
<!-- &#45;1&#45;&gt;1292 -->
<g id="edge16" class="edge">
<title>&#45;1&#45;&gt;1292</title>
<path fill="none" stroke="red" stroke-width="0.32" d="M112.47,-357.61C106.08,-335.64 88.31,-273.22 76.85,-220.49 71.37,-195.27 66.42,-166.51 62.94,-144.83"/>
<polygon fill="red" stroke="red" stroke-width="0.32" points="66.38,-144.13 61.36,-134.8 59.46,-145.22 66.38,-144.13"/>
</g>
<!-- 799 -->
<g id="node17" class="node">
<title>799</title>
<ellipse fill="white" stroke="black" cx="159.85" cy="-281.24" rx="21.43" ry="21.43"/>
<text text-anchor="middle" x="159.85" y="-279.04" font-family="Times,serif" font-size="9.00">799</text>
</g>
<!-- &#45;1&#45;&gt;799 -->
<g id="edge5" class="edge">
<title>&#45;1&#45;&gt;799</title>
<path fill="none" stroke="red" stroke-width="0.21" d="M119.16,-357.73C125.14,-346.64 136.23,-326.07 145.32,-309.19"/>
<polygon fill="red" stroke="red" stroke-width="0.21" points="148.46,-310.75 150.13,-300.28 142.3,-307.43 148.46,-310.75"/>
</g>
<!-- &#45;2 -->
<g id="node2" class="node">
<title>&#45;2</title>
<polygon fill="lightgray" stroke="black" points="113.85,-454.87 89.85,-454.87 89.85,-436.87 113.85,-436.87 113.85,-454.87"/>
<text text-anchor="middle" x="101.85" y="-443.67" font-family="Times,serif" font-size="9.00">&#45;2</text>
</g>
<!-- &#45;3 -->
<g id="node3" class="node">
<title>&#45;3</title>
<polygon fill="lightgray" stroke="black" points="155.85,-454.87 131.85,-454.87 131.85,-436.87 155.85,-436.87 155.85,-454.87"/>
<text text-anchor="middle" x="143.85" y="-443.67" font-family="Times,serif" font-size="9.00">&#45;3</text>
</g>
<!-- &#45;4 -->
<g id="node4" class="node">
<title>&#45;4</title>
<polygon fill="lightgray" stroke="black" points="71.85,-454.87 47.85,-454.87 47.85,-436.87 71.85,-436.87 71.85,-454.87"/>
<text text-anchor="middle" x="59.85" y="-443.67" font-family="Times,serif" font-size="9.00">&#45;4</text>
</g>
<!-- &#45;4&#45;&gt;0 -->
<g id="edge2" class="edge">
<title>&#45;4&#45;&gt;0</title>
<path fill="none" stroke="green" stroke-width="0.14" stroke-dasharray="1,5" d="M52.99,-436.82C44.95,-426.89 31.97,-409.14 25.85,-391.49 16.08,-363.32 14.14,-328.79 14.11,-306.19"/>
<polygon fill="green" stroke="green" stroke-width="0.14" points="17.61,-306.17 14.23,-296.13 10.61,-306.09 17.61,-306.17"/>
</g>
<!-- 1006 -->
<g id="node11" class="node">
<title>1006</title>
<ellipse fill="white" stroke="black" cx="306.85" cy="-281.24" rx="25" ry="25"/>
<text text-anchor="middle" x="306.85" y="-279.04" font-family="Times,serif" font-size="9.00">1006</text>
</g>
<!-- &#45;4&#45;&gt;1006 -->
<g id="edge19" class="edge">
<title>&#45;4&#45;&gt;1006</title>
<path fill="none" stroke="green" stroke-width="0.41" d="M67.75,-436.69C71.43,-433.34 76.05,-429.73 80.85,-427.49 160.28,-390.33 209.78,-450.27 274.85,-391.49 295.8,-372.56 303.33,-340.74 305.9,-316.31"/>
<polygon fill="green" stroke="green" stroke-width="0.41" points="309.41,-316.26 306.74,-306.01 302.44,-315.69 309.41,-316.26"/>
</g>
<!-- 1266 -->
<g id="node12" class="node">
<title>1266</title>
<ellipse fill="white" stroke="black" cx="59.85" cy="-366.74" rx="25" ry="25"/>
<text text-anchor="middle" x="59.85" y="-364.54" font-family="Times,serif" font-size="9.00">1266</text>
</g>
<!-- &#45;4&#45;&gt;1266 -->
<g id="edge11" class="edge">
<title>&#45;4&#45;&gt;1266</title>
<path fill="none" stroke="green" stroke-width="0.27" d="M59.85,-436.62C59.85,-428.22 59.85,-414.63 59.85,-401.73"/>
<polygon fill="green" stroke="green" stroke-width="0.27" points="63.35,-401.65 59.85,-391.65 56.35,-401.65 63.35,-401.65"/>
</g>
<!-- &#45;5 -->
<g id="node5" class="node">
<title>&#45;5</title>
<polygon fill="lightgray" stroke="black" points="265.85,-375.74 241.85,-375.74 241.85,-357.74 265.85,-357.74 265.85,-375.74"/>
<text text-anchor="middle" x="253.85" y="-364.54" font-family="Times,serif" font-size="9.00">&#45;5</text>
</g>
<!-- 423 -->
<g id="node7" class="node">
<title>423</title>
<ellipse fill="white" stroke="black" cx="197.85" cy="-110.25" rx="21.43" ry="21.43"/>
<text text-anchor="middle" x="197.85" y="-108.05" font-family="Times,serif" font-size="9.00">423</text>
</g>
<!-- &#45;5&#45;&gt;423 -->
<g id="edge9" class="edge">
<title>&#45;5&#45;&gt;423</title>
<path fill="none" stroke="green" stroke-width="0.58" d="M252.65,-357.5C248.63,-330.51 234.91,-242.39 216.85,-170.99 214.27,-160.81 210.94,-149.82 207.79,-140.07"/>
<polygon fill="green" stroke="green" stroke-width="0.58" points="211.07,-138.85 204.6,-130.45 204.42,-141.04 211.07,-138.85"/>
</g>
<!-- &#45;5&#45;&gt;1006 -->
<g id="edge15" class="edge">
<title>&#45;5&#45;&gt;1006</title>
<path fill="none" stroke="red" stroke-width="0.55" d="M258.93,-357.73C265.66,-347.13 277.91,-327.84 288.33,-311.41"/>
<polygon fill="red" stroke="red" stroke-width="0.55" points="291.49,-312.98 293.89,-302.66 285.58,-309.22 291.49,-312.98"/>
</g>
<!-- &#45;5&#45;&gt;799 -->
<g id="edge18" class="edge">
<title>&#45;5&#45;&gt;799</title>
<path fill="none" stroke="red" stroke-width="0.17" d="M244.84,-357.73C230.72,-345.19 202.94,-320.52 182.99,-302.79"/>
<polygon fill="red" stroke="red" stroke-width="0.17" points="185.3,-300.17 175.5,-296.14 180.65,-305.4 185.3,-300.17"/>
</g>
<!-- 0&#45;&gt;423 -->
<g id="edge6" class="edge">
<title>0&#45;&gt;423</title>
<path fill="none" stroke="green" stroke-width="0.48" stroke-dasharray="1,5" d="M29.49,-277.67C69.05,-270.41 176.43,-248.41 196.85,-220.49 213.53,-197.69 211.13,-164.43 206.22,-140.61"/>
<polygon fill="green" stroke="green" stroke-width="0.48" points="209.59,-139.67 203.92,-130.72 202.77,-141.25 209.59,-139.67"/>
</g>
<!-- 878 -->
<g id="node10" class="node">
<title>878</title>
<ellipse fill="white" stroke="black" cx="166.85" cy="-195.74" rx="21.43" ry="21.43"/>
<text text-anchor="middle" x="166.85" y="-193.54" font-family="Times,serif" font-size="9.00">878</text>
</g>
<!-- 0&#45;&gt;878 -->
<g id="edge7" class="edge">
<title>0&#45;&gt;878</title>
<path fill="none" stroke="green" stroke-width="0.63" d="M28.53,-274.69C51.64,-265.05 99.54,-244.01 136.85,-220.49 138.81,-219.25 140.8,-217.91 142.76,-216.52"/>
<polygon fill="green" stroke="green" stroke-width="0.63" points="145.24,-219.03 151.12,-210.22 141.03,-213.44 145.24,-219.03"/>
</g>
<!-- 117 -->
<g id="node14" class="node">
<title>117</title>
<ellipse fill="white" stroke="black" cx="90.85" cy="-24.75" rx="21.43" ry="21.43"/>
<text text-anchor="middle" x="90.85" y="-22.55" font-family="Times,serif" font-size="9.00">117</text>
</g>
<!-- 0&#45;&gt;117 -->
<g id="edge3" class="edge">
<title>0&#45;&gt;117</title>
<path fill="none" stroke="red" stroke-width="0.12" stroke-dasharray="1,5" d="M12.05,-266.63C5.96,-233.64 -5.69,-147.53 23.85,-85.5 32.53,-67.26 49.59,-52.18 64.32,-41.73"/>
<polygon fill="red" stroke="red" stroke-width="0.12" points="66.3,-44.62 72.64,-36.13 62.39,-38.81 66.3,-44.62"/>
</g>
<!-- 423&#45;&gt;117 -->
<g id="edge20" class="edge">
<title>423&#45;&gt;117</title>
<path fill="none" stroke="green" stroke-width="0.25" d="M181.6,-96.56C163.92,-82.77 135.48,-60.57 115.15,-44.71"/>
<polygon fill="green" stroke="green" stroke-width="0.25" points="117.29,-41.94 107.25,-38.55 112.98,-47.46 117.29,-41.94"/>
</g>
<!-- 1561 -->
<g id="node16" class="node">
<title>1561</title>
<ellipse fill="white" stroke="black" cx="167.85" cy="-24.75" rx="25" ry="25"/>
<text text-anchor="middle" x="167.85" y="-22.55" font-family="Times,serif" font-size="9.00">1561</text>
</g>
<!-- 423&#45;&gt;1561 -->
<g id="edge21" class="edge">
<title>423&#45;&gt;1561</title>
<path fill="none" stroke="green" stroke-width="0.17" d="M190.89,-89.88C187.47,-80.36 183.26,-68.65 179.38,-57.84"/>
<polygon fill="green" stroke="green" stroke-width="0.17" points="182.61,-56.49 175.94,-48.26 176.03,-58.86 182.61,-56.49"/>
</g>
<!-- 71 -->
<g id="node8" class="node">
<title>71</title>
<ellipse fill="white" stroke="black" cx="191.85" cy="-445.87" rx="18.27" ry="18.27"/>
<text text-anchor="middle" x="191.85" y="-443.67" font-family="Times,serif" font-size="9.00">71</text>
</g>
<!-- 1292&#45;&gt;117 -->
<g id="edge14" class="edge">
<title>1292&#45;&gt;117</title>
<path fill="none" stroke="green" stroke-width="0.58" d="M66.69,-86.87C70.67,-76.81 75.41,-64.82 79.63,-54.14"/>
<polygon fill="green" stroke="green" stroke-width="0.58" points="82.9,-55.37 83.32,-44.79 76.39,-52.8 82.9,-55.37"/>
</g>
<!-- 878&#45;&gt;423 -->
<g id="edge8" class="edge">
<title>878&#45;&gt;423</title>
<path fill="none" stroke="red" stroke-width="0.33" stroke-dasharray="1,5" d="M174.04,-175.38C177.95,-164.84 182.87,-151.6 187.21,-139.89"/>
<polygon fill="red" stroke="red" stroke-width="0.33" points="190.5,-141.1 190.7,-130.51 183.94,-138.66 190.5,-141.1"/>
</g>
<!-- 1432 -->
<g id="node15" class="node">
<title>1432</title>
<ellipse fill="white" stroke="black" cx="306.85" cy="-195.74" rx="25" ry="25"/>
<text text-anchor="middle" x="306.85" y="-193.54" font-family="Times,serif" font-size="9.00">1432</text>
</g>
<!-- 1006&#45;&gt;1432 -->
<g id="edge22" class="edge">
<title>1006&#45;&gt;1432</title>
<path fill="none" stroke="green" stroke-width="0.24" d="M306.85,-256.09C306.85,-248.15 306.85,-239.16 306.85,-230.63"/>
<polygon fill="green" stroke="green" stroke-width="0.24" points="310.35,-230.55 306.85,-220.55 303.35,-230.55 310.35,-230.55"/>
</g>
<!-- 1266&#45;&gt;0 -->
<g id="edge12" class="edge">
<title>1266&#45;&gt;0</title>
<path fill="none" stroke="green" stroke-width="0.33" d="M48.49,-344.67C41.77,-332.2 33.27,-316.43 26.5,-303.86"/>
<polygon fill="green" stroke="green" stroke-width="0.33" points="29.54,-302.12 21.71,-294.98 23.38,-305.44 29.54,-302.12"/>
</g>
<!-- 596 -->
<g id="node13" class="node">
<title>596</title>
<ellipse fill="white" stroke="black" cx="106.85" cy="-195.74" rx="21.43" ry="21.43"/>
<text text-anchor="middle" x="106.85" y="-193.54" font-family="Times,serif" font-size="9.00">596</text>
</g>
<!-- 596&#45;&gt;423 -->
<g id="edge4" class="edge">
<title>596&#45;&gt;423</title>
<path fill="none" stroke="red" stroke-width="0.37" d="M122.29,-180.58C136.75,-167.3 158.56,-147.29 175.04,-132.18"/>
<polygon fill="red" stroke="red" stroke-width="0.37" points="177.64,-134.54 182.64,-125.2 172.91,-129.38 177.64,-134.54"/>
</g>
<!-- 596&#45;&gt;1292 -->
<g id="edge13" class="edge">
<title>596&#45;&gt;1292</title>
<path fill="none" stroke="green" stroke-width="0.12" d="M96.46,-177.04C90.28,-166.51 82.28,-152.88 75.17,-140.77"/>
<polygon fill="green" stroke="green" stroke-width="0.12" points="78.03,-138.73 69.95,-131.87 72,-142.27 78.03,-138.73"/>
</g>
<!-- 596&#45;&gt;117 -->
<g id="edge10" class="edge">
<title>596&#45;&gt;117</title>
<path fill="none" stroke="red" stroke-width="0.29" d="M104.92,-174.36C102.14,-144.97 96.98,-90.48 93.74,-56.28"/>
<polygon fill="red" stroke="red" stroke-width="0.29" points="97.19,-55.57 92.76,-45.94 90.22,-56.23 97.19,-55.57"/>
</g>
<!-- 596&#45;&gt;1561 -->
<g id="edge17" class="edge">
<title>596&#45;&gt;1561</title>
<path fill="none" stroke="green" stroke-width="0.15" d="M113.85,-175.36C124.19,-146.71 143.67,-92.74 156.19,-58.05"/>
<polygon fill="green" stroke="green" stroke-width="0.15" points="159.57,-58.98 159.68,-48.39 152.99,-56.61 159.57,-58.98"/>
</g>
</g>
</svg>
