<?xml version="1.0" encoding="utf-8" standalone="no"?>
<!DOCTYPE svg PUBLIC "-//W3C//DTD SVG 1.1//EN"
  "http://www.w3.org/Graphics/SVG/1.1/DTD/svg11.dtd">
<!-- Created with matplotlib (https://matplotlib.org/) -->
<svg height="345.6pt" version="1.1" viewBox="0 0 460.8 345.6" width="460.8pt" xmlns="http://www.w3.org/2000/svg" xmlns:xlink="http://www.w3.org/1999/xlink">
 <metadata>
  <rdf:RDF xmlns:cc="http://creativecommons.org/ns#" xmlns:dc="http://purl.org/dc/elements/1.1/" xmlns:rdf="http://www.w3.org/1999/02/22-rdf-syntax-ns#">
   <cc:Work>
    <dc:type rdf:resource="http://purl.org/dc/dcmitype/StillImage"/>
    <dc:date>2022-04-14T16:03:12.720707</dc:date>
    <dc:format>image/svg+xml</dc:format>
    <dc:creator>
     <cc:Agent>
      <dc:title>Matplotlib v3.3.4, https://matplotlib.org/</dc:title>
     </cc:Agent>
    </dc:creator>
   </cc:Work>
  </rdf:RDF>
 </metadata>
 <defs>
  <style type="text/css">*{stroke-linecap:butt;stroke-linejoin:round;}</style>
 </defs>
 <g id="figure_1">
  <g id="patch_1">
   <path d="M 0 345.6 
L 460.8 345.6 
L 460.8 0 
L 0 0 
z
" style="fill:#ffffff;"/>
  </g>
  <g id="axes_1">
   <g id="patch_2">
    <path d="M 57.6 307.584 
L 414.72 307.584 
L 414.72 41.472 
L 57.6 41.472 
z
" style="fill:#ffffff;"/>
   </g>
   <g id="matplotlib.axis_1">
    <g id="xtick_1">
     <g id="line2d_1">
      <path clip-path="url(#p37c6cdb861)" d="M 73.832727 307.584 
L 73.832727 41.472 
" style="fill:none;stroke:#b0b0b0;stroke-linecap:square;stroke-width:0.8;"/>
     </g>
     <g id="line2d_2">
      <defs>
       <path d="M 0 0 
L 0 3.5 
" id="m6811ec1864" style="stroke:#000000;stroke-width:0.8;"/>
      </defs>
      <g>
       <use style="stroke:#000000;stroke-width:0.8;" x="73.832727" xlink:href="#m6811ec1864" y="307.584"/>
      </g>
     </g>
     <g id="text_1">
      <!-- 0 -->
      <g transform="translate(70.651477 322.182437)scale(0.1 -0.1)">
       <defs>
        <path d="M 31.78125 66.40625 
Q 24.171875 66.40625 20.328125 58.90625 
Q 16.5 51.421875 16.5 36.375 
Q 16.5 21.390625 20.328125 13.890625 
Q 24.171875 6.390625 31.78125 6.390625 
Q 39.453125 6.390625 43.28125 13.890625 
Q 47.125 21.390625 47.125 36.375 
Q 47.125 51.421875 43.28125 58.90625 
Q 39.453125 66.40625 31.78125 66.40625 
z
M 31.78125 74.21875 
Q 44.046875 74.21875 50.515625 64.515625 
Q 56.984375 54.828125 56.984375 36.375 
Q 56.984375 17.96875 50.515625 8.265625 
Q 44.046875 -1.421875 31.78125 -1.421875 
Q 19.53125 -1.421875 13.0625 8.265625 
Q 6.59375 17.96875 6.59375 36.375 
Q 6.59375 54.828125 13.0625 64.515625 
Q 19.53125 74.21875 31.78125 74.21875 
z
" id="DejaVuSans-48"/>
       </defs>
       <use xlink:href="#DejaVuSans-48"/>
      </g>
     </g>
    </g>
    <g id="xtick_2">
     <g id="line2d_3">
      <path clip-path="url(#p37c6cdb861)" d="M 128.122785 307.584 
L 128.122785 41.472 
" style="fill:none;stroke:#b0b0b0;stroke-linecap:square;stroke-width:0.8;"/>
     </g>
     <g id="line2d_4">
      <g>
       <use style="stroke:#000000;stroke-width:0.8;" x="128.122785" xlink:href="#m6811ec1864" y="307.584"/>
      </g>
     </g>
     <g id="text_2">
      <!-- 50 -->
      <g transform="translate(121.760285 322.182437)scale(0.1 -0.1)">
       <defs>
        <path d="M 10.796875 72.90625 
L 49.515625 72.90625 
L 49.515625 64.59375 
L 19.828125 64.59375 
L 19.828125 46.734375 
Q 21.96875 47.46875 24.109375 47.828125 
Q 26.265625 48.1875 28.421875 48.1875 
Q 40.625 48.1875 47.75 41.5 
Q 54.890625 34.8125 54.890625 23.390625 
Q 54.890625 11.625 47.5625 5.09375 
Q 40.234375 -1.421875 26.90625 -1.421875 
Q 22.3125 -1.421875 17.546875 -0.640625 
Q 12.796875 0.140625 7.71875 1.703125 
L 7.71875 11.625 
Q 12.109375 9.234375 16.796875 8.0625 
Q 21.484375 6.890625 26.703125 6.890625 
Q 35.15625 6.890625 40.078125 11.328125 
Q 45.015625 15.765625 45.015625 23.390625 
Q 45.015625 31 40.078125 35.4375 
Q 35.15625 39.890625 26.703125 39.890625 
Q 22.75 39.890625 18.8125 39.015625 
Q 14.890625 38.140625 10.796875 36.28125 
z
" id="DejaVuSans-53"/>
       </defs>
       <use xlink:href="#DejaVuSans-53"/>
       <use x="63.623047" xlink:href="#DejaVuSans-48"/>
      </g>
     </g>
    </g>
    <g id="xtick_3">
     <g id="line2d_5">
      <path clip-path="url(#p37c6cdb861)" d="M 182.412843 307.584 
L 182.412843 41.472 
" style="fill:none;stroke:#b0b0b0;stroke-linecap:square;stroke-width:0.8;"/>
     </g>
     <g id="line2d_6">
      <g>
       <use style="stroke:#000000;stroke-width:0.8;" x="182.412843" xlink:href="#m6811ec1864" y="307.584"/>
      </g>
     </g>
     <g id="text_3">
      <!-- 100 -->
      <g transform="translate(172.869093 322.182437)scale(0.1 -0.1)">
       <defs>
        <path d="M 12.40625 8.296875 
L 28.515625 8.296875 
L 28.515625 63.921875 
L 10.984375 60.40625 
L 10.984375 69.390625 
L 28.421875 72.90625 
L 38.28125 72.90625 
L 38.28125 8.296875 
L 54.390625 8.296875 
L 54.390625 0 
L 12.40625 0 
z
" id="DejaVuSans-49"/>
       </defs>
       <use xlink:href="#DejaVuSans-49"/>
       <use x="63.623047" xlink:href="#DejaVuSans-48"/>
       <use x="127.246094" xlink:href="#DejaVuSans-48"/>
      </g>
     </g>
    </g>
    <g id="xtick_4">
     <g id="line2d_7">
      <path clip-path="url(#p37c6cdb861)" d="M 236.702901 307.584 
L 236.702901 41.472 
" style="fill:none;stroke:#b0b0b0;stroke-linecap:square;stroke-width:0.8;"/>
     </g>
     <g id="line2d_8">
      <g>
       <use style="stroke:#000000;stroke-width:0.8;" x="236.702901" xlink:href="#m6811ec1864" y="307.584"/>
      </g>
     </g>
     <g id="text_4">
      <!-- 150 -->
      <g transform="translate(227.159151 322.182437)scale(0.1 -0.1)">
       <use xlink:href="#DejaVuSans-49"/>
       <use x="63.623047" xlink:href="#DejaVuSans-53"/>
       <use x="127.246094" xlink:href="#DejaVuSans-48"/>
      </g>
     </g>
    </g>
    <g id="xtick_5">
     <g id="line2d_9">
      <path clip-path="url(#p37c6cdb861)" d="M 290.992958 307.584 
L 290.992958 41.472 
" style="fill:none;stroke:#b0b0b0;stroke-linecap:square;stroke-width:0.8;"/>
     </g>
     <g id="line2d_10">
      <g>
       <use style="stroke:#000000;stroke-width:0.8;" x="290.992958" xlink:href="#m6811ec1864" y="307.584"/>
      </g>
     </g>
     <g id="text_5">
      <!-- 200 -->
      <g transform="translate(281.449208 322.182437)scale(0.1 -0.1)">
       <defs>
        <path d="M 19.1875 8.296875 
L 53.609375 8.296875 
L 53.609375 0 
L 7.328125 0 
L 7.328125 8.296875 
Q 12.9375 14.109375 22.625 23.890625 
Q 32.328125 33.6875 34.8125 36.53125 
Q 39.546875 41.84375 41.421875 45.53125 
Q 43.3125 49.21875 43.3125 52.78125 
Q 43.3125 58.59375 39.234375 62.25 
Q 35.15625 65.921875 28.609375 65.921875 
Q 23.96875 65.921875 18.8125 64.3125 
Q 13.671875 62.703125 7.8125 59.421875 
L 7.8125 69.390625 
Q 13.765625 71.78125 18.9375 73 
Q 24.125 74.21875 28.421875 74.21875 
Q 39.75 74.21875 46.484375 68.546875 
Q 53.21875 62.890625 53.21875 53.421875 
Q 53.21875 48.921875 51.53125 44.890625 
Q 49.859375 40.875 45.40625 35.40625 
Q 44.1875 33.984375 37.640625 27.21875 
Q 31.109375 20.453125 19.1875 8.296875 
z
" id="DejaVuSans-50"/>
       </defs>
       <use xlink:href="#DejaVuSans-50"/>
       <use x="63.623047" xlink:href="#DejaVuSans-48"/>
       <use x="127.246094" xlink:href="#DejaVuSans-48"/>
      </g>
     </g>
    </g>
    <g id="xtick_6">
     <g id="line2d_11">
      <path clip-path="url(#p37c6cdb861)" d="M 345.283016 307.584 
L 345.283016 41.472 
" style="fill:none;stroke:#b0b0b0;stroke-linecap:square;stroke-width:0.8;"/>
     </g>
     <g id="line2d_12">
      <g>
       <use style="stroke:#000000;stroke-width:0.8;" x="345.283016" xlink:href="#m6811ec1864" y="307.584"/>
      </g>
     </g>
     <g id="text_6">
      <!-- 250 -->
      <g transform="translate(335.739266 322.182437)scale(0.1 -0.1)">
       <use xlink:href="#DejaVuSans-50"/>
       <use x="63.623047" xlink:href="#DejaVuSans-53"/>
       <use x="127.246094" xlink:href="#DejaVuSans-48"/>
      </g>
     </g>
    </g>
    <g id="xtick_7">
     <g id="line2d_13">
      <path clip-path="url(#p37c6cdb861)" d="M 399.573074 307.584 
L 399.573074 41.472 
" style="fill:none;stroke:#b0b0b0;stroke-linecap:square;stroke-width:0.8;"/>
     </g>
     <g id="line2d_14">
      <g>
       <use style="stroke:#000000;stroke-width:0.8;" x="399.573074" xlink:href="#m6811ec1864" y="307.584"/>
      </g>
     </g>
     <g id="text_7">
      <!-- 300 -->
      <g transform="translate(390.029324 322.182437)scale(0.1 -0.1)">
       <defs>
        <path d="M 40.578125 39.3125 
Q 47.65625 37.796875 51.625 33 
Q 55.609375 28.21875 55.609375 21.1875 
Q 55.609375 10.40625 48.1875 4.484375 
Q 40.765625 -1.421875 27.09375 -1.421875 
Q 22.515625 -1.421875 17.65625 -0.515625 
Q 12.796875 0.390625 7.625 2.203125 
L 7.625 11.71875 
Q 11.71875 9.328125 16.59375 8.109375 
Q 21.484375 6.890625 26.8125 6.890625 
Q 36.078125 6.890625 40.9375 10.546875 
Q 45.796875 14.203125 45.796875 21.1875 
Q 45.796875 27.640625 41.28125 31.265625 
Q 36.765625 34.90625 28.71875 34.90625 
L 20.21875 34.90625 
L 20.21875 43.015625 
L 29.109375 43.015625 
Q 36.375 43.015625 40.234375 45.921875 
Q 44.09375 48.828125 44.09375 54.296875 
Q 44.09375 59.90625 40.109375 62.90625 
Q 36.140625 65.921875 28.71875 65.921875 
Q 24.65625 65.921875 20.015625 65.03125 
Q 15.375 64.15625 9.8125 62.3125 
L 9.8125 71.09375 
Q 15.4375 72.65625 20.34375 73.4375 
Q 25.25 74.21875 29.59375 74.21875 
Q 40.828125 74.21875 47.359375 69.109375 
Q 53.90625 64.015625 53.90625 55.328125 
Q 53.90625 49.265625 50.4375 45.09375 
Q 46.96875 40.921875 40.578125 39.3125 
z
" id="DejaVuSans-51"/>
       </defs>
       <use xlink:href="#DejaVuSans-51"/>
       <use x="63.623047" xlink:href="#DejaVuSans-48"/>
       <use x="127.246094" xlink:href="#DejaVuSans-48"/>
      </g>
     </g>
    </g>
    <g id="text_8">
     <!-- Generations -->
     <g transform="translate(205.662344 335.860562)scale(0.1 -0.1)">
      <defs>
       <path d="M 59.515625 10.40625 
L 59.515625 29.984375 
L 43.40625 29.984375 
L 43.40625 38.09375 
L 69.28125 38.09375 
L 69.28125 6.78125 
Q 63.578125 2.734375 56.6875 0.65625 
Q 49.8125 -1.421875 42 -1.421875 
Q 24.90625 -1.421875 15.25 8.5625 
Q 5.609375 18.5625 5.609375 36.375 
Q 5.609375 54.25 15.25 64.234375 
Q 24.90625 74.21875 42 74.21875 
Q 49.125 74.21875 55.546875 72.453125 
Q 61.96875 70.703125 67.390625 67.28125 
L 67.390625 56.78125 
Q 61.921875 61.421875 55.765625 63.765625 
Q 49.609375 66.109375 42.828125 66.109375 
Q 29.4375 66.109375 22.71875 58.640625 
Q 16.015625 51.171875 16.015625 36.375 
Q 16.015625 21.625 22.71875 14.15625 
Q 29.4375 6.6875 42.828125 6.6875 
Q 48.046875 6.6875 52.140625 7.59375 
Q 56.25 8.5 59.515625 10.40625 
z
" id="DejaVuSans-71"/>
       <path d="M 56.203125 29.59375 
L 56.203125 25.203125 
L 14.890625 25.203125 
Q 15.484375 15.921875 20.484375 11.0625 
Q 25.484375 6.203125 34.421875 6.203125 
Q 39.59375 6.203125 44.453125 7.46875 
Q 49.3125 8.734375 54.109375 11.28125 
L 54.109375 2.78125 
Q 49.265625 0.734375 44.1875 -0.34375 
Q 39.109375 -1.421875 33.890625 -1.421875 
Q 20.796875 -1.421875 13.15625 6.1875 
Q 5.515625 13.8125 5.515625 26.8125 
Q 5.515625 40.234375 12.765625 48.109375 
Q 20.015625 56 32.328125 56 
Q 43.359375 56 49.78125 48.890625 
Q 56.203125 41.796875 56.203125 29.59375 
z
M 47.21875 32.234375 
Q 47.125 39.59375 43.09375 43.984375 
Q 39.0625 48.390625 32.421875 48.390625 
Q 24.90625 48.390625 20.390625 44.140625 
Q 15.875 39.890625 15.1875 32.171875 
z
" id="DejaVuSans-101"/>
       <path d="M 54.890625 33.015625 
L 54.890625 0 
L 45.90625 0 
L 45.90625 32.71875 
Q 45.90625 40.484375 42.875 44.328125 
Q 39.84375 48.1875 33.796875 48.1875 
Q 26.515625 48.1875 22.3125 43.546875 
Q 18.109375 38.921875 18.109375 30.90625 
L 18.109375 0 
L 9.078125 0 
L 9.078125 54.6875 
L 18.109375 54.6875 
L 18.109375 46.1875 
Q 21.34375 51.125 25.703125 53.5625 
Q 30.078125 56 35.796875 56 
Q 45.21875 56 50.046875 50.171875 
Q 54.890625 44.34375 54.890625 33.015625 
z
" id="DejaVuSans-110"/>
       <path d="M 41.109375 46.296875 
Q 39.59375 47.171875 37.8125 47.578125 
Q 36.03125 48 33.890625 48 
Q 26.265625 48 22.1875 43.046875 
Q 18.109375 38.09375 18.109375 28.8125 
L 18.109375 0 
L 9.078125 0 
L 9.078125 54.6875 
L 18.109375 54.6875 
L 18.109375 46.1875 
Q 20.953125 51.171875 25.484375 53.578125 
Q 30.03125 56 36.53125 56 
Q 37.453125 56 38.578125 55.875 
Q 39.703125 55.765625 41.0625 55.515625 
z
" id="DejaVuSans-114"/>
       <path d="M 34.28125 27.484375 
Q 23.390625 27.484375 19.1875 25 
Q 14.984375 22.515625 14.984375 16.5 
Q 14.984375 11.71875 18.140625 8.90625 
Q 21.296875 6.109375 26.703125 6.109375 
Q 34.1875 6.109375 38.703125 11.40625 
Q 43.21875 16.703125 43.21875 25.484375 
L 43.21875 27.484375 
z
M 52.203125 31.203125 
L 52.203125 0 
L 43.21875 0 
L 43.21875 8.296875 
Q 40.140625 3.328125 35.546875 0.953125 
Q 30.953125 -1.421875 24.3125 -1.421875 
Q 15.921875 -1.421875 10.953125 3.296875 
Q 6 8.015625 6 15.921875 
Q 6 25.140625 12.171875 29.828125 
Q 18.359375 34.515625 30.609375 34.515625 
L 43.21875 34.515625 
L 43.21875 35.40625 
Q 43.21875 41.609375 39.140625 45 
Q 35.0625 48.390625 27.6875 48.390625 
Q 23 48.390625 18.546875 47.265625 
Q 14.109375 46.140625 10.015625 43.890625 
L 10.015625 52.203125 
Q 14.9375 54.109375 19.578125 55.046875 
Q 24.21875 56 28.609375 56 
Q 40.484375 56 46.34375 49.84375 
Q 52.203125 43.703125 52.203125 31.203125 
z
" id="DejaVuSans-97"/>
       <path d="M 18.3125 70.21875 
L 18.3125 54.6875 
L 36.8125 54.6875 
L 36.8125 47.703125 
L 18.3125 47.703125 
L 18.3125 18.015625 
Q 18.3125 11.328125 20.140625 9.421875 
Q 21.96875 7.515625 27.59375 7.515625 
L 36.8125 7.515625 
L 36.8125 0 
L 27.59375 0 
Q 17.1875 0 13.234375 3.875 
Q 9.28125 7.765625 9.28125 18.015625 
L 9.28125 47.703125 
L 2.6875 47.703125 
L 2.6875 54.6875 
L 9.28125 54.6875 
L 9.28125 70.21875 
z
" id="DejaVuSans-116"/>
       <path d="M 9.421875 54.6875 
L 18.40625 54.6875 
L 18.40625 0 
L 9.421875 0 
z
M 9.421875 75.984375 
L 18.40625 75.984375 
L 18.40625 64.59375 
L 9.421875 64.59375 
z
" id="DejaVuSans-105"/>
       <path d="M 30.609375 48.390625 
Q 23.390625 48.390625 19.1875 42.75 
Q 14.984375 37.109375 14.984375 27.296875 
Q 14.984375 17.484375 19.15625 11.84375 
Q 23.34375 6.203125 30.609375 6.203125 
Q 37.796875 6.203125 41.984375 11.859375 
Q 46.1875 17.53125 46.1875 27.296875 
Q 46.1875 37.015625 41.984375 42.703125 
Q 37.796875 48.390625 30.609375 48.390625 
z
M 30.609375 56 
Q 42.328125 56 49.015625 48.375 
Q 55.71875 40.765625 55.71875 27.296875 
Q 55.71875 13.875 49.015625 6.21875 
Q 42.328125 -1.421875 30.609375 -1.421875 
Q 18.84375 -1.421875 12.171875 6.21875 
Q 5.515625 13.875 5.515625 27.296875 
Q 5.515625 40.765625 12.171875 48.375 
Q 18.84375 56 30.609375 56 
z
" id="DejaVuSans-111"/>
       <path d="M 44.28125 53.078125 
L 44.28125 44.578125 
Q 40.484375 46.53125 36.375 47.5 
Q 32.28125 48.484375 27.875 48.484375 
Q 21.1875 48.484375 17.84375 46.4375 
Q 14.5 44.390625 14.5 40.28125 
Q 14.5 37.15625 16.890625 35.375 
Q 19.28125 33.59375 26.515625 31.984375 
L 29.59375 31.296875 
Q 39.15625 29.25 43.1875 25.515625 
Q 47.21875 21.78125 47.21875 15.09375 
Q 47.21875 7.46875 41.1875 3.015625 
Q 35.15625 -1.421875 24.609375 -1.421875 
Q 20.21875 -1.421875 15.453125 -0.5625 
Q 10.6875 0.296875 5.421875 2 
L 5.421875 11.28125 
Q 10.40625 8.6875 15.234375 7.390625 
Q 20.0625 6.109375 24.8125 6.109375 
Q 31.15625 6.109375 34.5625 8.28125 
Q 37.984375 10.453125 37.984375 14.40625 
Q 37.984375 18.0625 35.515625 20.015625 
Q 33.0625 21.96875 24.703125 23.78125 
L 21.578125 24.515625 
Q 13.234375 26.265625 9.515625 29.90625 
Q 5.8125 33.546875 5.8125 39.890625 
Q 5.8125 47.609375 11.28125 51.796875 
Q 16.75 56 26.8125 56 
Q 31.78125 56 36.171875 55.265625 
Q 40.578125 54.546875 44.28125 53.078125 
z
" id="DejaVuSans-115"/>
      </defs>
      <use xlink:href="#DejaVuSans-71"/>
      <use x="77.490234" xlink:href="#DejaVuSans-101"/>
      <use x="139.013672" xlink:href="#DejaVuSans-110"/>
      <use x="202.392578" xlink:href="#DejaVuSans-101"/>
      <use x="263.916016" xlink:href="#DejaVuSans-114"/>
      <use x="305.029297" xlink:href="#DejaVuSans-97"/>
      <use x="366.308594" xlink:href="#DejaVuSans-116"/>
      <use x="405.517578" xlink:href="#DejaVuSans-105"/>
      <use x="433.300781" xlink:href="#DejaVuSans-111"/>
      <use x="494.482422" xlink:href="#DejaVuSans-110"/>
      <use x="557.861328" xlink:href="#DejaVuSans-115"/>
     </g>
    </g>
   </g>
   <g id="matplotlib.axis_2">
    <g id="ytick_1">
     <g id="line2d_15">
      <path clip-path="url(#p37c6cdb861)" d="M 57.6 305.296279 
L 414.72 305.296279 
" style="fill:none;stroke:#b0b0b0;stroke-linecap:square;stroke-width:0.8;"/>
     </g>
     <g id="line2d_16">
      <defs>
       <path d="M 0 0 
L -3.5 0 
" id="m3d8d4834bc" style="stroke:#000000;stroke-width:0.8;"/>
      </defs>
      <g>
       <use style="stroke:#000000;stroke-width:0.8;" x="57.6" xlink:href="#m3d8d4834bc" y="305.296279"/>
      </g>
     </g>
     <g id="text_9">
      <!-- −500 -->
      <g transform="translate(23.132812 309.095497)scale(0.1 -0.1)">
       <defs>
        <path d="M 10.59375 35.5 
L 73.1875 35.5 
L 73.1875 27.203125 
L 10.59375 27.203125 
z
" id="DejaVuSans-8722"/>
       </defs>
       <use xlink:href="#DejaVuSans-8722"/>
       <use x="83.789062" xlink:href="#DejaVuSans-53"/>
       <use x="147.412109" xlink:href="#DejaVuSans-48"/>
       <use x="211.035156" xlink:href="#DejaVuSans-48"/>
      </g>
     </g>
    </g>
    <g id="ytick_2">
     <g id="line2d_17">
      <path clip-path="url(#p37c6cdb861)" d="M 57.6 255.852783 
L 414.72 255.852783 
" style="fill:none;stroke:#b0b0b0;stroke-linecap:square;stroke-width:0.8;"/>
     </g>
     <g id="line2d_18">
      <g>
       <use style="stroke:#000000;stroke-width:0.8;" x="57.6" xlink:href="#m3d8d4834bc" y="255.852783"/>
      </g>
     </g>
     <g id="text_10">
      <!-- −400 -->
      <g transform="translate(23.132812 259.652002)scale(0.1 -0.1)">
       <defs>
        <path d="M 37.796875 64.3125 
L 12.890625 25.390625 
L 37.796875 25.390625 
z
M 35.203125 72.90625 
L 47.609375 72.90625 
L 47.609375 25.390625 
L 58.015625 25.390625 
L 58.015625 17.1875 
L 47.609375 17.1875 
L 47.609375 0 
L 37.796875 0 
L 37.796875 17.1875 
L 4.890625 17.1875 
L 4.890625 26.703125 
z
" id="DejaVuSans-52"/>
       </defs>
       <use xlink:href="#DejaVuSans-8722"/>
       <use x="83.789062" xlink:href="#DejaVuSans-52"/>
       <use x="147.412109" xlink:href="#DejaVuSans-48"/>
       <use x="211.035156" xlink:href="#DejaVuSans-48"/>
      </g>
     </g>
    </g>
    <g id="ytick_3">
     <g id="line2d_19">
      <path clip-path="url(#p37c6cdb861)" d="M 57.6 206.409288 
L 414.72 206.409288 
" style="fill:none;stroke:#b0b0b0;stroke-linecap:square;stroke-width:0.8;"/>
     </g>
     <g id="line2d_20">
      <g>
       <use style="stroke:#000000;stroke-width:0.8;" x="57.6" xlink:href="#m3d8d4834bc" y="206.409288"/>
      </g>
     </g>
     <g id="text_11">
      <!-- −300 -->
      <g transform="translate(23.132812 210.208507)scale(0.1 -0.1)">
       <use xlink:href="#DejaVuSans-8722"/>
       <use x="83.789062" xlink:href="#DejaVuSans-51"/>
       <use x="147.412109" xlink:href="#DejaVuSans-48"/>
       <use x="211.035156" xlink:href="#DejaVuSans-48"/>
      </g>
     </g>
    </g>
    <g id="ytick_4">
     <g id="line2d_21">
      <path clip-path="url(#p37c6cdb861)" d="M 57.6 156.965793 
L 414.72 156.965793 
" style="fill:none;stroke:#b0b0b0;stroke-linecap:square;stroke-width:0.8;"/>
     </g>
     <g id="line2d_22">
      <g>
       <use style="stroke:#000000;stroke-width:0.8;" x="57.6" xlink:href="#m3d8d4834bc" y="156.965793"/>
      </g>
     </g>
     <g id="text_12">
      <!-- −200 -->
      <g transform="translate(23.132812 160.765012)scale(0.1 -0.1)">
       <use xlink:href="#DejaVuSans-8722"/>
       <use x="83.789062" xlink:href="#DejaVuSans-50"/>
       <use x="147.412109" xlink:href="#DejaVuSans-48"/>
       <use x="211.035156" xlink:href="#DejaVuSans-48"/>
      </g>
     </g>
    </g>
    <g id="ytick_5">
     <g id="line2d_23">
      <path clip-path="url(#p37c6cdb861)" d="M 57.6 107.522298 
L 414.72 107.522298 
" style="fill:none;stroke:#b0b0b0;stroke-linecap:square;stroke-width:0.8;"/>
     </g>
     <g id="line2d_24">
      <g>
       <use style="stroke:#000000;stroke-width:0.8;" x="57.6" xlink:href="#m3d8d4834bc" y="107.522298"/>
      </g>
     </g>
     <g id="text_13">
      <!-- −100 -->
      <g transform="translate(23.132812 111.321516)scale(0.1 -0.1)">
       <use xlink:href="#DejaVuSans-8722"/>
       <use x="83.789062" xlink:href="#DejaVuSans-49"/>
       <use x="147.412109" xlink:href="#DejaVuSans-48"/>
       <use x="211.035156" xlink:href="#DejaVuSans-48"/>
      </g>
     </g>
    </g>
    <g id="ytick_6">
     <g id="line2d_25">
      <path clip-path="url(#p37c6cdb861)" d="M 57.6 58.078803 
L 414.72 58.078803 
" style="fill:none;stroke:#b0b0b0;stroke-linecap:square;stroke-width:0.8;"/>
     </g>
     <g id="line2d_26">
      <g>
       <use style="stroke:#000000;stroke-width:0.8;" x="57.6" xlink:href="#m3d8d4834bc" y="58.078803"/>
      </g>
     </g>
     <g id="text_14">
      <!-- 0 -->
      <g transform="translate(44.2375 61.878021)scale(0.1 -0.1)">
       <use xlink:href="#DejaVuSans-48"/>
      </g>
     </g>
    </g>
    <g id="text_15">
     <!-- Fitness -->
     <g transform="translate(17.053125 191.845187)rotate(-90)scale(0.1 -0.1)">
      <defs>
       <path d="M 9.8125 72.90625 
L 51.703125 72.90625 
L 51.703125 64.59375 
L 19.671875 64.59375 
L 19.671875 43.109375 
L 48.578125 43.109375 
L 48.578125 34.8125 
L 19.671875 34.8125 
L 19.671875 0 
L 9.8125 0 
z
" id="DejaVuSans-70"/>
      </defs>
      <use xlink:href="#DejaVuSans-70"/>
      <use x="50.269531" xlink:href="#DejaVuSans-105"/>
      <use x="78.052734" xlink:href="#DejaVuSans-116"/>
      <use x="117.261719" xlink:href="#DejaVuSans-110"/>
      <use x="180.640625" xlink:href="#DejaVuSans-101"/>
      <use x="242.164062" xlink:href="#DejaVuSans-115"/>
      <use x="294.263672" xlink:href="#DejaVuSans-115"/>
     </g>
    </g>
   </g>
   <g id="line2d_27">
    <path clip-path="url(#p37c6cdb861)" d="M 73.832727 223.651914 
L 74.918528 151.094681 
L 76.00433 123.794979 
L 77.090131 119.42344 
L 78.175932 134.349883 
L 79.261733 122.898661 
L 80.347534 126.416488 
L 81.433335 123.574782 
L 82.519137 132.780487 
L 83.604938 132.152326 
L 84.690739 127.227134 
L 85.77654 127.306454 
L 86.862341 132.09325 
L 87.948142 124.939782 
L 89.033943 127.020262 
L 90.119745 124.859701 
L 91.205546 123.618518 
L 92.291347 126.452025 
L 93.377148 120.167581 
L 94.462949 111.438942 
L 95.54875 122.532047 
L 96.634552 116.151603 
L 97.720353 117.976504 
L 98.806154 124.720142 
L 99.891955 112.633972 
L 100.977756 127.578106 
L 102.063557 119.646625 
L 103.149358 131.028383 
L 104.23516 126.887561 
L 105.320961 138.78448 
L 106.406762 124.278486 
L 107.492563 123.480598 
L 108.578364 117.152879 
L 109.664165 128.919186 
L 110.749967 124.244494 
L 111.835768 125.676639 
L 112.921569 131.488762 
L 114.00737 117.569553 
L 115.093171 120.967546 
L 116.178972 123.084296 
L 117.264773 121.704095 
L 118.350575 125.719608 
L 119.436376 119.013218 
L 120.522177 129.400387 
L 121.607978 134.396027 
L 122.693779 117.029751 
L 123.77958 114.985276 
L 124.865382 116.914709 
L 125.951183 122.666259 
L 127.036984 122.204263 
L 128.122785 131.63494 
L 129.208586 130.290485 
L 130.294387 119.634296 
L 131.380189 123.289425 
L 133.551791 135.678194 
L 134.637592 137.63609 
L 135.723393 124.103286 
L 136.809194 125.975989 
L 137.894995 119.209399 
L 138.980797 122.054082 
L 140.066598 122.566734 
L 141.152399 135.628963 
L 142.2382 121.155258 
L 143.324001 127.395195 
L 144.409802 130.718192 
L 145.495604 130.867094 
L 146.581405 124.31523 
L 147.667206 125.582642 
L 148.753007 130.979887 
L 149.838808 118.379511 
L 150.924609 132.33722 
L 153.096212 121.425119 
L 154.182013 119.147426 
L 155.267814 130.237879 
L 156.353615 135.290718 
L 157.439416 125.373566 
L 158.525217 125.364678 
L 159.611019 127.779062 
L 160.69682 115.625802 
L 161.782621 121.699403 
L 162.868422 118.910612 
L 163.954223 114.358759 
L 165.040024 122.76474 
L 166.125825 133.18722 
L 167.211627 125.453432 
L 168.297428 111.455087 
L 169.383229 117.6474 
L 170.46903 133.335011 
L 171.554831 122.56395 
L 172.640632 121.685833 
L 173.726434 127.041198 
L 174.812235 122.000792 
L 175.898036 122.605036 
L 176.983837 124.18863 
L 178.069638 127.55558 
L 180.24124 126.20521 
L 181.327042 118.065557 
L 182.412843 117.955246 
L 183.498644 123.196584 
L 184.584445 123.21014 
L 185.670246 112.23523 
L 186.756047 120.918904 
L 187.841849 125.408646 
L 188.92765 124.31775 
L 190.013451 129.783729 
L 191.099252 126.09616 
L 192.185053 130.730839 
L 193.270854 122.363614 
L 194.356656 126.197488 
L 195.442457 115.895507 
L 196.528258 122.068327 
L 197.614059 122.588948 
L 198.69986 124.043416 
L 199.785661 117.914288 
L 200.871462 125.693394 
L 201.957264 124.062376 
L 203.043065 113.860521 
L 204.128866 129.318092 
L 205.214667 124.093045 
L 206.300468 124.918872 
L 207.386269 115.706938 
L 208.472071 117.261457 
L 209.557872 118.514327 
L 210.643673 119.586786 
L 211.729474 117.277232 
L 212.815275 120.852431 
L 213.901076 118.725737 
L 214.986877 122.080514 
L 216.072679 116.496369 
L 217.15848 120.370769 
L 218.244281 118.306057 
L 219.330082 126.821719 
L 220.415883 121.266343 
L 221.501684 113.796376 
L 222.587486 121.461044 
L 223.673287 111.648276 
L 224.759088 126.249112 
L 225.844889 126.067495 
L 226.93069 109.173259 
L 228.016491 108.099372 
L 229.102292 116.228081 
L 230.188094 112.015122 
L 231.273895 114.572253 
L 232.359696 116.324196 
L 233.445497 114.568106 
L 234.531298 117.525013 
L 235.617099 125.985473 
L 236.702901 121.951328 
L 237.788702 120.714298 
L 238.874503 121.902241 
L 242.131906 117.246151 
L 244.303509 125.502555 
L 245.38931 126.262754 
L 246.475111 121.8652 
L 247.560912 118.500916 
L 248.646713 122.908298 
L 249.732514 113.213852 
L 250.818316 113.018388 
L 251.904117 113.37218 
L 252.989918 117.957896 
L 254.075719 117.844429 
L 255.16152 112.780306 
L 256.247321 119.851137 
L 257.333123 121.791933 
L 258.418924 113.663378 
L 259.504725 102.175107 
L 260.590526 115.413698 
L 261.676327 117.506938 
L 262.762128 111.571025 
L 263.847929 109.146694 
L 264.933731 115.655262 
L 266.019532 115.07379 
L 267.105333 117.059896 
L 268.191134 116.482782 
L 269.276935 113.604394 
L 270.362736 117.140991 
L 271.448538 112.635258 
L 272.534339 121.416629 
L 273.62014 121.386557 
L 274.705941 117.738497 
L 275.791742 126.246982 
L 276.877543 110.423452 
L 277.963344 114.782495 
L 279.049146 115.058395 
L 280.134947 120.017455 
L 281.220748 119.184905 
L 282.306549 112.431849 
L 283.39235 122.398186 
L 284.478151 123.105328 
L 285.563953 116.652397 
L 286.649754 120.720609 
L 287.735555 121.158957 
L 288.821356 119.660193 
L 289.907157 127.881838 
L 290.992958 116.239177 
L 292.07876 120.329116 
L 293.164561 114.863317 
L 294.250362 120.135336 
L 295.336163 114.157071 
L 296.421964 110.548627 
L 297.507765 118.470791 
L 298.593566 112.725327 
L 299.679368 116.438704 
L 300.765169 118.863822 
L 301.85097 116.662392 
L 302.936771 118.347567 
L 304.022572 115.447418 
L 305.108373 118.37832 
L 306.194175 111.462269 
L 307.279976 106.740028 
L 308.365777 106.9721 
L 309.451578 109.515043 
L 310.537379 108.886299 
L 311.62318 108.594912 
L 312.708981 110.820111 
L 313.794783 115.536773 
L 315.966385 109.508215 
L 317.052186 119.833879 
L 318.137987 120.652236 
L 319.223788 118.320042 
L 320.30959 104.6692 
L 321.395391 117.99429 
L 322.481192 107.271319 
L 323.566993 114.430817 
L 324.652794 110.496626 
L 325.738595 110.022648 
L 326.824396 107.379567 
L 327.910198 105.731911 
L 328.995999 121.145084 
L 330.0818 107.005162 
L 331.167601 118.284277 
L 332.253402 112.056478 
L 333.339203 108.266592 
L 334.425005 113.672459 
L 335.510806 107.934464 
L 336.596607 115.977704 
L 337.682408 109.200669 
L 338.768209 114.429515 
L 340.939811 105.938998 
L 342.025613 111.435688 
L 343.111414 110.423536 
L 344.197215 115.534169 
L 345.283016 114.295989 
L 346.368817 116.374365 
L 347.454618 110.383822 
L 348.54042 114.163755 
L 349.626221 112.850801 
L 350.712022 116.994996 
L 351.797823 117.519953 
L 352.883624 116.297109 
L 353.969425 117.83329 
L 355.055227 114.737818 
L 356.141028 116.216359 
L 357.226829 111.984111 
L 358.31263 111.924167 
L 359.398431 117.512782 
L 360.484232 108.775246 
L 362.655835 117.505385 
L 363.741636 113.07347 
L 364.827437 109.594666 
L 365.913238 118.543733 
L 366.999039 110.768406 
L 368.08484 115.474434 
L 369.170642 112.22229 
L 370.256443 111.524794 
L 371.342244 106.562285 
L 372.428045 109.988532 
L 373.513846 105.674892 
L 374.599647 114.650742 
L 375.685448 112.743946 
L 376.77125 113.304693 
L 377.857051 112.295798 
L 378.942852 113.272519 
L 380.028653 108.394176 
L 381.114454 114.760325 
L 382.200255 113.404105 
L 383.286057 116.064947 
L 384.371858 116.929031 
L 385.457659 107.113492 
L 386.54346 107.544852 
L 387.629261 109.000849 
L 388.715062 111.484834 
L 389.800863 110.339881 
L 390.886665 114.135964 
L 391.972466 108.472848 
L 393.058267 111.570868 
L 394.144068 111.884459 
L 395.229869 116.202052 
L 396.31567 116.074276 
L 397.401472 106.650937 
L 398.487273 110.121973 
L 398.487273 110.121973 
" style="fill:none;stroke:#0000ff;stroke-linecap:square;stroke-width:1.5;"/>
   </g>
   <g id="line2d_28">
    <path clip-path="url(#p37c6cdb861)" d="M 73.832727 295.488 
L 74.918528 206.265168 
L 76.00433 164.953498 
L 77.090131 165.955489 
L 78.175932 199.350105 
L 79.261733 177.802331 
L 80.347534 188.010292 
L 81.433335 179.290108 
L 82.519137 199.885676 
L 83.604938 197.433572 
L 84.690739 186.336835 
L 85.77654 184.388495 
L 86.862341 193.493862 
L 87.948142 182.894193 
L 89.033943 184.183958 
L 90.119745 185.269867 
L 91.205546 180.160552 
L 92.291347 183.471337 
L 93.377148 171.647609 
L 94.462949 155.71459 
L 95.54875 178.401347 
L 96.634552 165.060972 
L 97.720353 172.068146 
L 98.806154 183.750523 
L 99.891955 160.211836 
L 100.977756 184.167931 
L 102.063557 175.961625 
L 103.149358 191.479042 
L 104.23516 190.222267 
L 105.320961 206.426481 
L 106.406762 186.018534 
L 107.492563 186.695075 
L 108.578364 174.908113 
L 109.664165 195.753325 
L 110.749967 183.921557 
L 111.835768 187.073644 
L 112.921569 193.735663 
L 114.00737 176.408545 
L 115.093171 178.344041 
L 116.178972 188.080196 
L 117.264773 180.221488 
L 118.350575 185.576119 
L 119.436376 176.20063 
L 120.522177 189.931807 
L 121.607978 199.425593 
L 122.693779 172.835856 
L 123.77958 165.602997 
L 124.865382 172.013143 
L 125.951183 183.610787 
L 127.036984 181.409062 
L 128.122785 195.502375 
L 129.208586 195.23135 
L 130.294387 175.04973 
L 131.380189 182.673718 
L 132.46599 194.285382 
L 133.551791 202.384432 
L 134.637592 207.274661 
L 135.723393 185.297312 
L 136.809194 185.538335 
L 137.894995 178.377904 
L 138.980797 185.168443 
L 140.066598 181.475945 
L 141.152399 202.112473 
L 142.2382 175.280156 
L 143.324001 183.533974 
L 144.409802 199.244801 
L 145.495604 198.269012 
L 146.581405 187.622159 
L 147.667206 186.605084 
L 148.753007 192.235679 
L 149.838808 174.873021 
L 150.924609 193.348722 
L 152.01041 187.227363 
L 153.096212 175.202799 
L 154.182013 171.372778 
L 155.267814 190.382383 
L 156.353615 200.865133 
L 157.439416 184.051027 
L 158.525217 186.191602 
L 159.611019 184.169276 
L 160.69682 162.422303 
L 161.782621 177.684896 
L 162.868422 172.704043 
L 163.954223 165.005067 
L 165.040024 180.207026 
L 166.125825 193.116436 
L 167.211627 183.578842 
L 168.297428 160.002804 
L 169.383229 171.103959 
L 170.46903 193.165827 
L 171.554831 174.550466 
L 172.640632 178.19553 
L 173.726434 184.858336 
L 174.812235 181.025481 
L 175.898036 174.33425 
L 176.983837 176.284323 
L 178.069638 181.453952 
L 179.155439 184.157163 
L 180.24124 185.098704 
L 181.327042 171.282434 
L 182.412843 169.99046 
L 183.498644 180.759864 
L 184.584445 180.216142 
L 185.670246 160.484933 
L 186.756047 178.610121 
L 187.841849 182.659776 
L 188.92765 183.090807 
L 190.013451 189.566105 
L 191.099252 183.289936 
L 192.185053 190.907685 
L 193.270854 177.161027 
L 194.356656 184.738688 
L 195.442457 165.105436 
L 196.528258 178.989782 
L 197.614059 180.511634 
L 198.69986 179.780664 
L 199.785661 170.087785 
L 200.871462 182.199877 
L 201.957264 186.120125 
L 203.043065 163.243646 
L 204.128866 189.474386 
L 205.214667 179.191863 
L 206.300468 180.336617 
L 207.386269 166.500092 
L 208.472071 168.684869 
L 209.557872 174.247039 
L 210.643673 177.188202 
L 211.729474 169.128225 
L 212.815275 173.325548 
L 213.901076 172.352876 
L 214.986877 179.703679 
L 216.072679 170.068892 
L 217.15848 175.64701 
L 218.244281 172.476028 
L 219.330082 184.234917 
L 220.415883 177.615707 
L 221.501684 166.979689 
L 222.587486 180.99861 
L 223.673287 158.835574 
L 224.759088 187.301267 
L 225.844889 181.489479 
L 226.93069 156.361071 
L 228.016491 156.825799 
L 229.102292 174.818261 
L 230.188094 165.758897 
L 231.273895 170.057974 
L 232.359696 167.714601 
L 233.445497 175.568212 
L 234.531298 174.784729 
L 235.617099 184.975083 
L 236.702901 181.260027 
L 237.788702 180.482027 
L 238.874503 175.861359 
L 239.960304 176.830523 
L 241.046105 173.970699 
L 242.131906 170.650831 
L 243.217708 180.963914 
L 244.303509 186.624028 
L 245.38931 186.417083 
L 247.560912 173.323349 
L 248.646713 181.059998 
L 249.732514 159.866592 
L 250.818316 162.010119 
L 251.904117 167.36383 
L 252.989918 169.529339 
L 254.075719 174.169128 
L 255.16152 163.237666 
L 256.247321 173.193188 
L 257.333123 180.713395 
L 258.418924 164.831198 
L 259.504725 139.82904 
L 260.590526 168.998828 
L 261.676327 172.480121 
L 262.762128 161.645167 
L 263.847929 153.973208 
L 264.933731 171.666678 
L 266.019532 166.120676 
L 267.105333 168.481838 
L 268.191134 172.008449 
L 269.276935 164.049843 
L 270.362736 168.965077 
L 271.448538 163.942273 
L 272.534339 176.571536 
L 273.62014 178.638026 
L 274.705941 171.953521 
L 275.791742 186.246286 
L 276.877543 158.950322 
L 277.963344 166.662591 
L 279.049146 171.527885 
L 280.134947 174.965114 
L 281.220748 176.782439 
L 282.306549 166.463413 
L 283.39235 185.007794 
L 284.478151 182.179663 
L 285.563953 171.793617 
L 286.649754 176.656205 
L 287.735555 177.668098 
L 288.821356 176.708339 
L 289.907157 191.473368 
L 290.992958 169.620898 
L 292.07876 172.115766 
L 293.164561 161.829516 
L 294.250362 172.882359 
L 295.336163 164.921119 
L 296.421964 161.163552 
L 297.507765 174.43613 
L 298.593566 162.179342 
L 299.679368 166.083928 
L 300.765169 174.234757 
L 301.85097 166.921151 
L 302.936771 169.195671 
L 304.022572 166.47307 
L 305.108373 170.555204 
L 307.279976 150.411792 
L 308.365777 148.866341 
L 309.451578 160.683641 
L 310.537379 159.020441 
L 311.62318 153.639607 
L 312.708981 162.992198 
L 313.794783 165.84571 
L 314.880584 156.557266 
L 315.966385 156.294879 
L 317.052186 176.421959 
L 318.137987 172.734861 
L 319.223788 175.121966 
L 320.30959 150.224554 
L 321.395391 174.633795 
L 322.481192 153.143592 
L 323.566993 164.679614 
L 324.652794 160.453989 
L 325.738595 160.858032 
L 326.824396 151.168304 
L 327.910198 150.599651 
L 328.995999 177.281245 
L 330.0818 149.730645 
L 331.167601 179.690278 
L 332.253402 159.698437 
L 333.339203 153.020455 
L 334.425005 165.475062 
L 335.510806 153.476655 
L 336.596607 172.474646 
L 337.682408 159.187378 
L 338.768209 167.186102 
L 340.939811 149.960578 
L 342.025613 158.191963 
L 343.111414 161.813162 
L 344.197215 169.362882 
L 345.283016 166.559696 
L 346.368817 170.289035 
L 347.454618 158.203891 
L 348.54042 165.130142 
L 349.626221 161.155265 
L 350.712022 169.03319 
L 351.797823 173.534849 
L 352.883624 173.103871 
L 353.969425 169.74838 
L 355.055227 170.532618 
L 356.141028 167.799936 
L 358.31263 158.209229 
L 359.398431 174.601386 
L 360.484232 155.792889 
L 361.570033 164.353686 
L 362.655835 171.450832 
L 363.741636 159.617116 
L 364.827437 158.40496 
L 365.913238 172.85341 
L 366.999039 158.824283 
L 368.08484 168.512684 
L 369.170642 161.587828 
L 370.256443 158.935534 
L 371.342244 155.708613 
L 372.428045 156.440045 
L 373.513846 150.963383 
L 374.599647 163.078625 
L 375.685448 165.594129 
L 376.77125 166.796574 
L 377.857051 165.006305 
L 378.942852 164.174469 
L 380.028653 154.293516 
L 381.114454 166.217016 
L 382.200255 164.274517 
L 383.286057 173.787785 
L 384.371858 172.546365 
L 385.457659 151.221128 
L 386.54346 153.458848 
L 387.629261 154.266944 
L 388.715062 161.0653 
L 389.800863 159.062379 
L 390.886665 169.466159 
L 391.972466 156.822042 
L 393.058267 166.259014 
L 394.144068 163.716077 
L 395.229869 168.05651 
L 396.31567 169.330165 
L 397.401472 154.745248 
L 398.487273 158.549996 
L 398.487273 158.549996 
" style="fill:none;stroke:#008000;stroke-dasharray:9.6,2.4,1.5,2.4;stroke-dashoffset:0;stroke-width:1.5;"/>
   </g>
   <g id="line2d_29">
    <path clip-path="url(#p37c6cdb861)" d="M 73.832727 151.815827 
L 74.918528 95.924194 
L 76.00433 82.63646 
L 77.090131 72.891391 
L 78.175932 69.349661 
L 79.261733 67.994992 
L 80.347534 64.822685 
L 81.433335 67.859457 
L 82.519137 65.675299 
L 84.690739 68.117434 
L 85.77654 70.224414 
L 86.862341 70.692638 
L 87.948142 66.985371 
L 89.033943 69.856565 
L 90.119745 64.449535 
L 92.291347 69.432712 
L 93.377148 68.687554 
L 94.462949 67.163293 
L 95.54875 66.662747 
L 96.634552 67.242234 
L 97.720353 63.884861 
L 98.806154 65.689761 
L 99.891955 65.056108 
L 100.977756 70.98828 
L 102.063557 63.331624 
L 103.149358 70.577724 
L 104.23516 63.552856 
L 105.320961 71.142478 
L 106.406762 62.538438 
L 107.492563 60.266121 
L 108.578364 59.397645 
L 110.749967 64.567432 
L 111.835768 64.279635 
L 112.921569 69.241861 
L 114.00737 58.730561 
L 115.093171 63.591051 
L 116.178972 58.088396 
L 117.264773 63.186702 
L 118.350575 65.863097 
L 119.436376 61.825807 
L 120.522177 68.868968 
L 121.607978 69.36646 
L 122.693779 61.223646 
L 123.77958 64.367555 
L 124.865382 61.816275 
L 125.951183 61.72173 
L 127.036984 62.999464 
L 128.122785 67.767505 
L 129.208586 65.34962 
L 130.294387 64.218862 
L 131.380189 63.905132 
L 132.46599 64.095007 
L 133.551791 68.971956 
L 134.637592 67.997519 
L 135.723393 62.909261 
L 136.809194 66.413644 
L 137.894995 60.040895 
L 138.980797 58.939721 
L 140.066598 63.657523 
L 141.152399 69.145453 
L 142.2382 67.03036 
L 143.324001 71.256417 
L 144.409802 62.191583 
L 145.495604 63.465177 
L 146.581405 61.008301 
L 147.667206 64.560199 
L 148.753007 69.724095 
L 149.838808 61.886002 
L 150.924609 71.325718 
L 152.01041 66.61104 
L 153.096212 67.64744 
L 154.182013 66.922073 
L 155.267814 70.093375 
L 156.353615 69.716304 
L 157.439416 66.696105 
L 158.525217 64.537755 
L 159.611019 71.388848 
L 160.69682 68.829301 
L 161.782621 65.713909 
L 162.868422 65.117181 
L 163.954223 63.71245 
L 165.040024 65.322453 
L 166.125825 73.258005 
L 167.211627 67.328023 
L 168.297428 62.907371 
L 169.383229 64.190841 
L 170.46903 73.504196 
L 171.554831 70.577435 
L 172.640632 65.176135 
L 173.726434 69.224061 
L 174.812235 62.976104 
L 175.898036 70.875823 
L 176.983837 72.092936 
L 178.069638 73.657209 
L 179.155439 69.719499 
L 181.327042 64.848679 
L 182.412843 65.920033 
L 183.498644 65.633303 
L 184.584445 66.204138 
L 185.670246 63.985526 
L 186.756047 63.227688 
L 187.841849 68.157516 
L 188.92765 65.544693 
L 190.013451 70.001353 
L 191.099252 68.902384 
L 192.185053 70.553993 
L 193.270854 67.566202 
L 194.356656 67.656288 
L 195.442457 66.685578 
L 196.528258 65.146873 
L 197.614059 64.666262 
L 198.69986 68.306169 
L 199.785661 65.74079 
L 200.871462 69.186911 
L 201.957264 62.004627 
L 203.043065 64.477396 
L 204.128866 69.161798 
L 205.214667 68.994228 
L 206.300468 69.501127 
L 207.386269 64.913783 
L 208.472071 65.838045 
L 209.557872 62.781616 
L 210.643673 61.985369 
L 211.729474 65.426238 
L 212.815275 68.379315 
L 213.901076 65.098599 
L 214.986877 64.457349 
L 216.072679 62.923847 
L 217.15848 65.094528 
L 218.244281 64.136086 
L 219.330082 69.408522 
L 221.501684 60.613062 
L 222.587486 61.923478 
L 223.673287 64.460978 
L 224.759088 65.196957 
L 225.844889 70.64551 
L 226.93069 61.985447 
L 228.016491 59.372945 
L 229.102292 57.6379 
L 230.188094 58.271347 
L 231.273895 59.086532 
L 232.359696 64.933792 
L 233.445497 53.568 
L 235.617099 66.995863 
L 236.702901 62.642628 
L 237.788702 60.946569 
L 238.874503 67.943124 
L 239.960304 63.767752 
L 241.046105 63.105885 
L 242.131906 63.84147 
L 243.217708 62.203592 
L 244.303509 64.381082 
L 245.38931 66.108424 
L 246.475111 63.668787 
L 247.560912 63.678483 
L 248.646713 64.756597 
L 249.732514 66.561112 
L 250.818316 64.026657 
L 251.904117 59.380531 
L 252.989918 66.386453 
L 254.075719 61.519729 
L 255.16152 62.322945 
L 256.247321 66.509086 
L 257.333123 62.870472 
L 258.418924 62.495559 
L 259.504725 64.521173 
L 260.590526 61.828569 
L 261.676327 62.533754 
L 262.762128 61.496884 
L 263.847929 64.320181 
L 264.933731 59.643845 
L 266.019532 64.026904 
L 267.105333 65.637954 
L 268.191134 60.957114 
L 270.362736 65.316905 
L 271.448538 61.328243 
L 272.534339 66.261722 
L 273.62014 64.135088 
L 274.705941 63.523473 
L 275.791742 66.247678 
L 276.877543 61.896583 
L 277.963344 62.902398 
L 279.049146 58.588906 
L 280.134947 65.069797 
L 282.306549 58.400284 
L 283.39235 59.788578 
L 284.478151 64.030992 
L 285.563953 61.511177 
L 286.649754 64.785013 
L 287.735555 64.649815 
L 288.821356 62.612046 
L 289.907157 64.290307 
L 290.992958 62.857456 
L 292.07876 68.542465 
L 293.164561 67.897117 
L 294.250362 67.388314 
L 295.336163 63.393024 
L 296.421964 59.933703 
L 297.507765 62.505451 
L 298.593566 63.271312 
L 299.679368 66.79348 
L 300.765169 63.492886 
L 301.85097 66.403634 
L 302.936771 67.499463 
L 304.022572 64.421766 
L 305.108373 66.201437 
L 306.194175 62.310877 
L 307.279976 63.068263 
L 308.365777 65.077859 
L 309.451578 58.346444 
L 310.537379 58.752158 
L 311.62318 63.550218 
L 312.708981 58.648025 
L 313.794783 65.227836 
L 314.880584 68.305251 
L 315.966385 62.721552 
L 317.052186 63.245798 
L 318.137987 68.569612 
L 319.223788 61.518119 
L 320.30959 59.113846 
L 321.395391 61.354784 
L 322.481192 61.399046 
L 323.566993 64.182019 
L 324.652794 60.539263 
L 325.738595 59.187264 
L 326.824396 63.59083 
L 327.910198 60.86417 
L 328.995999 65.008922 
L 330.0818 64.279678 
L 331.167601 56.878277 
L 332.253402 64.41452 
L 333.339203 63.512729 
L 334.425005 61.869856 
L 335.510806 62.392273 
L 336.596607 59.480761 
L 337.682408 59.21396 
L 338.768209 61.672928 
L 339.85401 62.164423 
L 340.939811 61.917418 
L 342.025613 64.679414 
L 343.111414 59.033911 
L 344.197215 61.705455 
L 346.368817 62.459695 
L 347.454618 62.563754 
L 348.54042 63.197368 
L 349.626221 64.546337 
L 350.712022 64.956801 
L 351.797823 61.505056 
L 352.883624 59.490348 
L 353.969425 65.9182 
L 355.055227 58.943018 
L 356.141028 64.632781 
L 357.226829 60.826972 
L 358.31263 65.639105 
L 359.398431 60.424179 
L 360.484232 61.757604 
L 361.570033 61.799964 
L 362.655835 63.559939 
L 363.741636 66.529824 
L 364.827437 60.784372 
L 365.913238 64.234056 
L 366.999039 62.712529 
L 368.08484 62.436183 
L 369.170642 62.856753 
L 370.256443 64.114054 
L 371.342244 57.415958 
L 372.428045 63.537019 
L 373.513846 60.3864 
L 374.599647 66.222859 
L 375.685448 59.893762 
L 376.77125 59.812812 
L 377.857051 59.58529 
L 378.942852 62.370569 
L 380.028653 62.494837 
L 381.114454 63.303634 
L 382.200255 62.533694 
L 383.286057 58.342108 
L 384.371858 61.311697 
L 385.457659 63.005857 
L 386.54346 61.630855 
L 387.629261 63.734753 
L 388.715062 61.904368 
L 389.800863 61.617383 
L 390.886665 58.805768 
L 391.972466 60.123653 
L 393.058267 56.882722 
L 394.144068 60.052841 
L 395.229869 64.347595 
L 396.31567 62.818387 
L 397.401472 58.556626 
L 398.487273 61.693951 
L 398.487273 61.693951 
" style="fill:none;stroke:#008000;stroke-dasharray:9.6,2.4,1.5,2.4;stroke-dashoffset:0;stroke-width:1.5;"/>
   </g>
   <g id="line2d_30">
    <path clip-path="url(#p37c6cdb861)" d="M 73.832727 80.243002 
L 74.918528 80.243002 
L 77.090131 79.028731 
L 120.522177 79.028731 
L 121.607978 76.065849 
L 128.122785 76.065849 
L 129.208586 75.619498 
L 140.066598 75.592469 
L 141.152399 73.659369 
L 156.353615 73.659369 
L 157.439416 73.544808 
L 158.525217 73.544808 
L 159.611019 73.102531 
L 171.554831 73.102531 
L 172.640632 72.569745 
L 219.330082 72.472563 
L 220.415883 72.068927 
L 328.995999 72.010314 
L 330.0818 71.832859 
L 398.487273 71.832859 
L 398.487273 71.832859 
" style="fill:none;stroke:#ff0000;stroke-linecap:square;stroke-width:1.5;"/>
   </g>
   <g id="patch_3">
    <path d="M 57.6 307.584 
L 57.6 41.472 
" style="fill:none;stroke:#000000;stroke-linecap:square;stroke-linejoin:miter;stroke-width:0.8;"/>
   </g>
   <g id="patch_4">
    <path d="M 414.72 307.584 
L 414.72 41.472 
" style="fill:none;stroke:#000000;stroke-linecap:square;stroke-linejoin:miter;stroke-width:0.8;"/>
   </g>
   <g id="patch_5">
    <path d="M 57.6 307.584 
L 414.72 307.584 
" style="fill:none;stroke:#000000;stroke-linecap:square;stroke-linejoin:miter;stroke-width:0.8;"/>
   </g>
   <g id="patch_6">
    <path d="M 57.6 41.472 
L 414.72 41.472 
" style="fill:none;stroke:#000000;stroke-linecap:square;stroke-linejoin:miter;stroke-width:0.8;"/>
   </g>
   <g id="text_16">
    <!-- Population's average and best fitness -->
    <g transform="translate(123.529687 35.472)scale(0.12 -0.12)">
     <defs>
      <path d="M 19.671875 64.796875 
L 19.671875 37.40625 
L 32.078125 37.40625 
Q 38.96875 37.40625 42.71875 40.96875 
Q 46.484375 44.53125 46.484375 51.125 
Q 46.484375 57.671875 42.71875 61.234375 
Q 38.96875 64.796875 32.078125 64.796875 
z
M 9.8125 72.90625 
L 32.078125 72.90625 
Q 44.34375 72.90625 50.609375 67.359375 
Q 56.890625 61.8125 56.890625 51.125 
Q 56.890625 40.328125 50.609375 34.8125 
Q 44.34375 29.296875 32.078125 29.296875 
L 19.671875 29.296875 
L 19.671875 0 
L 9.8125 0 
z
" id="DejaVuSans-80"/>
      <path d="M 18.109375 8.203125 
L 18.109375 -20.796875 
L 9.078125 -20.796875 
L 9.078125 54.6875 
L 18.109375 54.6875 
L 18.109375 46.390625 
Q 20.953125 51.265625 25.265625 53.625 
Q 29.59375 56 35.59375 56 
Q 45.5625 56 51.78125 48.09375 
Q 58.015625 40.1875 58.015625 27.296875 
Q 58.015625 14.40625 51.78125 6.484375 
Q 45.5625 -1.421875 35.59375 -1.421875 
Q 29.59375 -1.421875 25.265625 0.953125 
Q 20.953125 3.328125 18.109375 8.203125 
z
M 48.6875 27.296875 
Q 48.6875 37.203125 44.609375 42.84375 
Q 40.53125 48.484375 33.40625 48.484375 
Q 26.265625 48.484375 22.1875 42.84375 
Q 18.109375 37.203125 18.109375 27.296875 
Q 18.109375 17.390625 22.1875 11.75 
Q 26.265625 6.109375 33.40625 6.109375 
Q 40.53125 6.109375 44.609375 11.75 
Q 48.6875 17.390625 48.6875 27.296875 
z
" id="DejaVuSans-112"/>
      <path d="M 8.5 21.578125 
L 8.5 54.6875 
L 17.484375 54.6875 
L 17.484375 21.921875 
Q 17.484375 14.15625 20.5 10.265625 
Q 23.53125 6.390625 29.59375 6.390625 
Q 36.859375 6.390625 41.078125 11.03125 
Q 45.3125 15.671875 45.3125 23.6875 
L 45.3125 54.6875 
L 54.296875 54.6875 
L 54.296875 0 
L 45.3125 0 
L 45.3125 8.40625 
Q 42.046875 3.421875 37.71875 1 
Q 33.40625 -1.421875 27.6875 -1.421875 
Q 18.265625 -1.421875 13.375 4.4375 
Q 8.5 10.296875 8.5 21.578125 
z
M 31.109375 56 
z
" id="DejaVuSans-117"/>
      <path d="M 9.421875 75.984375 
L 18.40625 75.984375 
L 18.40625 0 
L 9.421875 0 
z
" id="DejaVuSans-108"/>
      <path d="M 17.921875 72.90625 
L 17.921875 45.796875 
L 9.625 45.796875 
L 9.625 72.90625 
z
" id="DejaVuSans-39"/>
      <path id="DejaVuSans-32"/>
      <path d="M 2.984375 54.6875 
L 12.5 54.6875 
L 29.59375 8.796875 
L 46.6875 54.6875 
L 56.203125 54.6875 
L 35.6875 0 
L 23.484375 0 
z
" id="DejaVuSans-118"/>
      <path d="M 45.40625 27.984375 
Q 45.40625 37.75 41.375 43.109375 
Q 37.359375 48.484375 30.078125 48.484375 
Q 22.859375 48.484375 18.828125 43.109375 
Q 14.796875 37.75 14.796875 27.984375 
Q 14.796875 18.265625 18.828125 12.890625 
Q 22.859375 7.515625 30.078125 7.515625 
Q 37.359375 7.515625 41.375 12.890625 
Q 45.40625 18.265625 45.40625 27.984375 
z
M 54.390625 6.78125 
Q 54.390625 -7.171875 48.1875 -13.984375 
Q 42 -20.796875 29.203125 -20.796875 
Q 24.46875 -20.796875 20.265625 -20.09375 
Q 16.0625 -19.390625 12.109375 -17.921875 
L 12.109375 -9.1875 
Q 16.0625 -11.328125 19.921875 -12.34375 
Q 23.78125 -13.375 27.78125 -13.375 
Q 36.625 -13.375 41.015625 -8.765625 
Q 45.40625 -4.15625 45.40625 5.171875 
L 45.40625 9.625 
Q 42.625 4.78125 38.28125 2.390625 
Q 33.9375 0 27.875 0 
Q 17.828125 0 11.671875 7.65625 
Q 5.515625 15.328125 5.515625 27.984375 
Q 5.515625 40.671875 11.671875 48.328125 
Q 17.828125 56 27.875 56 
Q 33.9375 56 38.28125 53.609375 
Q 42.625 51.21875 45.40625 46.390625 
L 45.40625 54.6875 
L 54.390625 54.6875 
z
" id="DejaVuSans-103"/>
      <path d="M 45.40625 46.390625 
L 45.40625 75.984375 
L 54.390625 75.984375 
L 54.390625 0 
L 45.40625 0 
L 45.40625 8.203125 
Q 42.578125 3.328125 38.25 0.953125 
Q 33.9375 -1.421875 27.875 -1.421875 
Q 17.96875 -1.421875 11.734375 6.484375 
Q 5.515625 14.40625 5.515625 27.296875 
Q 5.515625 40.1875 11.734375 48.09375 
Q 17.96875 56 27.875 56 
Q 33.9375 56 38.25 53.625 
Q 42.578125 51.265625 45.40625 46.390625 
z
M 14.796875 27.296875 
Q 14.796875 17.390625 18.875 11.75 
Q 22.953125 6.109375 30.078125 6.109375 
Q 37.203125 6.109375 41.296875 11.75 
Q 45.40625 17.390625 45.40625 27.296875 
Q 45.40625 37.203125 41.296875 42.84375 
Q 37.203125 48.484375 30.078125 48.484375 
Q 22.953125 48.484375 18.875 42.84375 
Q 14.796875 37.203125 14.796875 27.296875 
z
" id="DejaVuSans-100"/>
      <path d="M 48.6875 27.296875 
Q 48.6875 37.203125 44.609375 42.84375 
Q 40.53125 48.484375 33.40625 48.484375 
Q 26.265625 48.484375 22.1875 42.84375 
Q 18.109375 37.203125 18.109375 27.296875 
Q 18.109375 17.390625 22.1875 11.75 
Q 26.265625 6.109375 33.40625 6.109375 
Q 40.53125 6.109375 44.609375 11.75 
Q 48.6875 17.390625 48.6875 27.296875 
z
M 18.109375 46.390625 
Q 20.953125 51.265625 25.265625 53.625 
Q 29.59375 56 35.59375 56 
Q 45.5625 56 51.78125 48.09375 
Q 58.015625 40.1875 58.015625 27.296875 
Q 58.015625 14.40625 51.78125 6.484375 
Q 45.5625 -1.421875 35.59375 -1.421875 
Q 29.59375 -1.421875 25.265625 0.953125 
Q 20.953125 3.328125 18.109375 8.203125 
L 18.109375 0 
L 9.078125 0 
L 9.078125 75.984375 
L 18.109375 75.984375 
z
" id="DejaVuSans-98"/>
      <path d="M 37.109375 75.984375 
L 37.109375 68.5 
L 28.515625 68.5 
Q 23.6875 68.5 21.796875 66.546875 
Q 19.921875 64.59375 19.921875 59.515625 
L 19.921875 54.6875 
L 34.71875 54.6875 
L 34.71875 47.703125 
L 19.921875 47.703125 
L 19.921875 0 
L 10.890625 0 
L 10.890625 47.703125 
L 2.296875 47.703125 
L 2.296875 54.6875 
L 10.890625 54.6875 
L 10.890625 58.5 
Q 10.890625 67.625 15.140625 71.796875 
Q 19.390625 75.984375 28.609375 75.984375 
z
" id="DejaVuSans-102"/>
     </defs>
     <use xlink:href="#DejaVuSans-80"/>
     <use x="56.677734" xlink:href="#DejaVuSans-111"/>
     <use x="117.859375" xlink:href="#DejaVuSans-112"/>
     <use x="181.335938" xlink:href="#DejaVuSans-117"/>
     <use x="244.714844" xlink:href="#DejaVuSans-108"/>
     <use x="272.498047" xlink:href="#DejaVuSans-97"/>
     <use x="333.777344" xlink:href="#DejaVuSans-116"/>
     <use x="372.986328" xlink:href="#DejaVuSans-105"/>
     <use x="400.769531" xlink:href="#DejaVuSans-111"/>
     <use x="461.951172" xlink:href="#DejaVuSans-110"/>
     <use x="525.330078" xlink:href="#DejaVuSans-39"/>
     <use x="552.820312" xlink:href="#DejaVuSans-115"/>
     <use x="604.919922" xlink:href="#DejaVuSans-32"/>
     <use x="636.707031" xlink:href="#DejaVuSans-97"/>
     <use x="697.986328" xlink:href="#DejaVuSans-118"/>
     <use x="757.166016" xlink:href="#DejaVuSans-101"/>
     <use x="818.689453" xlink:href="#DejaVuSans-114"/>
     <use x="859.802734" xlink:href="#DejaVuSans-97"/>
     <use x="921.082031" xlink:href="#DejaVuSans-103"/>
     <use x="984.558594" xlink:href="#DejaVuSans-101"/>
     <use x="1046.082031" xlink:href="#DejaVuSans-32"/>
     <use x="1077.869141" xlink:href="#DejaVuSans-97"/>
     <use x="1139.148438" xlink:href="#DejaVuSans-110"/>
     <use x="1202.527344" xlink:href="#DejaVuSans-100"/>
     <use x="1266.003906" xlink:href="#DejaVuSans-32"/>
     <use x="1297.791016" xlink:href="#DejaVuSans-98"/>
     <use x="1361.267578" xlink:href="#DejaVuSans-101"/>
     <use x="1422.791016" xlink:href="#DejaVuSans-115"/>
     <use x="1474.890625" xlink:href="#DejaVuSans-116"/>
     <use x="1514.099609" xlink:href="#DejaVuSans-32"/>
     <use x="1545.886719" xlink:href="#DejaVuSans-102"/>
     <use x="1581.091797" xlink:href="#DejaVuSans-105"/>
     <use x="1608.875" xlink:href="#DejaVuSans-116"/>
     <use x="1648.083984" xlink:href="#DejaVuSans-110"/>
     <use x="1711.462891" xlink:href="#DejaVuSans-101"/>
     <use x="1772.986328" xlink:href="#DejaVuSans-115"/>
     <use x="1825.085938" xlink:href="#DejaVuSans-115"/>
    </g>
   </g>
   <g id="legend_1">
    <g id="patch_7">
     <path d="M 334.779375 302.584 
L 407.72 302.584 
Q 409.72 302.584 409.72 300.584 
L 409.72 242.8715 
Q 409.72 240.8715 407.72 240.8715 
L 334.779375 240.8715 
Q 332.779375 240.8715 332.779375 242.8715 
L 332.779375 300.584 
Q 332.779375 302.584 334.779375 302.584 
z
" style="fill:#ffffff;opacity:0.8;stroke:#cccccc;stroke-linejoin:miter;"/>
    </g>
    <g id="line2d_31">
     <path d="M 336.779375 248.969937 
L 356.779375 248.969937 
" style="fill:none;stroke:#0000ff;stroke-linecap:square;stroke-width:1.5;"/>
    </g>
    <g id="line2d_32"/>
    <g id="text_17">
     <!-- average -->
     <g transform="translate(364.779375 252.469937)scale(0.1 -0.1)">
      <use xlink:href="#DejaVuSans-97"/>
      <use x="61.279297" xlink:href="#DejaVuSans-118"/>
      <use x="120.458984" xlink:href="#DejaVuSans-101"/>
      <use x="181.982422" xlink:href="#DejaVuSans-114"/>
      <use x="223.095703" xlink:href="#DejaVuSans-97"/>
      <use x="284.375" xlink:href="#DejaVuSans-103"/>
      <use x="347.851562" xlink:href="#DejaVuSans-101"/>
     </g>
    </g>
    <g id="line2d_33">
     <path d="M 336.779375 263.648062 
L 356.779375 263.648062 
" style="fill:none;stroke:#008000;stroke-dasharray:9.6,2.4,1.5,2.4;stroke-dashoffset:0;stroke-width:1.5;"/>
    </g>
    <g id="line2d_34"/>
    <g id="text_18">
     <!-- -1 sd -->
     <g transform="translate(364.779375 267.148062)scale(0.1 -0.1)">
      <defs>
       <path d="M 4.890625 31.390625 
L 31.203125 31.390625 
L 31.203125 23.390625 
L 4.890625 23.390625 
z
" id="DejaVuSans-45"/>
      </defs>
      <use xlink:href="#DejaVuSans-45"/>
      <use x="36.083984" xlink:href="#DejaVuSans-49"/>
      <use x="99.707031" xlink:href="#DejaVuSans-32"/>
      <use x="131.494141" xlink:href="#DejaVuSans-115"/>
      <use x="183.59375" xlink:href="#DejaVuSans-100"/>
     </g>
    </g>
    <g id="line2d_35">
     <path d="M 336.779375 278.326187 
L 356.779375 278.326187 
" style="fill:none;stroke:#008000;stroke-dasharray:9.6,2.4,1.5,2.4;stroke-dashoffset:0;stroke-width:1.5;"/>
    </g>
    <g id="line2d_36"/>
    <g id="text_19">
     <!-- +1 sd -->
     <g transform="translate(364.779375 281.826187)scale(0.1 -0.1)">
      <defs>
       <path d="M 46 62.703125 
L 46 35.5 
L 73.1875 35.5 
L 73.1875 27.203125 
L 46 27.203125 
L 46 0 
L 37.796875 0 
L 37.796875 27.203125 
L 10.59375 27.203125 
L 10.59375 35.5 
L 37.796875 35.5 
L 37.796875 62.703125 
z
" id="DejaVuSans-43"/>
      </defs>
      <use xlink:href="#DejaVuSans-43"/>
      <use x="83.789062" xlink:href="#DejaVuSans-49"/>
      <use x="147.412109" xlink:href="#DejaVuSans-32"/>
      <use x="179.199219" xlink:href="#DejaVuSans-115"/>
      <use x="231.298828" xlink:href="#DejaVuSans-100"/>
     </g>
    </g>
    <g id="line2d_37">
     <path d="M 336.779375 293.004312 
L 356.779375 293.004312 
" style="fill:none;stroke:#ff0000;stroke-linecap:square;stroke-width:1.5;"/>
    </g>
    <g id="line2d_38"/>
    <g id="text_20">
     <!-- best -->
     <g transform="translate(364.779375 296.504312)scale(0.1 -0.1)">
      <use xlink:href="#DejaVuSans-98"/>
      <use x="63.476562" xlink:href="#DejaVuSans-101"/>
      <use x="125" xlink:href="#DejaVuSans-115"/>
      <use x="177.099609" xlink:href="#DejaVuSans-116"/>
     </g>
    </g>
   </g>
  </g>
 </g>
 <defs>
  <clipPath id="p37c6cdb861">
   <rect height="266.112" width="357.12" x="57.6" y="41.472"/>
  </clipPath>
 </defs>
</svg>
