<?xml version="1.0" encoding="UTF-8" standalone="no"?>
<!DOCTYPE svg PUBLIC "-//W3C//DTD SVG 1.1//EN"
 "http://www.w3.org/Graphics/SVG/1.1/DTD/svg11.dtd">
<!-- Generated by graphviz version 2.46.1 (0)
 -->
<!-- Pages: 1 -->
<svg width="206pt" height="348pt"
 viewBox="0.00 0.00 205.85 348.19" xmlns="http://www.w3.org/2000/svg" xmlns:xlink="http://www.w3.org/1999/xlink">
<g id="graph0" class="graph" transform="scale(1 1) rotate(0) translate(4 344.19)">
<polygon fill="white" stroke="transparent" points="-4,4 -4,-344.19 201.85,-344.19 201.85,4 -4,4"/>
<!-- &#45;1 -->
<g id="node1" class="node">
<title>&#45;1</title>
<polygon fill="lightgray" stroke="black" points="44,-184.94 20,-184.94 20,-166.94 44,-166.94 44,-184.94"/>
<text text-anchor="middle" x="32" y="-173.74" font-family="Times,serif" font-size="9.00">&#45;1</text>
</g>
<!-- 3423 -->
<g id="node10" class="node">
<title>3423</title>
<ellipse fill="white" stroke="black" cx="87" cy="-90.45" rx="25" ry="25"/>
<text text-anchor="middle" x="87" y="-88.25" font-family="Times,serif" font-size="9.00">3423</text>
</g>
<!-- &#45;1&#45;&gt;3423 -->
<g id="edge10" class="edge">
<title>&#45;1&#45;&gt;3423</title>
<path fill="none" stroke="green" stroke-width="0.34" d="M37.27,-166.94C44.31,-156.26 57.13,-136.79 67.99,-120.3"/>
<polygon fill="green" stroke="green" stroke-width="0.34" points="71.2,-121.79 73.78,-111.52 65.36,-117.94 71.2,-121.79"/>
</g>
<!-- &#45;2 -->
<g id="node2" class="node">
<title>&#45;2</title>
<polygon fill="lightgray" stroke="black" points="195,-184.94 171,-184.94 171,-166.94 195,-166.94 195,-184.94"/>
<text text-anchor="middle" x="183" y="-173.74" font-family="Times,serif" font-size="9.00">&#45;2</text>
</g>
<!-- 9 -->
<g id="node8" class="node">
<title>9</title>
<ellipse fill="white" stroke="black" cx="183" cy="-90.45" rx="14.7" ry="14.7"/>
<text text-anchor="middle" x="183" y="-88.25" font-family="Times,serif" font-size="9.00">9</text>
</g>
<!-- &#45;2&#45;&gt;9 -->
<g id="edge3" class="edge">
<title>&#45;2&#45;&gt;9</title>
<path fill="none" stroke="green" stroke-width="1.15" d="M183,-166.94C183,-155.18 183,-132.74 183,-115.37"/>
<polygon fill="green" stroke="green" stroke-width="1.15" points="186.5,-115.35 183,-105.35 179.5,-115.35 186.5,-115.35"/>
</g>
<!-- &#45;3 -->
<g id="node3" class="node">
<title>&#45;3</title>
<polygon fill="lightgray" stroke="black" points="24,-270.44 0,-270.44 0,-252.44 24,-252.44 24,-270.44"/>
<text text-anchor="middle" x="12" y="-259.24" font-family="Times,serif" font-size="9.00">&#45;3</text>
</g>
<!-- 0 -->
<g id="node6" class="node">
<title>0</title>
<ellipse fill="lightblue" stroke="black" cx="113" cy="-14.85" rx="14.7" ry="14.7"/>
<text text-anchor="middle" x="113" y="-12.65" font-family="Times,serif" font-size="9.00">0</text>
</g>
<!-- &#45;3&#45;&gt;0 -->
<g id="edge1" class="edge">
<title>&#45;3&#45;&gt;0</title>
<path fill="none" stroke="green" stroke-width="1.1" d="M10.64,-252.35C7.85,-234.04 2.41,-188.15 11,-151.2 20.58,-109.96 26.81,-98.96 53,-65.7 64.06,-51.66 79.66,-38.85 92.18,-29.73"/>
<polygon fill="green" stroke="green" stroke-width="1.1" points="94.48,-32.39 100.65,-23.78 90.45,-26.66 94.48,-32.39"/>
</g>
<!-- 2899 -->
<g id="node9" class="node">
<title>2899</title>
<ellipse fill="white" stroke="black" cx="87" cy="-175.94" rx="25" ry="25"/>
<text text-anchor="middle" x="87" y="-173.74" font-family="Times,serif" font-size="9.00">2899</text>
</g>
<!-- &#45;3&#45;&gt;2899 -->
<g id="edge6" class="edge">
<title>&#45;3&#45;&gt;2899</title>
<path fill="none" stroke="red" stroke-width="0.23" d="M19.19,-252.44C29.43,-241.04 48.67,-219.62 64.05,-202.5"/>
<polygon fill="red" stroke="red" stroke-width="0.23" points="66.72,-204.77 70.79,-194.99 61.51,-200.09 66.72,-204.77"/>
</g>
<!-- &#45;4 -->
<g id="node4" class="node">
<title>&#45;4</title>
<polygon fill="lightgray" stroke="black" points="125,-340.19 101,-340.19 101,-322.19 125,-322.19 125,-340.19"/>
<text text-anchor="middle" x="113" y="-328.99" font-family="Times,serif" font-size="9.00">&#45;4</text>
</g>
<!-- &#45;4&#45;&gt;0 -->
<g id="edge2" class="edge">
<title>&#45;4&#45;&gt;0</title>
<path fill="none" stroke="green" stroke-width="0.93" d="M114.91,-322.14C116.89,-313.36 119.86,-298.87 121,-286.19 129.8,-188.59 128.79,-163.39 121,-65.7 120.32,-57.19 119,-47.95 117.63,-39.76"/>
<polygon fill="green" stroke="green" stroke-width="0.93" points="121.04,-38.97 115.84,-29.74 114.15,-40.2 121.04,-38.97"/>
</g>
<!-- 3269 -->
<g id="node7" class="node">
<title>3269</title>
<ellipse fill="white" stroke="black" cx="87" cy="-261.44" rx="25" ry="25"/>
<text text-anchor="middle" x="87" y="-259.24" font-family="Times,serif" font-size="9.00">3269</text>
</g>
<!-- &#45;4&#45;&gt;3269 -->
<g id="edge5" class="edge">
<title>&#45;4&#45;&gt;3269</title>
<path fill="none" stroke="red" stroke-width="0.29" d="M109.92,-322.15C107.22,-315.12 103.12,-304.44 99.12,-294.04"/>
<polygon fill="red" stroke="red" stroke-width="0.29" points="102.38,-292.76 95.53,-284.68 95.85,-295.27 102.38,-292.76"/>
</g>
<!-- &#45;5 -->
<g id="node5" class="node">
<title>&#45;5</title>
<polygon fill="lightgray" stroke="black" points="167,-340.19 143,-340.19 143,-322.19 167,-322.19 167,-340.19"/>
<text text-anchor="middle" x="155" y="-328.99" font-family="Times,serif" font-size="9.00">&#45;5</text>
</g>
<!-- 3269&#45;&gt;2899 -->
<g id="edge8" class="edge">
<title>3269&#45;&gt;2899</title>
<path fill="none" stroke="green" stroke-width="0.2" stroke-dasharray="1,5" d="M87,-236.29C87,-228.35 87,-219.36 87,-210.83"/>
<polygon fill="green" stroke="green" stroke-width="0.2" points="90.5,-210.75 87,-200.75 83.5,-210.75 90.5,-210.75"/>
</g>
<!-- 9&#45;&gt;0 -->
<g id="edge4" class="edge">
<title>9&#45;&gt;0</title>
<path fill="none" stroke="green" stroke-width="2" d="M173.27,-79.21C162.11,-67.48 143.62,-48.04 130.05,-33.78"/>
<polygon fill="green" stroke="green" stroke-width="2" points="132.53,-31.31 123.1,-26.47 127.46,-36.13 132.53,-31.31"/>
</g>
<!-- 2899&#45;&gt;3423 -->
<g id="edge9" class="edge">
<title>2899&#45;&gt;3423</title>
<path fill="none" stroke="green" stroke-width="0.44" d="M87,-150.79C87,-142.85 87,-133.87 87,-125.33"/>
<polygon fill="green" stroke="green" stroke-width="0.44" points="90.5,-125.26 87,-115.26 83.5,-125.26 90.5,-125.26"/>
</g>
<!-- 3423&#45;&gt;0 -->
<g id="edge7" class="edge">
<title>3423&#45;&gt;0</title>
<path fill="none" stroke="red" stroke-width="0.35" d="M94.94,-66.97C98.11,-58 101.75,-47.68 104.93,-38.68"/>
<polygon fill="red" stroke="red" stroke-width="0.35" points="108.25,-39.81 108.28,-29.21 101.65,-37.48 108.25,-39.81"/>
</g>
</g>
</svg>
