<?xml version="1.0" encoding="utf-8" standalone="no"?>
<!DOCTYPE svg PUBLIC "-//W3C//DTD SVG 1.1//EN"
  "http://www.w3.org/Graphics/SVG/1.1/DTD/svg11.dtd">
<!-- Created with matplotlib (https://matplotlib.org/) -->
<svg height="345.6pt" version="1.1" viewBox="0 0 460.8 345.6" width="460.8pt" xmlns="http://www.w3.org/2000/svg" xmlns:xlink="http://www.w3.org/1999/xlink">
 <metadata>
  <rdf:RDF xmlns:cc="http://creativecommons.org/ns#" xmlns:dc="http://purl.org/dc/elements/1.1/" xmlns:rdf="http://www.w3.org/1999/02/22-rdf-syntax-ns#">
   <cc:Work>
    <dc:type rdf:resource="http://purl.org/dc/dcmitype/StillImage"/>
    <dc:date>2022-04-13T19:40:26.004405</dc:date>
    <dc:format>image/svg+xml</dc:format>
    <dc:creator>
     <cc:Agent>
      <dc:title>Matplotlib v3.3.4, https://matplotlib.org/</dc:title>
     </cc:Agent>
    </dc:creator>
   </cc:Work>
  </rdf:RDF>
 </metadata>
 <defs>
  <style type="text/css">*{stroke-linecap:butt;stroke-linejoin:round;}</style>
 </defs>
 <g id="figure_1">
  <g id="patch_1">
   <path d="M 0 345.6 
L 460.8 345.6 
L 460.8 0 
L 0 0 
z
" style="fill:#ffffff;"/>
  </g>
  <g id="axes_1">
   <g id="patch_2">
    <path d="M 57.6 307.584 
L 414.72 307.584 
L 414.72 41.472 
L 57.6 41.472 
z
" style="fill:#ffffff;"/>
   </g>
   <g id="matplotlib.axis_1">
    <g id="xtick_1">
     <g id="line2d_1">
      <path clip-path="url(#p2ae9f3b265)" d="M 73.832727 307.584 
L 73.832727 41.472 
" style="fill:none;stroke:#b0b0b0;stroke-linecap:square;stroke-width:0.8;"/>
     </g>
     <g id="line2d_2">
      <defs>
       <path d="M 0 0 
L 0 3.5 
" id="me27c4079c8" style="stroke:#000000;stroke-width:0.8;"/>
      </defs>
      <g>
       <use style="stroke:#000000;stroke-width:0.8;" x="73.832727" xlink:href="#me27c4079c8" y="307.584"/>
      </g>
     </g>
     <g id="text_1">
      <!-- 0 -->
      <g transform="translate(70.651477 322.182437)scale(0.1 -0.1)">
       <defs>
        <path d="M 31.78125 66.40625 
Q 24.171875 66.40625 20.328125 58.90625 
Q 16.5 51.421875 16.5 36.375 
Q 16.5 21.390625 20.328125 13.890625 
Q 24.171875 6.390625 31.78125 6.390625 
Q 39.453125 6.390625 43.28125 13.890625 
Q 47.125 21.390625 47.125 36.375 
Q 47.125 51.421875 43.28125 58.90625 
Q 39.453125 66.40625 31.78125 66.40625 
z
M 31.78125 74.21875 
Q 44.046875 74.21875 50.515625 64.515625 
Q 56.984375 54.828125 56.984375 36.375 
Q 56.984375 17.96875 50.515625 8.265625 
Q 44.046875 -1.421875 31.78125 -1.421875 
Q 19.53125 -1.421875 13.0625 8.265625 
Q 6.59375 17.96875 6.59375 36.375 
Q 6.59375 54.828125 13.0625 64.515625 
Q 19.53125 74.21875 31.78125 74.21875 
z
" id="DejaVuSans-48"/>
       </defs>
       <use xlink:href="#DejaVuSans-48"/>
      </g>
     </g>
    </g>
    <g id="xtick_2">
     <g id="line2d_3">
      <path clip-path="url(#p2ae9f3b265)" d="M 128.122785 307.584 
L 128.122785 41.472 
" style="fill:none;stroke:#b0b0b0;stroke-linecap:square;stroke-width:0.8;"/>
     </g>
     <g id="line2d_4">
      <g>
       <use style="stroke:#000000;stroke-width:0.8;" x="128.122785" xlink:href="#me27c4079c8" y="307.584"/>
      </g>
     </g>
     <g id="text_2">
      <!-- 50 -->
      <g transform="translate(121.760285 322.182437)scale(0.1 -0.1)">
       <defs>
        <path d="M 10.796875 72.90625 
L 49.515625 72.90625 
L 49.515625 64.59375 
L 19.828125 64.59375 
L 19.828125 46.734375 
Q 21.96875 47.46875 24.109375 47.828125 
Q 26.265625 48.1875 28.421875 48.1875 
Q 40.625 48.1875 47.75 41.5 
Q 54.890625 34.8125 54.890625 23.390625 
Q 54.890625 11.625 47.5625 5.09375 
Q 40.234375 -1.421875 26.90625 -1.421875 
Q 22.3125 -1.421875 17.546875 -0.640625 
Q 12.796875 0.140625 7.71875 1.703125 
L 7.71875 11.625 
Q 12.109375 9.234375 16.796875 8.0625 
Q 21.484375 6.890625 26.703125 6.890625 
Q 35.15625 6.890625 40.078125 11.328125 
Q 45.015625 15.765625 45.015625 23.390625 
Q 45.015625 31 40.078125 35.4375 
Q 35.15625 39.890625 26.703125 39.890625 
Q 22.75 39.890625 18.8125 39.015625 
Q 14.890625 38.140625 10.796875 36.28125 
z
" id="DejaVuSans-53"/>
       </defs>
       <use xlink:href="#DejaVuSans-53"/>
       <use x="63.623047" xlink:href="#DejaVuSans-48"/>
      </g>
     </g>
    </g>
    <g id="xtick_3">
     <g id="line2d_5">
      <path clip-path="url(#p2ae9f3b265)" d="M 182.412843 307.584 
L 182.412843 41.472 
" style="fill:none;stroke:#b0b0b0;stroke-linecap:square;stroke-width:0.8;"/>
     </g>
     <g id="line2d_6">
      <g>
       <use style="stroke:#000000;stroke-width:0.8;" x="182.412843" xlink:href="#me27c4079c8" y="307.584"/>
      </g>
     </g>
     <g id="text_3">
      <!-- 100 -->
      <g transform="translate(172.869093 322.182437)scale(0.1 -0.1)">
       <defs>
        <path d="M 12.40625 8.296875 
L 28.515625 8.296875 
L 28.515625 63.921875 
L 10.984375 60.40625 
L 10.984375 69.390625 
L 28.421875 72.90625 
L 38.28125 72.90625 
L 38.28125 8.296875 
L 54.390625 8.296875 
L 54.390625 0 
L 12.40625 0 
z
" id="DejaVuSans-49"/>
       </defs>
       <use xlink:href="#DejaVuSans-49"/>
       <use x="63.623047" xlink:href="#DejaVuSans-48"/>
       <use x="127.246094" xlink:href="#DejaVuSans-48"/>
      </g>
     </g>
    </g>
    <g id="xtick_4">
     <g id="line2d_7">
      <path clip-path="url(#p2ae9f3b265)" d="M 236.702901 307.584 
L 236.702901 41.472 
" style="fill:none;stroke:#b0b0b0;stroke-linecap:square;stroke-width:0.8;"/>
     </g>
     <g id="line2d_8">
      <g>
       <use style="stroke:#000000;stroke-width:0.8;" x="236.702901" xlink:href="#me27c4079c8" y="307.584"/>
      </g>
     </g>
     <g id="text_4">
      <!-- 150 -->
      <g transform="translate(227.159151 322.182437)scale(0.1 -0.1)">
       <use xlink:href="#DejaVuSans-49"/>
       <use x="63.623047" xlink:href="#DejaVuSans-53"/>
       <use x="127.246094" xlink:href="#DejaVuSans-48"/>
      </g>
     </g>
    </g>
    <g id="xtick_5">
     <g id="line2d_9">
      <path clip-path="url(#p2ae9f3b265)" d="M 290.992958 307.584 
L 290.992958 41.472 
" style="fill:none;stroke:#b0b0b0;stroke-linecap:square;stroke-width:0.8;"/>
     </g>
     <g id="line2d_10">
      <g>
       <use style="stroke:#000000;stroke-width:0.8;" x="290.992958" xlink:href="#me27c4079c8" y="307.584"/>
      </g>
     </g>
     <g id="text_5">
      <!-- 200 -->
      <g transform="translate(281.449208 322.182437)scale(0.1 -0.1)">
       <defs>
        <path d="M 19.1875 8.296875 
L 53.609375 8.296875 
L 53.609375 0 
L 7.328125 0 
L 7.328125 8.296875 
Q 12.9375 14.109375 22.625 23.890625 
Q 32.328125 33.6875 34.8125 36.53125 
Q 39.546875 41.84375 41.421875 45.53125 
Q 43.3125 49.21875 43.3125 52.78125 
Q 43.3125 58.59375 39.234375 62.25 
Q 35.15625 65.921875 28.609375 65.921875 
Q 23.96875 65.921875 18.8125 64.3125 
Q 13.671875 62.703125 7.8125 59.421875 
L 7.8125 69.390625 
Q 13.765625 71.78125 18.9375 73 
Q 24.125 74.21875 28.421875 74.21875 
Q 39.75 74.21875 46.484375 68.546875 
Q 53.21875 62.890625 53.21875 53.421875 
Q 53.21875 48.921875 51.53125 44.890625 
Q 49.859375 40.875 45.40625 35.40625 
Q 44.1875 33.984375 37.640625 27.21875 
Q 31.109375 20.453125 19.1875 8.296875 
z
" id="DejaVuSans-50"/>
       </defs>
       <use xlink:href="#DejaVuSans-50"/>
       <use x="63.623047" xlink:href="#DejaVuSans-48"/>
       <use x="127.246094" xlink:href="#DejaVuSans-48"/>
      </g>
     </g>
    </g>
    <g id="xtick_6">
     <g id="line2d_11">
      <path clip-path="url(#p2ae9f3b265)" d="M 345.283016 307.584 
L 345.283016 41.472 
" style="fill:none;stroke:#b0b0b0;stroke-linecap:square;stroke-width:0.8;"/>
     </g>
     <g id="line2d_12">
      <g>
       <use style="stroke:#000000;stroke-width:0.8;" x="345.283016" xlink:href="#me27c4079c8" y="307.584"/>
      </g>
     </g>
     <g id="text_6">
      <!-- 250 -->
      <g transform="translate(335.739266 322.182437)scale(0.1 -0.1)">
       <use xlink:href="#DejaVuSans-50"/>
       <use x="63.623047" xlink:href="#DejaVuSans-53"/>
       <use x="127.246094" xlink:href="#DejaVuSans-48"/>
      </g>
     </g>
    </g>
    <g id="xtick_7">
     <g id="line2d_13">
      <path clip-path="url(#p2ae9f3b265)" d="M 399.573074 307.584 
L 399.573074 41.472 
" style="fill:none;stroke:#b0b0b0;stroke-linecap:square;stroke-width:0.8;"/>
     </g>
     <g id="line2d_14">
      <g>
       <use style="stroke:#000000;stroke-width:0.8;" x="399.573074" xlink:href="#me27c4079c8" y="307.584"/>
      </g>
     </g>
     <g id="text_7">
      <!-- 300 -->
      <g transform="translate(390.029324 322.182437)scale(0.1 -0.1)">
       <defs>
        <path d="M 40.578125 39.3125 
Q 47.65625 37.796875 51.625 33 
Q 55.609375 28.21875 55.609375 21.1875 
Q 55.609375 10.40625 48.1875 4.484375 
Q 40.765625 -1.421875 27.09375 -1.421875 
Q 22.515625 -1.421875 17.65625 -0.515625 
Q 12.796875 0.390625 7.625 2.203125 
L 7.625 11.71875 
Q 11.71875 9.328125 16.59375 8.109375 
Q 21.484375 6.890625 26.8125 6.890625 
Q 36.078125 6.890625 40.9375 10.546875 
Q 45.796875 14.203125 45.796875 21.1875 
Q 45.796875 27.640625 41.28125 31.265625 
Q 36.765625 34.90625 28.71875 34.90625 
L 20.21875 34.90625 
L 20.21875 43.015625 
L 29.109375 43.015625 
Q 36.375 43.015625 40.234375 45.921875 
Q 44.09375 48.828125 44.09375 54.296875 
Q 44.09375 59.90625 40.109375 62.90625 
Q 36.140625 65.921875 28.71875 65.921875 
Q 24.65625 65.921875 20.015625 65.03125 
Q 15.375 64.15625 9.8125 62.3125 
L 9.8125 71.09375 
Q 15.4375 72.65625 20.34375 73.4375 
Q 25.25 74.21875 29.59375 74.21875 
Q 40.828125 74.21875 47.359375 69.109375 
Q 53.90625 64.015625 53.90625 55.328125 
Q 53.90625 49.265625 50.4375 45.09375 
Q 46.96875 40.921875 40.578125 39.3125 
z
" id="DejaVuSans-51"/>
       </defs>
       <use xlink:href="#DejaVuSans-51"/>
       <use x="63.623047" xlink:href="#DejaVuSans-48"/>
       <use x="127.246094" xlink:href="#DejaVuSans-48"/>
      </g>
     </g>
    </g>
    <g id="text_8">
     <!-- Generations -->
     <g transform="translate(205.662344 335.860562)scale(0.1 -0.1)">
      <defs>
       <path d="M 59.515625 10.40625 
L 59.515625 29.984375 
L 43.40625 29.984375 
L 43.40625 38.09375 
L 69.28125 38.09375 
L 69.28125 6.78125 
Q 63.578125 2.734375 56.6875 0.65625 
Q 49.8125 -1.421875 42 -1.421875 
Q 24.90625 -1.421875 15.25 8.5625 
Q 5.609375 18.5625 5.609375 36.375 
Q 5.609375 54.25 15.25 64.234375 
Q 24.90625 74.21875 42 74.21875 
Q 49.125 74.21875 55.546875 72.453125 
Q 61.96875 70.703125 67.390625 67.28125 
L 67.390625 56.78125 
Q 61.921875 61.421875 55.765625 63.765625 
Q 49.609375 66.109375 42.828125 66.109375 
Q 29.4375 66.109375 22.71875 58.640625 
Q 16.015625 51.171875 16.015625 36.375 
Q 16.015625 21.625 22.71875 14.15625 
Q 29.4375 6.6875 42.828125 6.6875 
Q 48.046875 6.6875 52.140625 7.59375 
Q 56.25 8.5 59.515625 10.40625 
z
" id="DejaVuSans-71"/>
       <path d="M 56.203125 29.59375 
L 56.203125 25.203125 
L 14.890625 25.203125 
Q 15.484375 15.921875 20.484375 11.0625 
Q 25.484375 6.203125 34.421875 6.203125 
Q 39.59375 6.203125 44.453125 7.46875 
Q 49.3125 8.734375 54.109375 11.28125 
L 54.109375 2.78125 
Q 49.265625 0.734375 44.1875 -0.34375 
Q 39.109375 -1.421875 33.890625 -1.421875 
Q 20.796875 -1.421875 13.15625 6.1875 
Q 5.515625 13.8125 5.515625 26.8125 
Q 5.515625 40.234375 12.765625 48.109375 
Q 20.015625 56 32.328125 56 
Q 43.359375 56 49.78125 48.890625 
Q 56.203125 41.796875 56.203125 29.59375 
z
M 47.21875 32.234375 
Q 47.125 39.59375 43.09375 43.984375 
Q 39.0625 48.390625 32.421875 48.390625 
Q 24.90625 48.390625 20.390625 44.140625 
Q 15.875 39.890625 15.1875 32.171875 
z
" id="DejaVuSans-101"/>
       <path d="M 54.890625 33.015625 
L 54.890625 0 
L 45.90625 0 
L 45.90625 32.71875 
Q 45.90625 40.484375 42.875 44.328125 
Q 39.84375 48.1875 33.796875 48.1875 
Q 26.515625 48.1875 22.3125 43.546875 
Q 18.109375 38.921875 18.109375 30.90625 
L 18.109375 0 
L 9.078125 0 
L 9.078125 54.6875 
L 18.109375 54.6875 
L 18.109375 46.1875 
Q 21.34375 51.125 25.703125 53.5625 
Q 30.078125 56 35.796875 56 
Q 45.21875 56 50.046875 50.171875 
Q 54.890625 44.34375 54.890625 33.015625 
z
" id="DejaVuSans-110"/>
       <path d="M 41.109375 46.296875 
Q 39.59375 47.171875 37.8125 47.578125 
Q 36.03125 48 33.890625 48 
Q 26.265625 48 22.1875 43.046875 
Q 18.109375 38.09375 18.109375 28.8125 
L 18.109375 0 
L 9.078125 0 
L 9.078125 54.6875 
L 18.109375 54.6875 
L 18.109375 46.1875 
Q 20.953125 51.171875 25.484375 53.578125 
Q 30.03125 56 36.53125 56 
Q 37.453125 56 38.578125 55.875 
Q 39.703125 55.765625 41.0625 55.515625 
z
" id="DejaVuSans-114"/>
       <path d="M 34.28125 27.484375 
Q 23.390625 27.484375 19.1875 25 
Q 14.984375 22.515625 14.984375 16.5 
Q 14.984375 11.71875 18.140625 8.90625 
Q 21.296875 6.109375 26.703125 6.109375 
Q 34.1875 6.109375 38.703125 11.40625 
Q 43.21875 16.703125 43.21875 25.484375 
L 43.21875 27.484375 
z
M 52.203125 31.203125 
L 52.203125 0 
L 43.21875 0 
L 43.21875 8.296875 
Q 40.140625 3.328125 35.546875 0.953125 
Q 30.953125 -1.421875 24.3125 -1.421875 
Q 15.921875 -1.421875 10.953125 3.296875 
Q 6 8.015625 6 15.921875 
Q 6 25.140625 12.171875 29.828125 
Q 18.359375 34.515625 30.609375 34.515625 
L 43.21875 34.515625 
L 43.21875 35.40625 
Q 43.21875 41.609375 39.140625 45 
Q 35.0625 48.390625 27.6875 48.390625 
Q 23 48.390625 18.546875 47.265625 
Q 14.109375 46.140625 10.015625 43.890625 
L 10.015625 52.203125 
Q 14.9375 54.109375 19.578125 55.046875 
Q 24.21875 56 28.609375 56 
Q 40.484375 56 46.34375 49.84375 
Q 52.203125 43.703125 52.203125 31.203125 
z
" id="DejaVuSans-97"/>
       <path d="M 18.3125 70.21875 
L 18.3125 54.6875 
L 36.8125 54.6875 
L 36.8125 47.703125 
L 18.3125 47.703125 
L 18.3125 18.015625 
Q 18.3125 11.328125 20.140625 9.421875 
Q 21.96875 7.515625 27.59375 7.515625 
L 36.8125 7.515625 
L 36.8125 0 
L 27.59375 0 
Q 17.1875 0 13.234375 3.875 
Q 9.28125 7.765625 9.28125 18.015625 
L 9.28125 47.703125 
L 2.6875 47.703125 
L 2.6875 54.6875 
L 9.28125 54.6875 
L 9.28125 70.21875 
z
" id="DejaVuSans-116"/>
       <path d="M 9.421875 54.6875 
L 18.40625 54.6875 
L 18.40625 0 
L 9.421875 0 
z
M 9.421875 75.984375 
L 18.40625 75.984375 
L 18.40625 64.59375 
L 9.421875 64.59375 
z
" id="DejaVuSans-105"/>
       <path d="M 30.609375 48.390625 
Q 23.390625 48.390625 19.1875 42.75 
Q 14.984375 37.109375 14.984375 27.296875 
Q 14.984375 17.484375 19.15625 11.84375 
Q 23.34375 6.203125 30.609375 6.203125 
Q 37.796875 6.203125 41.984375 11.859375 
Q 46.1875 17.53125 46.1875 27.296875 
Q 46.1875 37.015625 41.984375 42.703125 
Q 37.796875 48.390625 30.609375 48.390625 
z
M 30.609375 56 
Q 42.328125 56 49.015625 48.375 
Q 55.71875 40.765625 55.71875 27.296875 
Q 55.71875 13.875 49.015625 6.21875 
Q 42.328125 -1.421875 30.609375 -1.421875 
Q 18.84375 -1.421875 12.171875 6.21875 
Q 5.515625 13.875 5.515625 27.296875 
Q 5.515625 40.765625 12.171875 48.375 
Q 18.84375 56 30.609375 56 
z
" id="DejaVuSans-111"/>
       <path d="M 44.28125 53.078125 
L 44.28125 44.578125 
Q 40.484375 46.53125 36.375 47.5 
Q 32.28125 48.484375 27.875 48.484375 
Q 21.1875 48.484375 17.84375 46.4375 
Q 14.5 44.390625 14.5 40.28125 
Q 14.5 37.15625 16.890625 35.375 
Q 19.28125 33.59375 26.515625 31.984375 
L 29.59375 31.296875 
Q 39.15625 29.25 43.1875 25.515625 
Q 47.21875 21.78125 47.21875 15.09375 
Q 47.21875 7.46875 41.1875 3.015625 
Q 35.15625 -1.421875 24.609375 -1.421875 
Q 20.21875 -1.421875 15.453125 -0.5625 
Q 10.6875 0.296875 5.421875 2 
L 5.421875 11.28125 
Q 10.40625 8.6875 15.234375 7.390625 
Q 20.0625 6.109375 24.8125 6.109375 
Q 31.15625 6.109375 34.5625 8.28125 
Q 37.984375 10.453125 37.984375 14.40625 
Q 37.984375 18.0625 35.515625 20.015625 
Q 33.0625 21.96875 24.703125 23.78125 
L 21.578125 24.515625 
Q 13.234375 26.265625 9.515625 29.90625 
Q 5.8125 33.546875 5.8125 39.890625 
Q 5.8125 47.609375 11.28125 51.796875 
Q 16.75 56 26.8125 56 
Q 31.78125 56 36.171875 55.265625 
Q 40.578125 54.546875 44.28125 53.078125 
z
" id="DejaVuSans-115"/>
      </defs>
      <use xlink:href="#DejaVuSans-71"/>
      <use x="77.490234" xlink:href="#DejaVuSans-101"/>
      <use x="139.013672" xlink:href="#DejaVuSans-110"/>
      <use x="202.392578" xlink:href="#DejaVuSans-101"/>
      <use x="263.916016" xlink:href="#DejaVuSans-114"/>
      <use x="305.029297" xlink:href="#DejaVuSans-97"/>
      <use x="366.308594" xlink:href="#DejaVuSans-116"/>
      <use x="405.517578" xlink:href="#DejaVuSans-105"/>
      <use x="433.300781" xlink:href="#DejaVuSans-111"/>
      <use x="494.482422" xlink:href="#DejaVuSans-110"/>
      <use x="557.861328" xlink:href="#DejaVuSans-115"/>
     </g>
    </g>
   </g>
   <g id="matplotlib.axis_2">
    <g id="ytick_1">
     <g id="line2d_15">
      <path clip-path="url(#p2ae9f3b265)" d="M 57.6 262.095605 
L 414.72 262.095605 
" style="fill:none;stroke:#b0b0b0;stroke-linecap:square;stroke-width:0.8;"/>
     </g>
     <g id="line2d_16">
      <defs>
       <path d="M 0 0 
L -3.5 0 
" id="m31dffe3793" style="stroke:#000000;stroke-width:0.8;"/>
      </defs>
      <g>
       <use style="stroke:#000000;stroke-width:0.8;" x="57.6" xlink:href="#m31dffe3793" y="262.095605"/>
      </g>
     </g>
     <g id="text_9">
      <!-- −400 -->
      <g transform="translate(23.132812 265.894824)scale(0.1 -0.1)">
       <defs>
        <path d="M 10.59375 35.5 
L 73.1875 35.5 
L 73.1875 27.203125 
L 10.59375 27.203125 
z
" id="DejaVuSans-8722"/>
        <path d="M 37.796875 64.3125 
L 12.890625 25.390625 
L 37.796875 25.390625 
z
M 35.203125 72.90625 
L 47.609375 72.90625 
L 47.609375 25.390625 
L 58.015625 25.390625 
L 58.015625 17.1875 
L 47.609375 17.1875 
L 47.609375 0 
L 37.796875 0 
L 37.796875 17.1875 
L 4.890625 17.1875 
L 4.890625 26.703125 
z
" id="DejaVuSans-52"/>
       </defs>
       <use xlink:href="#DejaVuSans-8722"/>
       <use x="83.789062" xlink:href="#DejaVuSans-52"/>
       <use x="147.412109" xlink:href="#DejaVuSans-48"/>
       <use x="211.035156" xlink:href="#DejaVuSans-48"/>
      </g>
     </g>
    </g>
    <g id="ytick_2">
     <g id="line2d_17">
      <path clip-path="url(#p2ae9f3b265)" d="M 57.6 211.14071 
L 414.72 211.14071 
" style="fill:none;stroke:#b0b0b0;stroke-linecap:square;stroke-width:0.8;"/>
     </g>
     <g id="line2d_18">
      <g>
       <use style="stroke:#000000;stroke-width:0.8;" x="57.6" xlink:href="#m31dffe3793" y="211.14071"/>
      </g>
     </g>
     <g id="text_10">
      <!-- −300 -->
      <g transform="translate(23.132812 214.939928)scale(0.1 -0.1)">
       <use xlink:href="#DejaVuSans-8722"/>
       <use x="83.789062" xlink:href="#DejaVuSans-51"/>
       <use x="147.412109" xlink:href="#DejaVuSans-48"/>
       <use x="211.035156" xlink:href="#DejaVuSans-48"/>
      </g>
     </g>
    </g>
    <g id="ytick_3">
     <g id="line2d_19">
      <path clip-path="url(#p2ae9f3b265)" d="M 57.6 160.185814 
L 414.72 160.185814 
" style="fill:none;stroke:#b0b0b0;stroke-linecap:square;stroke-width:0.8;"/>
     </g>
     <g id="line2d_20">
      <g>
       <use style="stroke:#000000;stroke-width:0.8;" x="57.6" xlink:href="#m31dffe3793" y="160.185814"/>
      </g>
     </g>
     <g id="text_11">
      <!-- −200 -->
      <g transform="translate(23.132812 163.985033)scale(0.1 -0.1)">
       <use xlink:href="#DejaVuSans-8722"/>
       <use x="83.789062" xlink:href="#DejaVuSans-50"/>
       <use x="147.412109" xlink:href="#DejaVuSans-48"/>
       <use x="211.035156" xlink:href="#DejaVuSans-48"/>
      </g>
     </g>
    </g>
    <g id="ytick_4">
     <g id="line2d_21">
      <path clip-path="url(#p2ae9f3b265)" d="M 57.6 109.230919 
L 414.72 109.230919 
" style="fill:none;stroke:#b0b0b0;stroke-linecap:square;stroke-width:0.8;"/>
     </g>
     <g id="line2d_22">
      <g>
       <use style="stroke:#000000;stroke-width:0.8;" x="57.6" xlink:href="#m31dffe3793" y="109.230919"/>
      </g>
     </g>
     <g id="text_12">
      <!-- −100 -->
      <g transform="translate(23.132812 113.030138)scale(0.1 -0.1)">
       <use xlink:href="#DejaVuSans-8722"/>
       <use x="83.789062" xlink:href="#DejaVuSans-49"/>
       <use x="147.412109" xlink:href="#DejaVuSans-48"/>
       <use x="211.035156" xlink:href="#DejaVuSans-48"/>
      </g>
     </g>
    </g>
    <g id="ytick_5">
     <g id="line2d_23">
      <path clip-path="url(#p2ae9f3b265)" d="M 57.6 58.276024 
L 414.72 58.276024 
" style="fill:none;stroke:#b0b0b0;stroke-linecap:square;stroke-width:0.8;"/>
     </g>
     <g id="line2d_24">
      <g>
       <use style="stroke:#000000;stroke-width:0.8;" x="57.6" xlink:href="#m31dffe3793" y="58.276024"/>
      </g>
     </g>
     <g id="text_13">
      <!-- 0 -->
      <g transform="translate(44.2375 62.075243)scale(0.1 -0.1)">
       <use xlink:href="#DejaVuSans-48"/>
      </g>
     </g>
    </g>
    <g id="text_14">
     <!-- Fitness -->
     <g transform="translate(17.053125 191.845187)rotate(-90)scale(0.1 -0.1)">
      <defs>
       <path d="M 9.8125 72.90625 
L 51.703125 72.90625 
L 51.703125 64.59375 
L 19.671875 64.59375 
L 19.671875 43.109375 
L 48.578125 43.109375 
L 48.578125 34.8125 
L 19.671875 34.8125 
L 19.671875 0 
L 9.8125 0 
z
" id="DejaVuSans-70"/>
      </defs>
      <use xlink:href="#DejaVuSans-70"/>
      <use x="50.269531" xlink:href="#DejaVuSans-105"/>
      <use x="78.052734" xlink:href="#DejaVuSans-116"/>
      <use x="117.261719" xlink:href="#DejaVuSans-110"/>
      <use x="180.640625" xlink:href="#DejaVuSans-101"/>
      <use x="242.164062" xlink:href="#DejaVuSans-115"/>
      <use x="294.263672" xlink:href="#DejaVuSans-115"/>
     </g>
    </g>
   </g>
   <g id="line2d_25">
    <path clip-path="url(#p2ae9f3b265)" d="M 73.832727 222.120283 
L 74.918528 155.93564 
L 77.090131 128.53123 
L 78.175932 124.274772 
L 79.261733 138.200428 
L 80.347534 136.938483 
L 81.433335 149.440397 
L 82.519137 142.404968 
L 83.604938 131.470299 
L 84.690739 135.234345 
L 85.77654 146.820637 
L 86.862341 146.791194 
L 87.948142 153.110719 
L 89.033943 161.049472 
L 90.119745 153.681016 
L 91.205546 147.271808 
L 92.291347 144.197794 
L 93.377148 147.484314 
L 94.462949 134.382307 
L 95.54875 128.665291 
L 96.634552 131.868561 
L 97.720353 127.438259 
L 98.806154 116.870972 
L 99.891955 126.486187 
L 100.977756 122.341911 
L 102.063557 134.645553 
L 103.149358 129.613268 
L 104.23516 133.197422 
L 105.320961 126.959162 
L 106.406762 125.580171 
L 107.492563 129.033894 
L 108.578364 131.511458 
L 109.664165 129.48711 
L 110.749967 129.761289 
L 111.835768 145.310229 
L 112.921569 132.978802 
L 114.00737 137.96855 
L 115.093171 124.086251 
L 116.178972 131.209145 
L 117.264773 136.878262 
L 118.350575 129.42665 
L 119.436376 127.237138 
L 120.522177 127.947377 
L 121.607978 130.450268 
L 122.693779 129.556298 
L 124.865382 136.678706 
L 125.951183 124.166015 
L 127.036984 140.272443 
L 128.122785 125.54237 
L 129.208586 132.271908 
L 130.294387 124.81922 
L 131.380189 135.742458 
L 132.46599 150.008508 
L 133.551791 138.724702 
L 134.637592 134.804017 
L 135.723393 133.717149 
L 136.809194 144.310091 
L 137.894995 136.947972 
L 138.980797 137.804267 
L 140.066598 141.678734 
L 141.152399 140.466834 
L 142.2382 144.154901 
L 143.324001 137.40342 
L 144.409802 138.294201 
L 145.495604 142.788393 
L 146.581405 135.153747 
L 147.667206 130.729813 
L 148.753007 120.440808 
L 149.838808 135.991127 
L 150.924609 135.623504 
L 152.01041 126.267972 
L 153.096212 130.645815 
L 154.182013 131.288133 
L 155.267814 129.270517 
L 156.353615 124.91359 
L 157.439416 130.42859 
L 158.525217 132.638044 
L 160.69682 133.212901 
L 161.782621 126.964818 
L 162.868422 125.350741 
L 163.954223 128.598322 
L 165.040024 137.248361 
L 166.125825 134.721285 
L 167.211627 138.106777 
L 168.297428 143.344034 
L 169.383229 130.982687 
L 170.46903 140.715069 
L 171.554831 139.716523 
L 172.640632 137.077778 
L 173.726434 133.001871 
L 174.812235 136.375612 
L 175.898036 141.303886 
L 176.983837 118.742332 
L 178.069638 124.922309 
L 179.155439 119.427508 
L 180.24124 142.067606 
L 181.327042 127.085525 
L 182.412843 135.242511 
L 183.498644 120.267579 
L 184.584445 131.63468 
L 185.670246 138.113709 
L 186.756047 120.671469 
L 188.92765 131.770356 
L 190.013451 115.079084 
L 191.099252 135.058486 
L 192.185053 119.23967 
L 193.270854 107.355027 
L 194.356656 112.79006 
L 195.442457 112.95081 
L 196.528258 115.609952 
L 197.614059 116.462146 
L 199.785661 134.598671 
L 200.871462 119.222627 
L 201.957264 119.085498 
L 203.043065 116.571263 
L 204.128866 116.514416 
L 205.214667 113.804308 
L 206.300468 115.239831 
L 207.386269 126.482847 
L 208.472071 115.094586 
L 209.557872 116.148817 
L 210.643673 117.378324 
L 211.729474 115.886716 
L 212.815275 121.779793 
L 213.901076 122.500505 
L 214.986877 108.970404 
L 217.15848 122.482517 
L 218.244281 114.702749 
L 219.330082 127.000995 
L 220.415883 120.195938 
L 221.501684 116.767242 
L 222.587486 120.942029 
L 223.673287 122.986115 
L 224.759088 116.139563 
L 225.844889 128.33418 
L 228.016491 114.779786 
L 229.102292 117.032069 
L 230.188094 120.951098 
L 231.273895 115.412777 
L 232.359696 115.890824 
L 233.445497 122.994855 
L 234.531298 118.282421 
L 235.617099 122.562023 
L 236.702901 124.587326 
L 237.788702 124.23196 
L 238.874503 110.602035 
L 239.960304 119.609431 
L 241.046105 115.785043 
L 242.131906 123.297729 
L 243.217708 128.989383 
L 244.303509 120.055666 
L 245.38931 123.171223 
L 246.475111 121.206502 
L 248.646713 126.73942 
L 249.732514 123.565477 
L 250.818316 125.962091 
L 251.904117 119.34633 
L 252.989918 114.541967 
L 254.075719 117.390707 
L 255.16152 115.30943 
L 256.247321 116.47734 
L 257.333123 118.820822 
L 258.418924 123.476806 
L 259.504725 124.67952 
L 260.590526 121.948935 
L 261.676327 123.188816 
L 262.762128 124.012436 
L 263.847929 129.464965 
L 264.933731 116.576817 
L 266.019532 121.259279 
L 267.105333 112.605711 
L 268.191134 124.148368 
L 269.276935 115.393561 
L 270.362736 113.795391 
L 271.448538 125.579747 
L 272.534339 126.981807 
L 273.62014 113.184797 
L 274.705941 111.322921 
L 275.791742 117.398239 
L 277.963344 120.830552 
L 280.134947 125.211124 
L 281.220748 125.136863 
L 282.306549 118.485662 
L 283.39235 116.310785 
L 284.478151 123.359079 
L 285.563953 123.106785 
L 286.649754 113.683209 
L 287.735555 117.041586 
L 288.821356 115.630488 
L 289.907157 124.105281 
L 290.992958 118.862774 
L 292.07876 123.077722 
L 293.164561 122.332128 
L 294.250362 115.664915 
L 295.336163 117.340132 
L 296.421964 122.927017 
L 297.507765 124.16107 
L 298.593566 115.292423 
L 299.679368 121.259022 
L 300.765169 119.136015 
L 301.85097 115.521798 
L 302.936771 114.408396 
L 304.022572 125.324121 
L 305.108373 110.950402 
L 306.194175 130.797658 
L 307.279976 112.236927 
L 308.365777 123.11826 
L 309.451578 124.806718 
L 310.537379 112.795721 
L 311.62318 127.294366 
L 312.708981 130.194143 
L 313.794783 117.089941 
L 314.880584 128.582149 
L 315.966385 115.462571 
L 317.052186 119.458963 
L 318.137987 114.026376 
L 319.223788 116.532329 
L 320.30959 122.163866 
L 321.395391 122.932651 
L 322.481192 117.413202 
L 323.566993 106.204862 
L 324.652794 119.726021 
L 325.738595 113.956222 
L 326.824396 118.103563 
L 327.910198 119.461781 
L 328.995999 111.253104 
L 330.0818 120.471931 
L 331.167601 119.510532 
L 332.253402 112.924653 
L 333.339203 112.937903 
L 334.425005 123.135667 
L 335.510806 110.996771 
L 337.682408 121.006716 
L 338.768209 116.284512 
L 339.85401 123.221044 
L 340.939811 114.842833 
L 342.025613 119.844288 
L 343.111414 129.79167 
L 344.197215 119.901702 
L 345.283016 111.446774 
L 346.368817 120.579476 
L 347.454618 117.689099 
L 348.54042 113.692024 
L 349.626221 116.026338 
L 350.712022 117.660985 
L 351.797823 107.459332 
L 352.883624 123.43276 
L 353.969425 109.012953 
L 356.141028 115.990714 
L 357.226829 112.189095 
L 358.31263 117.387529 
L 359.398431 115.272027 
L 360.484232 111.177472 
L 361.570033 113.432253 
L 362.655835 119.705064 
L 363.741636 114.895881 
L 364.827437 112.992825 
L 365.913238 105.323216 
L 366.999039 104.930527 
L 368.08484 109.924444 
L 370.256443 113.1305 
L 371.342244 105.500063 
L 372.428045 118.274707 
L 373.513846 116.555083 
L 375.685448 119.832283 
L 376.77125 104.549785 
L 377.857051 122.812367 
L 378.942852 109.020633 
L 380.028653 117.498445 
L 381.114454 118.822093 
L 382.200255 114.165475 
L 383.286057 114.523235 
L 384.371858 109.4436 
L 385.457659 113.692616 
L 386.54346 113.306561 
L 387.629261 118.01096 
L 388.715062 125.114324 
L 389.800863 119.960743 
L 390.886665 111.366361 
L 391.972466 109.320853 
L 393.058267 117.212057 
L 394.144068 106.289877 
L 395.229869 108.55338 
L 397.401472 121.070732 
L 398.487273 114.239744 
L 398.487273 114.239744 
" style="fill:none;stroke:#0000ff;stroke-linecap:square;stroke-width:1.5;"/>
   </g>
   <g id="line2d_26">
    <path clip-path="url(#p2ae9f3b265)" d="M 73.832727 295.488 
L 74.918528 209.324468 
L 76.00433 199.902174 
L 77.090131 174.405517 
L 78.175932 172.021254 
L 79.261733 196.128564 
L 80.347534 191.221025 
L 81.433335 214.752873 
L 82.519137 202.591182 
L 83.604938 187.068408 
L 84.690739 195.456738 
L 85.77654 212.72143 
L 86.862341 211.602091 
L 87.948142 221.749662 
L 89.033943 229.435645 
L 90.119745 223.227251 
L 91.205546 213.965125 
L 92.291347 214.508536 
L 93.377148 219.136537 
L 94.462949 195.124729 
L 95.54875 193.398307 
L 96.634552 194.198834 
L 97.720353 190.728869 
L 98.806154 168.322844 
L 99.891955 189.620822 
L 100.977756 182.540397 
L 102.063557 204.695536 
L 103.149358 187.962749 
L 104.23516 205.887407 
L 105.320961 187.348714 
L 106.406762 191.39168 
L 107.492563 188.50542 
L 108.578364 197.511042 
L 109.664165 191.361004 
L 110.749967 193.641121 
L 111.835768 217.558985 
L 112.921569 194.059282 
L 114.00737 201.423992 
L 115.093171 181.239763 
L 116.178972 192.800748 
L 117.264773 206.653058 
L 118.350575 188.009534 
L 119.436376 187.182831 
L 120.522177 194.582909 
L 121.607978 193.337158 
L 122.693779 189.86407 
L 123.77958 192.5157 
L 124.865382 208.321446 
L 125.951183 182.02008 
L 127.036984 210.1673 
L 128.122785 186.963223 
L 129.208586 194.274768 
L 130.294387 186.647235 
L 131.380189 197.918739 
L 132.46599 220.243798 
L 133.551791 207.08817 
L 134.637592 204.69028 
L 135.723393 198.003339 
L 136.809194 215.848215 
L 137.894995 202.55713 
L 138.980797 209.552735 
L 140.066598 208.78794 
L 141.152399 210.873615 
L 142.2382 214.733621 
L 143.324001 202.198486 
L 144.409802 207.048056 
L 145.495604 211.254486 
L 146.581405 205.745425 
L 147.667206 195.618516 
L 148.753007 176.503976 
L 149.838808 201.890608 
L 150.924609 204.450888 
L 152.01041 187.915423 
L 153.096212 194.911614 
L 154.182013 197.127854 
L 156.353615 182.268843 
L 157.439416 188.463083 
L 158.525217 198.869269 
L 159.611019 198.747544 
L 160.69682 200.007913 
L 161.782621 189.123266 
L 162.868422 188.996402 
L 163.954223 190.273517 
L 165.040024 203.713491 
L 166.125825 195.068109 
L 167.211627 205.207532 
L 168.297428 217.771935 
L 169.383229 198.509067 
L 170.46903 208.408242 
L 171.554831 205.877512 
L 172.640632 202.021939 
L 173.726434 198.64011 
L 174.812235 200.134488 
L 175.898036 210.697498 
L 176.983837 174.757803 
L 178.069638 185.855958 
L 179.155439 176.573376 
L 180.24124 210.788386 
L 181.327042 186.812044 
L 182.412843 200.373172 
L 183.498644 176.828712 
L 184.584445 198.146992 
L 185.670246 203.965702 
L 186.756047 183.593443 
L 187.841849 188.76327 
L 188.92765 198.476627 
L 190.013451 170.256013 
L 191.099252 204.706972 
L 192.185053 183.030751 
L 193.270854 157.830687 
L 194.356656 168.541802 
L 195.442457 169.653563 
L 196.528258 174.947039 
L 197.614059 177.953235 
L 198.69986 193.063969 
L 199.785661 204.976447 
L 200.871462 184.877255 
L 201.957264 183.229136 
L 203.043065 171.114027 
L 204.128866 175.881849 
L 205.214667 167.765572 
L 206.300468 171.259458 
L 207.386269 188.188097 
L 208.472071 170.216282 
L 209.557872 170.598975 
L 210.643673 176.553241 
L 211.729474 171.253576 
L 212.815275 181.054455 
L 213.901076 187.387557 
L 214.986877 158.829105 
L 216.072679 170.661161 
L 217.15848 185.735375 
L 218.244281 172.374461 
L 219.330082 192.129205 
L 221.501684 172.727125 
L 222.587486 184.452038 
L 223.673287 187.900505 
L 224.759088 173.340212 
L 225.844889 195.160891 
L 226.93069 180.836091 
L 228.016491 170.767948 
L 229.102292 177.118155 
L 230.188094 182.75355 
L 231.273895 173.272888 
L 232.359696 175.519979 
L 233.445497 187.083635 
L 234.531298 176.391143 
L 235.617099 184.25846 
L 236.702901 184.614245 
L 237.788702 187.804208 
L 238.874503 160.742744 
L 239.960304 184.248313 
L 241.046105 171.245906 
L 242.131906 190.066185 
L 243.217708 195.651711 
L 244.303509 179.682097 
L 245.38931 188.29347 
L 246.475111 185.612871 
L 247.560912 187.158391 
L 248.646713 191.707917 
L 249.732514 183.891156 
L 250.818316 193.45864 
L 251.904117 179.882677 
L 252.989918 169.430505 
L 254.075719 174.571753 
L 255.16152 173.95814 
L 256.247321 175.274233 
L 257.333123 178.657202 
L 258.418924 184.675831 
L 259.504725 184.182798 
L 260.590526 185.894844 
L 261.676327 186.147802 
L 262.762128 182.000335 
L 263.847929 190.965738 
L 264.933731 175.657709 
L 266.019532 182.372173 
L 267.105333 167.939848 
L 268.191134 186.005027 
L 269.276935 174.300148 
L 270.362736 171.975342 
L 271.448538 188.833393 
L 272.534339 192.06728 
L 273.62014 164.292416 
L 274.705941 162.514717 
L 275.791742 172.761191 
L 276.877543 178.528149 
L 277.963344 181.448197 
L 279.049146 185.053646 
L 281.220748 190.311582 
L 282.306549 178.08853 
L 283.39235 172.375344 
L 284.478151 188.056345 
L 285.563953 184.957549 
L 286.649754 168.570902 
L 287.735555 176.681139 
L 288.821356 171.17313 
L 289.907157 189.146224 
L 290.992958 178.627902 
L 292.07876 184.396131 
L 293.164561 182.959677 
L 294.250362 170.75321 
L 295.336163 177.807198 
L 296.421964 180.384348 
L 297.507765 185.874892 
L 298.593566 172.799265 
L 299.679368 185.88358 
L 300.765169 179.147368 
L 301.85097 171.285228 
L 302.936771 173.747883 
L 304.022572 191.743261 
L 305.108373 163.840393 
L 306.194175 197.00351 
L 307.279976 165.239711 
L 308.365777 187.246005 
L 309.451578 188.040406 
L 310.537379 165.398278 
L 311.62318 197.140497 
L 312.708981 190.830344 
L 313.794783 176.508554 
L 314.880584 191.178509 
L 315.966385 170.690588 
L 317.052186 177.038966 
L 318.137987 166.267955 
L 319.223788 175.26268 
L 320.30959 182.305896 
L 321.395391 187.075345 
L 322.481192 174.130059 
L 323.566993 156.66588 
L 324.652794 179.984693 
L 325.738595 166.626227 
L 326.824396 174.296403 
L 327.910198 178.62291 
L 328.995999 161.634744 
L 330.0818 178.636047 
L 331.167601 178.995895 
L 332.253402 167.250829 
L 333.339203 168.870401 
L 334.425005 186.415078 
L 335.510806 165.275624 
L 336.596607 172.553474 
L 337.682408 183.045397 
L 338.768209 174.211857 
L 339.85401 187.522229 
L 340.939811 172.386652 
L 342.025613 182.148095 
L 343.111414 199.597277 
L 344.197215 177.37042 
L 345.283016 165.22643 
L 346.368817 182.348744 
L 347.454618 175.133357 
L 348.54042 169.937533 
L 349.626221 175.231078 
L 350.712022 174.465317 
L 351.797823 154.599395 
L 352.883624 183.969928 
L 353.969425 157.13122 
L 355.055227 167.439214 
L 356.141028 175.413553 
L 357.226829 159.546277 
L 358.31263 171.996831 
L 359.398431 173.710549 
L 360.484232 158.403907 
L 361.570033 166.023657 
L 362.655835 178.674921 
L 363.741636 174.394196 
L 364.827437 169.063913 
L 365.913238 156.476201 
L 366.999039 151.318228 
L 368.08484 160.669553 
L 370.256443 168.711617 
L 371.342244 147.549331 
L 372.428045 176.820811 
L 373.513846 174.636308 
L 374.599647 177.019254 
L 375.685448 184.769666 
L 376.77125 150.065348 
L 377.857051 180.695388 
L 378.942852 158.475313 
L 380.028653 175.029573 
L 381.114454 181.21593 
L 382.200255 171.413392 
L 383.286057 171.956314 
L 384.371858 163.600465 
L 385.457659 167.78047 
L 386.54346 170.657203 
L 387.629261 176.973304 
L 388.715062 190.418241 
L 389.800863 180.498521 
L 390.886665 164.017875 
L 391.972466 156.490241 
L 393.058267 175.301489 
L 394.144068 149.330189 
L 395.229869 157.115368 
L 396.31567 171.414702 
L 397.401472 180.929331 
L 398.487273 170.636125 
L 398.487273 170.636125 
" style="fill:none;stroke:#008000;stroke-dasharray:9.6,2.4,1.5,2.4;stroke-dashoffset:0;stroke-width:1.5;"/>
   </g>
   <g id="line2d_27">
    <path clip-path="url(#p2ae9f3b265)" d="M 73.832727 148.752565 
L 74.918528 102.546813 
L 76.00433 84.028747 
L 77.090131 82.656942 
L 78.175932 76.52829 
L 79.261733 80.272293 
L 80.347534 82.655941 
L 81.433335 84.127921 
L 82.519137 82.218755 
L 83.604938 75.87219 
L 84.690739 75.011953 
L 85.77654 80.919844 
L 86.862341 81.980297 
L 87.948142 84.471777 
L 89.033943 92.6633 
L 90.119745 84.134782 
L 91.205546 80.57849 
L 92.291347 73.887051 
L 93.377148 75.832091 
L 94.462949 73.639885 
L 95.54875 63.932275 
L 96.634552 69.538289 
L 97.720353 64.147648 
L 98.806154 65.4191 
L 99.891955 63.351553 
L 100.977756 62.143425 
L 102.063557 64.595569 
L 103.149358 71.263788 
L 104.23516 60.507437 
L 105.320961 66.569611 
L 106.406762 59.768661 
L 107.492563 69.562369 
L 108.578364 65.511873 
L 109.664165 67.613216 
L 110.749967 65.881456 
L 111.835768 73.061474 
L 112.921569 71.898321 
L 114.00737 74.513108 
L 115.093171 66.932739 
L 116.178972 69.617542 
L 117.264773 67.103465 
L 118.350575 70.843766 
L 119.436376 67.291444 
L 120.522177 61.311845 
L 121.607978 67.563378 
L 122.693779 69.248526 
L 123.77958 74.111186 
L 124.865382 65.035966 
L 125.951183 66.311949 
L 127.036984 70.377587 
L 128.122785 64.121517 
L 129.208586 70.269047 
L 130.294387 62.991204 
L 131.380189 73.566178 
L 132.46599 79.773218 
L 133.551791 70.361234 
L 134.637592 64.917754 
L 135.723393 69.430959 
L 136.809194 72.771967 
L 137.894995 71.338813 
L 138.980797 66.055798 
L 140.066598 74.569527 
L 141.152399 70.060053 
L 142.2382 73.576181 
L 143.324001 72.608354 
L 144.409802 69.540346 
L 145.495604 74.322299 
L 146.581405 64.562069 
L 147.667206 65.841111 
L 148.753007 64.37764 
L 149.838808 70.091645 
L 150.924609 66.796121 
L 152.01041 64.620521 
L 153.096212 66.380016 
L 154.182013 65.448412 
L 155.267814 69.03148 
L 156.353615 67.558337 
L 157.439416 72.394098 
L 158.525217 66.406819 
L 159.611019 67.007556 
L 160.69682 66.417889 
L 161.782621 64.806371 
L 162.868422 61.705079 
L 163.954223 66.923126 
L 166.125825 74.37446 
L 167.211627 71.006022 
L 168.297428 68.916134 
L 169.383229 63.456307 
L 170.46903 73.021896 
L 171.554831 73.555535 
L 172.640632 72.133617 
L 173.726434 67.363633 
L 174.812235 72.616737 
L 175.898036 71.910274 
L 176.983837 62.726862 
L 178.069638 63.98866 
L 179.155439 62.281639 
L 180.24124 73.346826 
L 181.327042 67.359006 
L 182.412843 70.11185 
L 183.498644 63.706445 
L 184.584445 65.122367 
L 185.670246 72.261716 
L 186.756047 57.749495 
L 187.841849 63.669084 
L 188.92765 65.064085 
L 190.013451 59.902156 
L 191.099252 65.410001 
L 192.185053 55.448589 
L 193.270854 56.879368 
L 194.356656 57.038318 
L 195.442457 56.248057 
L 196.528258 56.272864 
L 197.614059 54.971058 
L 198.69986 58.691472 
L 199.785661 64.220896 
L 200.871462 53.568 
L 201.957264 54.941861 
L 203.043065 62.028499 
L 204.128866 57.146982 
L 205.214667 59.843044 
L 206.300468 59.220203 
L 207.386269 64.777596 
L 208.472071 59.97289 
L 209.557872 61.698658 
L 210.643673 58.203407 
L 211.729474 60.519856 
L 212.815275 62.505131 
L 213.901076 57.613454 
L 216.072679 60.701021 
L 217.15848 59.229658 
L 218.244281 57.031036 
L 219.330082 61.872784 
L 220.415883 58.336108 
L 221.501684 60.807358 
L 222.587486 57.43202 
L 223.673287 58.071726 
L 224.759088 58.938915 
L 225.844889 61.507469 
L 226.93069 62.439518 
L 228.016491 58.791623 
L 229.102292 56.945983 
L 230.188094 59.148645 
L 231.273895 57.552665 
L 232.359696 56.261669 
L 233.445497 58.906074 
L 234.531298 60.173699 
L 235.617099 60.865587 
L 236.702901 64.560406 
L 237.788702 60.659713 
L 238.874503 60.461326 
L 239.960304 54.970549 
L 241.046105 60.324181 
L 242.131906 56.529273 
L 243.217708 62.327055 
L 244.303509 60.429236 
L 245.38931 58.048975 
L 246.475111 56.800132 
L 247.560912 60.828684 
L 248.646713 61.770923 
L 249.732514 63.239798 
L 250.818316 58.465541 
L 251.904117 58.809982 
L 252.989918 59.65343 
L 254.075719 60.209661 
L 255.16152 56.660719 
L 256.247321 57.680448 
L 257.333123 58.984443 
L 258.418924 62.277782 
L 259.504725 65.176242 
L 260.590526 58.003025 
L 261.676327 60.229829 
L 262.762128 66.024538 
L 263.847929 67.964192 
L 264.933731 57.495926 
L 266.019532 60.146386 
L 267.105333 57.271573 
L 268.191134 62.29171 
L 269.276935 56.486974 
L 270.362736 55.615441 
L 271.448538 62.3261 
L 272.534339 61.896334 
L 273.62014 62.077178 
L 274.705941 60.131126 
L 275.791742 62.035288 
L 276.877543 59.566578 
L 279.049146 60.91888 
L 280.134947 62.860785 
L 281.220748 59.962143 
L 282.306549 58.882794 
L 283.39235 60.246225 
L 284.478151 58.661813 
L 285.563953 61.256022 
L 286.649754 58.795516 
L 287.735555 57.402032 
L 288.821356 60.087846 
L 289.907157 59.064339 
L 290.992958 59.097645 
L 292.07876 61.759314 
L 293.164561 61.704579 
L 294.250362 60.576619 
L 295.336163 56.873066 
L 296.421964 65.469686 
L 297.507765 62.447247 
L 298.593566 57.785581 
L 299.679368 56.634463 
L 300.765169 59.124661 
L 301.85097 59.758367 
L 302.936771 55.068909 
L 304.022572 58.904982 
L 305.108373 58.060412 
L 306.194175 64.591805 
L 307.279976 59.234142 
L 308.365777 58.990516 
L 309.451578 61.57303 
L 310.537379 60.193163 
L 311.62318 57.448235 
L 312.708981 69.557942 
L 313.794783 57.671329 
L 314.880584 65.985789 
L 315.966385 60.234554 
L 317.052186 61.878959 
L 318.137987 61.784797 
L 319.223788 57.801977 
L 320.30959 62.021837 
L 321.395391 58.789956 
L 322.481192 60.696344 
L 323.566993 55.743844 
L 324.652794 59.467348 
L 325.738595 61.286218 
L 326.824396 61.910723 
L 327.910198 60.300651 
L 328.995999 60.871465 
L 330.0818 62.307816 
L 331.167601 60.025169 
L 333.339203 57.005405 
L 334.425005 59.856255 
L 335.510806 56.717918 
L 336.596607 59.836224 
L 337.682408 58.968035 
L 338.768209 58.357167 
L 339.85401 58.919858 
L 340.939811 57.299014 
L 342.025613 57.54048 
L 344.197215 62.432985 
L 345.283016 57.667118 
L 346.368817 58.810208 
L 347.454618 60.244841 
L 348.54042 57.446515 
L 349.626221 56.821598 
L 350.712022 60.856653 
L 351.797823 60.319269 
L 352.883624 62.895593 
L 353.969425 60.894686 
L 355.055227 57.440812 
L 356.141028 56.567874 
L 357.226829 64.831913 
L 358.31263 62.778227 
L 359.398431 56.833506 
L 360.484232 63.951036 
L 361.570033 60.840848 
L 362.655835 60.735207 
L 363.741636 55.397566 
L 364.827437 56.921737 
L 365.913238 54.170232 
L 366.999039 58.542827 
L 368.08484 59.179334 
L 370.256443 57.549383 
L 371.342244 63.450796 
L 372.428045 59.728604 
L 373.513846 58.473859 
L 374.599647 59.471892 
L 375.685448 54.8949 
L 376.77125 59.034222 
L 377.857051 64.929346 
L 378.942852 59.565952 
L 380.028653 59.967317 
L 381.114454 56.428255 
L 382.200255 56.917558 
L 383.286057 57.090155 
L 384.371858 55.286734 
L 385.457659 59.604761 
L 386.54346 55.955918 
L 387.629261 59.048616 
L 388.715062 59.810407 
L 389.800863 59.422965 
L 390.886665 58.714848 
L 391.972466 62.151465 
L 393.058267 59.122625 
L 394.144068 63.249565 
L 395.229869 59.991393 
L 396.31567 58.53291 
L 397.401472 61.212134 
L 398.487273 57.843363 
L 398.487273 57.843363 
" style="fill:none;stroke:#008000;stroke-dasharray:9.6,2.4,1.5,2.4;stroke-dashoffset:0;stroke-width:1.5;"/>
   </g>
   <g id="line2d_28">
    <path clip-path="url(#p2ae9f3b265)" d="M 73.832727 90.082322 
L 74.918528 85.744052 
L 76.00433 85.580866 
L 77.090131 83.904514 
L 83.604938 83.857166 
L 84.690739 83.512964 
L 85.77654 81.550701 
L 86.862341 81.550701 
L 87.948142 80.3227 
L 89.033943 79.931901 
L 90.119745 75.516318 
L 91.205546 75.217287 
L 93.377148 75.217287 
L 94.462949 74.613337 
L 96.634552 74.613337 
L 97.720353 72.495854 
L 109.664165 72.428399 
L 110.749967 72.241241 
L 123.77958 72.211086 
L 124.865382 72.093394 
L 131.380189 72.093394 
L 132.46599 71.679648 
L 133.551791 70.733512 
L 170.46903 70.697559 
L 171.554831 69.961427 
L 175.898036 69.961427 
L 178.069638 69.504696 
L 293.164561 69.45798 
L 294.250362 68.951192 
L 380.028653 68.873903 
L 382.200255 68.762475 
L 398.487273 68.762475 
L 398.487273 68.762475 
" style="fill:none;stroke:#ff0000;stroke-linecap:square;stroke-width:1.5;"/>
   </g>
   <g id="patch_3">
    <path d="M 57.6 307.584 
L 57.6 41.472 
" style="fill:none;stroke:#000000;stroke-linecap:square;stroke-linejoin:miter;stroke-width:0.8;"/>
   </g>
   <g id="patch_4">
    <path d="M 414.72 307.584 
L 414.72 41.472 
" style="fill:none;stroke:#000000;stroke-linecap:square;stroke-linejoin:miter;stroke-width:0.8;"/>
   </g>
   <g id="patch_5">
    <path d="M 57.6 307.584 
L 414.72 307.584 
" style="fill:none;stroke:#000000;stroke-linecap:square;stroke-linejoin:miter;stroke-width:0.8;"/>
   </g>
   <g id="patch_6">
    <path d="M 57.6 41.472 
L 414.72 41.472 
" style="fill:none;stroke:#000000;stroke-linecap:square;stroke-linejoin:miter;stroke-width:0.8;"/>
   </g>
   <g id="text_15">
    <!-- Population's average and best fitness -->
    <g transform="translate(123.529687 35.472)scale(0.12 -0.12)">
     <defs>
      <path d="M 19.671875 64.796875 
L 19.671875 37.40625 
L 32.078125 37.40625 
Q 38.96875 37.40625 42.71875 40.96875 
Q 46.484375 44.53125 46.484375 51.125 
Q 46.484375 57.671875 42.71875 61.234375 
Q 38.96875 64.796875 32.078125 64.796875 
z
M 9.8125 72.90625 
L 32.078125 72.90625 
Q 44.34375 72.90625 50.609375 67.359375 
Q 56.890625 61.8125 56.890625 51.125 
Q 56.890625 40.328125 50.609375 34.8125 
Q 44.34375 29.296875 32.078125 29.296875 
L 19.671875 29.296875 
L 19.671875 0 
L 9.8125 0 
z
" id="DejaVuSans-80"/>
      <path d="M 18.109375 8.203125 
L 18.109375 -20.796875 
L 9.078125 -20.796875 
L 9.078125 54.6875 
L 18.109375 54.6875 
L 18.109375 46.390625 
Q 20.953125 51.265625 25.265625 53.625 
Q 29.59375 56 35.59375 56 
Q 45.5625 56 51.78125 48.09375 
Q 58.015625 40.1875 58.015625 27.296875 
Q 58.015625 14.40625 51.78125 6.484375 
Q 45.5625 -1.421875 35.59375 -1.421875 
Q 29.59375 -1.421875 25.265625 0.953125 
Q 20.953125 3.328125 18.109375 8.203125 
z
M 48.6875 27.296875 
Q 48.6875 37.203125 44.609375 42.84375 
Q 40.53125 48.484375 33.40625 48.484375 
Q 26.265625 48.484375 22.1875 42.84375 
Q 18.109375 37.203125 18.109375 27.296875 
Q 18.109375 17.390625 22.1875 11.75 
Q 26.265625 6.109375 33.40625 6.109375 
Q 40.53125 6.109375 44.609375 11.75 
Q 48.6875 17.390625 48.6875 27.296875 
z
" id="DejaVuSans-112"/>
      <path d="M 8.5 21.578125 
L 8.5 54.6875 
L 17.484375 54.6875 
L 17.484375 21.921875 
Q 17.484375 14.15625 20.5 10.265625 
Q 23.53125 6.390625 29.59375 6.390625 
Q 36.859375 6.390625 41.078125 11.03125 
Q 45.3125 15.671875 45.3125 23.6875 
L 45.3125 54.6875 
L 54.296875 54.6875 
L 54.296875 0 
L 45.3125 0 
L 45.3125 8.40625 
Q 42.046875 3.421875 37.71875 1 
Q 33.40625 -1.421875 27.6875 -1.421875 
Q 18.265625 -1.421875 13.375 4.4375 
Q 8.5 10.296875 8.5 21.578125 
z
M 31.109375 56 
z
" id="DejaVuSans-117"/>
      <path d="M 9.421875 75.984375 
L 18.40625 75.984375 
L 18.40625 0 
L 9.421875 0 
z
" id="DejaVuSans-108"/>
      <path d="M 17.921875 72.90625 
L 17.921875 45.796875 
L 9.625 45.796875 
L 9.625 72.90625 
z
" id="DejaVuSans-39"/>
      <path id="DejaVuSans-32"/>
      <path d="M 2.984375 54.6875 
L 12.5 54.6875 
L 29.59375 8.796875 
L 46.6875 54.6875 
L 56.203125 54.6875 
L 35.6875 0 
L 23.484375 0 
z
" id="DejaVuSans-118"/>
      <path d="M 45.40625 27.984375 
Q 45.40625 37.75 41.375 43.109375 
Q 37.359375 48.484375 30.078125 48.484375 
Q 22.859375 48.484375 18.828125 43.109375 
Q 14.796875 37.75 14.796875 27.984375 
Q 14.796875 18.265625 18.828125 12.890625 
Q 22.859375 7.515625 30.078125 7.515625 
Q 37.359375 7.515625 41.375 12.890625 
Q 45.40625 18.265625 45.40625 27.984375 
z
M 54.390625 6.78125 
Q 54.390625 -7.171875 48.1875 -13.984375 
Q 42 -20.796875 29.203125 -20.796875 
Q 24.46875 -20.796875 20.265625 -20.09375 
Q 16.0625 -19.390625 12.109375 -17.921875 
L 12.109375 -9.1875 
Q 16.0625 -11.328125 19.921875 -12.34375 
Q 23.78125 -13.375 27.78125 -13.375 
Q 36.625 -13.375 41.015625 -8.765625 
Q 45.40625 -4.15625 45.40625 5.171875 
L 45.40625 9.625 
Q 42.625 4.78125 38.28125 2.390625 
Q 33.9375 0 27.875 0 
Q 17.828125 0 11.671875 7.65625 
Q 5.515625 15.328125 5.515625 27.984375 
Q 5.515625 40.671875 11.671875 48.328125 
Q 17.828125 56 27.875 56 
Q 33.9375 56 38.28125 53.609375 
Q 42.625 51.21875 45.40625 46.390625 
L 45.40625 54.6875 
L 54.390625 54.6875 
z
" id="DejaVuSans-103"/>
      <path d="M 45.40625 46.390625 
L 45.40625 75.984375 
L 54.390625 75.984375 
L 54.390625 0 
L 45.40625 0 
L 45.40625 8.203125 
Q 42.578125 3.328125 38.25 0.953125 
Q 33.9375 -1.421875 27.875 -1.421875 
Q 17.96875 -1.421875 11.734375 6.484375 
Q 5.515625 14.40625 5.515625 27.296875 
Q 5.515625 40.1875 11.734375 48.09375 
Q 17.96875 56 27.875 56 
Q 33.9375 56 38.25 53.625 
Q 42.578125 51.265625 45.40625 46.390625 
z
M 14.796875 27.296875 
Q 14.796875 17.390625 18.875 11.75 
Q 22.953125 6.109375 30.078125 6.109375 
Q 37.203125 6.109375 41.296875 11.75 
Q 45.40625 17.390625 45.40625 27.296875 
Q 45.40625 37.203125 41.296875 42.84375 
Q 37.203125 48.484375 30.078125 48.484375 
Q 22.953125 48.484375 18.875 42.84375 
Q 14.796875 37.203125 14.796875 27.296875 
z
" id="DejaVuSans-100"/>
      <path d="M 48.6875 27.296875 
Q 48.6875 37.203125 44.609375 42.84375 
Q 40.53125 48.484375 33.40625 48.484375 
Q 26.265625 48.484375 22.1875 42.84375 
Q 18.109375 37.203125 18.109375 27.296875 
Q 18.109375 17.390625 22.1875 11.75 
Q 26.265625 6.109375 33.40625 6.109375 
Q 40.53125 6.109375 44.609375 11.75 
Q 48.6875 17.390625 48.6875 27.296875 
z
M 18.109375 46.390625 
Q 20.953125 51.265625 25.265625 53.625 
Q 29.59375 56 35.59375 56 
Q 45.5625 56 51.78125 48.09375 
Q 58.015625 40.1875 58.015625 27.296875 
Q 58.015625 14.40625 51.78125 6.484375 
Q 45.5625 -1.421875 35.59375 -1.421875 
Q 29.59375 -1.421875 25.265625 0.953125 
Q 20.953125 3.328125 18.109375 8.203125 
L 18.109375 0 
L 9.078125 0 
L 9.078125 75.984375 
L 18.109375 75.984375 
z
" id="DejaVuSans-98"/>
      <path d="M 37.109375 75.984375 
L 37.109375 68.5 
L 28.515625 68.5 
Q 23.6875 68.5 21.796875 66.546875 
Q 19.921875 64.59375 19.921875 59.515625 
L 19.921875 54.6875 
L 34.71875 54.6875 
L 34.71875 47.703125 
L 19.921875 47.703125 
L 19.921875 0 
L 10.890625 0 
L 10.890625 47.703125 
L 2.296875 47.703125 
L 2.296875 54.6875 
L 10.890625 54.6875 
L 10.890625 58.5 
Q 10.890625 67.625 15.140625 71.796875 
Q 19.390625 75.984375 28.609375 75.984375 
z
" id="DejaVuSans-102"/>
     </defs>
     <use xlink:href="#DejaVuSans-80"/>
     <use x="56.677734" xlink:href="#DejaVuSans-111"/>
     <use x="117.859375" xlink:href="#DejaVuSans-112"/>
     <use x="181.335938" xlink:href="#DejaVuSans-117"/>
     <use x="244.714844" xlink:href="#DejaVuSans-108"/>
     <use x="272.498047" xlink:href="#DejaVuSans-97"/>
     <use x="333.777344" xlink:href="#DejaVuSans-116"/>
     <use x="372.986328" xlink:href="#DejaVuSans-105"/>
     <use x="400.769531" xlink:href="#DejaVuSans-111"/>
     <use x="461.951172" xlink:href="#DejaVuSans-110"/>
     <use x="525.330078" xlink:href="#DejaVuSans-39"/>
     <use x="552.820312" xlink:href="#DejaVuSans-115"/>
     <use x="604.919922" xlink:href="#DejaVuSans-32"/>
     <use x="636.707031" xlink:href="#DejaVuSans-97"/>
     <use x="697.986328" xlink:href="#DejaVuSans-118"/>
     <use x="757.166016" xlink:href="#DejaVuSans-101"/>
     <use x="818.689453" xlink:href="#DejaVuSans-114"/>
     <use x="859.802734" xlink:href="#DejaVuSans-97"/>
     <use x="921.082031" xlink:href="#DejaVuSans-103"/>
     <use x="984.558594" xlink:href="#DejaVuSans-101"/>
     <use x="1046.082031" xlink:href="#DejaVuSans-32"/>
     <use x="1077.869141" xlink:href="#DejaVuSans-97"/>
     <use x="1139.148438" xlink:href="#DejaVuSans-110"/>
     <use x="1202.527344" xlink:href="#DejaVuSans-100"/>
     <use x="1266.003906" xlink:href="#DejaVuSans-32"/>
     <use x="1297.791016" xlink:href="#DejaVuSans-98"/>
     <use x="1361.267578" xlink:href="#DejaVuSans-101"/>
     <use x="1422.791016" xlink:href="#DejaVuSans-115"/>
     <use x="1474.890625" xlink:href="#DejaVuSans-116"/>
     <use x="1514.099609" xlink:href="#DejaVuSans-32"/>
     <use x="1545.886719" xlink:href="#DejaVuSans-102"/>
     <use x="1581.091797" xlink:href="#DejaVuSans-105"/>
     <use x="1608.875" xlink:href="#DejaVuSans-116"/>
     <use x="1648.083984" xlink:href="#DejaVuSans-110"/>
     <use x="1711.462891" xlink:href="#DejaVuSans-101"/>
     <use x="1772.986328" xlink:href="#DejaVuSans-115"/>
     <use x="1825.085938" xlink:href="#DejaVuSans-115"/>
    </g>
   </g>
   <g id="legend_1">
    <g id="patch_7">
     <path d="M 334.779375 302.584 
L 407.72 302.584 
Q 409.72 302.584 409.72 300.584 
L 409.72 242.8715 
Q 409.72 240.8715 407.72 240.8715 
L 334.779375 240.8715 
Q 332.779375 240.8715 332.779375 242.8715 
L 332.779375 300.584 
Q 332.779375 302.584 334.779375 302.584 
z
" style="fill:#ffffff;opacity:0.8;stroke:#cccccc;stroke-linejoin:miter;"/>
    </g>
    <g id="line2d_29">
     <path d="M 336.779375 248.969937 
L 356.779375 248.969937 
" style="fill:none;stroke:#0000ff;stroke-linecap:square;stroke-width:1.5;"/>
    </g>
    <g id="line2d_30"/>
    <g id="text_16">
     <!-- average -->
     <g transform="translate(364.779375 252.469937)scale(0.1 -0.1)">
      <use xlink:href="#DejaVuSans-97"/>
      <use x="61.279297" xlink:href="#DejaVuSans-118"/>
      <use x="120.458984" xlink:href="#DejaVuSans-101"/>
      <use x="181.982422" xlink:href="#DejaVuSans-114"/>
      <use x="223.095703" xlink:href="#DejaVuSans-97"/>
      <use x="284.375" xlink:href="#DejaVuSans-103"/>
      <use x="347.851562" xlink:href="#DejaVuSans-101"/>
     </g>
    </g>
    <g id="line2d_31">
     <path d="M 336.779375 263.648062 
L 356.779375 263.648062 
" style="fill:none;stroke:#008000;stroke-dasharray:9.6,2.4,1.5,2.4;stroke-dashoffset:0;stroke-width:1.5;"/>
    </g>
    <g id="line2d_32"/>
    <g id="text_17">
     <!-- -1 sd -->
     <g transform="translate(364.779375 267.148062)scale(0.1 -0.1)">
      <defs>
       <path d="M 4.890625 31.390625 
L 31.203125 31.390625 
L 31.203125 23.390625 
L 4.890625 23.390625 
z
" id="DejaVuSans-45"/>
      </defs>
      <use xlink:href="#DejaVuSans-45"/>
      <use x="36.083984" xlink:href="#DejaVuSans-49"/>
      <use x="99.707031" xlink:href="#DejaVuSans-32"/>
      <use x="131.494141" xlink:href="#DejaVuSans-115"/>
      <use x="183.59375" xlink:href="#DejaVuSans-100"/>
     </g>
    </g>
    <g id="line2d_33">
     <path d="M 336.779375 278.326187 
L 356.779375 278.326187 
" style="fill:none;stroke:#008000;stroke-dasharray:9.6,2.4,1.5,2.4;stroke-dashoffset:0;stroke-width:1.5;"/>
    </g>
    <g id="line2d_34"/>
    <g id="text_18">
     <!-- +1 sd -->
     <g transform="translate(364.779375 281.826187)scale(0.1 -0.1)">
      <defs>
       <path d="M 46 62.703125 
L 46 35.5 
L 73.1875 35.5 
L 73.1875 27.203125 
L 46 27.203125 
L 46 0 
L 37.796875 0 
L 37.796875 27.203125 
L 10.59375 27.203125 
L 10.59375 35.5 
L 37.796875 35.5 
L 37.796875 62.703125 
z
" id="DejaVuSans-43"/>
      </defs>
      <use xlink:href="#DejaVuSans-43"/>
      <use x="83.789062" xlink:href="#DejaVuSans-49"/>
      <use x="147.412109" xlink:href="#DejaVuSans-32"/>
      <use x="179.199219" xlink:href="#DejaVuSans-115"/>
      <use x="231.298828" xlink:href="#DejaVuSans-100"/>
     </g>
    </g>
    <g id="line2d_35">
     <path d="M 336.779375 293.004312 
L 356.779375 293.004312 
" style="fill:none;stroke:#ff0000;stroke-linecap:square;stroke-width:1.5;"/>
    </g>
    <g id="line2d_36"/>
    <g id="text_19">
     <!-- best -->
     <g transform="translate(364.779375 296.504312)scale(0.1 -0.1)">
      <use xlink:href="#DejaVuSans-98"/>
      <use x="63.476562" xlink:href="#DejaVuSans-101"/>
      <use x="125" xlink:href="#DejaVuSans-115"/>
      <use x="177.099609" xlink:href="#DejaVuSans-116"/>
     </g>
    </g>
   </g>
  </g>
 </g>
 <defs>
  <clipPath id="p2ae9f3b265">
   <rect height="266.112" width="357.12" x="57.6" y="41.472"/>
  </clipPath>
 </defs>
</svg>
