<?xml version="1.0" encoding="UTF-8" standalone="no"?>
<!DOCTYPE svg PUBLIC "-//W3C//DTD SVG 1.1//EN"
 "http://www.w3.org/Graphics/SVG/1.1/DTD/svg11.dtd">
<!-- Generated by graphviz version 2.46.1 (0)
 -->
<!-- Pages: 1 -->
<svg width="230pt" height="282pt"
 viewBox="0.00 0.00 229.75 282.49" xmlns="http://www.w3.org/2000/svg" xmlns:xlink="http://www.w3.org/1999/xlink">
<g id="graph0" class="graph" transform="scale(1 1) rotate(0) translate(4 278.49)">
<polygon fill="white" stroke="transparent" points="-4,4 -4,-278.49 225.75,-278.49 225.75,4 -4,4"/>
<!-- &#45;1 -->
<g id="node1" class="node">
<title>&#45;1</title>
<polygon fill="lightgray" stroke="black" points="24,-274.49 0,-274.49 0,-256.49 24,-256.49 24,-274.49"/>
<text text-anchor="middle" x="12" y="-263.29" font-family="Times,serif" font-size="9.00">&#45;1</text>
</g>
<!-- 307 -->
<g id="node8" class="node">
<title>307</title>
<ellipse fill="white" stroke="black" cx="52" cy="-195.74" rx="21.43" ry="21.43"/>
<text text-anchor="middle" x="52" y="-193.54" font-family="Times,serif" font-size="9.00">307</text>
</g>
<!-- &#45;1&#45;&gt;307 -->
<g id="edge2" class="edge">
<title>&#45;1&#45;&gt;307</title>
<path fill="none" stroke="green" stroke-width="1.16" d="M16.75,-256.45C21.59,-248.24 29.39,-235.04 36.41,-223.14"/>
<polygon fill="green" stroke="green" stroke-width="1.16" points="39.51,-224.79 41.58,-214.4 33.48,-221.23 39.51,-224.79"/>
</g>
<!-- &#45;2 -->
<g id="node2" class="node">
<title>&#45;2</title>
<polygon fill="lightgray" stroke="black" points="111,-274.49 87,-274.49 87,-256.49 111,-256.49 111,-274.49"/>
<text text-anchor="middle" x="99" y="-263.29" font-family="Times,serif" font-size="9.00">&#45;2</text>
</g>
<!-- 0 -->
<g id="node6" class="node">
<title>0</title>
<ellipse fill="lightblue" stroke="black" cx="100" cy="-110.25" rx="14.7" ry="14.7"/>
<text text-anchor="middle" x="100" y="-108.05" font-family="Times,serif" font-size="9.00">0</text>
</g>
<!-- &#45;2&#45;&gt;0 -->
<g id="edge1" class="edge">
<title>&#45;2&#45;&gt;0</title>
<path fill="none" stroke="green" stroke-width="1.3" d="M99.05,-256.25C99.2,-233.81 99.61,-170.95 99.84,-135.81"/>
<polygon fill="green" stroke="green" stroke-width="1.3" points="103.34,-135.48 99.91,-125.46 96.34,-135.43 103.34,-135.48"/>
</g>
<!-- &#45;2&#45;&gt;307 -->
<g id="edge5" class="edge">
<title>&#45;2&#45;&gt;307</title>
<path fill="none" stroke="green" stroke-width="0.36" d="M93.42,-256.45C87.55,-247.99 78.01,-234.24 69.56,-222.06"/>
<polygon fill="green" stroke="green" stroke-width="0.36" points="72.25,-219.79 63.67,-213.57 66.5,-223.78 72.25,-219.79"/>
</g>
<!-- &#45;3 -->
<g id="node3" class="node">
<title>&#45;3</title>
<polygon fill="lightgray" stroke="black" points="153,-274.49 129,-274.49 129,-256.49 153,-256.49 153,-274.49"/>
<text text-anchor="middle" x="141" y="-263.29" font-family="Times,serif" font-size="9.00">&#45;3</text>
</g>
<!-- &#45;4 -->
<g id="node4" class="node">
<title>&#45;4</title>
<polygon fill="lightgray" stroke="black" points="66,-274.49 42,-274.49 42,-256.49 66,-256.49 66,-274.49"/>
<text text-anchor="middle" x="54" y="-263.29" font-family="Times,serif" font-size="9.00">&#45;4</text>
</g>
<!-- &#45;4&#45;&gt;307 -->
<g id="edge9" class="edge">
<title>&#45;4&#45;&gt;307</title>
<path fill="none" stroke="green" stroke-width="0.34" d="M53.76,-256.45C53.55,-249.18 53.22,-237.98 52.9,-227.24"/>
<polygon fill="green" stroke="green" stroke-width="0.34" points="56.4,-227.12 52.6,-217.23 49.4,-227.33 56.4,-227.12"/>
</g>
<!-- &#45;5 -->
<g id="node5" class="node">
<title>&#45;5</title>
<polygon fill="lightgray" stroke="black" points="154,-204.74 130,-204.74 130,-186.74 154,-186.74 154,-204.74"/>
<text text-anchor="middle" x="142" y="-193.54" font-family="Times,serif" font-size="9.00">&#45;5</text>
</g>
<!-- &#45;5&#45;&gt;0 -->
<g id="edge4" class="edge">
<title>&#45;5&#45;&gt;0</title>
<path fill="none" stroke="green" stroke-width="0.96" d="M137.97,-186.74C131.81,-174.48 119.81,-150.62 110.94,-132.99"/>
<polygon fill="green" stroke="green" stroke-width="0.96" points="114.01,-131.31 106.39,-123.95 107.76,-134.46 114.01,-131.31"/>
</g>
<!-- 2546 -->
<g id="node7" class="node">
<title>2546</title>
<ellipse fill="white" stroke="black" cx="169" cy="-24.75" rx="25" ry="25"/>
<text text-anchor="middle" x="169" y="-22.55" font-family="Times,serif" font-size="9.00">2546</text>
</g>
<!-- &#45;5&#45;&gt;2546 -->
<g id="edge6" class="edge">
<title>&#45;5&#45;&gt;2546</title>
<path fill="none" stroke="red" stroke-width="0.46" d="M143.3,-186.59C146.92,-163.97 157.23,-99.43 163.64,-59.31"/>
<polygon fill="red" stroke="red" stroke-width="0.46" points="167.09,-59.87 165.22,-49.44 160.18,-58.76 167.09,-59.87"/>
</g>
<!-- 5759 -->
<g id="node10" class="node">
<title>5759</title>
<ellipse fill="white" stroke="black" cx="196" cy="-110.25" rx="25" ry="25"/>
<text text-anchor="middle" x="196" y="-108.05" font-family="Times,serif" font-size="9.00">5759</text>
</g>
<!-- &#45;5&#45;&gt;5759 -->
<g id="edge7" class="edge">
<title>&#45;5&#45;&gt;5759</title>
<path fill="none" stroke="red" stroke-width="0.61" d="M147.18,-186.74C154.04,-176.13 166.51,-156.84 177.13,-140.42"/>
<polygon fill="red" stroke="red" stroke-width="0.61" points="180.3,-141.96 182.8,-131.66 174.43,-138.16 180.3,-141.96"/>
</g>
<!-- 307&#45;&gt;0 -->
<g id="edge3" class="edge">
<title>307&#45;&gt;0</title>
<path fill="none" stroke="green" stroke-width="1.69" d="M62.18,-177.04C69.69,-163.97 79.95,-146.13 87.88,-132.33"/>
<polygon fill="green" stroke="green" stroke-width="1.69" points="90.99,-133.94 92.94,-123.52 84.92,-130.45 90.99,-133.94"/>
</g>
<!-- 7444 -->
<g id="node9" class="node">
<title>7444</title>
<ellipse fill="white" stroke="black" cx="197" cy="-195.74" rx="25" ry="25"/>
<text text-anchor="middle" x="197" y="-193.54" font-family="Times,serif" font-size="9.00">7444</text>
</g>
<!-- 7444&#45;&gt;5759 -->
<g id="edge10" class="edge">
<title>7444&#45;&gt;5759</title>
<path fill="none" stroke="green" stroke-width="0.18" d="M196.71,-170.59C196.62,-162.65 196.51,-153.66 196.41,-145.13"/>
<polygon fill="green" stroke="green" stroke-width="0.18" points="199.9,-145.01 196.29,-135.05 192.91,-145.1 199.9,-145.01"/>
</g>
<!-- 5759&#45;&gt;2546 -->
<g id="edge8" class="edge">
<title>5759&#45;&gt;2546</title>
<path fill="none" stroke="green" stroke-width="0.48" d="M188.62,-86.43C185.79,-77.69 182.51,-67.54 179.45,-58.07"/>
<polygon fill="green" stroke="green" stroke-width="0.48" points="182.78,-56.98 176.37,-48.54 176.12,-59.13 182.78,-56.98"/>
</g>
</g>
</svg>
